<svg xmlns="http://www.w3.org/2000/svg" xmlns:xlink="http://www.w3.org/1999/xlink" width="1080" zoomAndPan="magnify" viewBox="0 0 810 809.999993" height="1080" preserveAspectRatio="xMidYMid meet" version="1.0"><defs><clipPath id="604584a4d1"><path d="M 218.808594 155.082031 L 591.558594 155.082031 L 591.558594 654.578125 L 218.808594 654.578125 Z M 218.808594 155.082031 " clip-rule="nonzero"/></clipPath><clipPath id="403c81c6a2"><path d="M 257.832031 192.574219 L 551.832031 192.574219 L 551.832031 486.574219 L 257.832031 486.574219 Z M 257.832031 192.574219 " clip-rule="nonzero"/></clipPath><clipPath id="e77b025599"><path d="M 482 361 L 516 361 L 516 394.898438 L 482 394.898438 Z M 482 361 " clip-rule="nonzero"/></clipPath><clipPath id="b40c44e482"><path d="M 481 360 L 517 360 L 517 394.898438 L 481 394.898438 Z M 481 360 " clip-rule="nonzero"/></clipPath><clipPath id="f1e3b7bfd6"><path d="M 294 361 L 328 361 L 328 394.898438 L 294 394.898438 Z M 294 361 " clip-rule="nonzero"/></clipPath><clipPath id="766a75050c"><path d="M 293 360 L 329 360 L 329 394.898438 L 293 394.898438 Z M 293 360 " clip-rule="nonzero"/></clipPath><clipPath id="8547b71050"><path d="M 310 374 L 328 374 L 328 394.898438 L 310 394.898438 Z M 310 374 " clip-rule="nonzero"/></clipPath><clipPath id="df606fe20a"><path d="M 310 373 L 329 373 L 329 394.898438 L 310 394.898438 Z M 310 373 " clip-rule="nonzero"/></clipPath><clipPath id="a33f2e2d89"><path d="M 482 374 L 500 374 L 500 394.898438 L 482 394.898438 Z M 482 374 " clip-rule="nonzero"/></clipPath><clipPath id="6cceeb0071"><path d="M 481 373 L 500 373 L 500 394.898438 L 481 394.898438 Z M 481 373 " clip-rule="nonzero"/></clipPath><clipPath id="07a0d8428a"><path d="M 264 250 L 406 250 L 406 307 L 264 307 Z M 264 250 " clip-rule="nonzero"/></clipPath><clipPath id="d9d65d9c2e"><path d="M 264.589844 304.941406 L 405.246094 250.703125 L 417.386719 282.191406 L 276.734375 336.429688 Z M 264.589844 304.941406 " clip-rule="nonzero"/></clipPath><clipPath id="91cd7c1d85"><path d="M 264.589844 304.941406 L 405.246094 250.703125 L 417.386719 282.191406 L 276.734375 336.429688 Z M 264.589844 304.941406 " clip-rule="nonzero"/></clipPath><clipPath id="8edb1168fd"><path d="M 298 295 L 323 295 L 323 320 L 298 320 Z M 298 295 " clip-rule="nonzero"/></clipPath><clipPath id="49a3e902f1"><path d="M 264.589844 304.941406 L 405.246094 250.703125 L 417.386719 282.191406 L 276.734375 336.429688 Z M 264.589844 304.941406 " clip-rule="nonzero"/></clipPath><clipPath id="56fb0ff29a"><path d="M 264.589844 304.941406 L 405.246094 250.703125 L 417.386719 282.191406 L 276.734375 336.429688 Z M 264.589844 304.941406 " clip-rule="nonzero"/></clipPath><clipPath id="2ec60309d1"><path d="M 356 270 L 379 270 L 379 297 L 356 297 Z M 356 270 " clip-rule="nonzero"/></clipPath><clipPath id="407015de5d"><path d="M 264.589844 304.941406 L 405.246094 250.703125 L 417.386719 282.191406 L 276.734375 336.429688 Z M 264.589844 304.941406 " clip-rule="nonzero"/></clipPath><clipPath id="d964783761"><path d="M 264.589844 304.941406 L 405.246094 250.703125 L 417.386719 282.191406 L 276.734375 336.429688 Z M 264.589844 304.941406 " clip-rule="nonzero"/></clipPath><clipPath id="4c36dc86e5"><path d="M 269 302 L 294 302 L 294 326 L 269 326 Z M 269 302 " clip-rule="nonzero"/></clipPath><clipPath id="1df322cc21"><path d="M 264.589844 304.941406 L 405.246094 250.703125 L 417.386719 282.191406 L 276.734375 336.429688 Z M 264.589844 304.941406 " clip-rule="nonzero"/></clipPath><clipPath id="24d23137d4"><path d="M 264.589844 304.941406 L 405.246094 250.703125 L 417.386719 282.191406 L 276.734375 336.429688 Z M 264.589844 304.941406 " clip-rule="nonzero"/></clipPath><clipPath id="284599e179"><path d="M 383 253 L 407 253 L 407 279 L 383 279 Z M 383 253 " clip-rule="nonzero"/></clipPath><clipPath id="d196bf94bc"><path d="M 264.589844 304.941406 L 405.246094 250.703125 L 417.386719 282.191406 L 276.734375 336.429688 Z M 264.589844 304.941406 " clip-rule="nonzero"/></clipPath><clipPath id="6e8053bd95"><path d="M 264.589844 304.941406 L 405.246094 250.703125 L 417.386719 282.191406 L 276.734375 336.429688 Z M 264.589844 304.941406 " clip-rule="nonzero"/></clipPath><clipPath id="6544f24c84"><path d="M 327 284 L 351 284 L 351 310 L 327 310 Z M 327 284 " clip-rule="nonzero"/></clipPath><clipPath id="a06d73f4e2"><path d="M 264.589844 304.941406 L 405.246094 250.703125 L 417.386719 282.191406 L 276.734375 336.429688 Z M 264.589844 304.941406 " clip-rule="nonzero"/></clipPath><clipPath id="d89d4404a1"><path d="M 264.589844 304.941406 L 405.246094 250.703125 L 417.386719 282.191406 L 276.734375 336.429688 Z M 264.589844 304.941406 " clip-rule="nonzero"/></clipPath><clipPath id="b6c0afb4c4"><path d="M 404 250 L 546 250 L 546 306 L 404 306 Z M 404 250 " clip-rule="nonzero"/></clipPath><clipPath id="75c00d900d"><path d="M 405.046875 250.679688 L 546.171875 303.683594 L 534.304688 335.277344 L 393.179688 282.277344 Z M 405.046875 250.679688 " clip-rule="nonzero"/></clipPath><clipPath id="75f9c77cc7"><path d="M 405.046875 250.679688 L 546.171875 303.683594 L 534.304688 335.277344 L 393.179688 282.277344 Z M 405.046875 250.679688 " clip-rule="nonzero"/></clipPath><clipPath id="3fcfe7ac78"><path d="M 432 271 L 455 271 L 455 297 L 432 297 Z M 432 271 " clip-rule="nonzero"/></clipPath><clipPath id="a5ef734efb"><path d="M 405.046875 250.679688 L 546.171875 303.683594 L 534.304688 335.277344 L 393.179688 282.277344 Z M 405.046875 250.679688 " clip-rule="nonzero"/></clipPath><clipPath id="74f21e7afc"><path d="M 405.046875 250.679688 L 546.171875 303.683594 L 534.304688 335.277344 L 393.179688 282.277344 Z M 405.046875 250.679688 " clip-rule="nonzero"/></clipPath><clipPath id="65acfa0bd8"><path d="M 489 294 L 513 294 L 513 319 L 489 319 Z M 489 294 " clip-rule="nonzero"/></clipPath><clipPath id="3f93c8a057"><path d="M 405.046875 250.679688 L 546.171875 303.683594 L 534.304688 335.277344 L 393.179688 282.277344 Z M 405.046875 250.679688 " clip-rule="nonzero"/></clipPath><clipPath id="69f7c25f9a"><path d="M 405.046875 250.679688 L 546.171875 303.683594 L 534.304688 335.277344 L 393.179688 282.277344 Z M 405.046875 250.679688 " clip-rule="nonzero"/></clipPath><clipPath id="266d4d9ba4"><path d="M 405 253 L 429 253 L 429 279 L 405 279 Z M 405 253 " clip-rule="nonzero"/></clipPath><clipPath id="0a359dc899"><path d="M 405.046875 250.679688 L 546.171875 303.683594 L 534.304688 335.277344 L 393.179688 282.277344 Z M 405.046875 250.679688 " clip-rule="nonzero"/></clipPath><clipPath id="7e247eb268"><path d="M 405.046875 250.679688 L 546.171875 303.683594 L 534.304688 335.277344 L 393.179688 282.277344 Z M 405.046875 250.679688 " clip-rule="nonzero"/></clipPath><clipPath id="fdbf7f0daf"><path d="M 518 301 L 543 301 L 543 326 L 518 326 Z M 518 301 " clip-rule="nonzero"/></clipPath><clipPath id="93d95065ed"><path d="M 405.046875 250.679688 L 546.171875 303.683594 L 534.304688 335.277344 L 393.179688 282.277344 Z M 405.046875 250.679688 " clip-rule="nonzero"/></clipPath><clipPath id="54f8a6034d"><path d="M 405.046875 250.679688 L 546.171875 303.683594 L 534.304688 335.277344 L 393.179688 282.277344 Z M 405.046875 250.679688 " clip-rule="nonzero"/></clipPath><clipPath id="c76049fbf9"><path d="M 460 283 L 483 283 L 483 309 L 460 309 Z M 460 283 " clip-rule="nonzero"/></clipPath><clipPath id="ccf18609f1"><path d="M 405.046875 250.679688 L 546.171875 303.683594 L 534.304688 335.277344 L 393.179688 282.277344 Z M 405.046875 250.679688 " clip-rule="nonzero"/></clipPath><clipPath id="8ab4fc3f4f"><path d="M 405.046875 250.679688 L 546.171875 303.683594 L 534.304688 335.277344 L 393.179688 282.277344 Z M 405.046875 250.679688 " clip-rule="nonzero"/></clipPath></defs><g clip-path="url(#604584a4d1)"><path fill="#da2c27" d="M 404.996094 428.3125 C 350.960938 428.3125 307.160156 384.511719 307.160156 330.476562 C 307.160156 276.445312 350.960938 232.636719 404.996094 232.636719 C 459.035156 232.636719 502.835938 276.445312 502.835938 330.476562 C 502.835938 384.511719 459.035156 428.3125 404.996094 428.3125 Z M 404.996094 155.003906 C 302.214844 155.003906 218.890625 238.328125 218.890625 341.109375 C 218.890625 479.359375 404.996094 654.832031 404.996094 654.832031 C 404.996094 654.832031 591.101562 479.359375 591.101562 341.109375 C 591.101562 238.328125 507.78125 155.003906 404.996094 155.003906 " fill-opacity="1" fill-rule="nonzero"/></g><g clip-path="url(#403c81c6a2)"><path fill="#ffffff" d="M 552.160156 339.738281 C 552.160156 342.144531 552.101562 344.550781 551.984375 346.957031 C 551.867188 349.363281 551.6875 351.765625 551.453125 354.160156 C 551.21875 356.558594 550.921875 358.949219 550.570312 361.332031 C 550.214844 363.710938 549.804688 366.085938 549.335938 368.445312 C 548.863281 370.808594 548.335938 373.160156 547.75 375.496094 C 547.167969 377.832031 546.523438 380.152344 545.824219 382.457031 C 545.125 384.761719 544.371094 387.046875 543.558594 389.316406 C 542.746094 391.582031 541.882812 393.828125 540.960938 396.054688 C 540.039062 398.277344 539.0625 400.480469 538.03125 402.65625 C 537.003906 404.835938 535.921875 406.984375 534.785156 409.109375 C 533.648438 411.234375 532.464844 413.328125 531.226562 415.394531 C 529.988281 417.460938 528.699219 419.496094 527.359375 421.496094 C 526.023438 423.5 524.636719 425.46875 523.199219 427.402344 C 521.765625 429.335938 520.285156 431.234375 518.757812 433.097656 C 517.230469 434.957031 515.65625 436.78125 514.039062 438.566406 C 512.421875 440.351562 510.761719 442.09375 509.058594 443.796875 C 507.355469 445.5 505.613281 447.160156 503.828125 448.777344 C 502.042969 450.394531 500.21875 451.96875 498.359375 453.496094 C 496.496094 455.023438 494.597656 456.503906 492.664062 457.941406 C 490.730469 459.375 488.761719 460.761719 486.757812 462.097656 C 484.753906 463.4375 482.722656 464.726562 480.65625 465.964844 C 478.589844 467.203125 476.496094 468.386719 474.371094 469.523438 C 472.246094 470.660156 470.097656 471.742188 467.917969 472.773438 C 465.742188 473.800781 463.539062 474.777344 461.316406 475.699219 C 459.089844 476.621094 456.84375 477.488281 454.574219 478.296875 C 452.308594 479.109375 450.023438 479.863281 447.71875 480.5625 C 445.414062 481.261719 443.09375 481.90625 440.753906 482.492188 C 438.417969 483.074219 436.070312 483.601562 433.707031 484.074219 C 431.347656 484.542969 428.972656 484.953125 426.589844 485.308594 C 424.207031 485.660156 421.820312 485.957031 419.421875 486.191406 C 417.027344 486.429688 414.625 486.605469 412.21875 486.722656 C 409.8125 486.84375 407.40625 486.902344 404.996094 486.902344 C 402.589844 486.902344 400.183594 486.84375 397.777344 486.722656 C 395.371094 486.605469 392.96875 486.429688 390.574219 486.191406 C 388.175781 485.957031 385.785156 485.660156 383.40625 485.308594 C 381.023438 484.953125 378.648438 484.542969 376.289062 484.074219 C 373.925781 483.601562 371.578125 483.074219 369.238281 482.492188 C 366.902344 481.90625 364.582031 481.261719 362.277344 480.5625 C 359.972656 479.863281 357.6875 479.109375 355.417969 478.296875 C 353.152344 477.488281 350.90625 476.621094 348.679688 475.699219 C 346.457031 474.777344 344.253906 473.800781 342.078125 472.773438 C 339.898438 471.742188 337.75 470.660156 335.625 469.523438 C 333.5 468.386719 331.40625 467.203125 329.339844 465.964844 C 327.273438 464.726562 325.242188 463.4375 323.238281 462.097656 C 321.234375 460.761719 319.265625 459.375 317.332031 457.941406 C 315.398438 456.503906 313.5 455.023438 311.636719 453.496094 C 309.777344 451.96875 307.953125 450.394531 306.167969 448.777344 C 304.382812 447.160156 302.640625 445.5 300.9375 443.796875 C 299.234375 442.09375 297.574219 440.351562 295.957031 438.566406 C 294.339844 436.78125 292.765625 434.957031 291.238281 433.097656 C 289.710938 431.234375 288.230469 429.335938 286.792969 427.402344 C 285.359375 425.46875 283.972656 423.5 282.636719 421.496094 C 281.296875 419.496094 280.007812 417.460938 278.769531 415.394531 C 277.53125 413.328125 276.347656 411.234375 275.210938 409.109375 C 274.074219 406.984375 272.992188 404.835938 271.964844 402.65625 C 270.933594 400.480469 269.957031 398.277344 269.035156 396.054688 C 268.113281 393.828125 267.246094 391.582031 266.4375 389.316406 C 265.625 387.046875 264.871094 384.761719 264.171875 382.457031 C 263.472656 380.152344 262.828125 377.832031 262.246094 375.496094 C 261.660156 373.160156 261.132812 370.808594 260.660156 368.445312 C 260.191406 366.085938 259.78125 363.710938 259.425781 361.332031 C 259.074219 358.949219 258.777344 356.558594 258.542969 354.160156 C 258.304688 351.765625 258.128906 349.363281 258.011719 346.957031 C 257.894531 344.550781 257.832031 342.144531 257.832031 339.738281 C 257.832031 337.328125 257.894531 334.921875 258.011719 332.515625 C 258.128906 330.109375 258.304688 327.710938 258.542969 325.3125 C 258.777344 322.914062 259.074219 320.527344 259.425781 318.144531 C 259.78125 315.761719 260.191406 313.390625 260.660156 311.027344 C 261.132812 308.664062 261.660156 306.316406 262.246094 303.980469 C 262.828125 301.644531 263.472656 299.320312 264.171875 297.015625 C 264.871094 294.710938 265.625 292.425781 266.4375 290.160156 C 267.246094 287.890625 268.113281 285.644531 269.035156 283.417969 C 269.957031 281.195312 270.933594 278.992188 271.964844 276.816406 C 272.992188 274.640625 274.074219 272.488281 275.210938 270.363281 C 276.347656 268.238281 277.53125 266.144531 278.769531 264.078125 C 280.007812 262.011719 281.296875 259.980469 282.636719 257.976562 C 283.972656 255.972656 285.359375 254.003906 286.792969 252.070312 C 288.230469 250.136719 289.710938 248.238281 291.238281 246.378906 C 292.765625 244.515625 294.339844 242.691406 295.957031 240.90625 C 297.574219 239.121094 299.234375 237.378906 300.9375 235.675781 C 302.640625 233.972656 304.382812 232.3125 306.167969 230.695312 C 307.953125 229.078125 309.777344 227.503906 311.636719 225.976562 C 313.5 224.449219 315.398438 222.96875 317.332031 221.535156 C 319.265625 220.097656 321.234375 218.710938 323.238281 217.375 C 325.242188 216.035156 327.273438 214.75 329.339844 213.511719 C 331.40625 212.273438 333.5 211.085938 335.625 209.949219 C 337.75 208.8125 339.898438 207.730469 342.078125 206.703125 C 344.253906 205.671875 346.457031 204.695312 348.679688 203.773438 C 350.90625 202.851562 353.152344 201.988281 355.417969 201.175781 C 357.6875 200.363281 359.972656 199.609375 362.277344 198.910156 C 364.582031 198.210938 366.902344 197.566406 369.238281 196.984375 C 371.578125 196.398438 373.925781 195.871094 376.289062 195.402344 C 378.648438 194.929688 381.023438 194.519531 383.40625 194.164062 C 385.785156 193.8125 388.175781 193.515625 390.574219 193.28125 C 392.96875 193.046875 395.371094 192.867188 397.777344 192.75 C 400.183594 192.632812 402.589844 192.574219 404.996094 192.574219 C 407.40625 192.574219 409.8125 192.632812 412.21875 192.75 C 414.625 192.867188 417.027344 193.046875 419.421875 193.28125 C 421.820312 193.515625 424.207031 193.8125 426.589844 194.164062 C 428.972656 194.519531 431.347656 194.929688 433.707031 195.402344 C 436.070312 195.871094 438.417969 196.398438 440.753906 196.984375 C 443.09375 197.566406 445.414062 198.210938 447.71875 198.910156 C 450.023438 199.609375 452.308594 200.363281 454.574219 201.175781 C 456.84375 201.988281 459.089844 202.851562 461.316406 203.773438 C 463.539062 204.695312 465.742188 205.671875 467.917969 206.703125 C 470.097656 207.730469 472.246094 208.8125 474.371094 209.949219 C 476.496094 211.085938 478.589844 212.273438 480.65625 213.511719 C 482.722656 214.75 484.753906 216.035156 486.757812 217.375 C 488.761719 218.710938 490.730469 220.097656 492.664062 221.535156 C 494.597656 222.96875 496.496094 224.449219 498.359375 225.976562 C 500.21875 227.503906 502.042969 229.078125 503.828125 230.695312 C 505.613281 232.3125 507.355469 233.972656 509.058594 235.675781 C 510.761719 237.378906 512.421875 239.121094 514.039062 240.90625 C 515.65625 242.691406 517.230469 244.515625 518.757812 246.378906 C 520.285156 248.238281 521.765625 250.136719 523.199219 252.070312 C 524.636719 254.003906 526.023438 255.972656 527.359375 257.976562 C 528.699219 259.980469 529.988281 262.011719 531.226562 264.078125 C 532.464844 266.144531 533.648438 268.238281 534.785156 270.363281 C 535.921875 272.488281 537.003906 274.640625 538.03125 276.816406 C 539.0625 278.992188 540.039062 281.195312 540.960938 283.417969 C 541.882812 285.644531 542.746094 287.890625 543.558594 290.160156 C 544.371094 292.425781 545.125 294.710938 545.824219 297.015625 C 546.523438 299.320312 547.167969 301.644531 547.75 303.980469 C 548.335938 306.316406 548.863281 308.664062 549.335938 311.027344 C 549.804688 313.390625 550.214844 315.761719 550.570312 318.144531 C 550.921875 320.527344 551.21875 322.914062 551.453125 325.3125 C 551.6875 327.710938 551.867188 330.109375 551.984375 332.515625 C 552.101562 334.921875 552.160156 337.328125 552.160156 339.738281 Z M 552.160156 339.738281 " fill-opacity="1" fill-rule="nonzero"/></g><g clip-path="url(#e77b025599)"><path fill="#da2c27" d="M 515.59375 394.121094 L 482.472656 394.121094 L 482.472656 361.027344 L 515.59375 361.027344 L 507.65625 377.574219 L 515.59375 394.121094 " fill-opacity="1" fill-rule="nonzero"/></g><g clip-path="url(#b40c44e482)"><path fill="#231f20" d="M 515.59375 394.121094 L 515.59375 393.222656 L 483.371094 393.222656 L 483.371094 361.925781 L 514.167969 361.925781 L 506.847656 377.1875 C 506.730469 377.429688 506.730469 377.714844 506.847656 377.960938 L 514.785156 394.511719 L 515.59375 394.121094 L 515.59375 393.222656 L 515.59375 394.121094 L 516.402344 393.734375 L 508.652344 377.574219 L 516.402344 361.414062 C 516.539062 361.136719 516.519531 360.808594 516.355469 360.546875 C 516.1875 360.285156 515.902344 360.128906 515.59375 360.128906 L 482.472656 360.128906 C 482.238281 360.128906 482.003906 360.222656 481.839844 360.390625 C 481.671875 360.558594 481.574219 360.789062 481.574219 361.027344 L 481.574219 394.121094 C 481.574219 394.359375 481.671875 394.59375 481.839844 394.757812 C 482.003906 394.925781 482.238281 395.019531 482.472656 395.019531 L 515.59375 395.019531 C 515.902344 395.019531 516.1875 394.863281 516.355469 394.601562 C 516.519531 394.339844 516.539062 394.015625 516.402344 393.734375 L 515.59375 394.121094 " fill-opacity="1" fill-rule="nonzero"/></g><g clip-path="url(#f1e3b7bfd6)"><path fill="#da2c27" d="M 294.398438 394.121094 L 327.519531 394.121094 L 327.519531 361.027344 L 294.398438 361.027344 L 302.335938 377.574219 L 294.398438 394.121094 " fill-opacity="1" fill-rule="nonzero"/></g><g clip-path="url(#766a75050c)"><path fill="#231f20" d="M 294.398438 394.121094 L 294.398438 395.019531 L 327.519531 395.019531 C 327.753906 395.019531 327.988281 394.925781 328.152344 394.757812 C 328.320312 394.59375 328.417969 394.359375 328.417969 394.121094 L 328.417969 361.027344 C 328.417969 360.789062 328.320312 360.558594 328.152344 360.390625 C 327.988281 360.222656 327.753906 360.128906 327.519531 360.128906 L 294.398438 360.128906 C 294.089844 360.128906 293.804688 360.285156 293.636719 360.546875 C 293.472656 360.808594 293.457031 361.136719 293.589844 361.414062 L 301.339844 377.574219 L 293.589844 393.734375 C 293.457031 394.015625 293.472656 394.339844 293.636719 394.601562 C 293.804688 394.863281 294.089844 395.019531 294.398438 395.019531 L 294.398438 394.121094 L 295.207031 394.511719 L 303.144531 377.960938 C 303.261719 377.71875 303.261719 377.429688 303.144531 377.1875 L 295.824219 361.925781 L 326.621094 361.925781 L 326.621094 393.222656 L 294.398438 393.222656 L 294.398438 394.121094 L 295.207031 394.511719 L 294.398438 394.121094 " fill-opacity="1" fill-rule="nonzero"/></g><g clip-path="url(#8547b71050)"><path fill="#da2c27" d="M 327.519531 394.121094 L 310.960938 384.917969 L 310.960938 374.886719 L 327.519531 374.886719 L 327.519531 394.121094 " fill-opacity="1" fill-rule="nonzero"/></g><g clip-path="url(#df606fe20a)"><path fill="#231f20" d="M 327.519531 394.121094 L 327.953125 393.339844 L 311.859375 384.390625 L 311.859375 375.78125 L 326.621094 375.78125 L 326.621094 394.121094 L 327.519531 394.121094 L 327.953125 393.339844 L 327.519531 394.121094 L 328.417969 394.121094 L 328.417969 374.886719 C 328.417969 374.648438 328.320312 374.417969 328.152344 374.25 C 327.988281 374.082031 327.753906 373.988281 327.519531 373.988281 L 310.960938 373.988281 C 310.722656 373.988281 310.492188 374.082031 310.324219 374.25 C 310.15625 374.417969 310.0625 374.648438 310.0625 374.886719 L 310.0625 384.917969 C 310.0625 385.246094 310.238281 385.542969 310.523438 385.703125 L 327.082031 394.90625 C 327.359375 395.0625 327.699219 395.058594 327.976562 394.894531 C 328.25 394.738281 328.417969 394.441406 328.417969 394.121094 L 327.519531 394.121094 " fill-opacity="1" fill-rule="nonzero"/></g><g clip-path="url(#a33f2e2d89)"><path fill="#da2c27" d="M 482.472656 394.121094 L 499.03125 384.917969 L 499.03125 374.886719 L 482.472656 374.886719 L 482.472656 394.121094 " fill-opacity="1" fill-rule="nonzero"/></g><g clip-path="url(#6cceeb0071)"><path fill="#231f20" d="M 482.472656 394.121094 L 482.910156 394.90625 L 499.46875 385.703125 C 499.753906 385.542969 499.929688 385.246094 499.929688 384.917969 L 499.929688 374.886719 C 499.929688 374.648438 499.835938 374.417969 499.667969 374.25 C 499.5 374.082031 499.269531 373.988281 499.03125 373.988281 L 482.472656 373.988281 C 482.238281 373.988281 482.003906 374.082031 481.839844 374.25 C 481.671875 374.417969 481.574219 374.648438 481.574219 374.886719 L 481.574219 394.121094 C 481.574219 394.441406 481.742188 394.738281 482.019531 394.894531 C 482.292969 395.058594 482.632812 395.0625 482.910156 394.90625 L 482.472656 394.121094 L 483.371094 394.121094 L 483.371094 375.78125 L 498.136719 375.78125 L 498.136719 384.390625 L 482.039062 393.339844 L 482.472656 394.121094 L 483.371094 394.121094 L 482.472656 394.121094 " fill-opacity="1" fill-rule="nonzero"/></g><path fill="#da2c27" d="M 499.03125 384.917969 C 436.617188 368.726562 373.378906 368.722656 310.960938 384.917969 C 310.960938 373.886719 310.960938 362.851562 310.960938 351.820312 C 373.378906 335.625 436.617188 335.628906 499.03125 351.820312 C 499.03125 362.851562 499.03125 373.886719 499.03125 384.917969 " fill-opacity="1" fill-rule="nonzero"/><path fill="#231f20" d="M 499.03125 384.917969 L 499.257812 384.050781 C 467.984375 375.9375 436.5 371.875 405.015625 371.875 C 373.515625 371.875 342.019531 375.929688 310.734375 384.050781 L 310.960938 384.917969 L 311.859375 384.917969 C 311.859375 373.886719 311.859375 362.851562 311.859375 351.820312 L 310.960938 351.820312 L 311.183594 352.6875 C 342.324219 344.613281 373.660156 340.574219 404.996094 340.574219 C 436.332031 340.574219 467.667969 344.613281 498.808594 352.6875 L 499.03125 351.820312 L 498.136719 351.820312 C 498.136719 362.851562 498.136719 373.886719 498.136719 384.917969 L 499.03125 384.917969 L 499.257812 384.050781 L 499.03125 384.917969 L 499.929688 384.917969 C 499.929688 373.886719 499.929688 362.851562 499.929688 351.820312 C 499.929688 351.414062 499.65625 351.054688 499.257812 350.953125 C 467.976562 342.835938 436.488281 338.777344 404.996094 338.777344 C 373.503906 338.777344 342.015625 342.835938 310.734375 350.953125 C 310.335938 351.054688 310.0625 351.414062 310.0625 351.820312 C 310.0625 362.851562 310.0625 373.886719 310.0625 384.917969 C 310.0625 385.199219 310.1875 385.457031 310.410156 385.628906 C 310.628906 385.800781 310.914062 385.859375 311.183594 385.789062 C 342.328125 377.707031 373.671875 373.671875 405.015625 373.671875 C 436.347656 373.671875 467.675781 377.710938 498.808594 385.789062 C 499.078125 385.859375 499.363281 385.800781 499.582031 385.628906 C 499.800781 385.457031 499.929688 385.199219 499.929688 384.917969 L 499.03125 384.917969 " fill-opacity="1" fill-rule="nonzero"/><g clip-path="url(#07a0d8428a)"><g clip-path="url(#d9d65d9c2e)"><g clip-path="url(#91cd7c1d85)"><path fill="#3f3938" d="M 339.808594 290.433594 C 310.582031 301.703125 282.082031 307.644531 265.445312 305.929688 C 265.28125 305.910156 265.144531 305.832031 265.042969 305.699219 C 264.9375 305.570312 264.894531 305.417969 264.914062 305.253906 C 264.929688 305.085938 265.003906 304.949219 265.132812 304.84375 C 265.261719 304.734375 265.410156 304.6875 265.574219 304.699219 C 282.035156 306.394531 310.3125 300.480469 339.363281 289.277344 C 368.417969 278.074219 393.34375 263.46875 404.40625 251.164062 C 404.519531 251.027344 404.660156 250.949219 404.839844 250.933594 C 405.015625 250.921875 405.171875 250.972656 405.304688 251.09375 C 405.433594 251.210938 405.503906 251.359375 405.507812 251.539062 C 405.511719 251.714844 405.453125 251.867188 405.324219 251.992188 C 394.140625 264.433594 369.035156 279.164062 339.808594 290.433594 Z M 339.808594 290.433594 " fill-opacity="1" fill-rule="nonzero"/></g></g></g><g clip-path="url(#8edb1168fd)"><g clip-path="url(#49a3e902f1)"><g clip-path="url(#56fb0ff29a)"><path fill="#ffd032" d="M 316.523438 319.71875 L 322.210938 295.097656 L 298.890625 301.621094 Z M 316.523438 319.71875 " fill-opacity="1" fill-rule="nonzero"/></g></g></g><g clip-path="url(#2ec60309d1)"><g clip-path="url(#407015de5d)"><g clip-path="url(#d964783761)"><path fill="#ffd032" d="M 356.328125 281.566406 L 377.027344 296.0625 L 378.023438 270.816406 Z M 356.328125 281.566406 " fill-opacity="1" fill-rule="nonzero"/></g></g></g><g clip-path="url(#4c36dc86e5)"><g clip-path="url(#1df322cc21)"><g clip-path="url(#24d23137d4)"><path fill="#da2c27" d="M 283.550781 325.875 L 293.449219 302.625 L 269.347656 304.976562 Z M 283.550781 325.875 " fill-opacity="1" fill-rule="nonzero"/></g></g></g><g clip-path="url(#284599e179)"><g clip-path="url(#d196bf94bc)"><g clip-path="url(#6e8053bd95)"><path fill="#da2c27" d="M 383.101562 268.054688 L 406.046875 278.640625 L 402.429688 253.328125 Z M 383.101562 268.054688 " fill-opacity="1" fill-rule="nonzero"/></g></g></g><g clip-path="url(#6544f24c84)"><g clip-path="url(#a06d73f4e2)"><g clip-path="url(#d89d4404a1)"><path fill="#da2c27" d="M 346.84375 309.765625 L 350.605469 284.777344 L 327.859375 293.085938 Z M 346.84375 309.765625 " fill-opacity="1" fill-rule="nonzero"/></g></g></g><g clip-path="url(#b6c0afb4c4)"><g clip-path="url(#75c00d900d)"><g clip-path="url(#75f9c77cc7)"><path fill="#3f3938" d="M 470.878906 289.855469 C 441.554688 278.84375 416.316406 264.332031 405.027344 251.988281 C 404.917969 251.863281 404.871094 251.714844 404.878906 251.546875 C 404.890625 251.382812 404.957031 251.242188 405.082031 251.128906 C 405.203125 251.015625 405.351562 250.960938 405.515625 250.96875 C 405.683594 250.972656 405.828125 251.035156 405.941406 251.15625 C 417.113281 263.363281 442.164062 277.75 471.3125 288.695312 C 500.464844 299.644531 528.792969 305.308594 545.238281 303.472656 C 545.414062 303.441406 545.570312 303.480469 545.714844 303.585938 C 545.855469 303.695312 545.9375 303.835938 545.957031 304.011719 C 545.976562 304.191406 545.929688 304.347656 545.8125 304.480469 C 545.699219 304.617188 545.550781 304.691406 545.375 304.699219 C 528.75 306.558594 500.203125 300.867188 470.878906 289.855469 Z M 470.878906 289.855469 " fill-opacity="1" fill-rule="nonzero"/></g></g></g><g clip-path="url(#3fcfe7ac78)"><g clip-path="url(#a5ef734efb)"><g clip-path="url(#74f21e7afc)"><path fill="#da2c27" d="M 434.015625 296.246094 L 454.632812 281.636719 L 432.875 271.003906 Z M 434.015625 296.246094 " fill-opacity="1" fill-rule="nonzero"/></g></g></g><g clip-path="url(#65acfa0bd8)"><g clip-path="url(#3f93c8a057)"><g clip-path="url(#69f7c25f9a)"><path fill="#da2c27" d="M 489.113281 294.214844 L 494.933594 318.804688 L 512.464844 300.605469 Z M 489.113281 294.214844 " fill-opacity="1" fill-rule="nonzero"/></g></g></g><g clip-path="url(#266d4d9ba4)"><g clip-path="url(#0a359dc899)"><g clip-path="url(#7e247eb268)"><path fill="#ffd032" d="M 405.292969 278.925781 L 428.140625 268.136719 L 408.578125 253.871094 Z M 405.292969 278.925781 " fill-opacity="1" fill-rule="nonzero"/></g></g></g><g clip-path="url(#fdbf7f0daf)"><g clip-path="url(#93d95065ed)"><g clip-path="url(#54f8a6034d)"><path fill="#ffd032" d="M 518.097656 301.921875 L 528.195312 325.085938 L 542.324219 303.773438 Z M 518.097656 301.921875 " fill-opacity="1" fill-rule="nonzero"/></g></g></g><g clip-path="url(#c76049fbf9)"><g clip-path="url(#ccf18609f1)"><g clip-path="url(#8ab4fc3f4f)"><path fill="#ffd032" d="M 463.28125 308.972656 L 482.703125 292.808594 L 460.1875 283.894531 Z M 463.28125 308.972656 " fill-opacity="1" fill-rule="nonzero"/></g></g></g></svg>