<svg xmlns="http://www.w3.org/2000/svg" xmlns:xlink="http://www.w3.org/1999/xlink" width="1080" zoomAndPan="magnify" viewBox="0 0 810 809.999993" height="1080" preserveAspectRatio="xMidYMid meet" version="1.0"><defs><clipPath id="1184c51dc9"><path d="M 218.433594 155.410156 L 591.183594 155.410156 L 591.183594 654.910156 L 218.433594 654.910156 Z M 218.433594 155.410156 " clip-rule="nonzero"/></clipPath><clipPath id="4a2a87fc06"><path d="M 258.160156 323.421875 L 552.160156 323.421875 L 552.160156 617.421875 L 258.160156 617.421875 Z M 258.160156 323.421875 " clip-rule="nonzero"/></clipPath><clipPath id="39db76d380"><path d="M 416 364.507812 L 447 364.507812 L 447 434 L 416 434 Z M 416 364.507812 " clip-rule="nonzero"/></clipPath><clipPath id="8abc293a05"><path d="M 451 486 L 524.769531 486 L 524.769531 511 L 451 511 Z M 451 486 " clip-rule="nonzero"/></clipPath></defs><g clip-path="url(#1184c51dc9)"><path fill="#da2c27" d="M 404.996094 381.675781 C 459.035156 381.675781 502.835938 425.476562 502.835938 479.511719 C 502.835938 533.542969 459.035156 577.351562 404.996094 577.351562 C 350.960938 577.351562 307.160156 533.542969 307.160156 479.511719 C 307.160156 425.476562 350.960938 381.675781 404.996094 381.675781 Z M 404.996094 654.984375 C 507.78125 654.984375 591.101562 571.660156 591.101562 468.878906 C 591.101562 330.628906 404.996094 155.15625 404.996094 155.15625 C 404.996094 155.15625 218.890625 330.628906 218.890625 468.878906 C 218.890625 571.660156 302.214844 654.984375 404.996094 654.984375 " fill-opacity="1" fill-rule="nonzero"/></g><g clip-path="url(#4a2a87fc06)"><path fill="#ffffff" d="M 257.832031 470.257812 C 257.832031 467.851562 257.894531 465.445312 258.011719 463.039062 C 258.128906 460.632812 258.304688 458.230469 258.542969 455.835938 C 258.777344 453.4375 259.074219 451.046875 259.425781 448.664062 C 259.78125 446.285156 260.191406 443.910156 260.660156 441.546875 C 261.132812 439.1875 261.660156 436.835938 262.246094 434.5 C 262.828125 432.164062 263.472656 429.84375 264.171875 427.539062 C 264.871094 425.234375 265.625 422.949219 266.4375 420.679688 C 267.246094 418.414062 268.113281 416.167969 269.035156 413.941406 C 269.957031 411.714844 270.933594 409.515625 271.964844 407.339844 C 272.992188 405.160156 274.074219 403.011719 275.210938 400.886719 C 276.347656 398.761719 277.53125 396.667969 278.769531 394.601562 C 280.007812 392.535156 281.296875 390.5 282.636719 388.5 C 283.972656 386.496094 285.359375 384.527344 286.792969 382.59375 C 288.230469 380.660156 289.710938 378.761719 291.238281 376.898438 C 292.765625 375.039062 294.339844 373.214844 295.957031 371.429688 C 297.574219 369.644531 299.234375 367.902344 300.9375 366.199219 C 302.640625 364.496094 304.382812 362.835938 306.167969 361.21875 C 307.953125 359.601562 309.777344 358.027344 311.636719 356.5 C 313.5 354.972656 315.398438 353.492188 317.332031 352.054688 C 319.265625 350.621094 321.234375 349.234375 323.238281 347.898438 C 325.242188 346.558594 327.273438 345.269531 329.339844 344.03125 C 331.40625 342.792969 333.5 341.605469 335.625 340.472656 C 337.75 339.335938 339.898438 338.253906 342.078125 337.222656 C 344.253906 336.195312 346.457031 335.21875 348.679688 334.296875 C 350.90625 333.375 353.152344 332.507812 355.417969 331.699219 C 357.6875 330.886719 359.972656 330.132812 362.277344 329.433594 C 364.582031 328.734375 366.902344 328.089844 369.238281 327.503906 C 371.578125 326.921875 373.925781 326.394531 376.289062 325.921875 C 378.648438 325.453125 381.023438 325.042969 383.40625 324.6875 C 385.785156 324.335938 388.175781 324.039062 390.574219 323.804688 C 392.96875 323.566406 395.371094 323.390625 397.777344 323.273438 C 400.183594 323.152344 402.589844 323.09375 404.996094 323.09375 C 407.40625 323.09375 409.8125 323.152344 412.21875 323.273438 C 414.625 323.390625 417.027344 323.566406 419.421875 323.804688 C 421.820312 324.039062 424.207031 324.335938 426.589844 324.6875 C 428.972656 325.042969 431.347656 325.453125 433.707031 325.921875 C 436.070312 326.394531 438.417969 326.921875 440.757812 327.503906 C 443.09375 328.089844 445.414062 328.734375 447.71875 329.433594 C 450.023438 330.132812 452.308594 330.886719 454.574219 331.699219 C 456.84375 332.507812 459.089844 333.375 461.316406 334.296875 C 463.539062 335.21875 465.742188 336.195312 467.917969 337.222656 C 470.097656 338.253906 472.246094 339.335938 474.371094 340.472656 C 476.496094 341.605469 478.589844 342.792969 480.65625 344.03125 C 482.722656 345.269531 484.753906 346.558594 486.757812 347.898438 C 488.761719 349.234375 490.730469 350.621094 492.664062 352.054688 C 494.597656 353.492188 496.496094 354.972656 498.359375 356.5 C 500.21875 358.027344 502.042969 359.601562 503.828125 361.21875 C 505.613281 362.835938 507.355469 364.496094 509.058594 366.199219 C 510.761719 367.902344 512.421875 369.644531 514.039062 371.429688 C 515.65625 373.214844 517.230469 375.039062 518.757812 376.898438 C 520.285156 378.761719 521.765625 380.660156 523.203125 382.59375 C 524.636719 384.527344 526.023438 386.496094 527.359375 388.5 C 528.699219 390.5 529.988281 392.535156 531.226562 394.601562 C 532.464844 396.667969 533.648438 398.761719 534.785156 400.886719 C 535.921875 403.011719 537.003906 405.160156 538.03125 407.339844 C 539.0625 409.515625 540.039062 411.714844 540.960938 413.941406 C 541.882812 416.167969 542.746094 418.414062 543.558594 420.679688 C 544.371094 422.949219 545.125 425.234375 545.824219 427.539062 C 546.523438 429.84375 547.167969 432.164062 547.75 434.5 C 548.335938 436.835938 548.863281 439.1875 549.335938 441.546875 C 549.804688 443.910156 550.214844 446.285156 550.570312 448.664062 C 550.921875 451.046875 551.21875 453.4375 551.453125 455.835938 C 551.6875 458.230469 551.867188 460.632812 551.984375 463.039062 C 552.101562 465.445312 552.160156 467.851562 552.160156 470.257812 C 552.160156 472.667969 552.101562 475.074219 551.984375 477.480469 C 551.867188 479.886719 551.6875 482.285156 551.453125 484.683594 C 551.21875 487.082031 550.921875 489.46875 550.570312 491.851562 C 550.214844 494.234375 549.804688 496.605469 549.335938 498.96875 C 548.863281 501.332031 548.335938 503.679688 547.75 506.015625 C 547.167969 508.351562 546.523438 510.671875 545.824219 512.980469 C 545.125 515.285156 544.371094 517.570312 543.558594 519.835938 C 542.746094 522.105469 541.882812 524.351562 540.960938 526.578125 C 540.039062 528.800781 539.0625 531.003906 538.03125 533.179688 C 537.003906 535.355469 535.921875 537.507812 534.785156 539.632812 C 533.648438 541.753906 532.464844 543.851562 531.226562 545.917969 C 529.988281 547.980469 528.699219 550.015625 527.359375 552.019531 C 526.023438 554.023438 524.636719 555.988281 523.203125 557.925781 C 521.765625 559.859375 520.285156 561.757812 518.757812 563.617188 C 517.230469 565.480469 515.65625 567.304688 514.039062 569.089844 C 512.421875 570.871094 510.761719 572.617188 509.058594 574.320312 C 507.355469 576.023438 505.613281 577.683594 503.828125 579.300781 C 502.042969 580.917969 500.21875 582.492188 498.359375 584.019531 C 496.496094 585.546875 494.597656 587.027344 492.664062 588.460938 C 490.730469 589.898438 488.761719 591.285156 486.757812 592.621094 C 484.753906 593.960938 482.722656 595.246094 480.65625 596.484375 C 478.589844 597.722656 476.496094 598.910156 474.371094 600.046875 C 472.246094 601.179688 470.097656 602.265625 467.917969 603.292969 C 465.742188 604.324219 463.539062 605.300781 461.316406 606.222656 C 459.089844 607.144531 456.84375 608.007812 454.574219 608.820312 C 452.308594 609.632812 450.023438 610.386719 447.71875 611.085938 C 445.414062 611.785156 443.09375 612.425781 440.757812 613.011719 C 438.417969 613.597656 436.070312 614.125 433.707031 614.59375 C 431.347656 615.066406 428.972656 615.476562 426.589844 615.832031 C 424.207031 616.183594 421.820312 616.476562 419.421875 616.714844 C 417.027344 616.949219 414.625 617.128906 412.21875 617.246094 C 409.8125 617.363281 407.40625 617.421875 404.996094 617.421875 C 402.589844 617.421875 400.183594 617.363281 397.777344 617.246094 C 395.371094 617.128906 392.96875 616.949219 390.574219 616.714844 C 388.175781 616.476562 385.785156 616.183594 383.40625 615.832031 C 381.023438 615.476562 378.648438 615.066406 376.289062 614.59375 C 373.925781 614.125 371.578125 613.597656 369.238281 613.011719 C 366.902344 612.425781 364.582031 611.785156 362.277344 611.085938 C 359.972656 610.386719 357.6875 609.632812 355.417969 608.820312 C 353.152344 608.007812 350.90625 607.144531 348.679688 606.222656 C 346.457031 605.300781 344.253906 604.324219 342.078125 603.292969 C 339.898438 602.265625 337.75 601.179688 335.625 600.046875 C 333.5 598.910156 331.40625 597.722656 329.339844 596.484375 C 327.273438 595.246094 325.242188 593.960938 323.238281 592.621094 C 321.234375 591.285156 319.265625 589.898438 317.332031 588.460938 C 315.398438 587.027344 313.5 585.546875 311.636719 584.019531 C 309.777344 582.492188 307.953125 580.917969 306.167969 579.300781 C 304.382812 577.683594 302.640625 576.023438 300.9375 574.320312 C 299.234375 572.617188 297.574219 570.871094 295.957031 569.089844 C 294.339844 567.304688 292.765625 565.480469 291.238281 563.617188 C 289.710938 561.757812 288.230469 559.859375 286.792969 557.925781 C 285.359375 555.988281 283.972656 554.023438 282.636719 552.019531 C 281.296875 550.015625 280.007812 547.980469 278.769531 545.917969 C 277.53125 543.851562 276.347656 541.753906 275.210938 539.632812 C 274.074219 537.507812 272.992188 535.355469 271.964844 533.179688 C 270.933594 531.003906 269.957031 528.800781 269.035156 526.578125 C 268.113281 524.351562 267.246094 522.105469 266.4375 519.835938 C 265.625 517.570312 264.871094 515.285156 264.171875 512.980469 C 263.472656 510.671875 262.828125 508.351562 262.246094 506.015625 C 261.660156 503.679688 261.132812 501.332031 260.660156 498.96875 C 260.191406 496.605469 259.78125 494.234375 259.425781 491.851562 C 259.074219 489.46875 258.777344 487.082031 258.542969 484.683594 C 258.304688 482.285156 258.128906 479.886719 258.011719 477.480469 C 257.894531 475.074219 257.832031 472.667969 257.832031 470.257812 Z M 257.832031 470.257812 " fill-opacity="1" fill-rule="nonzero"/></g><path fill="#efb231" d="M 426.132812 461.121094 C 427.039062 462.78125 427.898438 464.460938 428.714844 466.15625 C 429.535156 467.855469 430.304688 469.5625 431.027344 471.277344 C 431.75 472.996094 432.421875 474.714844 433.042969 476.4375 C 433.664062 478.15625 434.234375 479.871094 434.746094 481.582031 C 435.261719 483.289062 435.71875 484.984375 436.121094 486.664062 C 436.519531 488.34375 436.863281 490 437.148438 491.632812 C 437.433594 493.269531 437.660156 494.871094 437.828125 496.445312 C 437.992188 498.019531 438.101562 499.554688 438.144531 501.050781 C 438.191406 502.546875 438.175781 504 438.101562 505.40625 C 438.023438 506.8125 437.890625 508.167969 437.695312 509.46875 C 437.496094 510.773438 437.242188 512.015625 436.929688 513.203125 C 436.613281 514.386719 436.242188 515.507812 435.8125 516.566406 C 435.382812 517.625 434.898438 518.613281 434.355469 519.53125 C 433.816406 520.453125 433.222656 521.296875 432.574219 522.070312 C 431.925781 522.84375 431.230469 523.539062 430.484375 524.15625 C 429.738281 524.773438 428.945312 525.3125 428.105469 525.769531 C 427.265625 526.226562 426.382812 526.601562 425.457031 526.894531 C 424.535156 527.1875 423.570312 527.394531 422.570312 527.519531 C 421.574219 527.644531 420.539062 527.683594 419.472656 527.640625 C 418.40625 527.59375 417.3125 527.46875 416.191406 527.253906 C 415.070312 527.042969 413.925781 526.746094 412.757812 526.367188 C 411.59375 525.988281 410.410156 525.527344 409.210938 524.984375 C 408.007812 524.441406 406.796875 523.820312 405.574219 523.121094 C 404.351562 522.421875 403.125 521.648438 401.890625 520.796875 C 400.660156 519.945312 399.425781 519.023438 398.195312 518.03125 C 396.964844 517.039062 395.738281 515.980469 394.519531 514.851562 C 393.300781 513.726562 392.097656 512.539062 390.902344 511.292969 C 389.710938 510.042969 388.535156 508.738281 387.378906 507.382812 C 386.222656 506.023438 385.089844 504.617188 383.980469 503.160156 C 382.871094 501.703125 381.792969 500.207031 380.742188 498.667969 C 379.691406 497.128906 378.675781 495.554688 377.691406 493.949219 C 376.710938 492.34375 375.765625 490.707031 374.863281 489.046875 C 373.957031 487.390625 373.097656 485.710938 372.28125 484.011719 C 371.460938 482.316406 370.691406 480.609375 369.96875 478.890625 C 369.246094 477.175781 368.574219 475.457031 367.953125 473.734375 C 367.332031 472.011719 366.761719 470.296875 366.25 468.589844 C 365.734375 466.882812 365.277344 465.1875 364.875 463.507812 C 364.476562 461.828125 364.132812 460.171875 363.847656 458.539062 C 363.5625 456.902344 363.335938 455.300781 363.167969 453.726562 C 363.003906 452.152344 362.894531 450.617188 362.851562 449.121094 C 362.804688 447.625 362.820312 446.171875 362.894531 444.765625 C 362.972656 443.359375 363.105469 442.003906 363.300781 440.703125 C 363.5 439.398438 363.753906 438.15625 364.066406 436.96875 C 364.382812 435.785156 364.753906 434.660156 365.183594 433.605469 C 365.613281 432.546875 366.097656 431.558594 366.640625 430.636719 C 367.179688 429.71875 367.773438 428.871094 368.421875 428.101562 C 369.070312 427.328125 369.765625 426.632812 370.511719 426.015625 C 371.257812 425.398438 372.050781 424.859375 372.890625 424.402344 C 373.730469 423.945312 374.613281 423.570312 375.539062 423.277344 C 376.460938 422.984375 377.425781 422.777344 378.425781 422.652344 C 379.421875 422.527344 380.457031 422.488281 381.523438 422.53125 C 382.589844 422.574219 383.683594 422.703125 384.804688 422.917969 C 385.925781 423.128906 387.070312 423.425781 388.238281 423.804688 C 389.402344 424.183594 390.585938 424.644531 391.785156 425.1875 C 392.988281 425.730469 394.199219 426.347656 395.421875 427.050781 C 396.644531 427.75 397.871094 428.523438 399.105469 429.375 C 400.335938 430.222656 401.570312 431.144531 402.800781 432.140625 C 404.03125 433.132812 405.257812 434.191406 406.476562 435.316406 C 407.695312 436.445312 408.898438 437.632812 410.09375 438.878906 C 411.285156 440.128906 412.460938 441.429688 413.617188 442.789062 C 414.773438 444.148438 415.90625 445.554688 417.015625 447.011719 C 418.125 448.46875 419.203125 449.964844 420.253906 451.503906 C 421.304688 453.042969 422.320312 454.613281 423.304688 456.222656 C 424.285156 457.828125 425.230469 459.460938 426.132812 461.121094 Z M 426.132812 461.121094 " fill-opacity="1" fill-rule="nonzero"/><path fill="#db9f1f" d="M 424.386719 462.074219 C 425.1875 463.546875 425.949219 465.03125 426.675781 466.535156 C 427.398438 468.042969 428.082031 469.554688 428.722656 471.078125 C 429.363281 472.597656 429.960938 474.121094 430.511719 475.648438 C 431.0625 477.171875 431.566406 478.695312 432.019531 480.207031 C 432.476562 481.722656 432.882812 483.222656 433.238281 484.710938 C 433.59375 486.203125 433.898438 487.667969 434.152344 489.117188 C 434.402344 490.566406 434.605469 491.988281 434.75 493.382812 C 434.898438 494.777344 434.992188 496.136719 435.03125 497.464844 C 435.074219 498.792969 435.058594 500.078125 434.992188 501.324219 C 434.925781 502.574219 434.804688 503.773438 434.632812 504.925781 C 434.460938 506.082031 434.234375 507.183594 433.953125 508.234375 C 433.675781 509.285156 433.347656 510.28125 432.964844 511.21875 C 432.585938 512.15625 432.15625 513.03125 431.675781 513.847656 C 431.195312 514.664062 430.667969 515.414062 430.09375 516.097656 C 429.523438 516.78125 428.902344 517.398438 428.242188 517.945312 C 427.578125 518.492188 426.875 518.96875 426.132812 519.375 C 425.386719 519.78125 424.605469 520.113281 423.789062 520.371094 C 422.96875 520.628906 422.117188 520.816406 421.230469 520.925781 C 420.34375 521.035156 419.425781 521.070312 418.484375 521.03125 C 417.539062 520.992188 416.570312 520.878906 415.574219 520.691406 C 414.582031 520.503906 413.566406 520.242188 412.53125 519.902344 C 411.496094 519.566406 410.449219 519.160156 409.382812 518.679688 C 408.320312 518.199219 407.246094 517.648438 406.164062 517.027344 C 405.078125 516.410156 403.992188 515.722656 402.898438 514.96875 C 401.804688 514.214844 400.714844 513.398438 399.621094 512.515625 C 398.53125 511.636719 397.445312 510.699219 396.363281 509.699219 C 395.285156 508.703125 394.214844 507.648438 393.160156 506.542969 C 392.101562 505.4375 391.058594 504.28125 390.035156 503.078125 C 389.007812 501.871094 388.003906 500.625 387.023438 499.335938 C 386.039062 498.042969 385.082031 496.71875 384.152344 495.351562 C 383.21875 493.988281 382.320312 492.59375 381.449219 491.171875 C 380.578125 489.746094 379.742188 488.296875 378.941406 486.828125 C 378.140625 485.355469 377.375 483.867188 376.652344 482.363281 C 375.925781 480.859375 375.246094 479.347656 374.605469 477.824219 C 373.964844 476.304688 373.367188 474.777344 372.816406 473.253906 C 372.265625 471.726562 371.761719 470.207031 371.308594 468.691406 C 370.851562 467.179688 370.445312 465.675781 370.089844 464.1875 C 369.734375 462.699219 369.429688 461.230469 369.175781 459.78125 C 368.921875 458.335938 368.722656 456.914062 368.574219 455.519531 C 368.429688 454.125 368.335938 452.761719 368.292969 451.4375 C 368.253906 450.109375 368.265625 448.820312 368.332031 447.574219 C 368.402344 446.328125 368.519531 445.128906 368.695312 443.972656 C 368.867188 442.820312 369.09375 441.714844 369.371094 440.664062 C 369.652344 439.613281 369.980469 438.621094 370.363281 437.683594 C 370.742188 436.746094 371.171875 435.867188 371.652344 435.054688 C 372.132812 434.238281 372.65625 433.488281 373.230469 432.804688 C 373.804688 432.121094 374.421875 431.503906 375.085938 430.957031 C 375.746094 430.410156 376.449219 429.933594 377.195312 429.527344 C 377.9375 429.121094 378.71875 428.789062 379.539062 428.53125 C 380.359375 428.269531 381.210938 428.085938 382.097656 427.976562 C 382.984375 427.863281 383.898438 427.828125 384.84375 427.867188 C 385.789062 427.90625 386.757812 428.019531 387.753906 428.210938 C 388.746094 428.398438 389.761719 428.660156 390.796875 428.996094 C 391.828125 429.332031 392.878906 429.742188 393.941406 430.222656 C 395.007812 430.703125 396.082031 431.253906 397.164062 431.871094 C 398.246094 432.492188 399.335938 433.179688 400.429688 433.933594 C 401.519531 434.6875 402.613281 435.503906 403.707031 436.382812 C 404.796875 437.265625 405.882812 438.203125 406.960938 439.203125 C 408.042969 440.199219 409.109375 441.253906 410.167969 442.359375 C 411.226562 443.464844 412.265625 444.621094 413.292969 445.824219 C 414.316406 447.027344 415.320312 448.277344 416.304688 449.566406 C 417.289062 450.855469 418.246094 452.183594 419.175781 453.546875 C 420.105469 454.910156 421.007812 456.304688 421.878906 457.730469 C 422.75 459.15625 423.585938 460.601562 424.386719 462.074219 Z M 424.386719 462.074219 " fill-opacity="1" fill-rule="nonzero"/><path fill="#efb231" d="M 404.046875 482.578125 C 403.886719 482.652344 403.699219 482.671875 403.492188 482.640625 C 403.28125 482.605469 403.054688 482.519531 402.808594 482.382812 C 402.566406 482.242188 402.308594 482.054688 402.035156 481.8125 C 401.761719 481.574219 401.480469 481.289062 401.191406 480.957031 C 400.902344 480.625 400.609375 480.253906 400.316406 479.847656 C 400.019531 479.4375 399.730469 478.996094 399.441406 478.523438 C 399.152344 478.050781 398.871094 477.554688 398.597656 477.039062 C 398.324219 476.519531 398.066406 475.988281 397.820312 475.449219 C 397.574219 474.90625 397.347656 474.359375 397.140625 473.816406 C 396.933594 473.269531 396.746094 472.730469 396.582031 472.203125 C 396.417969 471.671875 396.277344 471.160156 396.167969 470.667969 C 396.054688 470.175781 395.96875 469.714844 395.910156 469.277344 C 395.851562 468.839844 395.824219 468.441406 395.824219 468.078125 C 395.824219 467.714844 395.851562 467.398438 395.910156 467.121094 C 395.96875 466.84375 396.050781 466.617188 396.164062 466.441406 C 396.277344 466.261719 396.414062 466.136719 396.578125 466.0625 C 396.742188 465.988281 396.929688 465.96875 397.136719 466 C 397.347656 466.035156 397.574219 466.121094 397.816406 466.257812 C 398.0625 466.398438 398.320312 466.585938 398.59375 466.828125 C 398.867188 467.066406 399.148438 467.351562 399.4375 467.683594 C 399.726562 468.015625 400.015625 468.382812 400.3125 468.792969 C 400.605469 469.203125 400.898438 469.644531 401.1875 470.117188 C 401.476562 470.589844 401.757812 471.085938 402.03125 471.601562 C 402.304688 472.121094 402.5625 472.652344 402.808594 473.191406 C 403.050781 473.734375 403.277344 474.28125 403.488281 474.824219 C 403.695312 475.371094 403.882812 475.910156 404.046875 476.4375 C 404.210938 476.96875 404.347656 477.480469 404.460938 477.972656 C 404.574219 478.464844 404.660156 478.925781 404.71875 479.363281 C 404.773438 479.796875 404.804688 480.199219 404.804688 480.5625 C 404.804688 480.921875 404.777344 481.242188 404.71875 481.519531 C 404.660156 481.792969 404.574219 482.023438 404.464844 482.199219 C 404.351562 482.378906 404.210938 482.503906 404.046875 482.578125 Z M 404.046875 482.578125 " fill-opacity="1" fill-rule="nonzero"/><path fill="#232222" d="M 386.570312 498.738281 C 390.816406 492.730469 396.859375 487.445312 404.117188 482.546875 L 404.117188 482.53125 C 404.101562 482.546875 404.082031 482.566406 404.046875 482.582031 C 402.671875 483.199219 399.871094 480.011719 397.808594 475.449219 C 395.890625 471.203125 395.292969 467.273438 396.3125 466.234375 C 387.855469 468.964844 379.488281 470.25 371.3125 468.753906 C 373.09375 474.636719 375.628906 480.769531 378.941406 486.828125 C 381.285156 491.128906 383.859375 495.109375 386.570312 498.738281 Z M 386.570312 498.738281 " fill-opacity="1" fill-rule="evenodd"/><path fill="#da2c27" d="M 330.285156 544.613281 C 359.175781 528.230469 381.496094 523.277344 412.730469 526.378906 C 400.03125 522.203125 385.390625 508.390625 374.871094 489.050781 C 364.53125 470.074219 360.796875 450.660156 363.863281 437.710938 C 347.867188 467.203125 335.78125 478.8125 310.164062 496.554688 C 291.402344 511.40625 314.003906 551.765625 330.285156 544.613281 Z M 330.285156 544.613281 " fill-opacity="1" fill-rule="evenodd"/><path fill="#efb231" d="M 300.738281 501.996094 L 316.613281 492.253906 C 314.710938 513.394531 324.453125 528.140625 340.253906 539.558594 L 323.535156 548.046875 C 301.78125 558.230469 278.769531 512.902344 300.738281 501.996094 Z M 300.738281 501.996094 " fill-opacity="1" fill-rule="evenodd"/><path fill="#5f5d5d" d="M 407.992188 561.171875 C 407.992188 561.308594 407.910156 561.445312 407.742188 561.578125 C 407.578125 561.714844 407.328125 561.847656 407 561.980469 C 406.667969 562.113281 406.257812 562.246094 405.765625 562.375 C 405.273438 562.503906 404.703125 562.632812 404.054688 562.757812 C 403.40625 562.882812 402.683594 563.003906 401.882812 563.125 C 401.085938 563.246094 400.214844 563.359375 399.273438 563.472656 C 398.332031 563.585938 397.324219 563.695312 396.25 563.800781 C 395.171875 563.90625 394.035156 564.003906 392.839844 564.101562 C 391.640625 564.195312 390.386719 564.289062 389.074219 564.375 C 387.765625 564.460938 386.40625 564.539062 384.996094 564.617188 C 383.589844 564.691406 382.136719 564.761719 380.640625 564.824219 C 379.148438 564.886719 377.617188 564.945312 376.050781 565 C 374.488281 565.050781 372.894531 565.097656 371.269531 565.136719 C 369.648438 565.175781 368.007812 565.207031 366.347656 565.234375 C 364.683594 565.261719 363.007812 565.28125 361.324219 565.292969 C 359.636719 565.308594 357.945312 565.3125 356.25 565.3125 C 354.558594 565.3125 352.867188 565.308594 351.179688 565.292969 C 349.492188 565.28125 347.820312 565.261719 346.15625 565.234375 C 344.496094 565.207031 342.851562 565.175781 341.230469 565.136719 C 339.609375 565.097656 338.015625 565.050781 336.449219 565 C 334.886719 564.945312 333.355469 564.886719 331.859375 564.824219 C 330.367188 564.761719 328.914062 564.691406 327.503906 564.617188 C 326.097656 564.539062 324.738281 564.460938 323.425781 564.375 C 322.117188 564.289062 320.863281 564.195312 319.664062 564.101562 C 318.464844 564.003906 317.328125 563.90625 316.253906 563.800781 C 315.179688 563.695312 314.171875 563.585938 313.230469 563.472656 C 312.289062 563.359375 311.417969 563.246094 310.621094 563.125 C 309.820312 563.003906 309.097656 562.882812 308.449219 562.757812 C 307.800781 562.632812 307.230469 562.503906 306.738281 562.375 C 306.246094 562.246094 305.835938 562.113281 305.503906 561.980469 C 305.171875 561.847656 304.925781 561.714844 304.757812 561.578125 C 304.59375 561.445312 304.511719 561.308594 304.511719 561.171875 C 304.511719 561.039062 304.59375 560.902344 304.757812 560.769531 C 304.925781 560.632812 305.171875 560.5 305.503906 560.367188 C 305.835938 560.234375 306.246094 560.101562 306.738281 559.972656 C 307.230469 559.84375 307.800781 559.714844 308.449219 559.589844 C 309.097656 559.464844 309.820312 559.339844 310.621094 559.222656 C 311.417969 559.101562 312.289062 558.984375 313.230469 558.875 C 314.171875 558.761719 315.179688 558.652344 316.253906 558.546875 C 317.328125 558.441406 318.464844 558.34375 319.664062 558.246094 C 320.863281 558.148438 322.117188 558.058594 323.425781 557.972656 C 324.738281 557.886719 326.097656 557.804688 327.503906 557.730469 C 328.914062 557.65625 330.367188 557.585938 331.859375 557.523438 C 333.355469 557.457031 334.886719 557.402344 336.449219 557.347656 C 338.015625 557.296875 339.609375 557.25 341.230469 557.210938 C 342.851562 557.171875 344.496094 557.140625 346.15625 557.113281 C 347.820312 557.085938 349.492188 557.066406 351.179688 557.054688 C 352.867188 557.039062 354.558594 557.035156 356.25 557.035156 C 357.945312 557.035156 359.636719 557.039062 361.324219 557.054688 C 363.007812 557.066406 364.683594 557.085938 366.347656 557.113281 C 368.007812 557.140625 369.648438 557.171875 371.269531 557.210938 C 372.894531 557.25 374.488281 557.296875 376.050781 557.347656 C 377.617188 557.402344 379.148438 557.457031 380.640625 557.523438 C 382.136719 557.585938 383.589844 557.65625 384.996094 557.730469 C 386.40625 557.804688 387.765625 557.886719 389.074219 557.972656 C 390.386719 558.058594 391.640625 558.148438 392.839844 558.246094 C 394.035156 558.34375 395.171875 558.441406 396.25 558.546875 C 397.324219 558.652344 398.332031 558.761719 399.273438 558.875 C 400.214844 558.984375 401.085938 559.101562 401.882812 559.222656 C 402.683594 559.339844 403.40625 559.464844 404.054688 559.589844 C 404.703125 559.714844 405.273438 559.84375 405.765625 559.972656 C 406.257812 560.101562 406.667969 560.234375 407 560.367188 C 407.328125 560.5 407.578125 560.632812 407.742188 560.769531 C 407.910156 560.902344 407.992188 561.039062 407.992188 561.171875 Z M 407.992188 561.171875 " fill-opacity="1" fill-rule="nonzero"/><path fill="#db9f1f" d="M 347.074219 560.839844 C 351.300781 566.96875 372.105469 558.617188 365.21875 549.230469 L 355.265625 533.304688 C 354.914062 533.234375 354.578125 533.179688 354.226562 533.128906 C 349.59375 534.890625 344.886719 536.96875 340.042969 539.398438 C 340.113281 539.453125 340.183594 539.503906 340.253906 539.558594 L 335.144531 542.148438 Z M 347.074219 560.839844 " fill-opacity="1" fill-rule="evenodd"/><path fill="#efb231" d="M 352.867188 537.214844 C 353.03125 537.109375 353.207031 537.039062 353.394531 537 C 353.585938 536.964844 353.777344 536.964844 353.964844 537.003906 C 354.15625 537.042969 354.332031 537.117188 354.492188 537.226562 C 354.652344 537.335938 354.785156 537.472656 354.894531 537.632812 L 362.769531 549.59375 C 362.878906 549.757812 362.949219 549.933594 362.984375 550.121094 C 363.023438 550.3125 363.019531 550.503906 362.980469 550.695312 C 362.941406 550.882812 362.871094 551.058594 362.761719 551.21875 C 362.652344 551.378906 362.515625 551.511719 362.355469 551.621094 C 362.191406 551.726562 362.015625 551.796875 361.824219 551.835938 C 361.636719 551.871094 361.445312 551.871094 361.253906 551.832031 C 361.066406 551.792969 360.890625 551.71875 360.730469 551.609375 C 360.570312 551.5 360.4375 551.363281 360.328125 551.203125 L 352.449219 539.242188 C 352.34375 539.078125 352.273438 538.902344 352.234375 538.714844 C 352.199219 538.523438 352.199219 538.332031 352.238281 538.140625 C 352.277344 537.953125 352.351562 537.777344 352.460938 537.617188 C 352.570312 537.457031 352.707031 537.324219 352.867188 537.214844 Z M 352.867188 537.214844 " fill-opacity="1" fill-rule="evenodd"/><g clip-path="url(#39db76d380)"><path fill="#efb231" d="M 434.082031 391.414062 L 438.066406 364.546875 L 416.835938 403.464844 L 427 401.261719 L 423.019531 433.554688 L 446.46875 387.996094 Z M 434.082031 391.414062 " fill-opacity="1" fill-rule="evenodd"/></g><path fill="#efb231" d="M 467.699219 427.792969 L 446.910156 425.152344 L 515.457031 386.660156 L 477.316406 417.507812 L 498.386719 419.902344 L 438.066406 458.765625 Z M 467.699219 427.792969 " fill-opacity="1" fill-rule="evenodd"/><g clip-path="url(#8abc293a05)"><path fill="#efb231" d="M 490.527344 502.226562 L 524.96875 510.613281 L 479.886719 486.035156 L 482.003906 493.628906 L 451.824219 489.347656 L 493.347656 508.480469 Z M 490.527344 502.226562 " fill-opacity="1" fill-rule="evenodd"/></g></svg>