<svg xmlns="http://www.w3.org/2000/svg" xmlns:xlink="http://www.w3.org/1999/xlink" width="1080" zoomAndPan="magnify" viewBox="0 0 810 809.999993" height="1080" preserveAspectRatio="xMidYMid meet" version="1.0"><defs><clipPath id="86984fc789"><path d="M 218.808594 155.082031 L 591.558594 155.082031 L 591.558594 654.582031 L 218.808594 654.582031 Z M 218.808594 155.082031 " clip-rule="nonzero"/></clipPath><clipPath id="53162b720b"><path d="M 257.832031 192.574219 L 551.832031 192.574219 L 551.832031 486.574219 L 257.832031 486.574219 Z M 257.832031 192.574219 " clip-rule="nonzero"/></clipPath><clipPath id="f169d76b75"><path d="M 354 237.976562 L 431 237.976562 L 431 277 L 354 277 Z M 354 237.976562 " clip-rule="nonzero"/></clipPath><clipPath id="159d07f53d"><path d="M 325.4375 355 L 430 355 L 430 441.226562 L 325.4375 441.226562 Z M 325.4375 355 " clip-rule="nonzero"/></clipPath><clipPath id="1fd596c67a"><path d="M 434 412 L 460 412 L 460 441.226562 L 434 441.226562 Z M 434 412 " clip-rule="nonzero"/></clipPath><clipPath id="c124499e1c"><path d="M 426 330 L 520.4375 330 L 520.4375 425 L 426 425 Z M 426 330 " clip-rule="nonzero"/></clipPath></defs><g clip-path="url(#86984fc789)"><path fill="#da2c27" d="M 404.996094 428.3125 C 350.960938 428.3125 307.160156 384.511719 307.160156 330.476562 C 307.160156 276.445312 350.960938 232.636719 404.996094 232.636719 C 459.035156 232.636719 502.835938 276.445312 502.835938 330.476562 C 502.835938 384.511719 459.035156 428.3125 404.996094 428.3125 Z M 404.996094 155.003906 C 302.214844 155.003906 218.890625 238.328125 218.890625 341.109375 C 218.890625 479.359375 404.996094 654.832031 404.996094 654.832031 C 404.996094 654.832031 591.101562 479.359375 591.101562 341.109375 C 591.101562 238.328125 507.78125 155.003906 404.996094 155.003906 " fill-opacity="1" fill-rule="nonzero"/></g><g clip-path="url(#53162b720b)"><path fill="#ffffff" d="M 552.160156 339.738281 C 552.160156 342.144531 552.101562 344.550781 551.984375 346.957031 C 551.867188 349.363281 551.6875 351.765625 551.453125 354.160156 C 551.21875 356.558594 550.921875 358.949219 550.570312 361.332031 C 550.214844 363.710938 549.804688 366.085938 549.335938 368.445312 C 548.863281 370.808594 548.335938 373.160156 547.75 375.496094 C 547.167969 377.832031 546.523438 380.152344 545.824219 382.457031 C 545.125 384.761719 544.371094 387.046875 543.558594 389.316406 C 542.746094 391.582031 541.882812 393.828125 540.960938 396.054688 C 540.039062 398.277344 539.0625 400.480469 538.03125 402.65625 C 537.003906 404.835938 535.921875 406.984375 534.785156 409.109375 C 533.648438 411.234375 532.464844 413.328125 531.226562 415.394531 C 529.988281 417.460938 528.699219 419.496094 527.359375 421.496094 C 526.023438 423.5 524.636719 425.46875 523.199219 427.402344 C 521.765625 429.335938 520.285156 431.234375 518.757812 433.097656 C 517.230469 434.957031 515.65625 436.78125 514.039062 438.566406 C 512.421875 440.351562 510.761719 442.09375 509.058594 443.796875 C 507.355469 445.5 505.613281 447.160156 503.828125 448.777344 C 502.042969 450.394531 500.21875 451.96875 498.359375 453.496094 C 496.496094 455.023438 494.597656 456.503906 492.664062 457.941406 C 490.730469 459.375 488.761719 460.761719 486.757812 462.097656 C 484.753906 463.4375 482.722656 464.726562 480.65625 465.964844 C 478.589844 467.203125 476.496094 468.386719 474.371094 469.523438 C 472.246094 470.660156 470.097656 471.742188 467.917969 472.773438 C 465.742188 473.800781 463.539062 474.777344 461.316406 475.699219 C 459.089844 476.621094 456.84375 477.488281 454.574219 478.296875 C 452.308594 479.109375 450.023438 479.863281 447.71875 480.5625 C 445.414062 481.261719 443.09375 481.90625 440.753906 482.492188 C 438.417969 483.074219 436.070312 483.601562 433.707031 484.074219 C 431.347656 484.542969 428.972656 484.953125 426.589844 485.308594 C 424.207031 485.660156 421.820312 485.957031 419.421875 486.191406 C 417.027344 486.429688 414.625 486.605469 412.21875 486.722656 C 409.8125 486.84375 407.40625 486.902344 404.996094 486.902344 C 402.589844 486.902344 400.183594 486.84375 397.777344 486.722656 C 395.371094 486.605469 392.96875 486.429688 390.574219 486.191406 C 388.175781 485.957031 385.785156 485.660156 383.40625 485.308594 C 381.023438 484.953125 378.648438 484.542969 376.289062 484.074219 C 373.925781 483.601562 371.578125 483.074219 369.238281 482.492188 C 366.902344 481.90625 364.582031 481.261719 362.277344 480.5625 C 359.972656 479.863281 357.6875 479.109375 355.417969 478.296875 C 353.152344 477.488281 350.90625 476.621094 348.679688 475.699219 C 346.457031 474.777344 344.253906 473.800781 342.078125 472.773438 C 339.898438 471.742188 337.75 470.660156 335.625 469.523438 C 333.5 468.386719 331.40625 467.203125 329.339844 465.964844 C 327.273438 464.726562 325.242188 463.4375 323.238281 462.097656 C 321.234375 460.761719 319.265625 459.375 317.332031 457.941406 C 315.398438 456.503906 313.5 455.023438 311.636719 453.496094 C 309.777344 451.96875 307.953125 450.394531 306.167969 448.777344 C 304.382812 447.160156 302.640625 445.5 300.9375 443.796875 C 299.234375 442.09375 297.574219 440.351562 295.957031 438.566406 C 294.339844 436.78125 292.765625 434.957031 291.238281 433.097656 C 289.710938 431.234375 288.230469 429.335938 286.792969 427.402344 C 285.359375 425.46875 283.972656 423.5 282.636719 421.496094 C 281.296875 419.496094 280.007812 417.460938 278.769531 415.394531 C 277.53125 413.328125 276.347656 411.234375 275.210938 409.109375 C 274.074219 406.984375 272.992188 404.835938 271.964844 402.65625 C 270.933594 400.480469 269.957031 398.277344 269.035156 396.054688 C 268.113281 393.828125 267.246094 391.582031 266.4375 389.316406 C 265.625 387.046875 264.871094 384.761719 264.171875 382.457031 C 263.472656 380.152344 262.828125 377.832031 262.246094 375.496094 C 261.660156 373.160156 261.132812 370.808594 260.660156 368.445312 C 260.191406 366.085938 259.78125 363.710938 259.425781 361.332031 C 259.074219 358.949219 258.777344 356.558594 258.542969 354.160156 C 258.304688 351.765625 258.128906 349.363281 258.011719 346.957031 C 257.894531 344.550781 257.832031 342.144531 257.832031 339.738281 C 257.832031 337.328125 257.894531 334.921875 258.011719 332.515625 C 258.128906 330.109375 258.304688 327.710938 258.542969 325.3125 C 258.777344 322.914062 259.074219 320.527344 259.425781 318.144531 C 259.78125 315.761719 260.191406 313.390625 260.660156 311.027344 C 261.132812 308.664062 261.660156 306.316406 262.246094 303.980469 C 262.828125 301.644531 263.472656 299.320312 264.171875 297.015625 C 264.871094 294.710938 265.625 292.425781 266.4375 290.160156 C 267.246094 287.890625 268.113281 285.644531 269.035156 283.417969 C 269.957031 281.195312 270.933594 278.992188 271.964844 276.816406 C 272.992188 274.640625 274.074219 272.488281 275.210938 270.363281 C 276.347656 268.238281 277.53125 266.144531 278.769531 264.078125 C 280.007812 262.011719 281.296875 259.980469 282.636719 257.976562 C 283.972656 255.972656 285.359375 254.003906 286.792969 252.070312 C 288.230469 250.136719 289.710938 248.238281 291.238281 246.378906 C 292.765625 244.515625 294.339844 242.691406 295.957031 240.90625 C 297.574219 239.121094 299.234375 237.378906 300.9375 235.675781 C 302.640625 233.972656 304.382812 232.3125 306.167969 230.695312 C 307.953125 229.078125 309.777344 227.503906 311.636719 225.976562 C 313.5 224.449219 315.398438 222.96875 317.332031 221.535156 C 319.265625 220.097656 321.234375 218.710938 323.238281 217.375 C 325.242188 216.035156 327.273438 214.75 329.339844 213.511719 C 331.40625 212.273438 333.5 211.085938 335.625 209.949219 C 337.75 208.8125 339.898438 207.730469 342.078125 206.703125 C 344.253906 205.671875 346.457031 204.695312 348.679688 203.773438 C 350.90625 202.851562 353.152344 201.988281 355.417969 201.175781 C 357.6875 200.363281 359.972656 199.609375 362.277344 198.910156 C 364.582031 198.210938 366.902344 197.566406 369.238281 196.984375 C 371.578125 196.398438 373.925781 195.871094 376.289062 195.402344 C 378.648438 194.929688 381.023438 194.519531 383.40625 194.164062 C 385.785156 193.8125 388.175781 193.515625 390.574219 193.28125 C 392.96875 193.046875 395.371094 192.867188 397.777344 192.75 C 400.183594 192.632812 402.589844 192.574219 404.996094 192.574219 C 407.40625 192.574219 409.8125 192.632812 412.21875 192.75 C 414.625 192.867188 417.027344 193.046875 419.421875 193.28125 C 421.820312 193.515625 424.207031 193.8125 426.589844 194.164062 C 428.972656 194.519531 431.347656 194.929688 433.707031 195.402344 C 436.070312 195.871094 438.417969 196.398438 440.753906 196.984375 C 443.09375 197.566406 445.414062 198.210938 447.71875 198.910156 C 450.023438 199.609375 452.308594 200.363281 454.574219 201.175781 C 456.84375 201.988281 459.089844 202.851562 461.316406 203.773438 C 463.539062 204.695312 465.742188 205.671875 467.917969 206.703125 C 470.097656 207.730469 472.246094 208.8125 474.371094 209.949219 C 476.496094 211.085938 478.589844 212.273438 480.65625 213.511719 C 482.722656 214.75 484.753906 216.035156 486.757812 217.375 C 488.761719 218.710938 490.730469 220.097656 492.664062 221.535156 C 494.597656 222.96875 496.496094 224.449219 498.359375 225.976562 C 500.21875 227.503906 502.042969 229.078125 503.828125 230.695312 C 505.613281 232.3125 507.355469 233.972656 509.058594 235.675781 C 510.761719 237.378906 512.421875 239.121094 514.039062 240.90625 C 515.65625 242.691406 517.230469 244.515625 518.757812 246.378906 C 520.285156 248.238281 521.765625 250.136719 523.199219 252.070312 C 524.636719 254.003906 526.023438 255.972656 527.359375 257.976562 C 528.699219 259.980469 529.988281 262.011719 531.226562 264.078125 C 532.464844 266.144531 533.648438 268.238281 534.785156 270.363281 C 535.921875 272.488281 537.003906 274.640625 538.03125 276.816406 C 539.0625 278.992188 540.039062 281.195312 540.960938 283.417969 C 541.882812 285.644531 542.746094 287.890625 543.558594 290.160156 C 544.371094 292.425781 545.125 294.710938 545.824219 297.015625 C 546.523438 299.320312 547.167969 301.644531 547.75 303.980469 C 548.335938 306.316406 548.863281 308.664062 549.335938 311.027344 C 549.804688 313.390625 550.214844 315.761719 550.570312 318.144531 C 550.921875 320.527344 551.21875 322.914062 551.453125 325.3125 C 551.6875 327.710938 551.867188 330.109375 551.984375 332.515625 C 552.101562 334.921875 552.160156 337.328125 552.160156 339.738281 Z M 552.160156 339.738281 " fill-opacity="1" fill-rule="nonzero"/></g><g clip-path="url(#f169d76b75)"><path fill="#193e80" d="M 392.414062 237.996094 C 372.867188 237.996094 356.695312 252.714844 354.386719 271.648438 C 357.105469 270.027344 361 267.992188 365.597656 266.410156 C 377.59375 262.285156 388.59375 263.292969 397.414062 269.324219 C 412.972656 279.972656 426.441406 276.335938 430.6875 274.730469 C 429.863281 254.339844 413.015625 237.996094 392.414062 237.996094 Z M 392.414062 237.996094 " fill-opacity="1" fill-rule="evenodd"/></g><path fill="#193e80" d="M 354.105469 277.554688 L 354.105469 299.429688 C 354.105469 315.164062 363.644531 328.714844 377.242188 334.601562 C 377.402344 334.648438 377.550781 334.714844 377.691406 334.796875 C 382.230469 336.6875 387.199219 337.738281 392.414062 337.738281 C 397.609375 337.738281 402.566406 336.699219 407.089844 334.8125 C 407.257812 334.714844 407.441406 334.636719 407.636719 334.582031 C 421.210938 328.683594 430.726562 315.144531 430.726562 299.429688 L 430.726562 279.8125 C 428.152344 280.613281 424.292969 281.46875 419.554688 281.46875 C 412.691406 281.46875 403.996094 279.675781 394.691406 273.308594 C 378.527344 262.25 358.636719 274.46875 354.105469 277.554688 Z M 354.105469 277.554688 " fill-opacity="1" fill-rule="evenodd"/><path fill="#193e80" d="M 405.886719 340.40625 C 401.648438 341.804688 397.117188 342.5625 392.414062 342.5625 C 387.707031 342.5625 383.175781 341.804688 378.9375 340.40625 L 378.9375 351.785156 C 378.9375 353.117188 377.859375 354.195312 376.523438 354.195312 L 375.597656 354.195312 C 372.785156 354.195312 370.027344 354.429688 367.335938 354.878906 C 372.519531 363.6875 382.058594 369.234375 392.414062 369.234375 C 402.773438 369.234375 412.308594 363.6875 417.496094 354.878906 C 414.777344 354.421875 412.019531 354.191406 409.222656 354.191406 L 408.296875 354.191406 C 406.960938 354.191406 405.882812 353.113281 405.882812 351.777344 L 405.882812 340.40625 Z M 405.886719 340.40625 " fill-opacity="1" fill-rule="evenodd"/><g clip-path="url(#159d07f53d)"><path fill="#193e80" d="M 362.417969 355.953125 C 341.148438 361.753906 325.464844 381.238281 325.464844 404.328125 L 325.464844 441.519531 L 350.070312 441.519531 L 350.070312 401.632812 C 350.070312 400.296875 351.148438 399.21875 352.484375 399.21875 C 353.816406 399.21875 354.894531 400.296875 354.894531 401.632812 L 354.894531 441.519531 L 429.945312 441.519531 L 429.945312 406.445312 C 424.445312 398.195312 421.238281 388.300781 421.238281 377.667969 C 421.238281 370.296875 422.777344 363.289062 425.550781 356.933594 C 424.515625 356.574219 423.46875 356.25 422.417969 355.957031 C 416.578125 367.007812 405.015625 374.046875 392.417969 374.046875 C 379.8125 374.046875 368.25 367.007812 362.417969 355.953125 Z M 362.417969 355.953125 " fill-opacity="1" fill-rule="evenodd"/></g><g clip-path="url(#1fd596c67a)"><path fill="#193e80" d="M 434.761719 412.628906 L 434.761719 441.515625 L 459.363281 441.515625 L 459.363281 427.816406 C 449.769531 425.148438 441.277344 419.800781 434.761719 412.628906 Z M 434.761719 412.628906 " fill-opacity="1" fill-rule="evenodd"/></g><path fill="#193e80" d="M 455.273438 379.871094 C 453.875 378.472656 451.601562 378.472656 450.199219 379.871094 C 449.523438 380.550781 449.152344 381.449219 449.152344 382.40625 C 449.152344 383.367188 449.523438 384.265625 450.199219 384.941406 L 459.558594 394.292969 C 461.761719 396.496094 465.347656 396.496094 467.550781 394.292969 L 496.335938 365.507812 C 497.734375 364.109375 497.734375 361.832031 496.335938 360.433594 C 494.9375 359.035156 492.664062 359.035156 491.261719 360.433594 L 465.257812 386.441406 C 464.804688 386.894531 464.191406 387.144531 463.550781 387.144531 C 462.910156 387.144531 462.300781 386.890625 461.847656 386.441406 Z M 455.273438 379.871094 " fill-opacity="1" fill-rule="evenodd"/><g clip-path="url(#c124499e1c)"><path fill="#da2c27" d="M 473.269531 330.453125 C 447.238281 330.453125 426.058594 351.632812 426.058594 377.667969 C 426.058594 403.699219 447.238281 424.878906 473.269531 424.878906 C 499.304688 424.878906 520.484375 403.699219 520.484375 377.667969 C 520.484375 351.632812 499.304688 330.453125 473.269531 330.453125 Z M 446.789062 376.460938 C 450.070312 373.179688 455.40625 373.179688 458.679688 376.460938 L 463.546875 381.328125 L 487.847656 357.027344 C 491.125 353.746094 496.464844 353.746094 499.738281 357.027344 C 503.015625 360.304688 503.015625 365.636719 499.738281 368.917969 L 470.953125 397.703125 C 468.917969 399.742188 466.234375 400.765625 463.550781 400.765625 C 460.871094 400.765625 458.1875 399.742188 456.148438 397.703125 L 446.789062 388.351562 C 443.511719 385.078125 443.511719 379.738281 446.789062 376.460938 Z M 446.789062 376.460938 " fill-opacity="1" fill-rule="evenodd"/></g></svg>