<svg xmlns="http://www.w3.org/2000/svg" xmlns:xlink="http://www.w3.org/1999/xlink" width="1080" zoomAndPan="magnify" viewBox="0 0 810 809.999993" height="1080" preserveAspectRatio="xMidYMid meet" version="1.0"><defs><clipPath id="b9057ebf67"><path d="M 218.808594 155.082031 L 591.558594 155.082031 L 591.558594 654.578125 L 218.808594 654.578125 Z M 218.808594 155.082031 " clip-rule="nonzero"/></clipPath><clipPath id="ea1789c20c"><path d="M 257.832031 192.574219 L 551.832031 192.574219 L 551.832031 486.574219 L 257.832031 486.574219 Z M 257.832031 192.574219 " clip-rule="nonzero"/></clipPath><clipPath id="5d10e274a0"><path d="M 373.488281 386.902344 L 396.945312 386.902344 L 396.945312 412.453125 L 373.488281 412.453125 Z M 373.488281 386.902344 " clip-rule="nonzero"/></clipPath><clipPath id="de7cbdf319"><path d="M 289.054688 265 L 344 265 L 344 342 L 289.054688 342 Z M 289.054688 265 " clip-rule="nonzero"/></clipPath><clipPath id="106fd996cc"><path d="M 467 268.3125 L 520.804688 268.3125 L 520.804688 343.941406 L 467 343.941406 Z M 467 268.3125 " clip-rule="nonzero"/></clipPath></defs><g clip-path="url(#b9057ebf67)"><path fill="#da2c27" d="M 404.996094 428.3125 C 350.960938 428.3125 307.160156 384.511719 307.160156 330.476562 C 307.160156 276.445312 350.960938 232.636719 404.996094 232.636719 C 459.035156 232.636719 502.835938 276.445312 502.835938 330.476562 C 502.835938 384.511719 459.035156 428.3125 404.996094 428.3125 Z M 404.996094 155.003906 C 302.214844 155.003906 218.890625 238.328125 218.890625 341.109375 C 218.890625 479.359375 404.996094 654.832031 404.996094 654.832031 C 404.996094 654.832031 591.101562 479.359375 591.101562 341.109375 C 591.101562 238.328125 507.78125 155.003906 404.996094 155.003906 " fill-opacity="1" fill-rule="nonzero"/></g><g clip-path="url(#ea1789c20c)"><path fill="#ffffff" d="M 552.160156 339.738281 C 552.160156 342.144531 552.101562 344.550781 551.984375 346.957031 C 551.867188 349.363281 551.6875 351.765625 551.453125 354.160156 C 551.21875 356.558594 550.921875 358.949219 550.570312 361.332031 C 550.214844 363.710938 549.804688 366.085938 549.335938 368.445312 C 548.863281 370.808594 548.335938 373.160156 547.75 375.496094 C 547.167969 377.832031 546.523438 380.152344 545.824219 382.457031 C 545.125 384.761719 544.371094 387.046875 543.558594 389.316406 C 542.746094 391.582031 541.882812 393.828125 540.960938 396.054688 C 540.039062 398.277344 539.0625 400.480469 538.03125 402.65625 C 537.003906 404.835938 535.921875 406.984375 534.785156 409.109375 C 533.648438 411.234375 532.464844 413.328125 531.226562 415.394531 C 529.988281 417.460938 528.699219 419.496094 527.359375 421.496094 C 526.023438 423.5 524.636719 425.46875 523.199219 427.402344 C 521.765625 429.335938 520.285156 431.234375 518.757812 433.097656 C 517.230469 434.957031 515.65625 436.78125 514.039062 438.566406 C 512.421875 440.351562 510.761719 442.09375 509.058594 443.796875 C 507.355469 445.5 505.613281 447.160156 503.828125 448.777344 C 502.042969 450.394531 500.21875 451.96875 498.359375 453.496094 C 496.496094 455.023438 494.597656 456.503906 492.664062 457.941406 C 490.730469 459.375 488.761719 460.761719 486.757812 462.097656 C 484.753906 463.4375 482.722656 464.726562 480.65625 465.964844 C 478.589844 467.203125 476.496094 468.386719 474.371094 469.523438 C 472.246094 470.660156 470.097656 471.742188 467.917969 472.773438 C 465.742188 473.800781 463.539062 474.777344 461.316406 475.699219 C 459.089844 476.621094 456.84375 477.488281 454.574219 478.296875 C 452.308594 479.109375 450.023438 479.863281 447.71875 480.5625 C 445.414062 481.261719 443.09375 481.90625 440.753906 482.492188 C 438.417969 483.074219 436.070312 483.601562 433.707031 484.074219 C 431.347656 484.542969 428.972656 484.953125 426.589844 485.308594 C 424.207031 485.660156 421.820312 485.957031 419.421875 486.191406 C 417.027344 486.429688 414.625 486.605469 412.21875 486.722656 C 409.8125 486.84375 407.40625 486.902344 404.996094 486.902344 C 402.589844 486.902344 400.183594 486.84375 397.777344 486.722656 C 395.371094 486.605469 392.96875 486.429688 390.574219 486.191406 C 388.175781 485.957031 385.785156 485.660156 383.40625 485.308594 C 381.023438 484.953125 378.648438 484.542969 376.289062 484.074219 C 373.925781 483.601562 371.578125 483.074219 369.238281 482.492188 C 366.902344 481.90625 364.582031 481.261719 362.277344 480.5625 C 359.972656 479.863281 357.6875 479.109375 355.417969 478.296875 C 353.152344 477.488281 350.90625 476.621094 348.679688 475.699219 C 346.457031 474.777344 344.253906 473.800781 342.078125 472.773438 C 339.898438 471.742188 337.75 470.660156 335.625 469.523438 C 333.5 468.386719 331.40625 467.203125 329.339844 465.964844 C 327.273438 464.726562 325.242188 463.4375 323.238281 462.097656 C 321.234375 460.761719 319.265625 459.375 317.332031 457.941406 C 315.398438 456.503906 313.5 455.023438 311.636719 453.496094 C 309.777344 451.96875 307.953125 450.394531 306.167969 448.777344 C 304.382812 447.160156 302.640625 445.5 300.9375 443.796875 C 299.234375 442.09375 297.574219 440.351562 295.957031 438.566406 C 294.339844 436.78125 292.765625 434.957031 291.238281 433.097656 C 289.710938 431.234375 288.230469 429.335938 286.792969 427.402344 C 285.359375 425.46875 283.972656 423.5 282.636719 421.496094 C 281.296875 419.496094 280.007812 417.460938 278.769531 415.394531 C 277.53125 413.328125 276.347656 411.234375 275.210938 409.109375 C 274.074219 406.984375 272.992188 404.835938 271.964844 402.65625 C 270.933594 400.480469 269.957031 398.277344 269.035156 396.054688 C 268.113281 393.828125 267.246094 391.582031 266.4375 389.316406 C 265.625 387.046875 264.871094 384.761719 264.171875 382.457031 C 263.472656 380.152344 262.828125 377.832031 262.246094 375.496094 C 261.660156 373.160156 261.132812 370.808594 260.660156 368.445312 C 260.191406 366.085938 259.78125 363.710938 259.425781 361.332031 C 259.074219 358.949219 258.777344 356.558594 258.542969 354.160156 C 258.304688 351.765625 258.128906 349.363281 258.011719 346.957031 C 257.894531 344.550781 257.832031 342.144531 257.832031 339.738281 C 257.832031 337.328125 257.894531 334.921875 258.011719 332.515625 C 258.128906 330.109375 258.304688 327.710938 258.542969 325.3125 C 258.777344 322.914062 259.074219 320.527344 259.425781 318.144531 C 259.78125 315.761719 260.191406 313.390625 260.660156 311.027344 C 261.132812 308.664062 261.660156 306.316406 262.246094 303.980469 C 262.828125 301.644531 263.472656 299.320312 264.171875 297.015625 C 264.871094 294.710938 265.625 292.425781 266.4375 290.160156 C 267.246094 287.890625 268.113281 285.644531 269.035156 283.417969 C 269.957031 281.195312 270.933594 278.992188 271.964844 276.816406 C 272.992188 274.640625 274.074219 272.488281 275.210938 270.363281 C 276.347656 268.238281 277.53125 266.144531 278.769531 264.078125 C 280.007812 262.011719 281.296875 259.980469 282.636719 257.976562 C 283.972656 255.972656 285.359375 254.003906 286.792969 252.070312 C 288.230469 250.136719 289.710938 248.238281 291.238281 246.378906 C 292.765625 244.515625 294.339844 242.691406 295.957031 240.90625 C 297.574219 239.121094 299.234375 237.378906 300.9375 235.675781 C 302.640625 233.972656 304.382812 232.3125 306.167969 230.695312 C 307.953125 229.078125 309.777344 227.503906 311.636719 225.976562 C 313.5 224.449219 315.398438 222.96875 317.332031 221.535156 C 319.265625 220.097656 321.234375 218.710938 323.238281 217.375 C 325.242188 216.035156 327.273438 214.75 329.339844 213.511719 C 331.40625 212.273438 333.5 211.085938 335.625 209.949219 C 337.75 208.8125 339.898438 207.730469 342.078125 206.703125 C 344.253906 205.671875 346.457031 204.695312 348.679688 203.773438 C 350.90625 202.851562 353.152344 201.988281 355.417969 201.175781 C 357.6875 200.363281 359.972656 199.609375 362.277344 198.910156 C 364.582031 198.210938 366.902344 197.566406 369.238281 196.984375 C 371.578125 196.398438 373.925781 195.871094 376.289062 195.402344 C 378.648438 194.929688 381.023438 194.519531 383.40625 194.164062 C 385.785156 193.8125 388.175781 193.515625 390.574219 193.28125 C 392.96875 193.046875 395.371094 192.867188 397.777344 192.75 C 400.183594 192.632812 402.589844 192.574219 404.996094 192.574219 C 407.40625 192.574219 409.8125 192.632812 412.21875 192.75 C 414.625 192.867188 417.027344 193.046875 419.421875 193.28125 C 421.820312 193.515625 424.207031 193.8125 426.589844 194.164062 C 428.972656 194.519531 431.347656 194.929688 433.707031 195.402344 C 436.070312 195.871094 438.417969 196.398438 440.753906 196.984375 C 443.09375 197.566406 445.414062 198.210938 447.71875 198.910156 C 450.023438 199.609375 452.308594 200.363281 454.574219 201.175781 C 456.84375 201.988281 459.089844 202.851562 461.316406 203.773438 C 463.539062 204.695312 465.742188 205.671875 467.917969 206.703125 C 470.097656 207.730469 472.246094 208.8125 474.371094 209.949219 C 476.496094 211.085938 478.589844 212.273438 480.65625 213.511719 C 482.722656 214.75 484.753906 216.035156 486.757812 217.375 C 488.761719 218.710938 490.730469 220.097656 492.664062 221.535156 C 494.597656 222.96875 496.496094 224.449219 498.359375 225.976562 C 500.21875 227.503906 502.042969 229.078125 503.828125 230.695312 C 505.613281 232.3125 507.355469 233.972656 509.058594 235.675781 C 510.761719 237.378906 512.421875 239.121094 514.039062 240.90625 C 515.65625 242.691406 517.230469 244.515625 518.757812 246.378906 C 520.285156 248.238281 521.765625 250.136719 523.199219 252.070312 C 524.636719 254.003906 526.023438 255.972656 527.359375 257.976562 C 528.699219 259.980469 529.988281 262.011719 531.226562 264.078125 C 532.464844 266.144531 533.648438 268.238281 534.785156 270.363281 C 535.921875 272.488281 537.003906 274.640625 538.03125 276.816406 C 539.0625 278.992188 540.039062 281.195312 540.960938 283.417969 C 541.882812 285.644531 542.746094 287.890625 543.558594 290.160156 C 544.371094 292.425781 545.125 294.710938 545.824219 297.015625 C 546.523438 299.320312 547.167969 301.644531 547.75 303.980469 C 548.335938 306.316406 548.863281 308.664062 549.335938 311.027344 C 549.804688 313.390625 550.214844 315.761719 550.570312 318.144531 C 550.921875 320.527344 551.21875 322.914062 551.453125 325.3125 C 551.6875 327.710938 551.867188 330.109375 551.984375 332.515625 C 552.101562 334.921875 552.160156 337.328125 552.160156 339.738281 Z M 552.160156 339.738281 " fill-opacity="1" fill-rule="nonzero"/></g><path fill="#193e80" d="M 367.71875 373.3125 L 356.140625 388.859375 C 353.6875 392.15625 354.378906 396.863281 357.671875 399.316406 L 358.488281 399.921875 C 359.820312 400.914062 361.382812 401.390625 362.933594 401.390625 C 365.21875 401.390625 367.480469 400.351562 368.941406 398.390625 L 380.515625 382.839844 C 382.972656 379.542969 382.28125 374.839844 378.984375 372.386719 L 378.171875 371.78125 C 376.839844 370.789062 375.277344 370.308594 373.726562 370.308594 C 371.441406 370.308594 369.179688 371.347656 367.71875 373.3125 " fill-opacity="1" fill-rule="nonzero"/><g clip-path="url(#5d10e274a0)"><path fill="#193e80" d="M 382.765625 389.640625 L 374.871094 400.246094 C 372.679688 403.1875 373.296875 407.390625 376.238281 409.578125 L 378.335938 411.140625 C 379.527344 412.027344 380.921875 412.453125 382.304688 412.453125 C 384.347656 412.453125 386.367188 411.527344 387.671875 409.773438 L 395.566406 399.171875 C 397.753906 396.226562 397.140625 392.027344 394.195312 389.835938 L 392.101562 388.273438 C 390.910156 387.386719 389.515625 386.960938 388.128906 386.960938 C 386.089844 386.960938 384.070312 387.886719 382.765625 389.640625 " fill-opacity="1" fill-rule="nonzero"/></g><path fill="#193e80" d="M 340.554688 355.019531 L 337.367188 352.648438 C 336.300781 351.855469 335.046875 351.46875 333.800781 351.46875 C 331.96875 351.472656 330.152344 352.304688 328.980469 353.878906 L 323.667969 361.015625 C 321.699219 363.660156 322.253906 367.433594 324.898438 369.402344 L 328.082031 371.773438 C 329.148438 372.570312 330.402344 372.953125 331.648438 372.953125 C 333.480469 372.953125 335.296875 372.121094 336.46875 370.542969 L 341.78125 363.40625 C 343.75 360.765625 343.199219 356.988281 340.554688 355.019531 " fill-opacity="1" fill-rule="nonzero"/><path fill="#193e80" d="M 364.101562 356.125 C 362.675781 355.0625 361.007812 354.550781 359.347656 354.550781 C 356.902344 354.550781 354.484375 355.664062 352.917969 357.761719 L 338.792969 376.738281 C 336.167969 380.265625 336.90625 385.296875 340.429688 387.921875 C 341.855469 388.984375 343.527344 389.496094 345.1875 389.496094 C 347.394531 389.496094 349.578125 388.589844 351.128906 386.871094 C 351.363281 386.472656 351.621094 386.082031 351.902344 385.707031 L 358.613281 376.695312 L 363.480469 370.15625 C 363.8125 369.707031 364.179688 369.285156 364.566406 368.882812 L 365.742188 367.308594 C 368.367188 363.78125 367.628906 358.75 364.101562 356.125 " fill-opacity="1" fill-rule="nonzero"/><g clip-path="url(#de7cbdf319)"><path fill="#193e80" d="M 324.300781 267.578125 L 290.246094 328.523438 C 289.164062 330.453125 289.855469 332.894531 291.789062 333.972656 L 303.550781 340.546875 C 305.484375 341.625 307.921875 340.9375 309 339.003906 L 343.058594 278.0625 C 344.136719 276.128906 343.449219 273.691406 341.515625 272.609375 L 329.753906 266.035156 C 327.820312 264.957031 325.382812 265.648438 324.300781 267.578125 " fill-opacity="1" fill-rule="nonzero"/></g><g clip-path="url(#106fd996cc)"><path fill="#193e80" d="M 467.511719 280.878906 L 501.570312 341.824219 C 502.648438 343.753906 505.089844 344.445312 507.019531 343.367188 L 518.78125 336.792969 C 520.714844 335.710938 521.402344 333.273438 520.324219 331.339844 L 486.269531 270.398438 C 485.1875 268.464844 482.75 267.777344 480.816406 268.855469 L 469.054688 275.429688 C 467.121094 276.507812 466.433594 278.949219 467.511719 280.878906 " fill-opacity="1" fill-rule="nonzero"/></g><path fill="#193e80" d="M 481.410156 363.445312 C 481.503906 360.632812 480.1875 357.957031 477.945312 356.257812 L 460.269531 342.863281 C 453.882812 338.359375 445.914062 333.203125 436.585938 327.535156 C 423.4375 319.539062 411.042969 312.621094 405.296875 309.460938 C 404.398438 308.96875 403.347656 308.839844 402.359375 309.097656 L 395.898438 310.792969 C 394.949219 311.039062 394.125 311.625 393.570312 312.4375 L 393.5625 312.445312 C 391.773438 315.070312 389.78125 317.480469 387.640625 319.605469 C 385.132812 322.101562 382.46875 324.175781 379.722656 325.765625 C 376.433594 327.675781 373.046875 328.878906 369.65625 329.34375 C 368.902344 329.449219 368.148438 329.5 367.410156 329.5 C 364.75 329.5 362.269531 328.816406 360.242188 327.527344 C 357.644531 325.871094 355.976562 323.449219 355.421875 320.519531 C 354.78125 317.128906 355.65625 313.257812 358.105469 308.679688 C 359.828125 305.460938 361.976562 302.511719 363.542969 300.363281 C 363.929688 299.835938 364.261719 299.378906 364.527344 299 C 365.609375 297.464844 366.871094 295.707031 368.28125 293.867188 C 368.640625 293.398438 368.261719 292.726562 367.671875 292.792969 C 364.707031 293.136719 357.996094 292.800781 347.445312 286.257812 C 346.507812 285.679688 345.273438 285.996094 344.734375 286.960938 L 315.476562 339.3125 C 314.863281 340.410156 315.011719 341.777344 315.847656 342.71875 L 323.605469 351.445312 C 323.714844 351.566406 323.832031 351.675781 323.964844 351.769531 L 324.742188 350.722656 C 325.808594 349.292969 327.21875 348.121094 328.824219 347.335938 C 330.363281 346.582031 332.085938 346.1875 333.800781 346.1875 C 334.988281 346.1875 336.15625 346.371094 337.28125 346.734375 C 338.449219 347.113281 339.539062 347.679688 340.523438 348.410156 L 343.707031 350.78125 C 344.925781 351.6875 345.933594 352.8125 346.699219 354.121094 C 346.878906 354.429688 347.042969 354.746094 347.191406 355.066406 C 347.390625 355.492188 347.972656 355.554688 348.253906 355.175781 L 348.675781 354.605469 C 349.933594 352.921875 351.589844 351.542969 353.476562 350.621094 C 355.289062 349.734375 357.351562 349.265625 359.332031 349.265625 C 360.722656 349.265625 362.113281 349.484375 363.4375 349.914062 C 364.808594 350.355469 366.097656 351.019531 367.257812 351.882812 C 368.691406 352.953125 369.875 354.273438 370.777344 355.816406 C 371.640625 357.296875 372.207031 358.910156 372.457031 360.613281 C 372.628906 361.792969 372.644531 362.976562 372.503906 364.148438 C 372.445312 364.625 372.820312 365.046875 373.304688 365.03125 C 373.445312 365.027344 373.589844 365.023438 373.734375 365.023438 C 375.054688 365.023438 376.394531 365.234375 377.664062 365.644531 C 378.984375 366.074219 380.210938 366.710938 381.328125 367.539062 L 382.140625 368.144531 C 386.125 371.113281 387.882812 375.980469 387.089844 380.570312 C 386.988281 381.152344 387.445312 381.683594 388.039062 381.675781 C 388.070312 381.675781 388.101562 381.675781 388.132812 381.675781 C 389.390625 381.675781 390.628906 381.871094 391.820312 382.257812 C 393.054688 382.660156 394.210938 383.257812 395.253906 384.035156 L 397.351562 385.597656 C 402.648438 389.539062 403.746094 397.027344 399.804688 402.328125 L 398.769531 403.714844 C 398.285156 404.367188 398.398438 405.304688 399.054688 405.789062 C 399.167969 405.871094 399.296875 405.941406 399.429688 405.988281 C 401.78125 406.820312 424.464844 414.527344 430.871094 403.714844 C 431.292969 403.003906 431.007812 402.082031 430.265625 401.71875 L 409.109375 391.375 C 407.835938 390.75 407.167969 389.296875 407.582031 387.9375 C 407.882812 386.949219 408.746094 386.050781 410.839844 385.960938 C 411.058594 385.953125 411.28125 386.003906 411.476562 386.105469 L 433.238281 397.457031 C 435.683594 398.734375 438.457031 399.269531 441.191406 398.929688 C 444.542969 398.515625 448.191406 396.789062 448.507812 391.3125 C 448.59375 389.875 447.851562 388.515625 446.609375 387.789062 L 419.457031 371.972656 C 418.394531 371.355469 417.824219 370.144531 418.027344 368.933594 C 418.21875 367.800781 418.824219 366.648438 420.492188 366.585938 C 421.035156 366.566406 421.574219 366.710938 422.046875 366.988281 L 450.578125 383.570312 C 452.011719 384.402344 453.652344 384.808594 455.308594 384.730469 C 458.164062 384.597656 462.328125 383.730469 463.972656 380.015625 C 465.417969 376.75 464.144531 372.914062 461.078125 371.074219 L 429.839844 352.332031 C 428.917969 351.777344 428.375 350.757812 428.445312 349.683594 C 428.539062 348.265625 429.257812 346.664062 432.160156 347.128906 C 432.511719 347.183594 432.847656 347.3125 433.15625 347.496094 L 468.640625 368.648438 C 471.277344 370.21875 474.515625 370.480469 477.335938 369.269531 C 479.4375 368.371094 481.300781 366.664062 481.410156 363.445312 " fill-opacity="1" fill-rule="nonzero"/><path fill="#193e80" d="M 494.382812 340.621094 L 464.765625 287.621094 C 464.527344 287.199219 464.03125 286.996094 463.570312 287.136719 C 461.441406 287.765625 458.78125 288.414062 458.394531 288.460938 C 457.253906 288.601562 456.101562 288.667969 454.957031 288.667969 C 451.054688 288.667969 447.15625 287.894531 443.476562 286.628906 C 434.894531 283.683594 424.222656 282.832031 414.707031 282.832031 C 407.667969 282.832031 401.257812 283.296875 396.789062 283.71875 C 393.105469 284.066406 389.53125 284.332031 385.964844 285.386719 C 382.609375 286.375 379.742188 288.664062 377.402344 291.195312 C 376.78125 291.863281 376.175781 292.546875 375.582031 293.242188 C 373.179688 296.046875 370.964844 299.039062 368.851562 302.039062 C 365.757812 306.441406 355.871094 318.480469 363.078125 323.066406 C 364.359375 323.882812 365.882812 324.214844 367.410156 324.214844 C 367.921875 324.214844 368.433594 324.175781 368.9375 324.109375 C 374.703125 323.316406 379.871094 319.882812 383.914062 315.859375 C 385.875 313.910156 387.640625 311.753906 389.199219 309.46875 C 389.464844 309.078125 390.527344 306.738281 390.976562 306.617188 L 400.871094 304.023438 L 404.179688 303.15625 C 404.265625 303.136719 404.355469 303.125 404.449219 303.125 C 404.621094 303.125 404.796875 303.167969 404.953125 303.25 C 410.054688 306.015625 454.527344 330.40625 480.046875 352.433594 C 480.050781 352.4375 480.050781 352.4375 480.054688 352.441406 C 480.40625 352.742188 480.921875 352.738281 481.28125 352.445312 L 494.324219 341.722656 C 494.550781 341.394531 494.578125 340.96875 494.382812 340.621094 " fill-opacity="1" fill-rule="nonzero"/></svg>