<svg xmlns="http://www.w3.org/2000/svg" xmlns:xlink="http://www.w3.org/1999/xlink" width="1080" zoomAndPan="magnify" viewBox="0 0 810 809.999993" height="1080" preserveAspectRatio="xMidYMid meet" version="1.0"><defs><clipPath id="15b5e63ded"><path d="M 218.808594 155.082031 L 591.558594 155.082031 L 591.558594 654.578125 L 218.808594 654.578125 Z M 218.808594 155.082031 " clip-rule="nonzero"/></clipPath><clipPath id="0bda4e8b81"><path d="M 257.832031 192.574219 L 551.832031 192.574219 L 551.832031 486.574219 L 257.832031 486.574219 Z M 257.832031 192.574219 " clip-rule="nonzero"/></clipPath><clipPath id="9bd2374f1f"><path d="M 323 254 L 484 254 L 484 443.683594 L 323 443.683594 Z M 323 254 " clip-rule="nonzero"/></clipPath><clipPath id="96146abb75"><path d="M 462 254 L 484 254 L 484 443.683594 L 462 443.683594 Z M 462 254 " clip-rule="nonzero"/></clipPath><clipPath id="069a42d6ed"><path d="M 465 280 L 488.15625 280 L 488.15625 406 L 465 406 Z M 465 280 " clip-rule="nonzero"/></clipPath><clipPath id="0a79a2bcd1"><path d="M 473 280 L 488.15625 280 L 488.15625 406 L 473 406 Z M 473 280 " clip-rule="nonzero"/></clipPath><clipPath id="c0cf2c51f0"><path d="M 465 387 L 488.15625 387 L 488.15625 406 L 465 406 Z M 465 387 " clip-rule="nonzero"/></clipPath><clipPath id="271ab6ecb8"><path d="M 473 387 L 488.15625 387 L 488.15625 406 L 473 406 Z M 473 387 " clip-rule="nonzero"/></clipPath><clipPath id="9b10107e5e"><path d="M 465 280 L 488.15625 280 L 488.15625 298 L 465 298 Z M 465 280 " clip-rule="nonzero"/></clipPath><clipPath id="c69fe3b68b"><path d="M 473 280 L 488.15625 280 L 488.15625 298 L 473 298 Z M 473 280 " clip-rule="nonzero"/></clipPath></defs><g clip-path="url(#15b5e63ded)"><path fill="#da2c27" d="M 404.996094 428.3125 C 350.960938 428.3125 307.160156 384.511719 307.160156 330.476562 C 307.160156 276.445312 350.960938 232.636719 404.996094 232.636719 C 459.035156 232.636719 502.835938 276.445312 502.835938 330.476562 C 502.835938 384.511719 459.035156 428.3125 404.996094 428.3125 Z M 404.996094 155.003906 C 302.214844 155.003906 218.890625 238.328125 218.890625 341.109375 C 218.890625 479.359375 404.996094 654.832031 404.996094 654.832031 C 404.996094 654.832031 591.101562 479.359375 591.101562 341.109375 C 591.101562 238.328125 507.78125 155.003906 404.996094 155.003906 " fill-opacity="1" fill-rule="nonzero"/></g><g clip-path="url(#0bda4e8b81)"><path fill="#ffffff" d="M 552.160156 339.738281 C 552.160156 342.144531 552.101562 344.550781 551.984375 346.957031 C 551.867188 349.363281 551.6875 351.765625 551.453125 354.160156 C 551.21875 356.558594 550.921875 358.949219 550.570312 361.332031 C 550.214844 363.710938 549.804688 366.085938 549.335938 368.445312 C 548.863281 370.808594 548.335938 373.160156 547.75 375.496094 C 547.167969 377.832031 546.523438 380.152344 545.824219 382.457031 C 545.125 384.761719 544.371094 387.046875 543.558594 389.316406 C 542.746094 391.582031 541.882812 393.828125 540.960938 396.054688 C 540.039062 398.277344 539.0625 400.480469 538.03125 402.65625 C 537.003906 404.835938 535.921875 406.984375 534.785156 409.109375 C 533.648438 411.234375 532.464844 413.328125 531.226562 415.394531 C 529.988281 417.460938 528.699219 419.496094 527.359375 421.496094 C 526.023438 423.5 524.636719 425.46875 523.199219 427.402344 C 521.765625 429.335938 520.285156 431.234375 518.757812 433.097656 C 517.230469 434.957031 515.65625 436.78125 514.039062 438.566406 C 512.421875 440.351562 510.761719 442.09375 509.058594 443.796875 C 507.355469 445.5 505.613281 447.160156 503.828125 448.777344 C 502.042969 450.394531 500.21875 451.96875 498.359375 453.496094 C 496.496094 455.023438 494.597656 456.503906 492.664062 457.941406 C 490.730469 459.375 488.761719 460.761719 486.757812 462.097656 C 484.753906 463.4375 482.722656 464.726562 480.65625 465.964844 C 478.589844 467.203125 476.496094 468.386719 474.371094 469.523438 C 472.246094 470.660156 470.097656 471.742188 467.917969 472.773438 C 465.742188 473.800781 463.539062 474.777344 461.316406 475.699219 C 459.089844 476.621094 456.84375 477.488281 454.574219 478.296875 C 452.308594 479.109375 450.023438 479.863281 447.71875 480.5625 C 445.414062 481.261719 443.09375 481.90625 440.753906 482.492188 C 438.417969 483.074219 436.070312 483.601562 433.707031 484.074219 C 431.347656 484.542969 428.972656 484.953125 426.589844 485.308594 C 424.207031 485.660156 421.820312 485.957031 419.421875 486.191406 C 417.027344 486.429688 414.625 486.605469 412.21875 486.722656 C 409.8125 486.84375 407.40625 486.902344 404.996094 486.902344 C 402.589844 486.902344 400.183594 486.84375 397.777344 486.722656 C 395.371094 486.605469 392.96875 486.429688 390.574219 486.191406 C 388.175781 485.957031 385.785156 485.660156 383.40625 485.308594 C 381.023438 484.953125 378.648438 484.542969 376.289062 484.074219 C 373.925781 483.601562 371.578125 483.074219 369.238281 482.492188 C 366.902344 481.90625 364.582031 481.261719 362.277344 480.5625 C 359.972656 479.863281 357.6875 479.109375 355.417969 478.296875 C 353.152344 477.488281 350.90625 476.621094 348.679688 475.699219 C 346.457031 474.777344 344.253906 473.800781 342.078125 472.773438 C 339.898438 471.742188 337.75 470.660156 335.625 469.523438 C 333.5 468.386719 331.40625 467.203125 329.339844 465.964844 C 327.273438 464.726562 325.242188 463.4375 323.238281 462.097656 C 321.234375 460.761719 319.265625 459.375 317.332031 457.941406 C 315.398438 456.503906 313.5 455.023438 311.636719 453.496094 C 309.777344 451.96875 307.953125 450.394531 306.167969 448.777344 C 304.382812 447.160156 302.640625 445.5 300.9375 443.796875 C 299.234375 442.09375 297.574219 440.351562 295.957031 438.566406 C 294.339844 436.78125 292.765625 434.957031 291.238281 433.097656 C 289.710938 431.234375 288.230469 429.335938 286.792969 427.402344 C 285.359375 425.46875 283.972656 423.5 282.636719 421.496094 C 281.296875 419.496094 280.007812 417.460938 278.769531 415.394531 C 277.53125 413.328125 276.347656 411.234375 275.210938 409.109375 C 274.074219 406.984375 272.992188 404.835938 271.964844 402.65625 C 270.933594 400.480469 269.957031 398.277344 269.035156 396.054688 C 268.113281 393.828125 267.246094 391.582031 266.4375 389.316406 C 265.625 387.046875 264.871094 384.761719 264.171875 382.457031 C 263.472656 380.152344 262.828125 377.832031 262.246094 375.496094 C 261.660156 373.160156 261.132812 370.808594 260.660156 368.445312 C 260.191406 366.085938 259.78125 363.710938 259.425781 361.332031 C 259.074219 358.949219 258.777344 356.558594 258.542969 354.160156 C 258.304688 351.765625 258.128906 349.363281 258.011719 346.957031 C 257.894531 344.550781 257.832031 342.144531 257.832031 339.738281 C 257.832031 337.328125 257.894531 334.921875 258.011719 332.515625 C 258.128906 330.109375 258.304688 327.710938 258.542969 325.3125 C 258.777344 322.914062 259.074219 320.527344 259.425781 318.144531 C 259.78125 315.761719 260.191406 313.390625 260.660156 311.027344 C 261.132812 308.664062 261.660156 306.316406 262.246094 303.980469 C 262.828125 301.644531 263.472656 299.320312 264.171875 297.015625 C 264.871094 294.710938 265.625 292.425781 266.4375 290.160156 C 267.246094 287.890625 268.113281 285.644531 269.035156 283.417969 C 269.957031 281.195312 270.933594 278.992188 271.964844 276.816406 C 272.992188 274.640625 274.074219 272.488281 275.210938 270.363281 C 276.347656 268.238281 277.53125 266.144531 278.769531 264.078125 C 280.007812 262.011719 281.296875 259.980469 282.636719 257.976562 C 283.972656 255.972656 285.359375 254.003906 286.792969 252.070312 C 288.230469 250.136719 289.710938 248.238281 291.238281 246.378906 C 292.765625 244.515625 294.339844 242.691406 295.957031 240.90625 C 297.574219 239.121094 299.234375 237.378906 300.9375 235.675781 C 302.640625 233.972656 304.382812 232.3125 306.167969 230.695312 C 307.953125 229.078125 309.777344 227.503906 311.636719 225.976562 C 313.5 224.449219 315.398438 222.96875 317.332031 221.535156 C 319.265625 220.097656 321.234375 218.710938 323.238281 217.375 C 325.242188 216.035156 327.273438 214.75 329.339844 213.511719 C 331.40625 212.273438 333.5 211.085938 335.625 209.949219 C 337.75 208.8125 339.898438 207.730469 342.078125 206.703125 C 344.253906 205.671875 346.457031 204.695312 348.679688 203.773438 C 350.90625 202.851562 353.152344 201.988281 355.417969 201.175781 C 357.6875 200.363281 359.972656 199.609375 362.277344 198.910156 C 364.582031 198.210938 366.902344 197.566406 369.238281 196.984375 C 371.578125 196.398438 373.925781 195.871094 376.289062 195.402344 C 378.648438 194.929688 381.023438 194.519531 383.40625 194.164062 C 385.785156 193.8125 388.175781 193.515625 390.574219 193.28125 C 392.96875 193.046875 395.371094 192.867188 397.777344 192.75 C 400.183594 192.632812 402.589844 192.574219 404.996094 192.574219 C 407.40625 192.574219 409.8125 192.632812 412.21875 192.75 C 414.625 192.867188 417.027344 193.046875 419.421875 193.28125 C 421.820312 193.515625 424.207031 193.8125 426.589844 194.164062 C 428.972656 194.519531 431.347656 194.929688 433.707031 195.402344 C 436.070312 195.871094 438.417969 196.398438 440.753906 196.984375 C 443.09375 197.566406 445.414062 198.210938 447.71875 198.910156 C 450.023438 199.609375 452.308594 200.363281 454.574219 201.175781 C 456.84375 201.988281 459.089844 202.851562 461.316406 203.773438 C 463.539062 204.695312 465.742188 205.671875 467.917969 206.703125 C 470.097656 207.730469 472.246094 208.8125 474.371094 209.949219 C 476.496094 211.085938 478.589844 212.273438 480.65625 213.511719 C 482.722656 214.75 484.753906 216.035156 486.757812 217.375 C 488.761719 218.710938 490.730469 220.097656 492.664062 221.535156 C 494.597656 222.96875 496.496094 224.449219 498.359375 225.976562 C 500.21875 227.503906 502.042969 229.078125 503.828125 230.695312 C 505.613281 232.3125 507.355469 233.972656 509.058594 235.675781 C 510.761719 237.378906 512.421875 239.121094 514.039062 240.90625 C 515.65625 242.691406 517.230469 244.515625 518.757812 246.378906 C 520.285156 248.238281 521.765625 250.136719 523.199219 252.070312 C 524.636719 254.003906 526.023438 255.972656 527.359375 257.976562 C 528.699219 259.980469 529.988281 262.011719 531.226562 264.078125 C 532.464844 266.144531 533.648438 268.238281 534.785156 270.363281 C 535.921875 272.488281 537.003906 274.640625 538.03125 276.816406 C 539.0625 278.992188 540.039062 281.195312 540.960938 283.417969 C 541.882812 285.644531 542.746094 287.890625 543.558594 290.160156 C 544.371094 292.425781 545.125 294.710938 545.824219 297.015625 C 546.523438 299.320312 547.167969 301.644531 547.75 303.980469 C 548.335938 306.316406 548.863281 308.664062 549.335938 311.027344 C 549.804688 313.390625 550.214844 315.761719 550.570312 318.144531 C 550.921875 320.527344 551.21875 322.914062 551.453125 325.3125 C 551.6875 327.710938 551.867188 330.109375 551.984375 332.515625 C 552.101562 334.921875 552.160156 337.328125 552.160156 339.738281 Z M 552.160156 339.738281 " fill-opacity="1" fill-rule="nonzero"/></g><g clip-path="url(#9bd2374f1f)"><path fill="#837683" d="M 474.65625 254.785156 C 479.746094 254.785156 483.898438 258.941406 483.898438 264.042969 L 483.898438 434.421875 C 483.898438 439.523438 479.746094 443.683594 474.65625 443.683594 L 332.28125 443.683594 C 327.1875 443.683594 323.035156 439.523438 323.035156 434.421875 L 323.035156 264.042969 C 323.035156 258.941406 327.1875 254.785156 332.28125 254.785156 Z M 474.65625 254.785156 " fill-opacity="1" fill-rule="evenodd"/></g><g clip-path="url(#96146abb75)"><path fill="#685e68" d="M 462.722656 443.683594 L 474.65625 443.683594 C 479.746094 443.683594 483.898438 439.523438 483.898438 434.421875 L 483.898438 264.042969 C 483.898438 258.941406 479.746094 254.785156 474.65625 254.785156 L 462.722656 254.785156 Z M 462.722656 443.683594 " fill-opacity="1" fill-rule="evenodd"/></g><path fill="#eceff1" d="M 466.878906 267.664062 L 340.054688 267.664062 C 337.761719 267.664062 335.894531 269.535156 335.894531 271.828125 L 335.894531 426.636719 C 335.894531 428.929688 337.761719 430.800781 340.054688 430.800781 L 466.878906 430.800781 C 469.171875 430.800781 471.039062 428.929688 471.039062 426.636719 L 471.039062 271.828125 C 471.039062 269.535156 469.171875 267.664062 466.878906 267.664062 Z M 466.878906 267.664062 " fill-opacity="1" fill-rule="evenodd"/><path fill="#d1d1d6" d="M 462.722656 430.800781 L 466.878906 430.800781 C 467.011719 430.800781 467.140625 430.796875 467.269531 430.78125 C 469.378906 430.585938 471.039062 428.800781 471.039062 426.636719 L 471.039062 271.828125 C 471.039062 269.667969 469.378906 267.878906 467.269531 267.683594 C 467.140625 267.671875 467.011719 267.664062 466.878906 267.664062 L 462.722656 267.664062 Z M 462.722656 430.800781 " fill-opacity="1" fill-rule="evenodd"/><path fill="#e3a76f" d="M 372.03125 249.1875 L 385.207031 249.1875 C 386.90625 249.1875 388.355469 248.230469 389.027344 246.667969 C 391.433594 241.070312 396.992188 237.148438 403.46875 237.148438 C 409.941406 237.148438 415.5 241.070312 417.90625 246.667969 C 418.578125 248.230469 420.027344 249.1875 421.726562 249.1875 L 434.902344 249.1875 C 437.191406 249.1875 439.058594 251.058594 439.058594 253.351562 L 439.058594 269.097656 C 439.058594 271.390625 437.191406 273.261719 434.902344 273.261719 L 372.03125 273.261719 C 369.742188 273.261719 367.875 271.390625 367.875 269.097656 L 367.875 253.351562 C 367.875 251.058594 369.742188 249.1875 372.03125 249.1875 Z M 372.03125 249.1875 " fill-opacity="1" fill-rule="evenodd"/><path fill="#c48958" d="M 430.746094 269.097656 L 367.875 269.097656 C 367.875 271.390625 369.742188 273.261719 372.03125 273.261719 L 434.902344 273.261719 C 437.191406 273.261719 439.058594 271.390625 439.058594 269.097656 L 439.058594 253.351562 C 439.058594 251.058594 437.191406 249.1875 434.902344 249.1875 L 434.902344 264.933594 C 434.902344 265.976562 434.515625 266.933594 433.878906 267.664062 C 433.117188 268.542969 431.992188 269.097656 430.746094 269.097656 Z M 430.746094 269.097656 " fill-opacity="1" fill-rule="evenodd"/><path fill="#eceff1" d="M 403.730469 245.269531 C 404.042969 245.285156 404.351562 245.332031 404.65625 245.410156 C 404.957031 245.488281 405.253906 245.597656 405.535156 245.734375 C 405.816406 245.871094 406.085938 246.03125 406.335938 246.222656 C 406.585938 246.410156 406.816406 246.621094 407.027344 246.855469 C 407.234375 247.089844 407.421875 247.34375 407.582031 247.613281 C 407.738281 247.882812 407.871094 248.167969 407.976562 248.464844 C 408.078125 248.761719 408.152344 249.066406 408.199219 249.375 C 408.242188 249.6875 408.253906 250 408.238281 250.3125 C 408.21875 250.628906 408.171875 250.9375 408.09375 251.242188 C 408.015625 251.546875 407.910156 251.839844 407.773438 252.125 C 407.636719 252.40625 407.476562 252.675781 407.285156 252.925781 C 407.097656 253.175781 406.886719 253.40625 406.652344 253.617188 C 406.417969 253.828125 406.167969 254.011719 405.898438 254.171875 C 405.625 254.332031 405.34375 254.464844 405.046875 254.566406 C 404.75 254.671875 404.445312 254.746094 404.136719 254.789062 C 403.824219 254.835938 403.511719 254.847656 403.199219 254.832031 C 402.886719 254.8125 402.578125 254.765625 402.273438 254.6875 C 401.96875 254.609375 401.675781 254.5 401.394531 254.363281 C 401.109375 254.230469 400.84375 254.066406 400.59375 253.878906 C 400.339844 253.6875 400.109375 253.476562 399.902344 253.242188 C 399.691406 253.007812 399.507812 252.757812 399.347656 252.484375 C 399.1875 252.214844 399.058594 251.929688 398.953125 251.632812 C 398.847656 251.335938 398.773438 251.035156 398.730469 250.722656 C 398.6875 250.410156 398.671875 250.097656 398.691406 249.785156 C 398.707031 249.46875 398.753906 249.160156 398.832031 248.855469 C 398.910156 248.550781 399.019531 248.257812 399.15625 247.976562 C 399.292969 247.691406 399.453125 247.425781 399.640625 247.171875 C 399.832031 246.921875 400.042969 246.691406 400.277344 246.480469 C 400.507812 246.269531 400.761719 246.085938 401.03125 245.925781 C 401.300781 245.765625 401.585938 245.632812 401.882812 245.53125 C 402.179688 245.425781 402.480469 245.351562 402.792969 245.308594 C 403.101562 245.265625 403.414062 245.25 403.730469 245.269531 Z M 403.730469 245.269531 " fill-opacity="1" fill-rule="nonzero"/><path fill="#6cf5c2" d="M 350.753906 357.574219 L 370.460938 357.574219 C 371.878906 357.574219 373.035156 358.734375 373.035156 360.152344 L 373.035156 379.890625 C 373.035156 381.308594 371.875 382.464844 370.460938 382.464844 L 350.753906 382.464844 C 349.339844 382.464844 348.183594 381.304688 348.183594 379.890625 L 348.183594 360.152344 C 348.179688 358.734375 349.339844 357.574219 350.753906 357.574219 Z M 350.753906 357.574219 " fill-opacity="1" fill-rule="evenodd"/><path fill="#00e499" d="M 366.164062 357.574219 L 370.460938 357.574219 C 371.878906 357.574219 373.035156 358.734375 373.035156 360.152344 L 373.035156 379.890625 C 373.035156 381.308594 371.875 382.464844 370.460938 382.464844 L 366.164062 382.464844 C 367.582031 382.464844 368.738281 381.304688 368.738281 379.890625 L 368.738281 360.152344 C 368.738281 358.734375 367.582031 357.574219 366.164062 357.574219 Z M 366.164062 357.574219 " fill-opacity="1" fill-rule="evenodd"/><path fill="#eceff1" d="M 352.9375 371.945312 C 351.59375 370.597656 351.59375 368.421875 352.9375 367.078125 C 354.277344 365.734375 356.453125 365.730469 357.796875 367.078125 L 359.414062 368.699219 L 363.179688 364.039062 C 364.371094 362.5625 366.535156 362.332031 368.011719 363.527344 C 369.488281 364.722656 369.714844 366.890625 368.523438 368.367188 L 362.371094 375.984375 C 362.292969 376.082031 362.207031 376.179688 362.117188 376.269531 C 360.773438 377.613281 358.597656 377.613281 357.253906 376.269531 Z M 352.9375 371.945312 " fill-opacity="1" fill-rule="evenodd"/><path fill="#ffe177" d="M 350.753906 391.996094 L 370.460938 391.996094 C 371.878906 391.996094 373.035156 393.15625 373.035156 394.574219 L 373.035156 414.3125 C 373.035156 415.730469 371.875 416.890625 370.460938 416.890625 L 350.753906 416.890625 C 349.339844 416.890625 348.183594 415.730469 348.183594 414.3125 L 348.183594 394.574219 C 348.179688 393.15625 349.339844 391.996094 350.753906 391.996094 Z M 350.753906 391.996094 " fill-opacity="1" fill-rule="evenodd"/><path fill="#ffd064" d="M 366.164062 391.996094 L 370.460938 391.996094 C 371.878906 391.996094 373.035156 393.15625 373.035156 394.574219 L 373.035156 414.3125 C 373.035156 415.730469 371.875 416.890625 370.460938 416.890625 L 366.164062 416.890625 C 367.582031 416.890625 368.738281 415.730469 368.738281 414.3125 L 368.738281 394.574219 C 368.738281 393.15625 367.582031 391.996094 366.164062 391.996094 Z M 366.164062 391.996094 " fill-opacity="1" fill-rule="evenodd"/><path fill="#eceff1" d="M 352.9375 406.367188 C 351.59375 405.023438 351.59375 402.84375 352.9375 401.5 C 354.277344 400.15625 356.453125 400.15625 357.796875 401.5 L 359.414062 403.121094 L 363.179688 398.460938 C 364.371094 396.984375 366.535156 396.757812 368.011719 397.953125 C 369.488281 399.148438 369.714844 401.316406 368.523438 402.792969 L 362.371094 410.40625 C 362.292969 410.503906 362.207031 410.601562 362.117188 410.695312 C 360.773438 412.039062 358.597656 412.039062 357.253906 410.695312 Z M 352.9375 406.367188 " fill-opacity="1" fill-rule="evenodd"/><path fill="#a79ba7" d="M 388.738281 400.785156 C 386.839844 400.785156 385.300781 399.242188 385.300781 397.34375 C 385.300781 395.441406 386.839844 393.902344 388.738281 393.902344 L 422.507812 393.902344 C 424.40625 393.902344 425.945312 395.441406 425.945312 397.34375 C 425.945312 399.242188 424.40625 400.785156 422.507812 400.785156 Z M 388.738281 366.363281 C 386.839844 366.363281 385.300781 364.820312 385.300781 362.917969 C 385.300781 361.019531 386.839844 359.476562 388.738281 359.476562 L 432.484375 359.476562 C 434.382812 359.476562 435.921875 361.019531 435.921875 362.917969 C 435.921875 364.820312 434.382812 366.363281 432.484375 366.363281 Z M 388.738281 380.5625 C 386.839844 380.5625 385.300781 379.023438 385.300781 377.121094 C 385.300781 375.21875 386.839844 373.679688 388.738281 373.679688 L 451.96875 373.679688 C 453.863281 373.679688 455.402344 375.21875 455.402344 377.121094 C 455.402344 379.023438 453.863281 380.5625 451.96875 380.5625 Z M 388.738281 414.988281 C 386.839844 414.988281 385.300781 413.445312 385.300781 411.542969 C 385.300781 409.644531 386.839844 408.101562 388.738281 408.101562 L 409.984375 408.101562 C 411.882812 408.101562 413.421875 409.644531 413.421875 411.542969 C 413.421875 413.445312 411.882812 414.988281 409.984375 414.988281 Z M 388.738281 414.988281 " fill-opacity="1" fill-rule="evenodd"/><path fill="#685e68" d="M 433.570312 316.921875 C 433.570312 317.910156 433.523438 318.894531 433.425781 319.878906 C 433.328125 320.859375 433.183594 321.835938 432.992188 322.804688 C 432.800781 323.773438 432.5625 324.730469 432.273438 325.675781 C 431.988281 326.621094 431.65625 327.550781 431.28125 328.460938 C 430.902344 329.375 430.480469 330.265625 430.015625 331.136719 C 429.550781 332.007812 429.046875 332.851562 428.496094 333.675781 C 427.949219 334.496094 427.363281 335.289062 426.738281 336.050781 C 426.113281 336.8125 425.449219 337.546875 424.753906 338.242188 C 424.054688 338.941406 423.328125 339.605469 422.566406 340.230469 C 421.800781 340.855469 421.011719 341.445312 420.191406 341.992188 C 419.371094 342.542969 418.527344 343.046875 417.65625 343.515625 C 416.789062 343.980469 415.898438 344.402344 414.988281 344.78125 C 414.078125 345.15625 413.148438 345.488281 412.207031 345.777344 C 411.261719 346.0625 410.308594 346.300781 409.339844 346.496094 C 408.371094 346.6875 407.398438 346.832031 406.417969 346.929688 C 405.4375 347.027344 404.453125 347.074219 403.46875 347.074219 C 402.480469 347.074219 401.496094 347.027344 400.515625 346.929688 C 399.535156 346.832031 398.5625 346.6875 397.59375 346.496094 C 396.628906 346.300781 395.671875 346.0625 394.726562 345.777344 C 393.785156 345.488281 392.859375 345.15625 391.945312 344.78125 C 391.035156 344.402344 390.144531 343.980469 389.277344 343.515625 C 388.40625 343.046875 387.5625 342.542969 386.742188 341.992188 C 385.921875 341.445312 385.132812 340.855469 384.371094 340.230469 C 383.605469 339.605469 382.878906 338.941406 382.179688 338.242188 C 381.484375 337.546875 380.820312 336.8125 380.195312 336.050781 C 379.570312 335.289062 378.984375 334.496094 378.4375 333.675781 C 377.890625 332.851562 377.382812 332.007812 376.917969 331.136719 C 376.453125 330.265625 376.03125 329.375 375.65625 328.460938 C 375.277344 327.550781 374.945312 326.621094 374.660156 325.675781 C 374.375 324.730469 374.132812 323.773438 373.941406 322.804688 C 373.75 321.835938 373.605469 320.859375 373.507812 319.878906 C 373.410156 318.894531 373.363281 317.910156 373.363281 316.921875 C 373.363281 315.933594 373.410156 314.949219 373.507812 313.96875 C 373.605469 312.984375 373.75 312.007812 373.941406 311.039062 C 374.132812 310.070312 374.375 309.113281 374.660156 308.171875 C 374.945312 307.226562 375.277344 306.296875 375.65625 305.382812 C 376.03125 304.472656 376.453125 303.582031 376.917969 302.710938 C 377.382812 301.839844 377.890625 300.992188 378.4375 300.171875 C 378.984375 299.351562 379.570312 298.558594 380.195312 297.792969 C 380.820312 297.03125 381.484375 296.300781 382.179688 295.601562 C 382.878906 294.902344 383.605469 294.242188 384.371094 293.617188 C 385.132812 292.988281 385.921875 292.402344 386.742188 291.851562 C 387.5625 291.304688 388.40625 290.796875 389.277344 290.332031 C 390.144531 289.867188 391.035156 289.445312 391.945312 289.066406 C 392.859375 288.6875 393.785156 288.355469 394.726562 288.070312 C 395.671875 287.78125 396.628906 287.542969 397.59375 287.351562 C 398.5625 287.15625 399.535156 287.011719 400.515625 286.917969 C 401.496094 286.820312 402.480469 286.769531 403.46875 286.769531 C 404.453125 286.769531 405.4375 286.820312 406.417969 286.917969 C 407.398438 287.011719 408.371094 287.15625 409.339844 287.351562 C 410.308594 287.542969 411.261719 287.78125 412.207031 288.070312 C 413.148438 288.355469 414.078125 288.6875 414.988281 289.066406 C 415.898438 289.445312 416.789062 289.867188 417.65625 290.332031 C 418.527344 290.796875 419.371094 291.304688 420.191406 291.851562 C 421.011719 292.402344 421.800781 292.988281 422.566406 293.617188 C 423.328125 294.242188 424.054688 294.902344 424.753906 295.601562 C 425.449219 296.300781 426.113281 297.03125 426.738281 297.792969 C 427.363281 298.558594 427.949219 299.351562 428.496094 300.171875 C 429.046875 300.992188 429.550781 301.839844 430.015625 302.710938 C 430.480469 303.582031 430.902344 304.472656 431.28125 305.382812 C 431.65625 306.296875 431.988281 307.226562 432.273438 308.171875 C 432.5625 309.117188 432.800781 310.070312 432.992188 311.039062 C 433.183594 312.007812 433.328125 312.984375 433.425781 313.96875 C 433.523438 314.949219 433.570312 315.933594 433.570312 316.921875 Z M 433.570312 316.921875 " fill-opacity="1" fill-rule="nonzero"/><path fill="#544854" d="M 403.46875 286.769531 C 420.09375 286.769531 433.570312 300.269531 433.570312 316.921875 C 433.570312 333.574219 420.09375 347.074219 403.46875 347.074219 C 402.882812 347.074219 402.300781 347.054688 401.722656 347.023438 C 417.535156 346.117188 430.082031 332.988281 430.082031 316.921875 C 430.082031 300.855469 417.535156 287.726562 401.722656 286.824219 C 402.300781 286.789062 402.882812 286.769531 403.46875 286.769531 Z M 403.46875 286.769531 " fill-opacity="1" fill-rule="evenodd"/><path fill="#f6dccd" d="M 414.097656 309.183594 C 414.097656 309.882812 414.027344 310.574219 413.890625 311.261719 C 413.757812 311.945312 413.554688 312.613281 413.289062 313.257812 C 413.019531 313.90625 412.691406 314.519531 412.304688 315.097656 C 411.917969 315.679688 411.476562 316.21875 410.984375 316.710938 C 410.488281 317.207031 409.953125 317.648438 409.371094 318.035156 C 408.792969 318.425781 408.179688 318.753906 407.535156 319.019531 C 406.890625 319.289062 406.226562 319.488281 405.542969 319.625 C 404.855469 319.761719 404.164062 319.832031 403.46875 319.832031 C 402.769531 319.832031 402.078125 319.761719 401.394531 319.625 C 400.710938 319.488281 400.042969 319.289062 399.398438 319.019531 C 398.753906 318.753906 398.140625 318.425781 397.5625 318.035156 C 396.980469 317.648438 396.445312 317.207031 395.953125 316.710938 C 395.457031 316.21875 395.015625 315.679688 394.628906 315.097656 C 394.242188 314.519531 393.914062 313.90625 393.648438 313.257812 C 393.378906 312.613281 393.179688 311.945312 393.042969 311.261719 C 392.90625 310.574219 392.839844 309.882812 392.839844 309.183594 C 392.839844 308.484375 392.90625 307.792969 393.042969 307.109375 C 393.179688 306.421875 393.378906 305.757812 393.648438 305.109375 C 393.914062 304.464844 394.242188 303.851562 394.628906 303.269531 C 395.015625 302.6875 395.457031 302.152344 395.953125 301.65625 C 396.445312 301.164062 396.980469 300.722656 397.5625 300.332031 C 398.140625 299.945312 398.753906 299.617188 399.398438 299.347656 C 400.042969 299.082031 400.710938 298.878906 401.394531 298.742188 C 402.078125 298.605469 402.769531 298.539062 403.46875 298.539062 C 404.164062 298.539062 404.855469 298.605469 405.542969 298.742188 C 406.226562 298.878906 406.890625 299.082031 407.535156 299.347656 C 408.179688 299.617188 408.792969 299.945312 409.371094 300.332031 C 409.953125 300.722656 410.488281 301.164062 410.984375 301.65625 C 411.476562 302.152344 411.917969 302.6875 412.304688 303.269531 C 412.691406 303.851562 413.019531 304.464844 413.289062 305.109375 C 413.554688 305.757812 413.757812 306.421875 413.890625 307.109375 C 414.027344 307.792969 414.097656 308.484375 414.097656 309.183594 Z M 414.097656 309.183594 " fill-opacity="1" fill-rule="nonzero"/><path fill="#f1cbbc" d="M 403.46875 298.539062 C 409.335938 298.539062 414.097656 303.304688 414.097656 309.183594 C 414.097656 315.066406 409.339844 319.832031 403.46875 319.832031 C 403.011719 319.832031 402.5625 319.800781 402.121094 319.746094 C 407.355469 319.082031 411.402344 314.609375 411.402344 309.1875 C 411.402344 303.761719 407.355469 299.289062 402.121094 298.625 C 402.5625 298.566406 403.011719 298.539062 403.46875 298.539062 Z M 403.46875 298.539062 " fill-opacity="1" fill-rule="evenodd"/><path fill="#9bc9ff" d="M 423.828125 339.128906 C 423.589844 338.203125 423.292969 337.296875 422.933594 336.421875 C 420.800781 331.195312 416.632812 327.015625 411.414062 324.878906 C 408.960938 323.878906 406.277344 323.324219 403.46875 323.324219 C 393.667969 323.324219 385.433594 330.042969 383.105469 339.128906 C 388.464844 344.0625 395.613281 347.074219 403.464844 347.074219 C 411.320312 347.074219 418.46875 344.0625 423.828125 339.128906 Z M 423.828125 339.128906 " fill-opacity="1" fill-rule="evenodd"/><path fill="#60b7ff" d="M 423.828125 339.128906 C 423.589844 338.203125 423.292969 337.296875 422.933594 336.421875 C 420.800781 331.195312 416.632812 327.015625 411.414062 324.878906 C 408.960938 323.878906 406.277344 323.324219 403.46875 323.324219 C 396.832031 323.324219 390.917969 326.402344 387.0625 331.210938 C 390.890625 327.195312 396.292969 324.691406 402.273438 324.691406 C 405.085938 324.691406 407.769531 325.242188 410.21875 326.246094 C 415.4375 328.382812 419.609375 332.558594 421.742188 337.789062 C 422.0625 338.578125 422.339844 339.394531 422.566406 340.230469 C 422.996094 339.875 423.417969 339.507812 423.828125 339.128906 Z M 423.828125 339.128906 " fill-opacity="1" fill-rule="evenodd"/><g clip-path="url(#069a42d6ed)"><path fill="#e3a76f" d="M 488.117188 387.394531 L 488.117188 289.820312 C 488.117188 284.53125 483.8125 280.214844 478.527344 280.214844 L 474.695312 280.214844 C 469.414062 280.214844 465.105469 284.53125 465.105469 289.820312 L 465.105469 387.394531 L 474.75 404.128906 C 475.144531 404.8125 475.824219 405.203125 476.613281 405.203125 C 477.398438 405.203125 478.078125 404.8125 478.472656 404.128906 Z M 488.117188 387.394531 " fill-opacity="1" fill-rule="evenodd"/></g><g clip-path="url(#0a79a2bcd1)"><path fill="#c48958" d="M 473.335938 280.3125 C 473.777344 280.25 474.234375 280.214844 474.695312 280.214844 L 478.53125 280.214844 C 483.8125 280.214844 488.117188 284.53125 488.117188 289.820312 L 488.117188 387.394531 L 478.472656 404.128906 C 478.078125 404.8125 477.402344 405.203125 476.613281 405.203125 C 475.824219 405.203125 475.144531 404.8125 474.75 404.128906 L 473.335938 401.667969 L 481.5625 387.394531 L 481.5625 289.820312 C 481.5625 284.992188 477.976562 280.980469 473.335938 280.3125 Z M 473.335938 280.3125 " fill-opacity="1" fill-rule="evenodd"/></g><g clip-path="url(#c0cf2c51f0)"><path fill="#766a76" d="M 474.75 404.128906 L 465.105469 387.394531 L 488.117188 387.394531 L 478.472656 404.128906 C 478.078125 404.8125 477.402344 405.203125 476.613281 405.203125 C 475.824219 405.203125 475.144531 404.8125 474.75 404.128906 Z M 474.75 404.128906 " fill-opacity="1" fill-rule="evenodd"/></g><g clip-path="url(#271ab6ecb8)"><path fill="#554d55" d="M 474.75 404.128906 L 473.335938 401.667969 L 481.5625 387.394531 L 488.117188 387.394531 L 478.472656 404.128906 C 478.078125 404.8125 477.402344 405.203125 476.613281 405.203125 C 475.824219 405.203125 475.144531 404.8125 474.75 404.128906 Z M 474.75 404.128906 " fill-opacity="1" fill-rule="evenodd"/></g><g clip-path="url(#9b10107e5e)"><path fill="#766a76" d="M 465.105469 297.882812 L 465.105469 289.820312 C 465.105469 284.53125 469.414062 280.214844 474.695312 280.214844 L 478.53125 280.214844 C 483.8125 280.214844 488.117188 284.53125 488.117188 289.820312 L 488.117188 297.882812 Z M 465.105469 297.882812 " fill-opacity="1" fill-rule="evenodd"/></g><g clip-path="url(#c69fe3b68b)"><path fill="#5e555e" d="M 473.332031 280.3125 C 473.777344 280.25 474.230469 280.214844 474.695312 280.214844 L 478.527344 280.214844 C 483.808594 280.214844 488.117188 284.53125 488.117188 289.820312 L 488.117188 297.882812 L 481.5625 297.882812 L 481.5625 289.820312 C 481.5625 284.992188 477.976562 280.980469 473.332031 280.3125 Z M 473.332031 280.3125 " fill-opacity="1" fill-rule="evenodd"/></g><path fill="#8ac9fe" d="M 333.554688 237.519531 C 334.476562 237.667969 335.394531 237.863281 336.300781 238.105469 C 337.203125 238.34375 338.097656 238.628906 338.972656 238.957031 C 339.851562 239.285156 340.710938 239.65625 341.550781 240.070312 C 342.394531 240.480469 343.214844 240.933594 344.011719 241.429688 C 344.808594 241.921875 345.578125 242.453125 346.324219 243.023438 C 347.066406 243.589844 347.78125 244.195312 348.46875 244.835938 C 349.152344 245.476562 349.804688 246.148438 350.425781 246.851562 C 351.046875 247.554688 351.628906 248.285156 352.175781 249.046875 C 352.726562 249.808594 353.234375 250.59375 353.703125 251.40625 C 354.175781 252.21875 354.605469 253.050781 354.996094 253.90625 C 355.382812 254.757812 355.730469 255.628906 356.035156 256.515625 C 356.335938 257.40625 356.597656 258.304688 356.8125 259.21875 C 357.027344 260.132812 357.195312 261.054688 357.320312 261.984375 C 357.445312 262.914062 357.523438 263.847656 357.558594 264.785156 C 357.589844 265.722656 357.578125 266.660156 357.519531 267.597656 C 357.460938 268.53125 357.355469 269.464844 357.207031 270.390625 C 357.058594 271.316406 356.863281 272.234375 356.621094 273.140625 C 356.382812 274.046875 356.097656 274.941406 355.769531 275.820312 C 355.441406 276.699219 355.074219 277.558594 354.660156 278.402344 C 354.25 279.246094 353.796875 280.066406 353.304688 280.863281 C 352.8125 281.660156 352.28125 282.433594 351.710938 283.179688 C 351.144531 283.925781 350.539062 284.640625 349.902344 285.328125 C 349.261719 286.015625 348.59375 286.667969 347.890625 287.289062 C 347.1875 287.910156 346.457031 288.496094 345.695312 289.042969 C 344.9375 289.59375 344.152344 290.101562 343.339844 290.574219 C 342.53125 291.042969 341.699219 291.476562 340.847656 291.863281 C 339.996094 292.253906 339.125 292.601562 338.238281 292.90625 C 337.351562 293.210938 336.453125 293.46875 335.542969 293.683594 C 334.628906 293.898438 333.710938 294.070312 332.78125 294.195312 C 331.851562 294.320312 330.921875 294.398438 329.984375 294.433594 C 329.046875 294.464844 328.113281 294.453125 327.175781 294.394531 C 326.242188 294.335938 325.3125 294.230469 324.386719 294.082031 C 323.460938 293.929688 322.546875 293.734375 321.640625 293.496094 C 320.738281 293.253906 319.84375 292.96875 318.96875 292.640625 C 318.089844 292.3125 317.230469 291.941406 316.386719 291.53125 C 315.546875 291.117188 314.726562 290.664062 313.929688 290.171875 C 313.132812 289.679688 312.363281 289.148438 311.617188 288.578125 C 310.875 288.007812 310.15625 287.402344 309.472656 286.765625 C 308.785156 286.125 308.132812 285.453125 307.515625 284.75 C 306.894531 284.046875 306.3125 283.3125 305.765625 282.550781 C 305.214844 281.789062 304.707031 281.003906 304.234375 280.191406 C 303.765625 279.382812 303.335938 278.550781 302.945312 277.695312 C 302.558594 276.839844 302.210938 275.972656 301.90625 275.082031 C 301.605469 274.195312 301.34375 273.296875 301.128906 272.382812 C 300.914062 271.46875 300.746094 270.546875 300.621094 269.617188 C 300.496094 268.6875 300.414062 267.753906 300.382812 266.816406 C 300.347656 265.878906 300.363281 264.941406 300.421875 264.003906 C 300.480469 263.066406 300.582031 262.136719 300.734375 261.210938 C 300.882812 260.285156 301.078125 259.367188 301.320312 258.460938 C 301.558594 257.554688 301.84375 256.660156 302.171875 255.78125 C 302.5 254.902344 302.867188 254.039062 303.28125 253.199219 C 303.691406 252.355469 304.144531 251.535156 304.636719 250.738281 C 305.128906 249.9375 305.660156 249.167969 306.226562 248.421875 C 306.796875 247.675781 307.398438 246.957031 308.039062 246.269531 C 308.675781 245.585938 309.347656 244.929688 310.050781 244.308594 C 310.753906 243.691406 311.484375 243.105469 312.246094 242.554688 C 313.003906 242.007812 313.789062 241.496094 314.601562 241.027344 C 315.410156 240.554688 316.242188 240.125 317.09375 239.734375 C 317.945312 239.34375 318.816406 239 319.703125 238.695312 C 320.589844 238.390625 321.488281 238.128906 322.398438 237.914062 C 323.3125 237.699219 324.230469 237.53125 325.160156 237.40625 C 326.089844 237.28125 327.019531 237.199219 327.957031 237.167969 C 328.894531 237.132812 329.828125 237.148438 330.761719 237.207031 C 331.699219 237.265625 332.628906 237.367188 333.554688 237.519531 Z M 333.554688 237.519531 " fill-opacity="1" fill-rule="nonzero"/><path fill="#60b7ff" d="M 328.96875 237.148438 C 344.769531 237.148438 357.574219 249.976562 357.574219 265.800781 C 357.574219 281.625 344.769531 294.449219 328.96875 294.449219 C 328.246094 294.449219 327.53125 294.421875 326.820312 294.371094 C 341.617188 293.269531 353.28125 280.898438 353.28125 265.800781 C 353.28125 250.699219 341.617188 238.328125 326.820312 237.230469 C 327.53125 237.175781 328.246094 237.148438 328.96875 237.148438 Z M 328.96875 237.148438 " fill-opacity="1" fill-rule="evenodd"/><path fill="#eceff1" d="M 325.210938 268.328125 L 339.121094 254.257812 C 340.769531 252.589844 343.453125 252.585938 345.113281 254.238281 C 346.769531 255.890625 346.777344 258.574219 345.132812 260.234375 C 339.492188 265.9375 333.886719 271.675781 328.222656 277.351562 C 326.566406 279.011719 323.878906 279.011719 322.222656 277.351562 L 312.820312 267.933594 C 311.164062 266.277344 311.164062 263.585938 312.820312 261.925781 C 314.476562 260.265625 317.164062 260.265625 318.820312 261.925781 Z M 325.210938 268.328125 " fill-opacity="1" fill-rule="evenodd"/></svg>