<svg xmlns="http://www.w3.org/2000/svg" xmlns:xlink="http://www.w3.org/1999/xlink" width="1080" zoomAndPan="magnify" viewBox="0 0 810 809.999993" height="1080" preserveAspectRatio="xMidYMid meet" version="1.0"><defs><clipPath id="f64436dd7b"><path d="M 218.433594 155.410156 L 591.183594 155.410156 L 591.183594 654.910156 L 218.433594 654.910156 Z M 218.433594 155.410156 " clip-rule="nonzero"/></clipPath><clipPath id="0b2b54a13c"><path d="M 258.160156 323.421875 L 552.160156 323.421875 L 552.160156 617.421875 L 258.160156 617.421875 Z M 258.160156 323.421875 " clip-rule="nonzero"/></clipPath></defs><g clip-path="url(#f64436dd7b)"><path fill="#da2c27" d="M 404.996094 381.675781 C 459.035156 381.675781 502.835938 425.476562 502.835938 479.511719 C 502.835938 533.542969 459.035156 577.351562 404.996094 577.351562 C 350.960938 577.351562 307.160156 533.542969 307.160156 479.511719 C 307.160156 425.476562 350.960938 381.675781 404.996094 381.675781 Z M 404.996094 654.984375 C 507.78125 654.984375 591.101562 571.660156 591.101562 468.878906 C 591.101562 330.628906 404.996094 155.15625 404.996094 155.15625 C 404.996094 155.15625 218.890625 330.628906 218.890625 468.878906 C 218.890625 571.660156 302.214844 654.984375 404.996094 654.984375 " fill-opacity="1" fill-rule="nonzero"/></g><g clip-path="url(#0b2b54a13c)"><path fill="#ffffff" d="M 257.832031 470.257812 C 257.832031 467.851562 257.894531 465.445312 258.011719 463.039062 C 258.128906 460.632812 258.304688 458.230469 258.542969 455.835938 C 258.777344 453.4375 259.074219 451.046875 259.425781 448.664062 C 259.78125 446.28125 260.191406 443.910156 260.660156 441.546875 C 261.132812 439.1875 261.660156 436.835938 262.246094 434.5 C 262.828125 432.164062 263.472656 429.84375 264.171875 427.539062 C 264.871094 425.234375 265.625 422.949219 266.4375 420.679688 C 267.246094 418.414062 268.113281 416.167969 269.035156 413.941406 C 269.957031 411.714844 270.933594 409.515625 271.964844 407.339844 C 272.992188 405.160156 274.074219 403.011719 275.210938 400.886719 C 276.347656 398.761719 277.53125 396.667969 278.769531 394.601562 C 280.007812 392.535156 281.296875 390.5 282.636719 388.5 C 283.972656 386.496094 285.359375 384.527344 286.792969 382.59375 C 288.230469 380.660156 289.710938 378.761719 291.238281 376.898438 C 292.765625 375.039062 294.339844 373.214844 295.957031 371.429688 C 297.574219 369.644531 299.234375 367.902344 300.9375 366.199219 C 302.640625 364.496094 304.382812 362.835938 306.167969 361.21875 C 307.953125 359.601562 309.777344 358.027344 311.636719 356.5 C 313.5 354.972656 315.398438 353.492188 317.332031 352.054688 C 319.265625 350.621094 321.234375 349.234375 323.238281 347.898438 C 325.242188 346.558594 327.273438 345.269531 329.339844 344.03125 C 331.40625 342.792969 333.5 341.605469 335.625 340.472656 C 337.75 339.335938 339.898438 338.253906 342.078125 337.222656 C 344.253906 336.195312 346.457031 335.21875 348.679688 334.296875 C 350.90625 333.375 353.152344 332.507812 355.417969 331.699219 C 357.6875 330.886719 359.972656 330.132812 362.277344 329.433594 C 364.582031 328.734375 366.902344 328.089844 369.238281 327.503906 C 371.578125 326.921875 373.925781 326.390625 376.289062 325.921875 C 378.648438 325.453125 381.023438 325.042969 383.40625 324.6875 C 385.785156 324.335938 388.175781 324.039062 390.574219 323.804688 C 392.96875 323.566406 395.371094 323.390625 397.777344 323.273438 C 400.183594 323.152344 402.589844 323.09375 404.996094 323.09375 C 407.40625 323.09375 409.8125 323.152344 412.21875 323.273438 C 414.625 323.390625 417.027344 323.566406 419.421875 323.804688 C 421.820312 324.039062 424.207031 324.335938 426.589844 324.6875 C 428.972656 325.042969 431.347656 325.453125 433.707031 325.921875 C 436.070312 326.390625 438.417969 326.921875 440.757812 327.503906 C 443.09375 328.089844 445.414062 328.734375 447.71875 329.433594 C 450.023438 330.132812 452.308594 330.886719 454.574219 331.699219 C 456.84375 332.507812 459.089844 333.375 461.316406 334.296875 C 463.539062 335.21875 465.742188 336.195312 467.917969 337.222656 C 470.097656 338.253906 472.246094 339.335938 474.371094 340.472656 C 476.496094 341.605469 478.589844 342.792969 480.65625 344.03125 C 482.722656 345.269531 484.753906 346.558594 486.757812 347.898438 C 488.761719 349.234375 490.730469 350.621094 492.664062 352.054688 C 494.597656 353.492188 496.496094 354.972656 498.359375 356.5 C 500.21875 358.027344 502.042969 359.601562 503.828125 361.21875 C 505.613281 362.835938 507.355469 364.496094 509.058594 366.199219 C 510.761719 367.902344 512.421875 369.644531 514.039062 371.429688 C 515.65625 373.214844 517.230469 375.039062 518.757812 376.898438 C 520.285156 378.761719 521.765625 380.660156 523.203125 382.59375 C 524.636719 384.527344 526.023438 386.496094 527.359375 388.5 C 528.699219 390.5 529.988281 392.535156 531.226562 394.601562 C 532.464844 396.667969 533.648438 398.761719 534.785156 400.886719 C 535.921875 403.011719 537.003906 405.160156 538.03125 407.339844 C 539.0625 409.515625 540.039062 411.714844 540.960938 413.941406 C 541.882812 416.167969 542.746094 418.414062 543.558594 420.679688 C 544.371094 422.949219 545.125 425.234375 545.824219 427.539062 C 546.523438 429.84375 547.167969 432.164062 547.75 434.5 C 548.335938 436.835938 548.863281 439.1875 549.335938 441.546875 C 549.804688 443.910156 550.214844 446.28125 550.570312 448.664062 C 550.921875 451.046875 551.21875 453.4375 551.453125 455.835938 C 551.6875 458.230469 551.867188 460.632812 551.984375 463.039062 C 552.101562 465.445312 552.160156 467.851562 552.160156 470.257812 C 552.160156 472.667969 552.101562 475.074219 551.984375 477.480469 C 551.867188 479.886719 551.6875 482.285156 551.453125 484.683594 C 551.21875 487.082031 550.921875 489.46875 550.570312 491.851562 C 550.214844 494.234375 549.804688 496.605469 549.335938 498.96875 C 548.863281 501.332031 548.335938 503.679688 547.75 506.015625 C 547.167969 508.351562 546.523438 510.671875 545.824219 512.976562 C 545.125 515.28125 544.371094 517.570312 543.558594 519.835938 C 542.746094 522.105469 541.882812 524.351562 540.960938 526.578125 C 540.039062 528.800781 539.0625 531.003906 538.03125 533.179688 C 537.003906 535.355469 535.921875 537.507812 534.785156 539.632812 C 533.648438 541.753906 532.464844 543.851562 531.226562 545.917969 C 529.988281 547.980469 528.699219 550.015625 527.359375 552.019531 C 526.023438 554.023438 524.636719 555.988281 523.203125 557.925781 C 521.765625 559.859375 520.285156 561.757812 518.757812 563.617188 C 517.230469 565.480469 515.65625 567.304688 514.039062 569.089844 C 512.421875 570.871094 510.761719 572.617188 509.058594 574.320312 C 507.355469 576.023438 505.613281 577.683594 503.828125 579.300781 C 502.042969 580.917969 500.21875 582.492188 498.359375 584.019531 C 496.496094 585.546875 494.597656 587.027344 492.664062 588.460938 C 490.730469 589.898438 488.761719 591.285156 486.757812 592.621094 C 484.753906 593.960938 482.722656 595.246094 480.65625 596.484375 C 478.589844 597.722656 476.496094 598.910156 474.371094 600.046875 C 472.246094 601.179688 470.097656 602.265625 467.917969 603.292969 C 465.742188 604.324219 463.539062 605.300781 461.316406 606.222656 C 459.089844 607.140625 456.84375 608.007812 454.574219 608.820312 C 452.308594 609.632812 450.023438 610.386719 447.71875 611.085938 C 445.414062 611.785156 443.09375 612.425781 440.757812 613.011719 C 438.417969 613.597656 436.070312 614.125 433.707031 614.59375 C 431.347656 615.066406 428.972656 615.476562 426.589844 615.832031 C 424.207031 616.183594 421.820312 616.476562 419.421875 616.714844 C 417.027344 616.949219 414.625 617.128906 412.21875 617.246094 C 409.8125 617.363281 407.40625 617.421875 404.996094 617.421875 C 402.589844 617.421875 400.183594 617.363281 397.777344 617.246094 C 395.371094 617.128906 392.96875 616.949219 390.574219 616.714844 C 388.175781 616.476562 385.785156 616.183594 383.40625 615.832031 C 381.023438 615.476562 378.648438 615.066406 376.289062 614.59375 C 373.925781 614.125 371.578125 613.597656 369.238281 613.011719 C 366.902344 612.425781 364.582031 611.785156 362.277344 611.085938 C 359.972656 610.386719 357.6875 609.632812 355.417969 608.820312 C 353.152344 608.007812 350.90625 607.140625 348.679688 606.222656 C 346.457031 605.300781 344.253906 604.324219 342.078125 603.292969 C 339.898438 602.265625 337.75 601.179688 335.625 600.046875 C 333.5 598.910156 331.40625 597.722656 329.339844 596.484375 C 327.273438 595.246094 325.242188 593.960938 323.238281 592.621094 C 321.234375 591.285156 319.265625 589.898438 317.332031 588.460938 C 315.398438 587.027344 313.5 585.546875 311.636719 584.019531 C 309.777344 582.492188 307.953125 580.917969 306.167969 579.300781 C 304.382812 577.683594 302.640625 576.023438 300.9375 574.320312 C 299.234375 572.617188 297.574219 570.871094 295.957031 569.089844 C 294.339844 567.304688 292.765625 565.480469 291.238281 563.617188 C 289.710938 561.757812 288.230469 559.859375 286.792969 557.925781 C 285.359375 555.988281 283.972656 554.023438 282.636719 552.019531 C 281.296875 550.015625 280.007812 547.980469 278.769531 545.917969 C 277.53125 543.851562 276.347656 541.753906 275.210938 539.632812 C 274.074219 537.507812 272.992188 535.355469 271.964844 533.179688 C 270.933594 531.003906 269.957031 528.800781 269.035156 526.578125 C 268.113281 524.351562 267.246094 522.105469 266.4375 519.835938 C 265.625 517.570312 264.871094 515.28125 264.171875 512.976562 C 263.472656 510.671875 262.828125 508.351562 262.246094 506.015625 C 261.660156 503.679688 261.132812 501.332031 260.660156 498.96875 C 260.191406 496.605469 259.78125 494.234375 259.425781 491.851562 C 259.074219 489.46875 258.777344 487.082031 258.542969 484.683594 C 258.304688 482.285156 258.128906 479.886719 258.011719 477.480469 C 257.894531 475.074219 257.832031 472.667969 257.832031 470.257812 Z M 257.832031 470.257812 " fill-opacity="1" fill-rule="nonzero"/></g><path fill="#d92d27" d="M 427.960938 551.082031 C 428.519531 553.4375 428.875 555.398438 429.496094 557.265625 C 429.679688 557.804688 430.625 558.390625 431.253906 558.429688 C 432.65625 558.511719 434.066406 558.582031 435.472656 558.578125 C 438.277344 558.566406 440.785156 558.457031 443.289062 559.90625 C 445.585938 561.234375 447.367188 563.390625 448.125 565.941406 C 448.554688 567.371094 448.417969 568.929688 448.4375 570.40625 C 448.4375 573.976562 448.71875 577.566406 448.265625 581.125 C 448.035156 582.9375 446.582031 583.515625 444.925781 583.515625 C 418.421875 583.523438 391.914062 583.523438 365.410156 583.515625 C 362.976562 583.515625 362.054688 582.578125 362.039062 580.136719 C 362.015625 576.003906 361.992188 571.875 362.039062 567.742188 C 362.09375 563.199219 366.734375 558.566406 371.273438 558.492188 C 373.828125 558.449219 376.382812 558.453125 378.933594 558.492188 C 380.148438 558.507812 380.828125 558.21875 381.027344 556.800781 C 381.273438 555.003906 381.894531 553.253906 382.457031 551.074219 L 379.617188 551.074219 C 355.367188 551.074219 331.113281 551.074219 306.863281 551.074219 C 299.660156 551.074219 293.550781 544.949219 293.550781 537.730469 C 293.550781 499.808594 293.550781 461.890625 293.550781 423.964844 C 293.550781 416.78125 299.695312 410.691406 306.929688 410.691406 C 339.136719 410.691406 371.351562 410.691406 403.558594 410.691406 C 404.519531 410.691406 405.476562 410.691406 406.742188 410.691406 C 406.363281 408.917969 405.984375 407.441406 405.734375 405.953125 C 403.972656 395.457031 406.429688 386.148438 413.355469 377.964844 C 420.054688 370.050781 428.605469 365.359375 438.410156 362.386719 C 446.136719 360.050781 454.019531 359.714844 461.855469 360.339844 C 473.269531 361.253906 483.679688 365.183594 492.640625 372.648438 C 498.949219 377.902344 503.390625 384.296875 505.300781 392.25 C 506.5625 397.5 506.59375 402.90625 505.03125 408.144531 C 504.507812 409.90625 504.734375 410.644531 506.515625 411.140625 C 511.785156 412.613281 515.074219 416.117188 516.519531 421.367188 C 516.714844 422.066406 516.800781 422.824219 516.804688 423.554688 C 516.816406 461.777344 516.820312 500 516.8125 538.222656 C 516.8125 544.78125 510.496094 551.070312 503.921875 551.074219 C 479.597656 551.085938 455.269531 551.078125 430.941406 551.078125 L 427.957031 551.078125 Z M 455.652344 441.882812 C 455.582031 441.738281 456.253906 440.640625 456.34375 440.441406 C 456.597656 439.894531 456.847656 439.351562 457.101562 438.808594 C 457.609375 437.714844 458.148438 436.628906 458.78125 435.601562 C 460 433.632812 461.65625 431.890625 463.957031 431.273438 C 464.648438 431.089844 465.347656 431.109375 466.046875 430.976562 C 477.039062 428.882812 486.515625 424.113281 493.417969 415.066406 C 499.90625 406.5625 500.363281 396.371094 495.695312 387.886719 C 491.0625 379.460938 483.585938 374.097656 474.609375 370.824219 C 464.941406 367.292969 455.054688 366.703125 444.960938 368.582031 C 433.699219 370.675781 424.199219 375.773438 417.332031 385.097656 C 413.046875 390.917969 411.726562 397.585938 413.164062 404.695312 C 414.652344 412.046875 418.980469 417.546875 424.796875 422.035156 C 431.628906 427.308594 439.367188 430.320312 447.886719 431.4375 C 449.597656 431.660156 450.929688 432.367188 451.714844 434.042969 C 452.867188 436.511719 454.148438 438.914062 455.648438 441.886719 Z M 300.71875 533.171875 C 300.71875 535.609375 300.773438 537.3125 301.355469 539.101562 C 302.40625 542.324219 305.027344 544.050781 310.160156 544.054688 C 373.523438 544.082031 436.890625 544.074219 500.253906 544.074219 C 500.550781 544.074219 500.855469 544.089844 501.152344 544.074219 C 507.230469 543.648438 510.46875 540.242188 509.507812 533.175781 L 300.71875 533.175781 Z M 509.816406 468.246094 L 509.816406 465.339844 C 509.816406 453.25 509.835938 441.167969 509.796875 429.078125 C 509.789062 427.230469 509.597656 425.375 509.335938 423.542969 C 508.992188 421.171875 506.523438 418.855469 504.246094 418.144531 C 501.949219 417.429688 500.492188 418.101562 499.039062 419.953125 C 491.519531 429.542969 481.765625 435.671875 469.769531 437.925781 C 466.628906 438.515625 464.636719 439.71875 463.472656 442.792969 C 462.320312 445.832031 460.550781 448.625 459.175781 451.582031 C 458.453125 453.136719 457.425781 453.773438 455.71875 453.792969 C 453.921875 453.808594 452.863281 453.144531 452.101562 451.492188 C 450.386719 447.789062 448.515625 444.164062 446.660156 440.535156 C 446.289062 439.8125 445.6875 439.210938 444.871094 438.117188 L 444.871094 468.246094 L 509.820312 468.246094 Z M 300.71875 475.503906 L 300.71875 525.925781 L 311.488281 525.925781 C 311.371094 517.398438 315.488281 511.347656 322.339844 506.914062 C 316.910156 500.960938 317.894531 491.246094 322.6875 486.757812 C 328.296875 481.5 335.972656 480.855469 342.507812 485.808594 C 345.167969 487.824219 346.917969 490.761719 347.332031 494.082031 C 347.898438 498.71875 347.488281 503.28125 343.796875 506.867188 C 350.855469 511.46875 354.875 517.570312 354.742188 525.882812 L 365.511719 525.882812 L 365.511719 475.5 L 300.71875 475.5 Z M 437.578125 525.925781 L 437.578125 475.582031 L 372.824219 475.582031 L 372.824219 525.902344 L 383.644531 525.902344 C 383.644531 520.660156 385.0625 517.226562 386.410156 515.027344 C 389.011719 510.796875 394.160156 506.566406 394.160156 506.566406 C 394.160156 506.566406 392.230469 503.996094 391.453125 502.59375 C 389.472656 499.03125 390.085938 494.308594 391.492188 491.265625 C 392.726562 488.585938 394.8125 486.671875 395.125 486.398438 C 396.105469 485.527344 399.976562 482.199219 405.757812 482.421875 C 409.046875 482.546875 412.304688 483.835938 415.121094 486.296875 C 420.59375 491.078125 421.433594 500.789062 416.039062 506.828125 C 423.765625 512.59375 426.167969 516.472656 426.976562 525.921875 L 437.578125 525.921875 Z M 498.886719 525.890625 L 509.691406 525.890625 L 509.691406 475.550781 L 444.878906 475.550781 L 444.878906 525.855469 L 455.691406 525.855469 C 455.5625 517.292969 459.730469 511.347656 466.476562 506.917969 C 460.914062 500.605469 462.175781 490.828125 467.15625 486.457031 C 472.941406 481.371094 480.476562 480.96875 486.816406 485.941406 C 489.433594 487.992188 491.164062 490.925781 491.519531 494.277344 C 492.003906 498.851562 491.617188 503.339844 487.960938 506.863281 C 494.917969 511.425781 498.992188 517.414062 498.878906 525.894531 Z M 365.523438 417.828125 C 365.019531 417.769531 364.796875 417.722656 364.574219 417.722656 C 346.1875 417.714844 327.804688 417.695312 309.417969 417.746094 C 308.0625 417.746094 306.640625 418.109375 305.355469 418.589844 C 301.429688 420.046875 300.617188 423.441406 300.597656 427.058594 C 300.527344 440.042969 300.570312 453.027344 300.578125 466.007812 C 300.578125 466.730469 300.652344 467.457031 300.695312 468.246094 L 311.492188 468.246094 C 311.375 459.726562 315.492188 453.675781 322.339844 449.234375 C 316.867188 443.207031 317.910156 433.394531 322.839844 428.925781 C 328.609375 423.695312 336.3125 423.269531 342.667969 428.277344 C 345.28125 430.335938 346.992188 433.273438 347.355469 436.617188 C 347.851562 441.191406 347.4375 445.667969 343.792969 449.191406 C 350.84375 453.78125 354.878906 459.875 354.742188 468.21875 L 365.523438 468.21875 Z M 426.800781 468.21875 L 437.726562 468.21875 C 437.726562 458.101562 437.75 448.132812 437.664062 438.164062 C 437.660156 437.632812 436.839844 436.902344 436.234375 436.628906 C 434.488281 435.839844 432.628906 435.3125 430.875 434.542969 C 423.050781 431.109375 416.429688 426.132812 411.414062 419.144531 C 410.6875 418.136719 409.898438 417.648438 408.511719 417.65625 C 397.328125 417.746094 386.148438 417.703125 374.96875 417.710938 C 374.25 417.710938 373.53125 417.785156 372.808594 417.828125 L 372.808594 468.179688 L 383.621094 468.179688 C 383.492188 459.613281 387.65625 453.675781 394.40625 449.242188 C 388.839844 442.941406 390.097656 433.160156 395.082031 428.785156 C 400.871094 423.695312 408.40625 423.292969 414.746094 428.265625 C 417.363281 430.316406 419.09375 433.246094 419.453125 436.59375 C 419.933594 441.167969 419.550781 445.65625 415.890625 449.183594 C 422.851562 453.742188 426.929688 459.730469 426.808594 468.214844 Z M 441.324219 576.4375 C 441.324219 574.125 441.46875 572.027344 441.289062 569.957031 C 441.039062 567.058594 439.289062 565.523438 436.253906 565.515625 C 415.539062 565.484375 394.828125 565.488281 374.117188 565.515625 C 371.277344 565.523438 369.652344 566.664062 369.253906 569.324219 C 368.90625 571.632812 369.183594 574.035156 369.183594 576.4375 Z M 319.042969 468.226562 L 347.175781 468.226562 C 347.21875 462.894531 345.042969 458.851562 340.691406 456.226562 C 335.734375 453.234375 330.472656 453.234375 325.519531 456.226562 C 321.171875 458.847656 319 462.898438 319.039062 468.226562 Z M 419.035156 468.238281 C 419.671875 463.734375 417.035156 458.550781 412.628906 456.113281 C 407.066406 453.035156 401.558594 453.410156 396.328125 457.03125 C 392.910156 459.398438 390.636719 464.738281 391.464844 468.238281 Z M 319.042969 525.902344 L 347.175781 525.902344 C 347.214844 520.578125 345.042969 516.53125 340.695312 513.902344 C 335.738281 510.914062 330.476562 510.910156 325.523438 513.902344 C 321.175781 516.527344 319 520.570312 319.039062 525.902344 Z M 419.328125 525.933594 C 419.140625 520.355469 416.976562 516.226562 412.265625 513.65625 C 406.792969 510.667969 401.347656 511.085938 396.410156 514.714844 C 392.800781 517.375 390.933594 521.164062 391.171875 525.933594 Z M 491.152344 525.964844 C 491.703125 521.132812 488.964844 516.199219 484.46875 513.664062 C 479.367188 510.792969 472.707031 511.148438 468.21875 514.898438 C 464.875 517.695312 462.90625 521.304688 463.328125 525.960938 L 491.152344 525.960938 Z M 422.039062 558.339844 C 421.507812 556.101562 421.136719 554.152344 420.535156 552.269531 C 420.375 551.757812 419.515625 551.140625 418.96875 551.136719 C 409.8125 551.066406 400.652344 551.070312 391.492188 551.125 C 390.9375 551.125 390.019531 551.550781 389.894531 551.96875 C 389.285156 553.996094 388.882812 556.089844 388.367188 558.339844 Z M 333.035156 432.578125 C 329.003906 432.582031 326.484375 435.390625 326.175781 439.445312 C 325.917969 442.855469 329.742188 446.605469 333.066406 446.367188 C 337.242188 446.066406 339.972656 443.554688 339.957031 439.308594 C 339.949219 435.300781 337.144531 432.574219 333.03125 432.578125 Z M 405.1875 432.578125 C 401.757812 431.972656 398.019531 436.105469 398.261719 439.390625 C 398.558594 443.484375 401.050781 446.28125 405.082031 446.292969 C 409.328125 446.300781 412.050781 443.59375 412.046875 439.371094 C 412.042969 435.335938 409.257812 432.574219 405.1875 432.574219 Z M 333.203125 490.253906 C 329.082031 490.246094 326.257812 492.964844 326.246094 496.957031 C 326.234375 501.09375 328.941406 503.949219 332.890625 503.964844 C 337.160156 503.984375 339.953125 501.289062 339.957031 497.152344 C 339.957031 493.046875 337.230469 490.261719 333.199219 490.253906 Z M 412.046875 497.003906 C 412.039062 492.980469 409.226562 490.480469 405.144531 490.183594 C 401.847656 489.941406 398.007812 493.667969 398.261719 497.109375 C 398.5625 501.253906 401.105469 503.980469 405.347656 503.96875 C 409.335938 503.957031 412.050781 501.128906 412.042969 497.003906 Z M 477.234375 490.253906 C 473.9375 489.652344 470.089844 493.683594 470.347656 497.101562 C 470.652344 501.152344 473.191406 503.714844 477.199219 504.039062 C 480.628906 504.316406 484.496094 500.574219 484.207031 497.003906 C 483.882812 493 481.335938 490.25 477.234375 490.253906 Z M 477.234375 490.253906 " fill-opacity="1" fill-rule="nonzero"/><path fill="#d92d27" d="M 430.574219 396.457031 L 437.371094 396.457031 L 437.371094 403.148438 L 430.574219 403.148438 Z M 430.574219 396.457031 " fill-opacity="1" fill-rule="nonzero"/><path fill="#d92d27" d="M 445.085938 396.402344 L 451.839844 396.402344 L 451.839844 403.113281 L 445.085938 403.113281 Z M 445.085938 396.402344 " fill-opacity="1" fill-rule="nonzero"/><path fill="#d92d27" d="M 459.503906 396.402344 L 466.257812 396.402344 L 466.257812 403.113281 L 459.503906 403.113281 Z M 459.503906 396.402344 " fill-opacity="1" fill-rule="nonzero"/><path fill="#d92d27" d="M 473.882812 396.445312 L 480.628906 396.445312 L 480.628906 403.15625 L 473.882812 403.15625 Z M 473.882812 396.445312 " fill-opacity="1" fill-rule="nonzero"/></svg>