<svg width="61" height="72" viewBox="0 0 61 72" fill="none" xmlns="http://www.w3.org/2000/svg">
<g clip-path="url(#clip0_151_1944)">
<path d="M51.08 12.2899C49.64 12.7899 48.32 13.1999 47.03 13.7099C46.8 13.7999 46.58 14.2499 46.57 14.5399C46.53 16.3199 46.51 18.1099 46.57 19.8999C46.59 20.7299 46.33 21.2799 45.54 21.5299C44.58 21.8199 44.33 22.4299 44.37 23.4199C44.54 27.1999 44.38 30.9699 43.19 34.5999C42.7 36.0899 41.95 37.4999 41.33 38.9499C41.24 39.1499 41.14 39.3699 41.14 39.5799C41.12 40.8799 41.1 42.1899 41.16 43.4899C41.17 43.7399 41.51 44.0799 41.77 44.1899C45.44 45.6599 49.19 46.9599 52.79 48.5799C54.88 49.5199 56.81 50.8799 58.7 52.2199C60.24 53.3099 60.9 54.8799 60.86 56.8499C60.76 61.4399 60.83 66.0299 60.83 70.6299C60.83 71.8299 60.63 72.0199 59.46 72.0199C40.1 72.0199 20.74 72.0199 1.38 72.0199C0.2 72.0199 0.01 71.8199 0.01 70.6299C0.01 65.7799 0.03 60.9299 0 56.0899C0 54.9899 0.29 53.9999 1.1 53.3499C2.66 52.0999 4.25 50.8399 5.98 49.8599C10.07 47.5399 14.43 45.7899 18.9 44.3099C19.62 44.0699 19.86 43.7299 19.76 43.0499C19.75 42.9699 19.76 42.8799 19.76 42.7999C19.86 40.8399 19.59 39.0499 18.66 37.1999C17.11 34.1499 16.61 30.7399 16.5 27.3099C16.45 25.8099 16.47 24.2999 16.5 22.7999C16.5 22.3199 16.4 21.9899 15.91 21.8199C15.62 21.7199 15.37 21.5199 15.08 21.3899C14.51 21.1399 14.31 20.7099 14.32 20.0999C14.34 18.3699 14.29 16.6399 14.35 14.9099C14.38 14.1199 14.17 13.7299 13.36 13.4699C10.51 12.5499 7.68 11.5499 4.86 10.5299C4.48 10.3899 4.21 9.94988 3.89 9.64988C4.21 9.33988 4.47 8.87988 4.84 8.74988C13.14 5.83988 21.45 2.95988 29.78 0.109883C30.19 -0.0301172 30.74 -0.0301172 31.15 0.109883C39.44 2.95988 47.73 5.82988 56.01 8.72988C56.4 8.86988 56.87 9.24988 56.97 9.60988C57.14 10.2499 56.5 10.4099 56.02 10.5799C55.19 10.8799 54.38 11.1999 53.53 11.4299C52.91 11.5999 52.7 11.8799 52.71 12.5499C52.75 16.1499 52.73 19.7499 52.73 23.3499C52.73 23.5799 52.81 23.8599 52.7 24.0199C52.5 24.3099 52.21 24.7199 51.94 24.7299C51.68 24.7399 51.34 24.3599 51.14 24.0699C51.02 23.8899 51.09 23.5799 51.09 23.3199C51.09 19.9999 51.09 16.6899 51.09 13.3699C51.09 13.0599 51.09 12.7499 51.09 12.2999L51.08 12.2899ZM1.7 70.3199H59.23C59.23 69.9299 59.23 69.5899 59.23 69.2599C59.23 65.1799 59.13 61.0899 59.27 57.0199C59.33 55.2199 58.64 54.0399 57.31 53.0599C53.48 50.2299 49.08 48.5899 44.61 46.9399C44.47 47.3199 44.34 47.6299 44.25 47.9399C42.82 52.7299 41.4 57.5099 39.98 62.2999C39.6 63.5899 39.34 63.7099 38.11 63.1199C35.84 62.0399 33.56 60.9799 31.31 59.8599C30.68 59.5499 30.2 59.5699 29.58 59.8699C27.28 61.0099 24.94 62.0899 22.62 63.1799C21.57 63.6799 21.25 63.5299 20.92 62.3799C20.01 59.2999 19.1 56.2099 18.18 53.1299C17.58 51.1099 16.97 49.0899 16.3 46.8799C13.38 48.1799 10.52 49.3799 7.73 50.7199C6.21 51.4499 4.77 52.3899 3.36 53.3299C2.3 54.0399 1.77 55.0499 1.77 56.4199C1.79 60.8099 1.71 65.2099 1.67 69.5999C1.67 69.8199 1.69 70.0399 1.7 70.3299V70.3199ZM42.95 22.7399C34.54 25.9899 26.37 26.2399 18.09 22.8499C18.09 24.3399 18.06 25.6899 18.09 27.0399C18.19 30.4699 18.62 33.9099 20.3 36.8899C21.29 38.6399 21.4 40.3099 21.39 42.1299C21.39 42.6099 21.33 43.0999 21.41 43.5699C21.49 44.0499 21.59 44.5799 21.86 44.9699C24.52 48.7799 27.21 52.5599 29.9 56.3499C30.06 56.5699 30.23 56.7899 30.45 57.0699C30.67 56.7799 30.86 56.5399 31.04 56.2899C33.46 52.8699 35.84 49.4199 38.33 46.0399C39.18 44.8899 39.64 43.7499 39.52 42.2999C39.35 40.3599 39.34 38.4099 40.71 36.7699C40.95 36.4799 41.07 36.0599 41.17 35.6799C41.62 34.0199 42.21 32.3699 42.42 30.6699C42.74 28.1099 42.78 25.5099 42.95 22.7299V22.7399ZM7.23 9.62988C7.59 9.76988 7.79 9.85988 7.99 9.92988C15.22 12.4299 22.45 14.9399 29.69 17.3899C30.22 17.5699 30.92 17.4999 31.46 17.3199C36.35 15.6799 41.23 13.9799 46.11 12.2999C46.59 12.1299 47.06 11.9499 47.53 11.7699C43.16 11.3499 38.84 11.0599 34.52 10.7599C33.16 10.6699 31.81 10.5599 30.45 10.4499C29.91 10.4099 29.53 10.0799 29.66 9.57988C29.74 9.27988 30.21 9.07988 30.53 8.86988C30.63 8.80988 30.81 8.86988 30.95 8.87988C37.37 9.31988 43.78 9.75988 50.2 10.2199C51.35 10.2999 52.46 10.2899 53.53 9.64988C53.3 9.54988 53.1 9.45988 52.9 9.38988C45.61 6.84988 38.32 4.29988 31.02 1.77988C30.66 1.65988 30.18 1.66988 29.81 1.79988C24.03 3.77988 18.26 5.78988 12.49 7.79988C10.79 8.38988 9.08 8.97988 7.22 9.62988H7.23ZM44.92 14.4799C44.53 14.5999 44.24 14.6899 43.95 14.7899C39.71 16.2499 35.48 17.7399 31.23 19.1599C30.75 19.3199 30.12 19.2999 29.63 19.1399C26.52 18.1099 23.44 17.0199 20.34 15.9599C18.91 15.4699 17.48 14.9799 15.95 14.4599C15.95 15.6899 16.04 16.7999 15.93 17.8899C15.78 19.3899 16 20.5599 17.74 20.8799C18.03 20.9299 18.29 21.1699 18.57 21.2899C27.35 25.0099 35.96 24.2699 44.44 20.2499C44.63 20.1599 44.88 19.9099 44.88 19.7299C44.91 18.0099 44.9 16.2899 44.9 14.4699L44.92 14.4799ZM29.22 58.2199C26.29 54.0799 23.43 50.0299 20.55 45.9999C20.43 45.8299 20.07 45.6899 19.88 45.7399C19.24 45.9199 18.62 46.1899 17.93 46.4399C19.43 51.4599 20.91 56.4099 22.42 61.4399C24.74 60.3399 26.93 59.2999 29.23 58.2199H29.22ZM40.59 45.6399C37.62 49.8299 34.67 53.9799 31.68 58.1999C33.97 59.2799 36.2 60.3299 38.49 61.4099C40 56.3499 41.47 51.4199 42.95 46.4399C42.1 46.1499 41.36 45.9099 40.59 45.6399Z" fill="white"/>
</g>
<defs>
<clipPath id="clip0_151_1944">
<rect width="60.87" height="72.01" fill="white"/>
</clipPath>
</defs>
</svg>
