<svg id="Capa_1" data-name="Capa 1" xmlns="http://www.w3.org/2000/svg" width="142.8" height="55" viewBox="0 0 142.8 55"><defs><style>.cls-1{fill:#da0921;}</style></defs><title>Universidad-del-Rosario-Logo</title><path class="cls-1" d="M35.5,8.7a.6.6,0,0,0-.6.5h0L33,9.8a11.2,11.2,0,0,1,.3-1.9h.3a.6.6,0,0,0,.5-.6.5.5,0,0,0-.5-.5.6.6,0,0,0-.6.5c0,.1.1.2.1.3l-1.7.9c0,.1-.1-1-.2-1.8h0a.6.6,0,0,0,.6-.5.6.6,0,0,0-.6-.6h-.1l-.4.3v.3a.5.5,0,0,0,.2.4L29.7,8s-.5-.9-1-1.6a.5.5,0,0,0,.4-.5.6.6,0,0,0-.6-.5.5.5,0,0,0-.5.5c0,.3.1.5.3.5L27.3,8,26.1,6.7c.2-.1.3-.2.3-.4V6L26,5.7h-.2a.6.6,0,0,0-.5.6.5.5,0,0,0,.5.5h0a9.5,9.5,0,0,1-.2,1.8l-1.7-.9a.4.4,0,0,0,.1-.3.5.5,0,0,0-.5-.5.6.6,0,0,0-.6.5.6.6,0,0,0,.6.6h.3l.3,1.9-2-.4h0a.5.5,0,0,0-.5-.5.6.6,0,0,0-.6.5.6.6,0,0,0,.6.6h.3l2.3,2.2a6.4,6.4,0,0,1,4.3-1.7,6.7,6.7,0,0,1,4.4,1.7l2.2-2.2h.4a.6.6,0,0,0,.5-.6.5.5,0,0,0-.5-.5" transform="translate(-1.1 0)"/><polygon class="cls-1" points="26.7 48.4 28.1 48.4 28.1 49.9 29.6 49.9 29.6 51.4 28.1 51.4 28.1 55 26.7 55 26.7 51.4 25.2 51.4 25.2 49.9 26.7 49.9 26.7 48.4"/><path class="cls-1" d="M19.7,6.1c.2-1.3,2-1,2.8-.6a3.4,3.4,0,0,0,2.8,0c3.1-1.1.6-4.2-.8-4.4S24.4.7,25,1l.9.4C25-.2,23.9-.3,23.3.3s-.1.6.4,1c2.2,1.9,0,2.6-1.8,2.6s-4.1,1.3-3.8,4.8C16.9,6.3,11,5.2,9.7,10.1a8.1,8.1,0,0,0,0,3.5c.2.5-.5,1.2-1.3,1.3a1,1,0,0,0,1.7-.2c-.1,1.1.1,2.5-1.6,2.9-3.9.4-1,3.3,2.4,1.3a3.7,3.7,0,0,0,1.7-4.3c3.8.5,3.6-3.8,2.8-3.1s-3,.9-3.4-.4c3.6,1.8,3.7-2,2.6-.9s-3.5-.9-1.4-2c-.8,1.1-.5,1.7.1,1.9s1.7-.2,1.1-.9.8-1.3,1.7-.8,1,.8,1.9,2.5a2.3,2.3,0,0,1,2.6-1.5c-1.3-2,.4-2.6.9-1.9s.9.2.9-.4-1.7-1.9-2.7-1" transform="translate(-1.1 0)"/><path class="cls-1" d="M20.5,17.8l3.6-2.4a42.5,42.5,0,0,1-4.7-3.8c-.2-.2-.1-.4.2-.2l3.2,2.5h.6V12.5a5.5,5.5,0,0,1-2.7-1c-.4-.5,1.2-.3.7-1s-3.8.4-2.7,1.4a15.1,15.1,0,0,0,2,1.7A26,26,0,0,1,16.2,11a7.7,7.7,0,0,1,.2,1.5l4.2,1.8c.2,0,.1.4,0,.4a4.7,4.7,0,0,0-3.7-.9c-1.1.3-.9,1.4-.1,1.8s-.4.2-1,0c.2,1.3,1.6.8,1.6,1s-1,.2-1.2.1,1.6.8,1.6.9-.4.3-.6.3a1.1,1.1,0,0,0,1.3.4c.1,0,.3,0,.1.1s-.2.2-.4.2a2.1,2.1,0,0,0,1.6-.2,1.7,1.7,0,0,0,.4-.7,1.3,1.3,0,0,1-.7.3c.5-.4,1-1.3-.1-1.9s-.1.4-.3.5h-.2c.1-.4.2-1-.4-1.3s-.1.7-.3.7h-.1c.1-.2.5-1.1-.2-1.2s0,.5-.5.5c-1.4-1.6,1.9-1.5,1.7-.8l-.4.2,1.2,1.4,1.9-.8.4.5-1.7.8a4.8,4.8,0,0,1,0,1.2" transform="translate(-1.1 0)"/><path class="cls-1" d="M16,26.3a19.1,19.1,0,0,1,1-3.4l-1-.6h1.3A6.1,6.1,0,0,1,19,19.8c0-.1-1.3-.2-4.6.6,2.2-.8,2.1-2.2,1.6-2.8s-2.3.1-2.3.1a.6.6,0,0,1,.3-.5c.6-.4,1.3-.1,1.2-.2a1.5,1.5,0,0,0-2.3.5c-.4.8.3,2.3,1.6,1.5-.4-.8.1-1.1.5-1.1a.7.7,0,0,1,.3,1.1c-.7,1-2.5,1.1-4,1.3-4.2.5-6.2,7.3.3,7.9-2-1-2-4.2.2-4.3s1.9,1.6.5,2c.5-.4.4-1.3-.2-1.3-2.4-.1-1.2,4.4,1.5,2.7,4.3-3.1-2.6-8-4.4-2.8-.3-2.9,6.2-5.3,6.8,1.8" transform="translate(-1.1 0)"/><path class="cls-1" d="M3.7,38c-.7-1.2-.2-3.2,1.2-3.2s1.3,2,.3,1.8-1.8.5-1.5,1.4" transform="translate(-1.1 0)"/><path class="cls-1" d="M4.5,32.3a2.9,2.9,0,0,1,2.8-2.1,2,2,0,0,1,1.9,1c1.4,2.1-1.2,4.1-2.9,1-.4-.6-1.1-.4-1.8.1" transform="translate(-1.1 0)"/><path class="cls-1" d="M3.5,34.5a1.8,1.8,0,0,1,1.5-2,1,1,0,0,1,1.2.4c.9,1.1-.7,2.5-1.5.9s-.9-.1-1.2.7" transform="translate(-1.1 0)"/><path class="cls-1" d="M12.7,32.4a1.8,1.8,0,0,0-1.8-1.1,1.1,1.1,0,0,0-.9.6c-.3,1.2,1.1,1.6,1.4.6s.8-.5,1.3-.1" transform="translate(-1.1 0)"/><path class="cls-1" d="M25.2,49.9c1.5-7.8-5.6-5.5-8.3-13.4a4.6,4.6,0,0,0,.3,3.3c-.2-.1-.3-.1-.4-.4A24.1,24.1,0,0,1,15.3,33c-.3-.3-1.7-.7-1.6.1.4,2.6.7,4,.8,4.9a39.8,39.8,0,0,1-1.3-4.5c-.3-1.2-2.2-1.1-1.8.4s.7,1.8,1.2,3a9.9,9.9,0,0,1-1.7-3.2,1.9,1.9,0,0,1-1.1-.1c-.1-.1,0,.3.1.9a11,11,0,0,0,2,2.8,6.6,6.6,0,0,1-2.5-3.2,2.6,2.6,0,0,1-2.1.2c.6,1.6,1.9,2.5,3.4,3.6a10,10,0,0,1,1.1,1c-1.9-1-3.9-2-5.1-4.8-.1.3-.3.8-.8.9a2.7,2.7,0,0,1,.2,2c.9,1.4,4.1,2.1,5.5,2.4a8.4,8.4,0,0,1-5.9-2.2,1,1,0,0,0-1.4,1.4c.9,1.4,3,1.6,7.1,1.5,0,.1-9.2.5-10,.5s-.2,2.2,1.2,2a23.3,23.3,0,0,0,5.1-.9c.6-.1-2,.9-4.4,1.3,0,.8,1.7,1.4,3.2.8S11,41,12.3,41.6a4.3,4.3,0,0,0-2.3.8L6.5,44.6c1.8,2.7,3.5-.7,6.3-2.1l1-.3c-7.9,3.9-1,9.3,1.2,4.7-2.7,1.2-3.7-.8-2.4-2.6-.8,2.8,1.6,3,2.6,2-2.9-1.3-.4-4,1.8-4.1s2.6,1.9,1.5,2.7.9-1.3-.4-1.8a1.6,1.6,0,0,0-2.1.3c-1.5,1.3.2,5.2,2.8,3.9s2.7-1.5,4.1-.8a5.6,5.6,0,0,0-4,1.3c-.8.8,0,2.3,1.6,1.1s4.6-2.8,3.9.1c-.2.6-1.5,1-.3,1.6s1-.2,1.1-.7" transform="translate(-1.1 0)"/><path class="cls-1" d="M26.6,15.6a.8.8,0,0,1,.7.8.7.7,0,0,1-1.4,0,.8.8,0,0,1,.7-.8" transform="translate(-1.1 0)"/><path class="cls-1" d="M24.7,16.2a.9.9,0,0,1,.8.8.8.8,0,0,1-.8.7A.7.7,0,0,1,24,17a.8.8,0,0,1,.7-.8" transform="translate(-1.1 0)"/><path class="cls-1" d="M23,17.2a.7.7,0,1,1-.7.7.7.7,0,0,1,.7-.7" transform="translate(-1.1 0)"/><path class="cls-1" d="M21.5,18.4a.7.7,0,0,1,.7.7.8.8,0,0,1-.7.8.9.9,0,0,1-.8-.8.8.8,0,0,1,.8-.7" transform="translate(-1.1 0)"/><path class="cls-1" d="M20.2,19.8a.8.8,0,0,1,.7.8.7.7,0,1,1-1.4,0,.8.8,0,0,1,.7-.8" transform="translate(-1.1 0)"/><path class="cls-1" d="M19.1,21.5a.7.7,0,0,1,.7.7.7.7,0,1,1-1.4,0,.7.7,0,0,1,.7-.7" transform="translate(-1.1 0)"/><path class="cls-1" d="M18.3,23.3a.7.7,0,0,1,0,1.4.7.7,0,1,1,0-1.4" transform="translate(-1.1 0)"/><path class="cls-1" d="M17.7,25.1a.8.8,0,0,1,.7.8.7.7,0,0,1-.7.7.8.8,0,0,1-.8-.7.9.9,0,0,1,.8-.8" transform="translate(-1.1 0)"/><path class="cls-1" d="M17.3,27.1a.7.7,0,1,1-.7.7.7.7,0,0,1,.7-.7" transform="translate(-1.1 0)"/><path class="cls-1" d="M26.6,42.5a.8.8,0,0,1,.7.8.7.7,0,1,1-1.4,0,.8.8,0,0,1,.7-.8" transform="translate(-1.1 0)"/><path class="cls-1" d="M24.7,41.9a.9.9,0,0,1,.8.8.8.8,0,0,1-.8.7.7.7,0,0,1-.7-.7.8.8,0,0,1,.7-.8" transform="translate(-1.1 0)"/><path class="cls-1" d="M23,41a.7.7,0,0,1,.7.7.7.7,0,1,1-1.4,0A.7.7,0,0,1,23,41" transform="translate(-1.1 0)"/><path class="cls-1" d="M21.5,39.7a.8.8,0,0,1,.7.8.7.7,0,0,1-.7.7.8.8,0,0,1-.8-.7.9.9,0,0,1,.8-.8" transform="translate(-1.1 0)"/><path class="cls-1" d="M20.2,38.2a.7.7,0,0,1,.7.7.8.8,0,0,1-.7.8.9.9,0,0,1-.8-.8.8.8,0,0,1,.8-.7" transform="translate(-1.1 0)"/><path class="cls-1" d="M19.1,36.5a.8.8,0,0,1,.7.8.7.7,0,1,1-1.4,0,.8.8,0,0,1,.7-.8" transform="translate(-1.1 0)"/><path class="cls-1" d="M18.3,34.9a.7.7,0,1,1,0,1.4.7.7,0,1,1,0-1.4" transform="translate(-1.1 0)"/><path class="cls-1" d="M17.7,33a.7.7,0,1,1,0,1.4.7.7,0,1,1,0-1.4" transform="translate(-1.1 0)"/><path class="cls-1" d="M17.3,31a.8.8,0,0,1,.7.8.7.7,0,0,1-1.4,0,.8.8,0,0,1,.7-.8" transform="translate(-1.1 0)"/><path class="cls-1" d="M30.3,15.6a.8.8,0,0,0-.7.8.7.7,0,1,0,1.4,0,.8.8,0,0,0-.7-.8" transform="translate(-1.1 0)"/><path class="cls-1" d="M32.2,16.2a.8.8,0,0,0-.7.8.7.7,0,0,0,1.4,0,.8.8,0,0,0-.7-.8" transform="translate(-1.1 0)"/><path class="cls-1" d="M33.9,17.2a.7.7,0,1,0,0,1.4.7.7,0,1,0,0-1.4" transform="translate(-1.1 0)"/><path class="cls-1" d="M35.5,18.4a.8.8,0,0,0-.8.7.9.9,0,0,0,.8.8.8.8,0,0,0,.7-.8.7.7,0,0,0-.7-.7" transform="translate(-1.1 0)"/><path class="cls-1" d="M36.7,19.8a.8.8,0,0,0-.7.8.7.7,0,0,0,.7.7.8.8,0,0,0,.8-.7.9.9,0,0,0-.8-.8" transform="translate(-1.1 0)"/><path class="cls-1" d="M37.8,21.5a.7.7,0,0,0-.7.7.8.8,0,0,0,.7.8.9.9,0,0,0,.8-.8.8.8,0,0,0-.8-.7" transform="translate(-1.1 0)"/><path class="cls-1" d="M38.6,23.3a.7.7,0,1,0,0,1.4.7.7,0,1,0,0-1.4" transform="translate(-1.1 0)"/><path class="cls-1" d="M39.3,25.1a.8.8,0,0,0-.7.8.7.7,0,1,0,1.4,0,.8.8,0,0,0-.7-.8" transform="translate(-1.1 0)"/><path class="cls-1" d="M39.6,27.1a.7.7,0,1,0,.7.7.7.7,0,0,0-.7-.7" transform="translate(-1.1 0)"/><path class="cls-1" d="M30.3,42.5a.8.8,0,0,0-.7.8.7.7,0,0,0,1.4,0,.8.8,0,0,0-.7-.8" transform="translate(-1.1 0)"/><path class="cls-1" d="M32.2,41.9a.8.8,0,0,0-.7.8.7.7,0,0,0,1.4,0,.8.8,0,0,0-.7-.8" transform="translate(-1.1 0)"/><path class="cls-1" d="M33.9,41a.7.7,0,0,0-.7.7.8.8,0,0,0,.7.8.9.9,0,0,0,.8-.8.8.8,0,0,0-.8-.7" transform="translate(-1.1 0)"/><path class="cls-1" d="M35.5,39.7a.9.9,0,0,0-.8.8.8.8,0,0,0,.8.7.7.7,0,0,0,.7-.7.8.8,0,0,0-.7-.8" transform="translate(-1.1 0)"/><path class="cls-1" d="M36.8,38.2a.8.8,0,0,0-.8.7.9.9,0,0,0,.8.8.8.8,0,0,0,.7-.8.7.7,0,0,0-.7-.7" transform="translate(-1.1 0)"/><path class="cls-1" d="M37.8,36.5a.8.8,0,0,0-.7.8.7.7,0,0,0,.7.7.8.8,0,0,0,.8-.7.9.9,0,0,0-.8-.8" transform="translate(-1.1 0)"/><path class="cls-1" d="M38.6,34.9a.7.7,0,1,0,0,1.4.7.7,0,1,0,0-1.4" transform="translate(-1.1 0)"/><path class="cls-1" d="M39.3,33a.7.7,0,1,0,.7.7.7.7,0,0,0-.7-.7" transform="translate(-1.1 0)"/><path class="cls-1" d="M39.6,31a.8.8,0,0,0-.7.8.7.7,0,1,0,1.4,0,.8.8,0,0,0-.7-.8" transform="translate(-1.1 0)"/><path class="cls-1" d="M27.9,25.2a.8.8,0,0,0-.7-.7c-.8,0-.5,1.2-1,.2s-.1-2.7,1.6-2.3h0a3.5,3.5,0,0,1,.6-4.8h.1c-3.5,0-5.7,2.2-7.1,3.8l6.5,7.9v-4" transform="translate(-1.1 0)"/><path class="cls-1" d="M27.9,29.2H25.1c-1.5,0-.9-1.6-.3-1.9s-2.5-.7-2.1,1.6c-1.7-1.7-3.5-.4-4.1.8h9.3Z" transform="translate(-1.1 0)"/><path class="cls-1" d="M24.8,32.2c-.5.9-2.5.7-2.1-1.6-1.7,1.7-3.5.4-4.1-.9-.1,3.2,1.6,7.2,2.9,8.5l6.4-7.9H25.1c-1.5,0-.9,1.6-.3,1.9" transform="translate(-1.1 0)"/><path class="cls-1" d="M29.1,29.7V25.5c0-.8.5-1,.7-1s.6,1.2,1,.2.2-2.7-1.6-2.3a3.6,3.6,0,0,0-.7-4.9V29.7Z" transform="translate(-1.1 0)"/><path class="cls-1" d="M29.1,34.3a.9.9,0,0,0,.7.7c.8,0,.6-1.2,1-.2s.2,2.7-1.5,2.3h0a3.5,3.5,0,0,1-.7,4.8c0,.1,0,.1-.1.1a8.8,8.8,0,0,0,7.1-3.9l-6.5-7.8v4" transform="translate(-1.1 0)"/><path class="cls-1" d="M29.1,30.3h2.8c1.6,0,1,1.6.4,1.9s2.5.7,2-1.6a2.4,2.4,0,0,0,4.1-.9H29.1Z" transform="translate(-1.1 0)"/><path class="cls-1" d="M32.3,27.3c.4-.9,2.5-.7,2,1.6a2.4,2.4,0,0,1,4.1.8,13.7,13.7,0,0,0-2.8-8.4l-6.5,7.9h2.8c1.6,0,1-1.6.4-1.9" transform="translate(-1.1 0)"/><path class="cls-1" d="M27.9,29.7V34c0,.8-.5,1-.7,1s-.5-1.2-1-.2-.1,2.7,1.6,2.3a3.6,3.6,0,0,0,.7,4.9V29.7Z" transform="translate(-1.1 0)"/><path class="cls-1" d="M29.3,13.2a1.9,1.9,0,0,0-.8-1.7,1.6,1.6,0,0,0-.7,1.7c-1,0-2,.9-1.2,2.1.4-.8,1.2-.6,1.2.1V17h1.5V15.4c0-.7.7-.9,1.2-.1a1.4,1.4,0,0,0-1.2-2.1" transform="translate(-1.1 0)"/><path class="cls-1" d="M13.9,29a1.9,1.9,0,0,0-1.7.8,1.6,1.6,0,0,0,1.7.7c0,1,.9,2,2.1,1.2-.8-.4-.6-1.2.1-1.2h1.8V29H16.1c-.7,0-.9-.7-.1-1.2A1.4,1.4,0,0,0,13.9,29" transform="translate(-1.1 0)"/><path class="cls-1" d="M43,30.5a1.6,1.6,0,0,0,1.7-.7A1.8,1.8,0,0,0,43,29a1.4,1.4,0,0,0-2.1-1.2c.8.5.6,1.2-.1,1.2H39v1.5h1.8c.7,0,.9.8.1,1.2,1.2.8,2.1-.2,2.1-1.2" transform="translate(-1.1 0)"/><path class="cls-1" d="M27.8,46.4a1.6,1.6,0,0,0,.7,1.7,1.8,1.8,0,0,0,.8-1.7,1.4,1.4,0,0,0,1.2-2.1c-.5.8-1.2.6-1.2-.1V42.7H27.8v1.5c0,.7-.8.9-1.2.1-.8,1.2.2,2.1,1.2,2.1" transform="translate(-1.1 0)"/><path class="cls-1" d="M28.5,11.2a5.1,5.1,0,0,1,3.7,1.4l.4-.4a5.8,5.8,0,0,0-4.1-1.6,6,6,0,0,0-4.1,1.6l.5.4a5.1,5.1,0,0,1,3.6-1.4" transform="translate(-1.1 0)"/><path class="cls-1" d="M28.5,11.2a5.1,5.1,0,0,0-3.6,1.4l-.5-.4a6,6,0,0,1,4.1-1.6,5.8,5.8,0,0,1,4.1,1.6l-.4.4a5.1,5.1,0,0,0-3.7-1.4" transform="translate(-1.1 0)"/><path class="cls-1" d="M37.3,6.1c-.1-1.3-2-1-2.7-.6a3.7,3.7,0,0,1-2.9,0c-3-1.1-.6-4.2.9-4.4s0-.4-.6-.1l-.8.4C32-.2,33.2-.3,33.7.3s.2.6-.3,1c-2.2,1.9,0,2.6,1.8,2.6s4,1.3,3.7,4.8c1.3-2.4,7.1-3.5,8.5,1.4a10.6,10.6,0,0,1-.1,3.5c-.2.5.5,1.2,1.3,1.3s-1.1.5-1.7-.2c.2,1.1,0,2.5,1.7,2.9,3.8.4,1,3.3-2.4,1.3a3.7,3.7,0,0,1-1.8-4.3c-3.8.5-3.5-3.8-2.7-3.1s3,.9,3.3-.4c-3.5,1.8-3.6-2-2.5-.9s3.5-.9,1.4-2c.8,1.1.4,1.7-.1,1.9s-1.7-.2-1.1-.9-.8-1.3-1.7-.8-1,.8-2,2.5a2.2,2.2,0,0,0-2.6-1.5c1.4-2-.3-2.6-.8-1.9a.5.5,0,0,1-.9-.4c0-1.7,1.6-1.9,2.6-1" transform="translate(-1.1 0)"/><path class="cls-1" d="M36.6,17.8l-3.7-2.4a44.7,44.7,0,0,0,4.8-3.8c.2-.2,0-.4-.2-.2l-3.2,2.5h-.7V12.5a5.8,5.8,0,0,0,2.8-1c.4-.5-1.2-.3-.7-1s3.7.4,2.6,1.4a14.5,14.5,0,0,1-1.9,1.7A22.1,22.1,0,0,0,40.8,11a7.7,7.7,0,0,1-.2,1.5c-1.3.7-2.7,1.2-4.1,1.8s-.2.4,0,.4a4.6,4.6,0,0,1,3.7-.9.9.9,0,0,1,.1,1.8c-.1.3.4.2.9,0-.2,1.3-1.6.8-1.5,1s1,.2,1.1.1-1.5.8-1.5.9.3.3.6.3a1.3,1.3,0,0,1-1.4.4s-.2,0-.1.1a.5.5,0,0,0,.4.2,1.8,1.8,0,0,1-1.5-.2.9.9,0,0,1-.4-.7.9.9,0,0,0,.6.3,1.1,1.1,0,0,1,.2-1.9.7.7,0,0,0,.3.5h.1a1,1,0,0,1,.5-1.3c-.1.2,0,.7.2.7H39c-.1-.2-.5-1.1.1-1.2s.1.5.6.5c1.4-1.6-2-1.5-1.8-.8l.4.2-1.2,1.4-1.9-.8c0,.1-.3.4-.3.5l1.6.8c0,.5.1.8.1,1.2" transform="translate(-1.1 0)"/><path class="cls-1" d="M41,26.3a13.1,13.1,0,0,0-.9-3.4l.9-.6H39.8a8.8,8.8,0,0,0-1.7-2.6c0-.1,1.3-.2,4.6.6-2.2-.8-2.2-2.2-1.7-2.8s2.3.1,2.3.1.1-.3-.3-.5-1.2-.1-1.1-.2a1.5,1.5,0,0,1,2.3.5c.4.8-.3,2.3-1.6,1.5.4-.8-.1-1.1-.6-1.1s-.7.6-.2,1.1,2.5,1.1,4,1.3c4.2.5,6.2,7.3-.3,7.9,1.9-1,1.9-4.2-.2-4.3s-2,1.6-.6,2c-.4-.4-.3-1.3.3-1.3,2.4-.1,1.1,4.4-1.5,2.7-4.3-3.1,2.6-8,4.4-2.8.3-2.9-6.2-5.3-6.9,1.8" transform="translate(-1.1 0)"/><path class="cls-1" d="M53.3,38c.8-1.2.2-3.2-1.1-3.2s-1.3,2-.3,1.8,1.7.5,1.4,1.4" transform="translate(-1.1 0)"/><path class="cls-1" d="M52.6,32.3a2.9,2.9,0,0,0-2.9-2.1,1.9,1.9,0,0,0-1.8,1c-1.4,2.1,1.2,4.1,2.8,1,.4-.6,1.2-.4,1.9.1" transform="translate(-1.1 0)"/><path class="cls-1" d="M53.5,34.5a1.7,1.7,0,0,0-1.4-2,.9.9,0,0,0-1.2.4c-.9,1.1.6,2.5,1.5.9s.8-.1,1.1.7" transform="translate(-1.1 0)"/><path class="cls-1" d="M44.4,32.4c.5-.9,1.1-1.2,1.7-1.1s.7.2.9.6-1,1.6-1.3.6a.8.8,0,0,0-1.3-.1" transform="translate(-1.1 0)"/><path class="cls-1" d="M31.8,49.9c-1.5-7.8,5.7-5.5,8.3-13.4a4.6,4.6,0,0,1-.2,3.3,1.4,1.4,0,0,0,.4-.4A28.8,28.8,0,0,0,41.8,33c.2-.3,1.7-.7,1.6.1-.5,2.6-.7,4-.8,4.9a30.2,30.2,0,0,0,1.2-4.5c.3-1.2,2.3-1.1,1.9.4s-.8,1.8-1.2,3a12,12,0,0,0,1.6-3.2,1.8,1.8,0,0,0,1.1-.1c.2-.1.1.3-.1.9a8.7,8.7,0,0,1-1.9,2.8,6.4,6.4,0,0,0,2.4-3.2,2.8,2.8,0,0,0,2.2.2c-.6,1.6-1.9,2.5-3.4,3.6l-1.2,1c2-1,3.9-2,5.1-4.8.2.3.4.8.8.9a2.3,2.3,0,0,0-.1,2c-1,1.4-4.2,2.1-5.6,2.4a8.6,8.6,0,0,0,6-2.2c.7-.7,2.1.4,1.4,1.4s-3.1,1.6-7.1,1.5c0,.1,9.2.5,10,.5s.1,2.2-1.3,2a24.8,24.8,0,0,1-5.1-.9c-.6-.1,2,.9,4.5,1.3-.1.8-1.8,1.4-3.2.8S46,41,44.8,41.6a4.4,4.4,0,0,1,2.2.8l3.5,2.2c-1.8,2.7-3.4-.7-6.3-2.1-.7-.3-1.3-.5-1-.3,7.9,3.9,1,9.3-1.2,4.7,2.7,1.2,3.7-.8,2.5-2.6.8,2.8-1.7,3-2.6,2,2.9-1.3.3-4-1.9-4.1s-2.6,1.9-1.4,2.7-.9-1.3.3-1.8a1.6,1.6,0,0,1,2.1.3c1.6,1.3-.1,5.2-2.7,3.9s-2.8-1.5-4.2-.8a5.4,5.4,0,0,1,4,1.3c.8.8,0,2.3-1.5,1.1s-4.7-2.8-3.9.1c.1.6,1.5,1,.2,1.6s-1-.2-1.1-.7" transform="translate(-1.1 0)"/><path class="cls-1" d="M66.1,20.7c-2.7,0-3.3-1.5-3.3-3.1V12h1.6v5.5a1.6,1.6,0,0,0,1.8,1.8c1.2,0,1.8-.5,1.8-2V12h1.6v5.2c0,2.4-1.3,3.5-3.5,3.5" transform="translate(-1.1 0)"/><path class="cls-1" d="M74.9,20.5v-4c0-.6-.1-1-.7-1s-1.5.9-1.5,2v3H71.1V14.3h1.5a4.9,4.9,0,0,1-.1,1.1h0a2.4,2.4,0,0,1,2.2-1.3,1.8,1.8,0,0,1,1.9,2v4.4Z" transform="translate(-1.1 0)"/><path class="cls-1" d="M78.9,13.4a.9.9,0,0,1-1-.9.9.9,0,0,1,1-1,1,1,0,0,1,1,1,1,1,0,0,1-1,.9m-.8.8h1.6v6.3H78.1Z" transform="translate(-1.1 0)"/><path class="cls-1" d="M84.3,20.5H82.6l-2.3-6.3h1.8l1,2.9c.1.4.3.9.4,1.4h0c.1-.5.3-.9.4-1.4l1-2.9h1.7Z" transform="translate(-1.1 0)"/><path class="cls-1" d="M92.1,17.6H88.3c-.1,1.2.5,1.8,1.7,1.8a5.3,5.3,0,0,0,1.8-.4l.2,1.2a5.9,5.9,0,0,1-2.3.4c-2,0-3.1-.9-3.1-3.2s1.1-3.3,3-3.3a2.5,2.5,0,0,1,2.6,2.8,1.7,1.7,0,0,1-.1.7m-2.6-2.3a1.2,1.2,0,0,0-1.2,1.2h2.3a1.1,1.1,0,0,0-1.1-1.2" transform="translate(-1.1 0)"/><path class="cls-1" d="M96.7,15.7c-1.2-.2-1.8.5-1.8,2.3v2.5H93.3V14.3h1.5a5.3,5.3,0,0,1-.1,1.2h0a1.9,1.9,0,0,1,2-1.4Z" transform="translate(-1.1 0)"/><path class="cls-1" d="M98.6,20.6H97.3V19.2l1.4.2c.6,0,1-.3,1-.7s-2.5-.4-2.5-2.6.9-2,2.6-2H101v1.3l-1.1-.2c-.7,0-1,.3-1,.7s2.6.5,2.6,2.6-1.1,2-2.8,2" transform="translate(-1.1 0)"/><path class="cls-1" d="M103.3,13.4a1,1,0,0,1-1-.9,1,1,0,0,1,1-1,.9.9,0,0,1,1,1,.9.9,0,0,1-1,.9m-.8.8h1.6v6.3h-1.6Z" transform="translate(-1.1 0)"/><path class="cls-1" d="M109.4,20.5a3.4,3.4,0,0,1,.1-1h0a2.2,2.2,0,0,1-2,1.2c-1.5,0-2.3-1.2-2.3-3s1.2-3.6,3.3-3.6h.8V11.3h1.6v9.2Zm-.1-5h-.8c-.9,0-1.6.6-1.6,2.1s.3,1.8,1.1,1.8,1.3-1,1.3-2Z" transform="translate(-1.1 0)"/><path class="cls-1" d="M115.8,20.5v-1h0a2,2,0,0,1-2,1.1A1.6,1.6,0,0,1,112,19c0-1.5,1.5-2.3,3.7-2.3v-.3c0-.7-.4-1-1.3-1a4.1,4.1,0,0,0-1.8.5l-.2-1.4a8.5,8.5,0,0,1,2.3-.4c2,0,2.6.8,2.6,2.2v4.2Zm-.1-2.8c-1.7,0-2.1.5-2.1,1a.7.7,0,0,0,.7.7,1.5,1.5,0,0,0,1.4-1.5Z" transform="translate(-1.1 0)"/><path class="cls-1" d="M122.6,20.5v-1h0a2.1,2.1,0,0,1-2,1.2c-1.5,0-2.2-1.2-2.2-3s1.2-3.6,3.3-3.6h.8V11.3h1.6v9.2Zm-.1-5h-.9c-.9,0-1.6.6-1.6,2.1s.4,1.8,1.1,1.8,1.4-1,1.4-2Z" transform="translate(-1.1 0)"/><path class="cls-1" d="M132.9,20.5a3.4,3.4,0,0,1,.1-1h0a2.3,2.3,0,0,1-2,1.2c-1.6,0-2.3-1.2-2.3-3s1.2-3.6,3.3-3.6h.8V11.3h1.6v9.2Zm-.1-5H132c-1,0-1.6.6-1.6,2.1s.3,1.8,1,1.8,1.4-1,1.4-2V15.5Z" transform="translate(-1.1 0)"/><path class="cls-1" d="M141.1,17.6h-3.9a1.6,1.6,0,0,0,1.8,1.8,5.3,5.3,0,0,0,1.8-.4v1.2a5.1,5.1,0,0,1-2.2.4c-2,0-3.1-.9-3.1-3.2s1.1-3.3,2.9-3.3a2.5,2.5,0,0,1,2.7,2.8,1.7,1.7,0,0,1-.1.7m-2.6-2.3a1.2,1.2,0,0,0-1.2,1.2h2.3a1.1,1.1,0,0,0-1.1-1.2" transform="translate(-1.1 0)"/><rect class="cls-1" x="141.2" y="11.3" width="1.6" height="9.21"/><path class="cls-1" d="M71.5,43.4l-5.1-7.6h-.1v7.6H62.8V25.1H68c4.1,0,6.7,1.4,6.7,5.1A5,5,0,0,1,70,35.2l1.5,2,4.4,6.2ZM67.7,27.9H66.3v5.3h1.3c2.1,0,3.4-1.1,3.4-2.8s-1.1-2.6-3.3-2.6" transform="translate(-1.1 0)"/><path class="cls-1" d="M82.4,43.7c-3.9,0-6.3-2-6.3-6.8s2.8-7.2,6.9-7.2,6.3,2.1,6.3,6.7-2.9,7.3-6.9,7.3m.3-11.1c-1.5,0-3,1.2-3,3.9s1,4.2,3,4.2,3-1.4,3-4.1-.9-4-3-4" transform="translate(-1.1 0)"/><path class="cls-1" d="M93.8,43.7a13.3,13.3,0,0,1-2.8-.3V40.6A12.7,12.7,0,0,0,94,41c1.3,0,2.2-.6,2.2-1.4,0-2.4-5.5-1.1-5.5-5.7,0-2.3,2-4.3,5.8-4.3l2.4.3v2.7a9.5,9.5,0,0,0-2.5-.3c-1.3,0-2,.5-2,1.3s5.6,1.3,5.6,5.6c0,2.7-2.4,4.5-6.1,4.5" transform="translate(-1.1 0)"/><path class="cls-1" d="M109.5,43.4a16.9,16.9,0,0,1,.1-2.3h0a4.7,4.7,0,0,1-4.3,2.6c-2.5,0-3.9-1.4-3.9-3.6s3.2-4.9,7.8-4.9v-.7c0-1.5-.7-2.2-2.6-2.2a8.3,8.3,0,0,0-4,1.1l-.3-2.9a14.6,14.6,0,0,1,4.8-.9c4.4,0,5.6,1.8,5.6,4.7v5.6c0,1.1,0,2.4.1,3.5Zm-.3-6c-3.6,0-4.5,1.1-4.5,2.2a1.4,1.4,0,0,0,1.6,1.4,3.1,3.1,0,0,0,2.9-3.2Z" transform="translate(-1.1 0)"/><path class="cls-1" d="M123.1,33c-2.5-.5-3.7,1.2-3.7,4.9v5.5h-3.5V29.9h3.3c0,.7-.1,1.8-.2,2.7h0c.7-1.7,2-3.2,4.3-3Z" transform="translate(-1.1 0)"/><path class="cls-1" d="M126.7,28.2a2.2,2.2,0,0,1-2.1-2.1,2.1,2.1,0,0,1,2.1-2.1,2.1,2.1,0,0,1,2.2,2.1,2.2,2.2,0,0,1-2.2,2.1M125,29.9h3.5V43.4H125Z" transform="translate(-1.1 0)"/><path class="cls-1" d="M137,43.7c-3.8,0-6.3-2-6.3-6.8s2.8-7.2,6.9-7.2,6.3,2.1,6.3,6.7-2.9,7.3-6.9,7.3m.3-11.1c-1.5,0-3,1.2-3,3.9s1,4.2,3,4.2,3-1.4,3-4.1-.9-4-3-4" transform="translate(-1.1 0)"/></svg>