<svg xmlns="http://www.w3.org/2000/svg" xmlns:xlink="http://www.w3.org/1999/xlink" width="1080" zoomAndPan="magnify" viewBox="0 0 810 809.999993" height="1080" preserveAspectRatio="xMidYMid meet" version="1.0"><defs><clipPath id="9552067e5b"><path d="M 185.003906 438 L 379 438 L 379 744.285156 L 185.003906 744.285156 Z M 185.003906 438 " clip-rule="nonzero"/></clipPath><clipPath id="66216c18b4"><path d="M 208 91.785156 L 602 91.785156 L 602 485 L 208 485 Z M 208 91.785156 " clip-rule="nonzero"/></clipPath><clipPath id="eb252c2565"><path d="M 431 438 L 625 438 L 625 744.285156 L 431 744.285156 Z M 431 438 " clip-rule="nonzero"/></clipPath></defs><path fill="#da2d27" d="M 810 405 C 810 411.628906 809.835938 418.253906 809.511719 424.871094 C 809.1875 431.492188 808.699219 438.101562 808.050781 444.695312 C 807.398438 451.292969 806.589844 457.871094 805.617188 464.425781 C 804.644531 470.980469 803.511719 477.511719 802.21875 484.011719 C 800.925781 490.511719 799.472656 496.976562 797.863281 503.40625 C 796.253906 509.835938 794.484375 516.222656 792.5625 522.566406 C 790.636719 528.90625 788.558594 535.199219 786.324219 541.441406 C 784.09375 547.679688 781.707031 553.863281 779.171875 559.988281 C 776.632812 566.109375 773.949219 572.167969 771.117188 578.160156 C 768.28125 584.152344 765.300781 590.070312 762.179688 595.914062 C 759.054688 601.761719 755.789062 607.527344 752.378906 613.210938 C 748.972656 618.898438 745.425781 624.496094 741.746094 630.007812 C 738.0625 635.515625 734.246094 640.933594 730.300781 646.257812 C 726.351562 651.582031 722.273438 656.804688 718.070312 661.929688 C 713.863281 667.054688 709.535156 672.070312 705.085938 676.980469 C 700.632812 681.890625 696.066406 686.691406 691.378906 691.378906 C 686.691406 696.066406 681.890625 700.632812 676.980469 705.085938 C 672.070312 709.535156 667.054688 713.863281 661.929688 718.070312 C 656.804688 722.273438 651.582031 726.351562 646.257812 730.300781 C 640.933594 734.246094 635.515625 738.0625 630.007812 741.746094 C 624.496094 745.425781 618.898438 748.972656 613.210938 752.378906 C 607.527344 755.789062 601.761719 759.054688 595.914062 762.179688 C 590.070312 765.300781 584.152344 768.28125 578.160156 771.117188 C 572.167969 773.949219 566.109375 776.632812 559.988281 779.171875 C 553.863281 781.707031 547.679688 784.09375 541.441406 786.324219 C 535.199219 788.558594 528.90625 790.636719 522.566406 792.5625 C 516.222656 794.484375 509.835938 796.253906 503.40625 797.863281 C 496.976562 799.472656 490.511719 800.925781 484.011719 802.21875 C 477.511719 803.511719 470.980469 804.644531 464.425781 805.617188 C 457.871094 806.589844 451.292969 807.398438 444.695312 808.050781 C 438.101562 808.699219 431.492188 809.1875 424.871094 809.511719 C 418.253906 809.835938 411.628906 810 405 810 C 398.371094 810 391.746094 809.835938 385.128906 809.511719 C 378.507812 809.1875 371.898438 808.699219 365.304688 808.050781 C 358.707031 807.398438 352.128906 806.589844 345.574219 805.617188 C 339.019531 804.644531 332.488281 803.511719 325.988281 802.21875 C 319.488281 800.925781 313.023438 799.472656 306.59375 797.863281 C 300.164062 796.253906 293.777344 794.484375 287.433594 792.5625 C 281.09375 790.636719 274.800781 788.558594 268.558594 786.324219 C 262.320312 784.09375 256.136719 781.707031 250.011719 779.171875 C 243.890625 776.632812 237.832031 773.949219 231.839844 771.117188 C 225.847656 768.28125 219.929688 765.300781 214.085938 762.179688 C 208.238281 759.054688 202.472656 755.789062 196.789062 752.378906 C 191.101562 748.972656 185.503906 745.425781 179.992188 741.746094 C 174.484375 738.0625 169.066406 734.246094 163.742188 730.300781 C 158.417969 726.351562 153.195312 722.273438 148.070312 718.070312 C 142.945312 713.863281 137.929688 709.535156 133.019531 705.085938 C 128.109375 700.632812 123.308594 696.066406 118.621094 691.378906 C 113.933594 686.691406 109.367188 681.890625 104.914062 676.980469 C 100.464844 672.070312 96.136719 667.054688 91.929688 661.929688 C 87.726562 656.804688 83.648438 651.582031 79.699219 646.257812 C 75.753906 640.933594 71.9375 635.515625 68.253906 630.007812 C 64.574219 624.496094 61.027344 618.898438 57.621094 613.210938 C 54.210938 607.527344 50.945312 601.761719 47.820312 595.914062 C 44.699219 590.070312 41.71875 584.152344 38.882812 578.160156 C 36.050781 572.167969 33.363281 566.109375 30.828125 559.988281 C 28.292969 553.863281 25.90625 547.679688 23.675781 541.441406 C 21.441406 535.199219 19.363281 528.90625 17.4375 522.566406 C 15.515625 516.222656 13.746094 509.835938 12.136719 503.40625 C 10.527344 496.976562 9.074219 490.511719 7.78125 484.011719 C 6.488281 477.511719 5.355469 470.980469 4.382812 464.425781 C 3.410156 457.871094 2.601562 451.292969 1.949219 444.695312 C 1.300781 438.101562 0.8125 431.492188 0.488281 424.871094 C 0.164062 418.253906 0 411.628906 0 405 C 0 398.371094 0.164062 391.746094 0.488281 385.128906 C 0.8125 378.507812 1.300781 371.898438 1.949219 365.304688 C 2.601562 358.707031 3.410156 352.128906 4.382812 345.574219 C 5.355469 339.019531 6.488281 332.488281 7.78125 325.988281 C 9.074219 319.488281 10.527344 313.023438 12.136719 306.59375 C 13.746094 300.164062 15.515625 293.777344 17.4375 287.433594 C 19.363281 281.09375 21.441406 274.800781 23.675781 268.558594 C 25.90625 262.320312 28.292969 256.136719 30.828125 250.011719 C 33.363281 243.890625 36.050781 237.832031 38.882812 231.839844 C 41.71875 225.847656 44.699219 219.929688 47.820312 214.085938 C 50.945312 208.238281 54.210938 202.472656 57.621094 196.789062 C 61.027344 191.101562 64.574219 185.503906 68.253906 179.992188 C 71.9375 174.484375 75.753906 169.066406 79.699219 163.742188 C 83.648438 158.417969 87.726562 153.195312 91.929688 148.070312 C 96.136719 142.945312 100.464844 137.929688 104.914062 133.019531 C 109.367188 128.109375 113.933594 123.308594 118.621094 118.621094 C 123.308594 113.933594 128.109375 109.367188 133.019531 104.914062 C 137.929688 100.464844 142.945312 96.136719 148.070312 91.929688 C 153.195312 87.726562 158.417969 83.648438 163.742188 79.699219 C 169.066406 75.753906 174.484375 71.9375 179.992188 68.253906 C 185.503906 64.574219 191.101562 61.027344 196.789062 57.621094 C 202.472656 54.210938 208.238281 50.945312 214.085938 47.820312 C 219.929688 44.699219 225.847656 41.71875 231.839844 38.882812 C 237.832031 36.050781 243.890625 33.367188 250.011719 30.828125 C 256.136719 28.292969 262.320312 25.90625 268.558594 23.675781 C 274.800781 21.441406 281.09375 19.363281 287.433594 17.4375 C 293.777344 15.515625 300.164062 13.746094 306.59375 12.136719 C 313.023438 10.527344 319.488281 9.074219 325.988281 7.78125 C 332.488281 6.488281 339.019531 5.355469 345.574219 4.382812 C 352.128906 3.410156 358.707031 2.601562 365.304688 1.949219 C 371.898438 1.300781 378.507812 0.8125 385.128906 0.488281 C 391.746094 0.164062 398.371094 0 405 0 C 411.628906 0 418.253906 0.164062 424.871094 0.488281 C 431.492188 0.8125 438.101562 1.300781 444.695312 1.949219 C 451.292969 2.601562 457.871094 3.410156 464.425781 4.382812 C 470.980469 5.355469 477.511719 6.488281 484.011719 7.78125 C 490.511719 9.074219 496.976562 10.527344 503.40625 12.136719 C 509.835938 13.746094 516.222656 15.515625 522.566406 17.4375 C 528.90625 19.363281 535.199219 21.441406 541.441406 23.675781 C 547.679688 25.90625 553.863281 28.292969 559.988281 30.828125 C 566.109375 33.367188 572.167969 36.050781 578.160156 38.882812 C 584.152344 41.71875 590.070312 44.699219 595.914062 47.820312 C 601.761719 50.945312 607.527344 54.210938 613.210938 57.621094 C 618.898438 61.027344 624.496094 64.574219 630.007812 68.253906 C 635.515625 71.9375 640.933594 75.753906 646.257812 79.699219 C 651.582031 83.648438 656.804688 87.726562 661.929688 91.929688 C 667.054688 96.136719 672.070312 100.464844 676.980469 104.914062 C 681.890625 109.367188 686.691406 113.933594 691.378906 118.621094 C 696.066406 123.308594 700.632812 128.109375 705.085938 133.019531 C 709.535156 137.929688 713.863281 142.945312 718.070312 148.070312 C 722.273438 153.195312 726.351562 158.417969 730.300781 163.742188 C 734.246094 169.066406 738.0625 174.484375 741.746094 179.992188 C 745.425781 185.503906 748.972656 191.101562 752.378906 196.789062 C 755.789062 202.472656 759.054688 208.238281 762.179688 214.085938 C 765.300781 219.929688 768.28125 225.847656 771.117188 231.839844 C 773.949219 237.832031 776.632812 243.890625 779.171875 250.011719 C 781.707031 256.136719 784.09375 262.320312 786.324219 268.558594 C 788.558594 274.800781 790.636719 281.09375 792.5625 287.433594 C 794.484375 293.777344 796.253906 300.164062 797.863281 306.59375 C 799.472656 313.023438 800.925781 319.488281 802.21875 325.988281 C 803.511719 332.488281 804.644531 339.019531 805.617188 345.574219 C 806.589844 352.128906 807.398438 358.707031 808.050781 365.304688 C 808.699219 371.898438 809.1875 378.507812 809.511719 385.128906 C 809.835938 391.746094 810 398.371094 810 405 Z M 810 405 " fill-opacity="1" fill-rule="nonzero"/><g clip-path="url(#9552067e5b)"><path fill="#ffffff" d="M 367.472656 466.800781 C 365.933594 466.800781 363.617188 467.164062 361.371094 468.886719 L 348.203125 478.996094 C 344.023438 482.195312 339.058594 483.886719 333.855469 483.886719 C 322.015625 483.886719 311.917969 475.046875 310.355469 463.316406 L 308.191406 446.859375 C 307.539062 441.875 303.257812 438.109375 298.246094 438.109375 C 297.378906 438.109375 296.492188 438.21875 295.609375 438.460938 L 284.964844 441.3125 L 185.089844 662.9375 L 267.527344 607.117188 L 312.089844 744.222656 L 378.890625 476.480469 L 376.210938 471.839844 C 374.398438 468.683594 371.128906 466.800781 367.472656 466.800781 " fill-opacity="1" fill-rule="nonzero"/></g><g clip-path="url(#66216c18b4)"><path fill="#ffffff" d="M 418.738281 440.546875 C 414.207031 440.949219 409.625 441.152344 404.996094 441.152344 C 400.363281 441.152344 395.785156 440.949219 391.253906 440.546875 C 357.34375 437.515625 326.625 423.417969 302.734375 401.875 C 271.714844 373.914062 252.214844 333.421875 252.214844 288.367188 C 252.214844 203.992188 320.617188 135.585938 404.996094 135.585938 C 489.375 135.585938 557.777344 203.992188 557.777344 288.367188 C 557.777344 333.421875 538.273438 373.914062 507.253906 401.875 C 483.367188 423.417969 452.644531 437.515625 418.738281 440.546875 Z M 456.59375 458.507812 L 469.75 468.605469 C 471.714844 470.113281 473.953125 470.800781 476.140625 470.800781 C 481.136719 470.800781 485.910156 467.207031 486.65625 461.609375 L 488.820312 445.152344 C 490.371094 433.367188 500.453125 425.019531 511.746094 425.019531 C 513.71875 425.019531 515.742188 425.273438 517.765625 425.816406 L 518.082031 425.898438 L 533.792969 430.105469 C 534.730469 430.355469 535.667969 430.476562 536.574219 430.476562 C 543.238281 430.476562 548.585938 424.074219 546.734375 417.167969 L 542.433594 401.148438 C 538.8125 387.628906 547.910156 374.015625 561.785156 372.195312 L 578.222656 370.027344 C 586.292969 368.960938 590.175781 359.578125 585.234375 353.125 L 575.136719 339.96875 C 566.617188 328.859375 569.8125 312.800781 581.917969 305.816406 L 596.285156 297.519531 C 603.335938 293.449219 603.335938 283.296875 596.285156 279.226562 L 581.917969 270.929688 C 569.8125 263.945312 566.617188 247.882812 575.136719 236.777344 L 585.234375 223.621094 C 590.175781 217.167969 586.292969 207.785156 578.222656 206.71875 L 561.785156 204.550781 C 547.910156 202.730469 538.8125 189.121094 542.433594 175.597656 L 546.734375 159.578125 C 548.585938 152.660156 543.238281 146.269531 536.574219 146.269531 C 535.667969 146.269531 534.730469 146.386719 533.792969 146.640625 L 517.765625 150.929688 C 515.742188 151.472656 513.726562 151.726562 511.746094 151.726562 C 500.453125 151.726562 490.371094 143.378906 488.820312 131.59375 L 486.65625 115.136719 C 485.910156 109.53125 481.152344 105.945312 476.148438 105.945312 C 473.953125 105.945312 471.714844 106.632812 469.75 108.140625 L 456.59375 118.238281 C 452.351562 121.484375 447.410156 123.03125 442.519531 123.03125 C 434.5625 123.03125 426.761719 118.945312 422.445312 111.441406 L 414.144531 97.078125 C 412.113281 93.554688 408.550781 91.800781 404.996094 91.800781 C 401.441406 91.800781 397.875 93.554688 395.84375 97.078125 L 387.546875 111.441406 C 383.230469 118.945312 375.425781 123.03125 367.472656 123.03125 C 362.578125 123.03125 357.636719 121.484375 353.398438 118.238281 L 340.238281 108.140625 C 338.273438 106.632812 336.039062 105.945312 333.84375 105.945312 C 328.839844 105.945312 324.078125 109.53125 323.335938 115.136719 L 321.167969 131.59375 C 319.617188 143.378906 309.539062 151.726562 298.246094 151.726562 C 296.261719 151.726562 294.25 151.472656 292.226562 150.929688 L 276.195312 146.640625 C 275.261719 146.386719 274.324219 146.269531 273.417969 146.269531 C 266.753906 146.269531 261.40625 152.660156 263.257812 159.578125 L 267.558594 175.597656 C 271.183594 189.121094 262.078125 202.730469 248.207031 204.550781 L 231.765625 206.71875 C 223.703125 207.785156 219.816406 217.167969 224.757812 223.621094 L 234.859375 236.777344 C 243.375 247.882812 240.183594 263.945312 228.070312 270.929688 L 213.707031 279.226562 C 206.65625 283.296875 206.65625 293.449219 213.707031 297.519531 L 228.070312 305.816406 C 240.183594 312.800781 243.375 328.859375 234.859375 339.96875 L 224.757812 353.125 C 219.816406 359.578125 223.703125 368.960938 231.765625 370.027344 L 248.207031 372.195312 C 262.078125 374.015625 271.183594 387.628906 267.558594 401.148438 L 263.257812 417.167969 C 261.40625 424.074219 266.753906 430.476562 273.417969 430.476562 C 274.324219 430.476562 275.261719 430.355469 276.195312 430.105469 L 291.910156 425.898438 L 292.226562 425.816406 C 294.25 425.273438 296.269531 425.019531 298.246094 425.019531 C 309.539062 425.019531 319.617188 433.367188 321.167969 445.152344 L 323.335938 461.609375 C 324.078125 467.207031 328.851562 470.800781 333.855469 470.800781 C 336.039062 470.800781 338.273438 470.113281 340.238281 468.605469 L 353.398438 458.507812 C 357.636719 455.261719 362.578125 453.714844 367.472656 453.714844 C 373.695312 453.714844 379.816406 456.210938 384.253906 460.882812 C 385.492188 462.179688 386.601562 463.664062 387.546875 465.289062 L 395.84375 479.660156 C 397.875 483.183594 401.441406 484.945312 404.996094 484.945312 C 408.550781 484.945312 412.113281 483.183594 414.144531 479.660156 L 422.445312 465.289062 C 423.390625 463.664062 424.496094 462.179688 425.734375 460.882812 C 430.171875 456.210938 436.296875 453.714844 442.519531 453.714844 C 447.410156 453.714844 452.351562 455.261719 456.59375 458.507812 " fill-opacity="1" fill-rule="nonzero"/></g><path fill="#ffffff" d="M 404.996094 414.449219 C 335.476562 414.449219 278.914062 357.886719 278.914062 288.367188 C 278.914062 218.847656 335.476562 162.289062 404.996094 162.289062 C 474.515625 162.289062 531.078125 218.847656 531.078125 288.367188 C 531.078125 357.886719 474.515625 414.449219 404.996094 414.449219 Z M 404.996094 149.195312 C 328.257812 149.195312 265.824219 211.628906 265.824219 288.367188 C 265.824219 365.101562 328.257812 427.535156 404.996094 427.535156 C 481.730469 427.535156 544.164062 365.101562 544.164062 288.367188 C 544.164062 211.628906 481.730469 149.195312 404.996094 149.195312 " fill-opacity="1" fill-rule="nonzero"/><path fill="#ffffff" d="M 452.25 303.734375 C 451.230469 304.710938 450.804688 306.15625 451.015625 307.519531 L 459.945312 359.554688 C 460.539062 363.082031 456.886719 365.761719 453.691406 364.101562 L 406.972656 339.53125 C 405.742188 338.847656 404.253906 338.847656 402.976562 339.53125 L 356.257812 364.101562 C 353.109375 365.761719 349.453125 363.082031 350.050781 359.554688 L 358.976562 307.519531 C 359.191406 306.15625 358.722656 304.710938 357.746094 303.734375 L 319.949219 266.875 C 317.398438 264.410156 318.800781 260.074219 322.332031 259.5625 L 374.535156 252 C 375.941406 251.78125 377.171875 250.890625 377.769531 249.613281 L 401.148438 202.300781 C 402.722656 199.109375 407.269531 199.109375 408.84375 202.300781 L 432.226562 249.613281 C 432.824219 250.890625 434.054688 251.78125 435.457031 252 L 487.664062 259.5625 C 491.191406 260.074219 492.597656 264.410156 490.046875 266.875 L 452.25 303.734375 " fill-opacity="1" fill-rule="nonzero"/><g clip-path="url(#eb252c2565)"><path fill="#ffffff" d="M 525.023438 441.3125 L 514.382812 438.460938 C 513.496094 438.21875 512.613281 438.109375 511.746094 438.109375 C 506.730469 438.109375 502.453125 441.875 501.796875 446.859375 L 499.636719 463.316406 C 498.070312 475.046875 487.976562 483.886719 476.140625 483.886719 C 470.929688 483.886719 465.96875 482.195312 461.789062 478.996094 L 448.617188 468.886719 C 446.375 467.164062 444.058594 466.800781 442.519531 466.800781 C 438.863281 466.800781 435.59375 468.683594 433.78125 471.839844 L 431.105469 476.480469 L 497.898438 744.222656 L 542.464844 607.117188 L 624.898438 662.9375 L 525.023438 441.3125 " fill-opacity="1" fill-rule="nonzero"/></g></svg>