<svg xmlns="http://www.w3.org/2000/svg" xmlns:xlink="http://www.w3.org/1999/xlink" width="200"  viewBox="0 0 1440 809.999993" height="200" preserveAspectRatio="xMidYMid meet" version="1.0"><defs><clipPath id="45b5b6f55c"><path d="M 632.003906 418 L 710 418 L 710 540.714844 L 632.003906 540.714844 Z M 632.003906 418 " clip-rule="nonzero"/></clipPath><clipPath id="31a283ef88"><path d="M 641 279.714844 L 799 279.714844 L 799 437 L 641 437 Z M 641 279.714844 " clip-rule="nonzero"/></clipPath><clipPath id="0a36e571c2"><path d="M 730 418 L 808 418 L 808 540.714844 L 730 540.714844 Z M 730 418 " clip-rule="nonzero"/></clipPath></defs><path fill="#da2d27" d="M 882 405 C 882 407.652344 881.933594 410.300781 881.804688 412.949219 C 881.675781 415.597656 881.480469 418.242188 881.21875 420.878906 C 880.960938 423.515625 880.636719 426.148438 880.246094 428.769531 C 879.859375 431.394531 879.40625 434.003906 878.886719 436.605469 C 878.371094 439.203125 877.789062 441.789062 877.144531 444.363281 C 876.5 446.933594 875.792969 449.488281 875.023438 452.027344 C 874.253906 454.5625 873.421875 457.078125 872.53125 459.574219 C 871.636719 462.074219 870.683594 464.546875 869.667969 466.996094 C 868.652344 469.445312 867.578125 471.867188 866.445312 474.265625 C 865.3125 476.660156 864.121094 479.027344 862.871094 481.367188 C 861.621094 483.703125 860.316406 486.011719 858.953125 488.285156 C 857.589844 490.558594 856.171875 492.796875 854.699219 495.003906 C 853.226562 497.207031 851.699219 499.375 850.121094 501.503906 C 848.539062 503.632812 846.910156 505.722656 845.226562 507.773438 C 843.546875 509.820312 841.816406 511.828125 840.035156 513.792969 C 838.253906 515.757812 836.425781 517.675781 834.550781 519.550781 C 832.675781 521.425781 830.757812 523.253906 828.792969 525.035156 C 826.828125 526.816406 824.820312 528.546875 822.773438 530.226562 C 820.722656 531.910156 818.632812 533.539062 816.503906 535.121094 C 814.375 536.699219 812.207031 538.226562 810.003906 539.699219 C 807.796875 541.171875 805.558594 542.589844 803.285156 543.953125 C 801.011719 545.316406 798.703125 546.621094 796.367188 547.871094 C 794.027344 549.121094 791.660156 550.3125 789.265625 551.445312 C 786.867188 552.578125 784.445312 553.652344 781.996094 554.667969 C 779.546875 555.683594 777.074219 556.636719 774.574219 557.53125 C 772.078125 558.421875 769.5625 559.253906 767.027344 560.023438 C 764.488281 560.792969 761.933594 561.5 759.363281 562.144531 C 756.789062 562.789062 754.203125 563.371094 751.605469 563.886719 C 749.003906 564.40625 746.394531 564.859375 743.769531 565.246094 C 741.148438 565.636719 738.515625 565.960938 735.878906 566.21875 C 733.238281 566.480469 730.597656 566.675781 727.949219 566.804688 C 725.300781 566.933594 722.652344 567 720 567 C 717.347656 567 714.699219 566.933594 712.050781 566.804688 C 709.402344 566.675781 706.757812 566.480469 704.121094 566.21875 C 701.484375 565.960938 698.851562 565.636719 696.230469 565.246094 C 693.605469 564.859375 690.996094 564.40625 688.394531 563.886719 C 685.796875 563.371094 683.207031 562.789062 680.636719 562.144531 C 678.066406 561.5 675.511719 560.792969 672.972656 560.023438 C 670.4375 559.253906 667.921875 558.421875 665.421875 557.53125 C 662.925781 556.636719 660.453125 555.683594 658.003906 554.667969 C 655.554688 553.652344 653.132812 552.578125 650.734375 551.445312 C 648.339844 550.3125 645.972656 549.121094 643.632812 547.871094 C 641.296875 546.621094 638.988281 545.316406 636.714844 543.953125 C 634.441406 542.589844 632.203125 541.171875 629.996094 539.699219 C 627.792969 538.226562 625.625 536.699219 623.496094 535.121094 C 621.367188 533.539062 619.277344 531.910156 617.226562 530.226562 C 615.179688 528.546875 613.171875 526.816406 611.207031 525.035156 C 609.242188 523.253906 607.324219 521.425781 605.449219 519.550781 C 603.574219 517.675781 601.746094 515.757812 599.964844 513.792969 C 598.183594 511.828125 596.453125 509.820312 594.773438 507.773438 C 593.089844 505.722656 591.460938 503.632812 589.878906 501.503906 C 588.300781 499.375 586.773438 497.207031 585.300781 495.003906 C 583.828125 492.796875 582.410156 490.558594 581.046875 488.285156 C 579.683594 486.011719 578.378906 483.703125 577.128906 481.367188 C 575.878906 479.027344 574.6875 476.660156 573.554688 474.265625 C 572.421875 471.867188 571.347656 469.445312 570.332031 466.996094 C 569.316406 464.546875 568.363281 462.074219 567.46875 459.574219 C 566.578125 457.078125 565.746094 454.5625 564.976562 452.027344 C 564.207031 449.488281 563.5 446.933594 562.855469 444.363281 C 562.210938 441.789062 561.628906 439.203125 561.113281 436.605469 C 560.59375 434.003906 560.140625 431.394531 559.753906 428.769531 C 559.363281 426.148438 559.039062 423.515625 558.78125 420.878906 C 558.519531 418.242188 558.324219 415.597656 558.195312 412.949219 C 558.066406 410.300781 558 407.652344 558 405 C 558 402.347656 558.066406 399.699219 558.195312 397.050781 C 558.324219 394.402344 558.519531 391.757812 558.78125 389.121094 C 559.039062 386.484375 559.363281 383.851562 559.753906 381.230469 C 560.140625 378.605469 560.59375 375.996094 561.113281 373.394531 C 561.628906 370.796875 562.210938 368.210938 562.855469 365.636719 C 563.5 363.066406 564.207031 360.511719 564.976562 357.972656 C 565.746094 355.4375 566.578125 352.921875 567.46875 350.425781 C 568.363281 347.925781 569.316406 345.453125 570.332031 343.003906 C 571.347656 340.554688 572.421875 338.132812 573.554688 335.734375 C 574.6875 333.339844 575.878906 330.972656 577.128906 328.632812 C 578.378906 326.296875 579.683594 323.988281 581.046875 321.714844 C 582.410156 319.441406 583.828125 317.203125 585.300781 314.996094 C 586.773438 312.792969 588.300781 310.625 589.878906 308.496094 C 591.460938 306.367188 593.089844 304.277344 594.773438 302.226562 C 596.453125 300.179688 598.183594 298.171875 599.964844 296.207031 C 601.746094 294.242188 603.574219 292.324219 605.449219 290.449219 C 607.324219 288.574219 609.242188 286.746094 611.207031 284.964844 C 613.171875 283.183594 615.179688 281.453125 617.226562 279.773438 C 619.277344 278.089844 621.367188 276.460938 623.496094 274.878906 C 625.625 273.300781 627.792969 271.773438 629.996094 270.300781 C 632.203125 268.828125 634.441406 267.410156 636.714844 266.046875 C 638.988281 264.683594 641.296875 263.378906 643.632812 262.128906 C 645.972656 260.878906 648.339844 259.6875 650.734375 258.554688 C 653.132812 257.421875 655.554688 256.347656 658.003906 255.332031 C 660.453125 254.316406 662.925781 253.363281 665.421875 252.46875 C 667.921875 251.578125 670.4375 250.746094 672.972656 249.976562 C 675.511719 249.207031 678.066406 248.5 680.636719 247.855469 C 683.207031 247.210938 685.796875 246.628906 688.394531 246.113281 C 690.996094 245.59375 693.605469 245.140625 696.230469 244.753906 C 698.851562 244.363281 701.484375 244.039062 704.121094 243.78125 C 706.757812 243.519531 709.402344 243.324219 712.050781 243.195312 C 714.699219 243.066406 717.347656 243 720 243 C 722.652344 243 725.300781 243.066406 727.949219 243.195312 C 730.597656 243.324219 733.238281 243.519531 735.878906 243.78125 C 738.515625 244.039062 741.148438 244.363281 743.769531 244.753906 C 746.394531 245.140625 749.003906 245.59375 751.605469 246.113281 C 754.203125 246.628906 756.789062 247.210938 759.363281 247.855469 C 761.933594 248.5 764.488281 249.207031 767.027344 249.976562 C 769.5625 250.746094 772.078125 251.578125 774.574219 252.46875 C 777.074219 253.363281 779.546875 254.316406 781.996094 255.332031 C 784.445312 256.347656 786.867188 257.421875 789.265625 258.554688 C 791.660156 259.6875 794.027344 260.878906 796.367188 262.128906 C 798.703125 263.378906 801.011719 264.683594 803.285156 266.046875 C 805.558594 267.410156 807.796875 268.828125 810.003906 270.300781 C 812.207031 271.773438 814.375 273.300781 816.503906 274.878906 C 818.632812 276.460938 820.722656 278.089844 822.773438 279.773438 C 824.820312 281.453125 826.828125 283.183594 828.792969 284.964844 C 830.757812 286.746094 832.675781 288.574219 834.550781 290.449219 C 836.425781 292.324219 838.253906 294.242188 840.035156 296.207031 C 841.816406 298.171875 843.546875 300.179688 845.226562 302.226562 C 846.910156 304.277344 848.539062 306.367188 850.121094 308.496094 C 851.699219 310.625 853.226562 312.792969 854.699219 314.996094 C 856.171875 317.203125 857.589844 319.441406 858.953125 321.714844 C 860.316406 323.988281 861.621094 326.296875 862.871094 328.632812 C 864.121094 330.972656 865.3125 333.339844 866.445312 335.734375 C 867.578125 338.132812 868.652344 340.554688 869.667969 343.003906 C 870.683594 345.453125 871.636719 347.925781 872.53125 350.421875 C 873.421875 352.921875 874.253906 355.4375 875.023438 357.972656 C 875.792969 360.511719 876.5 363.066406 877.144531 365.636719 C 877.789062 368.210938 878.371094 370.796875 878.886719 373.394531 C 879.40625 375.996094 879.859375 378.605469 880.246094 381.230469 C 880.636719 383.851562 880.960938 386.484375 881.21875 389.121094 C 881.480469 391.757812 881.675781 394.402344 881.804688 397.050781 C 881.933594 399.699219 882 402.347656 882 405 Z M 882 405 " fill-opacity="1" fill-rule="nonzero"/><g clip-path="url(#45b5b6f55c)"><path fill="#ffffff" d="M 704.988281 429.71875 C 704.371094 429.71875 703.445312 429.867188 702.546875 430.554688 L 697.28125 434.597656 C 695.609375 435.878906 693.625 436.554688 691.542969 436.554688 C 686.804688 436.554688 682.765625 433.019531 682.144531 428.328125 L 681.277344 421.742188 C 681.015625 419.75 679.304688 418.246094 677.296875 418.246094 C 676.953125 418.246094 676.597656 418.289062 676.242188 418.382812 L 671.984375 419.523438 L 632.035156 508.175781 L 665.011719 485.847656 L 682.835938 540.691406 L 709.554688 433.59375 L 708.484375 431.734375 C 707.757812 430.472656 706.449219 429.71875 704.988281 429.71875 " fill-opacity="1" fill-rule="nonzero"/></g><g clip-path="url(#31a283ef88)"><path fill="#ffffff" d="M 725.496094 419.21875 C 723.683594 419.378906 721.851562 419.460938 720 419.460938 C 718.144531 419.460938 716.3125 419.378906 714.5 419.21875 C 700.9375 418.007812 688.652344 412.367188 679.09375 403.75 C 666.6875 392.566406 658.886719 376.367188 658.886719 358.347656 C 658.886719 324.597656 686.246094 297.234375 720 297.234375 C 753.75 297.234375 781.109375 324.597656 781.109375 358.347656 C 781.109375 376.367188 773.308594 392.566406 760.902344 403.75 C 751.347656 412.367188 739.058594 418.007812 725.496094 419.21875 Z M 740.636719 426.402344 L 745.898438 430.441406 C 746.6875 431.046875 747.582031 431.320312 748.457031 431.320312 C 750.457031 431.320312 752.363281 429.882812 752.664062 427.644531 L 753.527344 421.0625 C 754.148438 416.347656 758.179688 413.007812 762.699219 413.007812 C 763.488281 413.007812 764.296875 413.109375 765.105469 413.328125 L 765.234375 413.359375 L 771.515625 415.042969 C 771.894531 415.140625 772.265625 415.191406 772.628906 415.191406 C 775.296875 415.191406 777.433594 412.628906 776.691406 409.867188 L 774.972656 403.460938 C 773.523438 398.050781 777.164062 392.605469 782.714844 391.878906 L 789.289062 391.011719 C 792.515625 390.585938 794.070312 386.832031 792.09375 384.25 L 788.054688 378.988281 C 784.648438 374.542969 785.925781 368.121094 790.769531 365.328125 L 796.515625 362.007812 C 799.332031 360.378906 799.332031 356.316406 796.515625 354.691406 L 790.769531 351.371094 C 785.925781 348.578125 784.648438 342.152344 788.054688 337.710938 L 792.09375 332.449219 C 794.070312 329.867188 792.515625 326.113281 789.289062 325.6875 L 782.714844 324.820312 C 777.164062 324.09375 773.523438 318.648438 774.972656 313.238281 L 776.691406 306.832031 C 777.433594 304.066406 775.296875 301.507812 772.628906 301.507812 C 772.265625 301.507812 771.894531 301.554688 771.515625 301.65625 L 765.105469 303.371094 C 764.296875 303.589844 763.492188 303.691406 762.699219 303.691406 C 758.179688 303.691406 754.148438 300.351562 753.527344 295.636719 L 752.664062 289.054688 C 752.363281 286.8125 750.460938 285.378906 748.460938 285.378906 C 747.582031 285.378906 746.6875 285.652344 745.898438 286.257812 L 740.636719 290.296875 C 738.941406 291.59375 736.964844 292.214844 735.007812 292.214844 C 731.824219 292.214844 728.703125 290.578125 726.976562 287.578125 L 723.65625 281.832031 C 722.84375 280.421875 721.421875 279.722656 720 279.722656 C 718.578125 279.722656 717.152344 280.421875 716.335938 281.832031 L 713.019531 287.578125 C 711.292969 290.578125 708.171875 292.214844 704.988281 292.214844 C 703.03125 292.214844 701.054688 291.59375 699.359375 290.296875 L 694.09375 286.257812 C 693.308594 285.652344 692.414062 285.378906 691.539062 285.378906 C 689.535156 285.378906 687.632812 286.8125 687.332031 289.054688 L 686.46875 295.636719 C 685.847656 300.351562 681.816406 303.691406 677.296875 303.691406 C 676.503906 303.691406 675.699219 303.589844 674.890625 303.371094 L 668.476562 301.65625 C 668.105469 301.554688 667.730469 301.507812 667.367188 301.507812 C 664.703125 301.507812 662.5625 304.066406 663.304688 306.832031 L 665.023438 313.238281 C 666.472656 318.648438 662.832031 324.09375 657.28125 324.820312 L 650.707031 325.6875 C 647.480469 326.113281 645.925781 329.867188 647.902344 332.449219 L 651.941406 337.710938 C 655.351562 342.152344 654.074219 348.578125 649.230469 351.371094 L 643.480469 354.691406 C 640.664062 356.316406 640.664062 360.378906 643.480469 362.007812 L 649.230469 365.328125 C 654.074219 368.121094 655.351562 374.542969 651.941406 378.988281 L 647.902344 384.25 C 645.925781 386.832031 647.480469 390.585938 650.707031 391.011719 L 657.28125 391.878906 C 662.832031 392.605469 666.472656 398.050781 665.023438 403.460938 L 663.304688 409.867188 C 662.5625 412.628906 664.703125 415.191406 667.367188 415.191406 C 667.730469 415.191406 668.105469 415.140625 668.476562 415.042969 L 674.765625 413.359375 L 674.890625 413.328125 C 675.699219 413.109375 676.507812 413.007812 677.296875 413.007812 C 681.816406 413.007812 685.847656 416.347656 686.46875 421.0625 L 687.332031 427.644531 C 687.632812 429.882812 689.539062 431.320312 691.542969 431.320312 C 692.414062 431.320312 693.308594 431.046875 694.09375 430.441406 L 699.359375 426.402344 C 701.054688 425.105469 703.03125 424.484375 704.988281 424.484375 C 707.476562 424.484375 709.925781 425.484375 711.703125 427.351562 C 712.199219 427.871094 712.640625 428.464844 713.019531 429.117188 L 716.335938 434.863281 C 717.152344 436.273438 718.578125 436.976562 720 436.976562 C 721.421875 436.976562 722.84375 436.273438 723.65625 434.863281 L 726.976562 429.117188 C 727.355469 428.464844 727.800781 427.871094 728.292969 427.351562 C 730.070312 425.484375 732.519531 424.484375 735.007812 424.484375 C 736.964844 424.484375 738.941406 425.105469 740.636719 426.402344 " fill-opacity="1" fill-rule="nonzero"/></g><path fill="#ffffff" d="M 720 408.78125 C 692.191406 408.78125 669.566406 386.152344 669.566406 358.347656 C 669.566406 330.539062 692.191406 307.914062 720 307.914062 C 747.804688 307.914062 770.429688 330.539062 770.429688 358.347656 C 770.429688 386.152344 747.804688 408.78125 720 408.78125 Z M 720 302.679688 C 689.304688 302.679688 664.332031 327.652344 664.332031 358.347656 C 664.332031 389.042969 689.304688 414.015625 720 414.015625 C 750.691406 414.015625 775.667969 389.042969 775.667969 358.347656 C 775.667969 327.652344 750.691406 302.679688 720 302.679688 " fill-opacity="1" fill-rule="nonzero"/><path fill="#ffffff" d="M 738.898438 364.492188 C 738.492188 364.882812 738.320312 365.460938 738.40625 366.007812 L 741.976562 386.824219 C 742.214844 388.234375 740.753906 389.304688 739.476562 388.640625 L 720.789062 378.8125 C 720.296875 378.539062 719.703125 378.539062 719.191406 378.8125 L 700.503906 388.640625 C 699.246094 389.304688 697.78125 388.234375 698.019531 386.824219 L 701.589844 366.007812 C 701.675781 365.460938 701.488281 364.882812 701.097656 364.492188 L 685.980469 349.75 C 684.960938 348.765625 685.519531 347.027344 686.933594 346.824219 L 707.816406 343.800781 C 708.375 343.710938 708.867188 343.355469 709.105469 342.847656 L 718.460938 323.921875 C 719.089844 322.644531 720.910156 322.644531 721.535156 323.921875 L 730.890625 342.847656 C 731.128906 343.355469 731.621094 343.710938 732.183594 343.800781 L 753.066406 346.824219 C 754.476562 347.027344 755.039062 348.765625 754.019531 349.75 L 738.898438 364.492188 " fill-opacity="1" fill-rule="nonzero"/><g clip-path="url(#0a36e571c2)"><path fill="#ffffff" d="M 768.011719 419.523438 L 763.753906 418.382812 C 763.398438 418.289062 763.046875 418.246094 762.699219 418.246094 C 760.691406 418.246094 758.980469 419.75 758.71875 421.742188 L 757.855469 428.328125 C 757.230469 433.019531 753.191406 436.554688 748.457031 436.554688 C 746.371094 436.554688 744.386719 435.878906 742.714844 434.597656 L 737.445312 430.554688 C 736.550781 429.867188 735.621094 429.71875 735.007812 429.71875 C 733.546875 429.71875 732.238281 430.472656 731.511719 431.734375 L 730.441406 433.59375 L 757.160156 540.691406 L 774.984375 485.847656 L 807.960938 508.175781 L 768.011719 419.523438 " fill-opacity="1" fill-rule="nonzero"/></g></svg>