<svg width="85" height="56" viewBox="0 0 85 56" fill="none" xmlns="http://www.w3.org/2000/svg">
<g clip-path="url(#clip0_149_1861)">
<path d="M12.5493 21.2908C5.21191 16.6861 5.5382 8.17326 9.69418 3.67606C14.1163 -1.1092 21.6083 -1.22958 26.1463 3.3665C30.4483 7.72612 31.1481 16.5442 23.4544 21.3768C27.5675 22.7612 30.8089 25.2119 33.1746 28.7632C34.4368 28.2387 35.639 27.7442 36.854 27.2369C30.9764 22.83 29.0272 18.0232 30.8519 12.477C32.522 7.39936 37.2189 3.96842 42.5041 3.96412C47.7935 3.96412 52.4733 7.37357 54.1605 12.4641C55.9981 18.0103 54.036 22.8687 48.1713 27.2369C49.3863 27.7399 50.5885 28.2387 51.8464 28.7632C54.2164 25.2162 57.4536 22.7612 61.5666 21.3811C53.7054 16.411 54.723 7.53694 58.8704 3.3708C63.4514 -1.22528 70.9175 -1.1178 75.3225 3.67176C79.5086 8.22055 79.7705 16.7033 72.3816 21.3424C72.7508 21.4929 73.0642 21.6305 73.3862 21.7551C80.0967 24.3305 84.6949 30.7495 84.9869 37.7361C85.0899 40.2341 84.1239 42.1 82.2306 43.5704C79.4442 45.733 76.1812 46.7176 72.7723 47.298C69.5523 47.8483 66.3065 47.9429 63.065 47.5388C62.2664 47.4399 61.9144 47.6506 61.5666 48.4159C60.4031 50.9783 58.1491 52.3799 55.7062 53.4806C51.357 55.4368 46.7416 56.0473 42.0275 56C37.6397 55.9571 33.3463 55.3035 29.3106 53.4763C26.7002 52.2939 24.3646 50.7719 23.171 47.9515C23.0637 47.6936 22.3553 47.5388 21.9517 47.5775C17.9761 47.973 14.0047 47.9171 10.1579 46.8294C7.91673 46.1974 5.70565 45.2902 3.67059 44.1637C0.660944 42.4956 -0.425277 39.774 0.14574 36.3474C1.32642 29.2189 5.22479 24.3133 11.931 21.6391C12.1285 21.5617 12.3217 21.4757 12.5106 21.3897C12.5321 21.3811 12.5364 21.3252 12.5493 21.2908ZM43.1352 53.975C43.9338 53.9191 45.3248 53.8718 46.7073 53.7171C50.2064 53.3215 53.5852 52.496 56.6593 50.6774C59.2954 49.121 60.4374 47.0272 59.9609 43.8112C58.6772 35.165 51.5716 28.7331 42.7574 28.5396C34.2222 28.3505 26.6143 34.6706 25.1975 43.1233C24.4934 47.3281 25.3693 49.1038 29.1646 51.1245C29.5081 51.3094 29.8687 51.4728 30.225 51.6318C34.1492 53.3731 38.3009 53.9191 43.1395 53.9793L43.1352 53.975ZM53.6625 29.851C53.7355 29.9541 53.7484 29.9885 53.7741 30.01C54.0833 30.2551 54.3967 30.4873 54.7015 30.7366C58.9691 34.2235 61.4764 38.6949 61.9874 44.1981C62.0861 45.2472 62.4983 45.4837 63.3913 45.5653C66.7186 45.8706 70.0245 45.776 73.3004 45.1268C75.8334 44.6281 78.2764 43.8499 80.4316 42.3623C82.2348 41.1197 83.2137 39.5591 82.9175 37.203C81.93 29.3823 76.6234 23.8619 68.8396 22.7182C63.1423 21.8841 56.5219 24.984 53.6625 29.851ZM31.4186 29.8982C27.9066 24.2832 20.9728 21.5273 14.3739 23.045C8.00689 24.5068 3.05235 30.1648 2.15933 36.4807C1.71282 39.6536 3.00083 41.5282 5.52532 42.9513C5.77434 43.0932 6.02336 43.2308 6.28096 43.3468C11.3686 45.6814 16.7181 46.0555 22.1965 45.4794C22.8619 45.4106 22.8877 45.0236 23.0122 44.4862C23.4973 42.3408 23.8752 40.1352 24.6651 38.1015C25.9875 34.6921 28.409 32.0652 31.4143 29.8939L31.4186 29.8982ZM42.5126 6.03645C36.8798 6.03645 32.2816 10.6325 32.2902 16.2519C32.2987 21.8669 36.9141 26.4759 42.5212 26.4759C48.1284 26.4759 52.748 21.8454 52.7437 16.239C52.7394 10.611 48.1498 6.03645 42.5126 6.03645ZM8.81833 11.3333C8.84409 16.4797 12.9743 20.5771 18.1049 20.5513C23.2312 20.5255 27.327 16.3852 27.3099 11.243C27.2927 6.12673 23.141 2.00359 18.0147 2.02078C12.9013 2.03798 8.78828 6.19982 8.81833 11.3333ZM76.2156 11.3419C76.2499 6.21272 72.1369 2.03798 67.0278 2.02078C61.9058 1.99929 57.7412 6.12243 57.724 11.2302C57.7026 16.3723 61.7899 20.5126 66.9161 20.547C72.0467 20.5814 76.1812 16.484 76.2156 11.3419Z" fill="white"/>
</g>
<defs>
<clipPath id="clip0_149_1861">
<rect width="85" height="56" fill="white"/>
</clipPath>
</defs>
</svg>
