<svg xmlns="http://www.w3.org/2000/svg" width="1920" zoomAndPan="magnify" viewBox="0 0 1440 810" height="1080" preserveAspectRatio="xMidYMid meet" xmlns:v="https://vecta.io/nano"><defs><clipPath id="A"><path d="M603.836 288.836h231v231h-231zm0 0" clip-rule="nonzero"/></clipPath></defs><path fill="#da2c27" d="M882 405l-.195 7.949-.586 7.93-.973 7.891-1.359 7.836-1.742 7.758-2.121 7.664-2.492 7.547-2.863 7.422-3.223 7.27-3.574 7.102-3.918 6.918-4.254 6.719-4.578 6.5-4.895 6.27-5.191 6.02-5.484 5.758-5.758 5.484-6.02 5.191-6.27 4.895-6.5 4.578-6.719 4.254-6.918 3.918-7.102 3.574-7.27 3.223-7.422 2.863-7.547 2.492-7.664 2.121-7.758 1.742-7.836 1.359-7.891.973-7.93.586L720 567a163.45 163.45 0 0 1-7.949-.195l-7.93-.586-7.891-.973-7.836-1.359-7.758-1.742-7.664-2.121-7.551-2.492-7.418-2.863-7.27-3.223-7.102-3.574-6.918-3.918-6.719-4.254-6.5-4.578-6.27-4.895-6.02-5.191-5.758-5.484-5.484-5.758-5.191-6.02-4.895-6.27-4.578-6.5-4.254-6.719-3.918-6.918-3.574-7.102-3.223-7.27-2.863-7.422-2.492-7.547-2.121-7.664-1.742-7.758-1.359-7.836-.973-7.891-.586-7.93L558 405l.195-7.949.586-7.93.973-7.891 1.359-7.836 1.742-7.758 2.121-7.664 2.492-7.547 2.863-7.422 3.223-7.27 3.574-7.102 3.918-6.918 4.254-6.719 4.578-6.5 4.895-6.27 5.191-6.02 5.484-5.758 5.758-5.484 6.02-5.191 6.27-4.895 6.5-4.578 6.719-4.254 6.918-3.918 7.102-3.574 7.27-3.223 7.418-2.863 7.551-2.492 7.664-2.121 7.758-1.742 7.836-1.359 7.891-.973 7.93-.586L720 243l7.949.195 7.93.586 7.891.973 7.836 1.359 7.758 1.742 7.664 2.121 7.547 2.492 7.422 2.863 7.27 3.223 7.102 3.574 6.918 3.918 6.719 4.254 6.5 4.578 6.27 4.895 6.02 5.191 5.758 5.484 5.484 5.758 5.191 6.02 4.895 6.27 4.578 6.5 4.254 6.719 3.918 6.918 3.574 7.102 3.223 7.27 2.863 7.418 2.492 7.551 2.121 7.664 1.742 7.758 1.359 7.836.973 7.891.586 7.93L882 405zm0 0"/><g fill="#fff"><path d="M730.418 348.406h7.445v7.445h-7.445zm-44.676-44.676h22.336v7.445h-22.336zm0 0"/><path d="M685.742 318.621h22.336v7.449h-22.336zm0 14.895h22.336v7.445h-22.336zm0 14.89h22.336v7.445h-22.336zm0 0"/></g><g clip-path="url(#A)"><path fill="#fff" d="M823.492 355.852c6.156 0 11.168-5.012 11.168-11.168v-14.891c0-6.16-5.012-11.172-11.168-11.172h-40.953V303.73c0-4.105-3.34-7.445-7.445-7.445h-7.449c0-4.105-3.34-7.445-7.445-7.445h-31.965c-3.238 0-6.336.93-8.988 2.668-2.645-1.742-5.734-2.672-8.965-2.672l-31.988.004c-4.105 0-7.445 3.34-7.445 7.445h-7.445c-4.105 0-7.445 3.34-7.445 7.445v29.902c-18.668 15.141-31.176 36.164-35.52 59.652-9.309 1.023-16.602 8.836-16.602 18.41 0 9.586 7.309 17.41 16.625 18.414 1.211 6.523 3.066 12.906 5.539 19.055-4.391 3.406-7.273 8.68-7.273 14.656 0 10.262 8.352 18.613 18.617 18.613 3.082 0 5.945-.824 8.504-2.156a100.58 100.58 0 0 0 18.406 15.496c-.496 1.684-.852 3.43-.852 5.273 0 10.266 8.352 18.617 18.617 18.617 7.023 0 13.082-3.957 16.25-9.723a98 98 0 0 0 9.809 1.574v.699c0 4.105 3.34 7.445 7.445 7.445h7.445c4.109 0 7.449-3.34 7.449-7.445v-.699c3.293-.363 6.566-.883 9.809-1.574 3.168 5.762 9.227 9.723 16.25 9.723 10.266 0 18.617-8.352 18.617-18.617 0-1.84-.355-3.59-.855-5.273a100.45 100.45 0 0 0 18.406-15.496c2.563 1.332 5.43 2.156 8.508 2.156 10.266 0 18.617-8.352 18.617-18.613 0-5.977-2.883-11.25-7.273-14.656a99.67 99.67 0 0 0 5.535-19.055c9.32-1.004 16.629-8.828 16.629-18.414s-7.309-17.402-16.629-18.41c-2.477-13.355-7.664-26.125-15.227-37.434zm-55.848-7.445v-7.445h37.23v7.445zm-22.336-29.785h-7.445v-7.445h7.445zm-6.375 20.164a1.66 1.66 0 0 1-1.07-1.547c0-.687.43-1.309 1.07-1.547l6.375-2.391v7.875zm13.82-8.273l7.445-2.793v19.039l-7.445-2.793zm52.121 3.004h-37.23v-7.445h37.23zm22.34-3.723v14.891c0 2.055-1.668 3.723-3.723 3.723H812.32V326.07h11.172c2.055 0 3.723 1.668 3.723 3.723zm-52.121-26.062v14.891h-7.449V303.73zm-14.895-7.445v23.48l-7.445 2.793V303.73h-22.336v22.34h12.977l-7.078 2.652a9.14 9.14 0 0 0-5.898 8.516 9.15 9.15 0 0 0 5.898 8.516l23.883 8.957v8.586l-37.23.004V298.02c1.527-1.113 3.344-1.734 5.266-1.734zm-81.906 0l31.988-.004c1.91 0 3.719.625 5.242 1.738v65.281l-37.23.004zm-14.891 7.445h7.445v59.566c0 4.109 3.34 7.449 7.445 7.449h81.906c4.105 0 7.445-3.34 7.445-7.449v-7.445h7.449v22.34h-42.496l-3.273 3.27c-2.652 2.656-6.324 4.176-10.078 4.176a14.35 14.35 0 0 1-10.078-4.176l-3.27-3.27h-42.496zm104.242 93.074c0 26.688-21.711 48.398-48.398 48.398s-48.398-21.711-48.398-48.398c0-3.789.457-7.527 1.316-11.168h7.715c-1.023 3.613-1.586 7.344-1.586 11.168 0 22.582 18.371 40.953 40.949 40.953s40.953-18.371 40.953-40.953c0-3.824-.562-7.555-1.59-11.168h7.719c.867 3.641 1.32 7.379 1.32 11.168zm-44.676 63.289h-7.445v-7.633c1.238.082 2.465.188 3.723.188s2.488-.105 3.723-.187zm27.844-74.457c1.266 3.574 1.941 7.316 1.941 11.168 0 18.477-15.031 33.508-33.508 33.508s-33.504-15.031-33.504-33.508c0-3.852.676-7.594 1.941-11.168h15.129l1.094 1.09c4.039 4.039 9.629 6.355 15.34 6.355s11.305-2.316 15.344-6.355l1.09-1.09zm-139.531 26.059c0-6.156 5.012-11.168 11.168-11.168s11.168 5.012 11.168 11.168-5.008 11.172-11.168 11.172-11.168-5.012-11.168-11.172zm14.891 52.125c0-6.16 5.012-11.172 11.172-11.172s11.168 5.012 11.168 11.172-5.012 11.168-11.168 11.168-11.172-5.012-11.172-11.168zm55.848 48.398c-6.16 0-11.172-5.012-11.172-11.172s5.012-11.168 11.172-11.168 11.168 5.012 11.168 11.168-5.012 11.172-11.168 11.172zm18.438-9.426c.051-.582.176-1.148.176-1.746 0-10.262-8.352-18.613-18.613-18.613-5.734 0-10.809 2.66-14.227 6.754-5.879-3.91-11.285-8.465-16.145-13.609 2.652-3.215 4.309-7.277 4.309-11.758 0-10.266-8.352-18.617-18.613-18.617-1.613 0-3.156.273-4.648.66-2.102-5.328-3.707-10.836-4.789-16.461 7.59-2.348 13.16-9.352 13.16-17.707 0-8.332-5.547-15.324-13.113-17.691 3.742-19.445 13.48-37.043 28.004-50.5v34.688c0 4.105 3.34 7.445 7.445 7.445h1.145c-.746 3.66-1.145 7.398-1.145 11.168 0 26.969 19.215 49.531 44.676 54.723v52.504c-2.559-.309-5.098-.719-7.621-1.238zm15.066 9.426v-44.676h7.445v44.676zm40.953 0c-6.156 0-11.168-5.012-11.168-11.172s5.012-11.168 11.168-11.168 11.168 5.012 11.168 11.168-5.008 11.172-11.168 11.172zm44.676-37.23c-6.156 0-11.168-5.012-11.168-11.168s5.012-11.172 11.168-11.172 11.168 5.012 11.168 11.172-5.008 11.168-11.168 11.168zm26.063-63.293c0 6.16-5.012 11.172-11.172 11.172s-11.168-5.012-11.168-11.172 5.012-11.168 11.168-11.168 11.172 5.012 11.172 11.168zm-16.621-17.703c-7.594 2.348-13.164 9.352-13.164 17.703s5.57 15.359 13.164 17.707c-1.082 5.625-2.687 11.133-4.789 16.461-1.496-.387-3.035-.66-4.648-.66-10.266 0-18.613 8.352-18.613 18.617 0 4.48 1.656 8.543 4.305 11.758-4.855 5.145-10.262 9.699-16.141 13.609-3.418-4.094-8.492-6.754-14.227-6.754-10.266 0-18.613 8.352-18.613 18.613 0 .602.121 1.164.172 1.746a91.49 91.49 0 0 1-7.617 1.238v-52.504c25.461-5.191 44.676-27.75 44.676-54.723 0-3.77-.398-7.508-1.145-11.168h1.141c4.105 0 7.445-3.34 7.445-7.445v-22.34h11.125c8.469 11.27 14.266 24.352 16.93 38.141zm0 0"/></g></svg>