<svg xmlns="http://www.w3.org/2000/svg" xmlns:xlink="http://www.w3.org/1999/xlink" width="1920" zoomAndPan="magnify" viewBox="0 0 1440 809.999993" height="1080" preserveAspectRatio="xMidYMid meet" version="1.0"><defs><clipPath id="676e00a627"><path d="M 603.835938 288.835938 L 834.835938 288.835938 L 834.835938 519.835938 L 603.835938 519.835938 Z M 603.835938 288.835938 " clip-rule="nonzero"/></clipPath></defs><path fill="#da2c27" d="M 882 405 C 882 407.652344 881.933594 410.300781 881.804688 412.949219 C 881.675781 415.597656 881.480469 418.242188 881.21875 420.878906 C 880.960938 423.515625 880.636719 426.148438 880.246094 428.769531 C 879.859375 431.394531 879.40625 434.003906 878.886719 436.605469 C 878.371094 439.203125 877.789062 441.789062 877.144531 444.363281 C 876.5 446.933594 875.792969 449.488281 875.023438 452.027344 C 874.253906 454.5625 873.421875 457.078125 872.53125 459.574219 C 871.636719 462.074219 870.683594 464.546875 869.667969 466.996094 C 868.652344 469.445312 867.578125 471.867188 866.445312 474.265625 C 865.3125 476.660156 864.121094 479.027344 862.871094 481.367188 C 861.621094 483.703125 860.316406 486.011719 858.953125 488.285156 C 857.589844 490.558594 856.171875 492.796875 854.699219 495.003906 C 853.226562 497.207031 851.699219 499.375 850.121094 501.503906 C 848.539062 503.632812 846.910156 505.722656 845.226562 507.773438 C 843.546875 509.820312 841.816406 511.828125 840.035156 513.792969 C 838.253906 515.757812 836.425781 517.675781 834.550781 519.550781 C 832.675781 521.425781 830.757812 523.253906 828.792969 525.035156 C 826.828125 526.816406 824.820312 528.546875 822.773438 530.226562 C 820.722656 531.910156 818.632812 533.539062 816.503906 535.121094 C 814.375 536.699219 812.207031 538.226562 810.003906 539.699219 C 807.796875 541.171875 805.558594 542.589844 803.285156 543.953125 C 801.011719 545.316406 798.703125 546.621094 796.367188 547.871094 C 794.027344 549.121094 791.660156 550.3125 789.265625 551.445312 C 786.867188 552.578125 784.445312 553.652344 781.996094 554.667969 C 779.546875 555.683594 777.074219 556.636719 774.574219 557.53125 C 772.078125 558.421875 769.5625 559.253906 767.027344 560.023438 C 764.488281 560.792969 761.933594 561.5 759.363281 562.144531 C 756.789062 562.789062 754.203125 563.371094 751.605469 563.886719 C 749.003906 564.40625 746.394531 564.859375 743.769531 565.246094 C 741.148438 565.636719 738.515625 565.960938 735.878906 566.21875 C 733.238281 566.480469 730.597656 566.675781 727.949219 566.804688 C 725.300781 566.933594 722.652344 567 720 567 C 717.347656 567 714.699219 566.933594 712.050781 566.804688 C 709.402344 566.675781 706.757812 566.480469 704.121094 566.21875 C 701.484375 565.960938 698.851562 565.636719 696.230469 565.246094 C 693.605469 564.859375 690.996094 564.40625 688.394531 563.886719 C 685.796875 563.371094 683.207031 562.789062 680.636719 562.144531 C 678.066406 561.5 675.511719 560.792969 672.972656 560.023438 C 670.4375 559.253906 667.921875 558.421875 665.421875 557.53125 C 662.925781 556.636719 660.453125 555.683594 658.003906 554.667969 C 655.554688 553.652344 653.132812 552.578125 650.734375 551.445312 C 648.339844 550.3125 645.972656 549.121094 643.632812 547.871094 C 641.296875 546.621094 638.988281 545.316406 636.714844 543.953125 C 634.441406 542.589844 632.203125 541.171875 629.996094 539.699219 C 627.792969 538.226562 625.625 536.699219 623.496094 535.121094 C 621.367188 533.539062 619.277344 531.910156 617.226562 530.226562 C 615.179688 528.546875 613.171875 526.816406 611.207031 525.035156 C 609.242188 523.253906 607.324219 521.425781 605.449219 519.550781 C 603.574219 517.675781 601.746094 515.757812 599.964844 513.792969 C 598.183594 511.828125 596.453125 509.820312 594.773438 507.773438 C 593.089844 505.722656 591.460938 503.632812 589.878906 501.503906 C 588.300781 499.375 586.773438 497.207031 585.300781 495.003906 C 583.828125 492.796875 582.410156 490.558594 581.046875 488.285156 C 579.683594 486.011719 578.378906 483.703125 577.128906 481.367188 C 575.878906 479.027344 574.6875 476.660156 573.554688 474.265625 C 572.421875 471.867188 571.347656 469.445312 570.332031 466.996094 C 569.316406 464.546875 568.363281 462.074219 567.46875 459.574219 C 566.578125 457.078125 565.746094 454.5625 564.976562 452.027344 C 564.207031 449.488281 563.5 446.933594 562.855469 444.363281 C 562.210938 441.789062 561.628906 439.203125 561.113281 436.605469 C 560.59375 434.003906 560.140625 431.394531 559.753906 428.769531 C 559.363281 426.148438 559.039062 423.515625 558.78125 420.878906 C 558.519531 418.242188 558.324219 415.597656 558.195312 412.949219 C 558.066406 410.300781 558 407.652344 558 405 C 558 402.347656 558.066406 399.699219 558.195312 397.050781 C 558.324219 394.402344 558.519531 391.757812 558.78125 389.121094 C 559.039062 386.484375 559.363281 383.851562 559.753906 381.230469 C 560.140625 378.605469 560.59375 375.996094 561.113281 373.394531 C 561.628906 370.796875 562.210938 368.210938 562.855469 365.636719 C 563.5 363.066406 564.207031 360.511719 564.976562 357.972656 C 565.746094 355.4375 566.578125 352.921875 567.46875 350.425781 C 568.363281 347.925781 569.316406 345.453125 570.332031 343.003906 C 571.347656 340.554688 572.421875 338.132812 573.554688 335.734375 C 574.6875 333.339844 575.878906 330.972656 577.128906 328.632812 C 578.378906 326.296875 579.683594 323.988281 581.046875 321.714844 C 582.410156 319.441406 583.828125 317.203125 585.300781 314.996094 C 586.773438 312.792969 588.300781 310.625 589.878906 308.496094 C 591.460938 306.367188 593.089844 304.277344 594.773438 302.226562 C 596.453125 300.179688 598.183594 298.171875 599.964844 296.207031 C 601.746094 294.242188 603.574219 292.324219 605.449219 290.449219 C 607.324219 288.574219 609.242188 286.746094 611.207031 284.964844 C 613.171875 283.183594 615.179688 281.453125 617.226562 279.773438 C 619.277344 278.089844 621.367188 276.460938 623.496094 274.878906 C 625.625 273.300781 627.792969 271.773438 629.996094 270.300781 C 632.203125 268.828125 634.441406 267.410156 636.714844 266.046875 C 638.988281 264.683594 641.296875 263.378906 643.632812 262.128906 C 645.972656 260.878906 648.339844 259.6875 650.734375 258.554688 C 653.132812 257.421875 655.554688 256.347656 658.003906 255.332031 C 660.453125 254.316406 662.925781 253.363281 665.421875 252.46875 C 667.921875 251.578125 670.4375 250.746094 672.972656 249.976562 C 675.511719 249.207031 678.066406 248.5 680.636719 247.855469 C 683.207031 247.210938 685.796875 246.628906 688.394531 246.113281 C 690.996094 245.59375 693.605469 245.140625 696.230469 244.753906 C 698.851562 244.363281 701.484375 244.039062 704.121094 243.78125 C 706.757812 243.519531 709.402344 243.324219 712.050781 243.195312 C 714.699219 243.066406 717.347656 243 720 243 C 722.652344 243 725.300781 243.066406 727.949219 243.195312 C 730.597656 243.324219 733.238281 243.519531 735.878906 243.78125 C 738.515625 244.039062 741.148438 244.363281 743.769531 244.753906 C 746.394531 245.140625 749.003906 245.59375 751.605469 246.113281 C 754.203125 246.628906 756.789062 247.210938 759.363281 247.855469 C 761.933594 248.5 764.488281 249.207031 767.027344 249.976562 C 769.5625 250.746094 772.078125 251.578125 774.574219 252.46875 C 777.074219 253.363281 779.546875 254.316406 781.996094 255.332031 C 784.445312 256.347656 786.867188 257.421875 789.265625 258.554688 C 791.660156 259.6875 794.027344 260.878906 796.367188 262.128906 C 798.703125 263.378906 801.011719 264.683594 803.285156 266.046875 C 805.558594 267.410156 807.796875 268.828125 810.003906 270.300781 C 812.207031 271.773438 814.375 273.300781 816.503906 274.878906 C 818.632812 276.460938 820.722656 278.089844 822.773438 279.773438 C 824.820312 281.453125 826.828125 283.183594 828.792969 284.964844 C 830.757812 286.746094 832.675781 288.574219 834.550781 290.449219 C 836.425781 292.324219 838.253906 294.242188 840.035156 296.207031 C 841.816406 298.171875 843.546875 300.179688 845.226562 302.226562 C 846.910156 304.277344 848.539062 306.367188 850.121094 308.496094 C 851.699219 310.625 853.226562 312.792969 854.699219 314.996094 C 856.171875 317.203125 857.589844 319.441406 858.953125 321.714844 C 860.316406 323.988281 861.621094 326.296875 862.871094 328.632812 C 864.121094 330.972656 865.3125 333.339844 866.445312 335.734375 C 867.578125 338.132812 868.652344 340.554688 869.667969 343.003906 C 870.683594 345.453125 871.636719 347.925781 872.53125 350.421875 C 873.421875 352.921875 874.253906 355.4375 875.023438 357.972656 C 875.792969 360.511719 876.5 363.066406 877.144531 365.636719 C 877.789062 368.210938 878.371094 370.796875 878.886719 373.394531 C 879.40625 375.996094 879.859375 378.605469 880.246094 381.230469 C 880.636719 383.851562 880.960938 386.484375 881.21875 389.121094 C 881.480469 391.757812 881.675781 394.402344 881.804688 397.050781 C 881.933594 399.699219 882 402.347656 882 405 Z M 882 405 " fill-opacity="1" fill-rule="nonzero"/><path fill="#ffffff" d="M 730.417969 348.40625 L 737.863281 348.40625 L 737.863281 355.851562 L 730.417969 355.851562 Z M 730.417969 348.40625 " fill-opacity="1" fill-rule="nonzero"/><path fill="#ffffff" d="M 685.742188 303.730469 L 708.078125 303.730469 L 708.078125 311.175781 L 685.742188 311.175781 Z M 685.742188 303.730469 " fill-opacity="1" fill-rule="nonzero"/><path fill="#ffffff" d="M 685.742188 318.621094 L 708.078125 318.621094 L 708.078125 326.070312 L 685.742188 326.070312 Z M 685.742188 318.621094 " fill-opacity="1" fill-rule="nonzero"/><path fill="#ffffff" d="M 685.742188 333.515625 L 708.078125 333.515625 L 708.078125 340.960938 L 685.742188 340.960938 Z M 685.742188 333.515625 " fill-opacity="1" fill-rule="nonzero"/><path fill="#ffffff" d="M 685.742188 348.40625 L 708.078125 348.40625 L 708.078125 355.851562 L 685.742188 355.851562 Z M 685.742188 348.40625 " fill-opacity="1" fill-rule="nonzero"/><g clip-path="url(#676e00a627)"><path fill="#ffffff" d="M 823.492188 355.851562 C 829.648438 355.851562 834.660156 350.839844 834.660156 344.683594 L 834.660156 329.792969 C 834.660156 323.632812 829.648438 318.621094 823.492188 318.621094 L 782.539062 318.621094 L 782.539062 303.730469 C 782.539062 299.625 779.199219 296.285156 775.09375 296.285156 L 767.644531 296.285156 C 767.644531 292.179688 764.304688 288.839844 760.199219 288.839844 L 728.234375 288.839844 C 724.996094 288.839844 721.898438 289.769531 719.246094 291.507812 C 716.601562 289.765625 713.511719 288.835938 710.28125 288.835938 L 678.292969 288.839844 C 674.1875 288.839844 670.847656 292.179688 670.847656 296.285156 L 663.402344 296.285156 C 659.296875 296.285156 655.957031 299.625 655.957031 303.730469 L 655.957031 333.632812 C 637.289062 348.773438 624.78125 369.796875 620.4375 393.285156 C 611.128906 394.308594 603.835938 402.121094 603.835938 411.695312 C 603.835938 421.28125 611.144531 429.105469 620.460938 430.109375 C 621.671875 436.632812 623.527344 443.015625 626 449.164062 C 621.609375 452.570312 618.726562 457.84375 618.726562 463.820312 C 618.726562 474.082031 627.078125 482.433594 637.34375 482.433594 C 640.425781 482.433594 643.289062 481.609375 645.847656 480.277344 C 651.355469 486.171875 657.519531 491.363281 664.253906 495.773438 C 663.757812 497.457031 663.402344 499.203125 663.402344 501.046875 C 663.402344 511.3125 671.753906 519.664062 682.019531 519.664062 C 689.042969 519.664062 695.101562 515.707031 698.269531 509.941406 C 701.511719 510.632812 704.785156 511.15625 708.078125 511.515625 L 708.078125 512.214844 C 708.078125 516.320312 711.417969 519.660156 715.523438 519.660156 L 722.96875 519.660156 C 727.078125 519.660156 730.417969 516.320312 730.417969 512.214844 L 730.417969 511.515625 C 733.710938 511.152344 736.984375 510.632812 740.226562 509.941406 C 743.394531 515.703125 749.453125 519.664062 756.476562 519.664062 C 766.742188 519.664062 775.09375 511.3125 775.09375 501.046875 C 775.09375 499.207031 774.738281 497.457031 774.238281 495.773438 C 780.972656 491.363281 787.140625 486.171875 792.644531 480.277344 C 795.207031 481.609375 798.074219 482.433594 801.152344 482.433594 C 811.417969 482.433594 819.769531 474.082031 819.769531 463.820312 C 819.769531 457.84375 816.886719 452.570312 812.496094 449.164062 C 814.96875 443.015625 816.824219 436.632812 818.03125 430.109375 C 827.351562 429.105469 834.660156 421.28125 834.660156 411.695312 C 834.660156 402.113281 827.351562 394.292969 818.03125 393.285156 C 815.554688 379.929688 810.367188 367.160156 802.804688 355.851562 Z M 767.644531 348.40625 L 767.644531 340.960938 L 804.875 340.960938 L 804.875 348.40625 Z M 745.308594 318.621094 L 737.863281 318.621094 L 737.863281 311.175781 L 745.308594 311.175781 Z M 738.933594 338.785156 C 738.292969 338.542969 737.863281 337.921875 737.863281 337.238281 C 737.863281 336.550781 738.292969 335.929688 738.933594 335.691406 L 745.308594 333.300781 L 745.308594 341.175781 Z M 752.753906 330.511719 L 760.199219 327.71875 L 760.199219 346.757812 L 752.753906 343.964844 Z M 804.875 333.515625 L 767.644531 333.515625 L 767.644531 326.070312 L 804.875 326.070312 Z M 827.214844 329.792969 L 827.214844 344.683594 C 827.214844 346.738281 825.546875 348.40625 823.492188 348.40625 L 812.320312 348.40625 L 812.320312 326.070312 L 823.492188 326.070312 C 825.546875 326.070312 827.214844 327.738281 827.214844 329.792969 Z M 775.09375 303.730469 L 775.09375 318.621094 L 767.644531 318.621094 L 767.644531 303.730469 Z M 760.199219 296.285156 L 760.199219 319.765625 L 752.753906 322.558594 L 752.753906 303.730469 L 730.417969 303.730469 L 730.417969 326.070312 L 743.394531 326.070312 L 736.316406 328.722656 C 732.789062 330.046875 730.417969 333.46875 730.417969 337.238281 C 730.417969 341.003906 732.789062 344.425781 736.316406 345.753906 L 760.199219 354.710938 L 760.199219 363.296875 L 722.96875 363.300781 L 722.96875 298.019531 C 724.496094 296.90625 726.3125 296.285156 728.234375 296.285156 Z M 678.292969 296.285156 L 710.28125 296.28125 C 712.191406 296.28125 714 296.90625 715.523438 298.019531 L 715.523438 363.300781 L 678.292969 363.304688 Z M 663.402344 303.730469 L 670.847656 303.730469 L 670.847656 363.296875 C 670.847656 367.40625 674.1875 370.746094 678.292969 370.746094 L 760.199219 370.746094 C 764.304688 370.746094 767.644531 367.40625 767.644531 363.296875 L 767.644531 355.851562 L 775.09375 355.851562 L 775.09375 378.191406 L 732.597656 378.191406 L 729.324219 381.460938 C 726.671875 384.117188 723 385.636719 719.246094 385.636719 C 715.496094 385.636719 711.824219 384.117188 709.167969 381.460938 L 705.898438 378.191406 L 663.402344 378.191406 Z M 767.644531 396.804688 C 767.644531 423.492188 745.933594 445.203125 719.246094 445.203125 C 692.5625 445.203125 670.847656 423.492188 670.847656 396.804688 C 670.847656 393.015625 671.304688 389.277344 672.164062 385.636719 L 679.878906 385.636719 C 678.855469 389.25 678.292969 392.980469 678.292969 396.804688 C 678.292969 419.386719 696.664062 437.757812 719.242188 437.757812 C 741.824219 437.757812 760.195312 419.386719 760.195312 396.804688 C 760.195312 392.980469 759.632812 389.25 758.605469 385.636719 L 766.324219 385.636719 C 767.191406 389.277344 767.644531 393.015625 767.644531 396.804688 Z M 722.96875 460.09375 L 715.523438 460.09375 L 715.523438 452.460938 C 716.761719 452.542969 717.988281 452.648438 719.246094 452.648438 C 720.503906 452.648438 721.734375 452.542969 722.96875 452.460938 Z M 750.8125 385.636719 C 752.078125 389.210938 752.753906 392.953125 752.753906 396.804688 C 752.753906 415.28125 737.722656 430.3125 719.246094 430.3125 C 700.769531 430.3125 685.742188 415.28125 685.742188 396.804688 C 685.742188 392.953125 686.417969 389.210938 687.683594 385.636719 L 702.8125 385.636719 L 703.90625 386.726562 C 707.945312 390.765625 713.535156 393.082031 719.246094 393.082031 C 724.957031 393.082031 730.550781 390.765625 734.589844 386.726562 L 735.679688 385.636719 Z M 611.28125 411.695312 C 611.28125 405.539062 616.292969 400.527344 622.449219 400.527344 C 628.609375 400.527344 633.617188 405.539062 633.617188 411.695312 C 633.617188 417.855469 628.609375 422.867188 622.449219 422.867188 C 616.292969 422.867188 611.28125 417.855469 611.28125 411.695312 Z M 626.171875 463.820312 C 626.171875 457.660156 631.183594 452.648438 637.34375 452.648438 C 643.5 452.648438 648.511719 457.660156 648.511719 463.820312 C 648.511719 469.976562 643.5 474.988281 637.34375 474.988281 C 631.183594 474.988281 626.171875 469.976562 626.171875 463.820312 Z M 682.019531 512.21875 C 675.859375 512.21875 670.847656 507.207031 670.847656 501.046875 C 670.847656 494.890625 675.859375 489.878906 682.019531 489.878906 C 688.175781 489.878906 693.1875 494.890625 693.1875 501.046875 C 693.1875 507.207031 688.175781 512.21875 682.019531 512.21875 Z M 700.457031 502.792969 C 700.507812 502.210938 700.632812 501.644531 700.632812 501.046875 C 700.632812 490.785156 692.28125 482.433594 682.019531 482.433594 C 676.285156 482.433594 671.210938 485.09375 667.792969 489.1875 C 661.914062 485.277344 656.507812 480.722656 651.648438 475.578125 C 654.300781 472.363281 655.957031 468.300781 655.957031 463.820312 C 655.957031 453.554688 647.605469 445.203125 637.34375 445.203125 C 635.730469 445.203125 634.1875 445.476562 632.695312 445.863281 C 630.59375 440.535156 628.988281 435.027344 627.90625 429.402344 C 635.496094 427.054688 641.066406 420.050781 641.066406 411.695312 C 641.066406 403.363281 635.519531 396.371094 627.953125 394.003906 C 631.695312 374.558594 641.433594 356.960938 655.957031 343.503906 L 655.957031 378.191406 C 655.957031 382.296875 659.296875 385.636719 663.402344 385.636719 L 664.546875 385.636719 C 663.800781 389.296875 663.402344 393.035156 663.402344 396.804688 C 663.402344 423.773438 682.617188 446.335938 708.078125 451.527344 L 708.078125 504.03125 C 705.519531 503.722656 702.980469 503.3125 700.457031 502.792969 Z M 715.523438 512.21875 L 715.523438 467.542969 L 722.96875 467.542969 L 722.96875 512.21875 Z M 756.476562 512.21875 C 750.320312 512.21875 745.308594 507.207031 745.308594 501.046875 C 745.308594 494.890625 750.320312 489.878906 756.476562 489.878906 C 762.636719 489.878906 767.644531 494.890625 767.644531 501.046875 C 767.644531 507.207031 762.636719 512.21875 756.476562 512.21875 Z M 801.152344 474.988281 C 794.996094 474.988281 789.984375 469.976562 789.984375 463.820312 C 789.984375 457.660156 794.996094 452.648438 801.152344 452.648438 C 807.3125 452.648438 812.320312 457.660156 812.320312 463.820312 C 812.320312 469.976562 807.3125 474.988281 801.152344 474.988281 Z M 827.214844 411.695312 C 827.214844 417.855469 822.203125 422.867188 816.042969 422.867188 C 809.886719 422.867188 804.875 417.855469 804.875 411.695312 C 804.875 405.539062 809.886719 400.527344 816.042969 400.527344 C 822.203125 400.527344 827.214844 405.539062 827.214844 411.695312 Z M 810.59375 393.992188 C 803 396.339844 797.429688 403.34375 797.429688 411.695312 C 797.429688 420.050781 803 427.054688 810.59375 429.402344 C 809.511719 435.027344 807.90625 440.535156 805.804688 445.863281 C 804.308594 445.476562 802.769531 445.203125 801.15625 445.203125 C 790.890625 445.203125 782.542969 453.554688 782.542969 463.820312 C 782.542969 468.300781 784.199219 472.363281 786.847656 475.578125 C 781.992188 480.722656 776.585938 485.277344 770.707031 489.1875 C 767.289062 485.09375 762.214844 482.433594 756.480469 482.433594 C 746.214844 482.433594 737.867188 490.785156 737.867188 501.046875 C 737.867188 501.648438 737.988281 502.210938 738.039062 502.792969 C 735.515625 503.3125 732.976562 503.726562 730.421875 504.03125 L 730.421875 451.527344 C 755.882812 446.335938 775.097656 423.777344 775.097656 396.804688 C 775.097656 393.035156 774.699219 389.296875 773.953125 385.636719 L 775.09375 385.636719 C 779.199219 385.636719 782.539062 382.296875 782.539062 378.191406 L 782.539062 355.851562 L 793.664062 355.851562 C 802.132812 367.121094 807.929688 380.203125 810.59375 393.992188 Z M 810.59375 393.992188 " fill-opacity="1" fill-rule="nonzero"/></g></svg>