<svg xmlns="http://www.w3.org/2000/svg" xmlns:xlink="http://www.w3.org/1999/xlink" width="1080" zoomAndPan="magnify" viewBox="0 0 810 809.999993" height="1080" preserveAspectRatio="xMidYMid meet" version="1.0"><defs><clipPath id="4b125dd0c0"><path d="M 114.589844 114.589844 L 692 114.589844 L 692 692 L 114.589844 692 Z M 114.589844 114.589844 " clip-rule="nonzero"/></clipPath></defs><path fill="#da2c27" d="M 810 405 C 810 411.628906 809.835938 418.253906 809.511719 424.871094 C 809.1875 431.492188 808.699219 438.101562 808.050781 444.695312 C 807.398438 451.292969 806.589844 457.871094 805.617188 464.425781 C 804.644531 470.980469 803.511719 477.511719 802.21875 484.011719 C 800.925781 490.511719 799.472656 496.976562 797.863281 503.40625 C 796.253906 509.835938 794.484375 516.222656 792.5625 522.566406 C 790.636719 528.90625 788.558594 535.199219 786.324219 541.441406 C 784.09375 547.679688 781.707031 553.863281 779.171875 559.988281 C 776.632812 566.109375 773.949219 572.167969 771.117188 578.160156 C 768.28125 584.152344 765.300781 590.070312 762.179688 595.914062 C 759.054688 601.761719 755.789062 607.527344 752.378906 613.210938 C 748.972656 618.898438 745.425781 624.496094 741.746094 630.007812 C 738.0625 635.515625 734.246094 640.933594 730.300781 646.257812 C 726.351562 651.582031 722.273438 656.804688 718.070312 661.929688 C 713.863281 667.054688 709.535156 672.070312 705.085938 676.980469 C 700.632812 681.890625 696.066406 686.691406 691.378906 691.378906 C 686.691406 696.066406 681.890625 700.632812 676.980469 705.085938 C 672.070312 709.535156 667.054688 713.863281 661.929688 718.070312 C 656.804688 722.273438 651.582031 726.351562 646.257812 730.300781 C 640.933594 734.246094 635.515625 738.0625 630.007812 741.746094 C 624.496094 745.425781 618.898438 748.972656 613.210938 752.378906 C 607.527344 755.789062 601.761719 759.054688 595.914062 762.179688 C 590.070312 765.300781 584.152344 768.28125 578.160156 771.117188 C 572.167969 773.949219 566.109375 776.632812 559.988281 779.171875 C 553.863281 781.707031 547.679688 784.09375 541.441406 786.324219 C 535.199219 788.558594 528.90625 790.636719 522.566406 792.5625 C 516.222656 794.484375 509.835938 796.253906 503.40625 797.863281 C 496.976562 799.472656 490.511719 800.925781 484.011719 802.21875 C 477.511719 803.511719 470.980469 804.644531 464.425781 805.617188 C 457.871094 806.589844 451.292969 807.398438 444.695312 808.050781 C 438.101562 808.699219 431.492188 809.1875 424.871094 809.511719 C 418.253906 809.835938 411.628906 810 405 810 C 398.371094 810 391.746094 809.835938 385.128906 809.511719 C 378.507812 809.1875 371.898438 808.699219 365.304688 808.050781 C 358.707031 807.398438 352.128906 806.589844 345.574219 805.617188 C 339.019531 804.644531 332.488281 803.511719 325.988281 802.21875 C 319.488281 800.925781 313.023438 799.472656 306.59375 797.863281 C 300.164062 796.253906 293.777344 794.484375 287.433594 792.5625 C 281.09375 790.636719 274.800781 788.558594 268.558594 786.324219 C 262.320312 784.09375 256.136719 781.707031 250.011719 779.171875 C 243.890625 776.632812 237.832031 773.949219 231.839844 771.117188 C 225.847656 768.28125 219.929688 765.300781 214.085938 762.179688 C 208.238281 759.054688 202.472656 755.789062 196.789062 752.378906 C 191.101562 748.972656 185.503906 745.425781 179.992188 741.746094 C 174.484375 738.0625 169.066406 734.246094 163.742188 730.300781 C 158.417969 726.351562 153.195312 722.273438 148.070312 718.070312 C 142.945312 713.863281 137.929688 709.535156 133.019531 705.085938 C 128.109375 700.632812 123.308594 696.066406 118.621094 691.378906 C 113.933594 686.691406 109.367188 681.890625 104.914062 676.980469 C 100.464844 672.070312 96.136719 667.054688 91.929688 661.929688 C 87.726562 656.804688 83.648438 651.582031 79.699219 646.257812 C 75.753906 640.933594 71.9375 635.515625 68.253906 630.007812 C 64.574219 624.496094 61.027344 618.898438 57.621094 613.210938 C 54.210938 607.527344 50.945312 601.761719 47.820312 595.914062 C 44.699219 590.070312 41.71875 584.152344 38.882812 578.160156 C 36.050781 572.167969 33.363281 566.109375 30.828125 559.988281 C 28.292969 553.863281 25.90625 547.679688 23.675781 541.441406 C 21.441406 535.199219 19.363281 528.90625 17.4375 522.566406 C 15.515625 516.222656 13.746094 509.835938 12.136719 503.40625 C 10.527344 496.976562 9.074219 490.511719 7.78125 484.011719 C 6.488281 477.511719 5.355469 470.980469 4.382812 464.425781 C 3.410156 457.871094 2.601562 451.292969 1.949219 444.695312 C 1.300781 438.101562 0.8125 431.492188 0.488281 424.871094 C 0.164062 418.253906 0 411.628906 0 405 C 0 398.371094 0.164062 391.746094 0.488281 385.128906 C 0.8125 378.507812 1.300781 371.898438 1.949219 365.304688 C 2.601562 358.707031 3.410156 352.128906 4.382812 345.574219 C 5.355469 339.019531 6.488281 332.488281 7.78125 325.988281 C 9.074219 319.488281 10.527344 313.023438 12.136719 306.59375 C 13.746094 300.164062 15.515625 293.777344 17.4375 287.433594 C 19.363281 281.09375 21.441406 274.800781 23.675781 268.558594 C 25.90625 262.320312 28.292969 256.136719 30.828125 250.011719 C 33.363281 243.890625 36.050781 237.832031 38.882812 231.839844 C 41.71875 225.847656 44.699219 219.929688 47.820312 214.085938 C 50.945312 208.238281 54.210938 202.472656 57.621094 196.789062 C 61.027344 191.101562 64.574219 185.503906 68.253906 179.992188 C 71.9375 174.484375 75.753906 169.066406 79.699219 163.742188 C 83.648438 158.417969 87.726562 153.195312 91.929688 148.070312 C 96.136719 142.945312 100.464844 137.929688 104.914062 133.019531 C 109.367188 128.109375 113.933594 123.308594 118.621094 118.621094 C 123.308594 113.933594 128.109375 109.367188 133.019531 104.914062 C 137.929688 100.464844 142.945312 96.136719 148.070312 91.929688 C 153.195312 87.726562 158.417969 83.648438 163.742188 79.699219 C 169.066406 75.753906 174.484375 71.9375 179.992188 68.253906 C 185.503906 64.574219 191.101562 61.027344 196.789062 57.621094 C 202.472656 54.210938 208.238281 50.945312 214.085938 47.820312 C 219.929688 44.699219 225.847656 41.71875 231.839844 38.882812 C 237.832031 36.050781 243.890625 33.367188 250.011719 30.828125 C 256.136719 28.292969 262.320312 25.90625 268.558594 23.675781 C 274.800781 21.441406 281.09375 19.363281 287.433594 17.4375 C 293.777344 15.515625 300.164062 13.746094 306.59375 12.136719 C 313.023438 10.527344 319.488281 9.074219 325.988281 7.78125 C 332.488281 6.488281 339.019531 5.355469 345.574219 4.382812 C 352.128906 3.410156 358.707031 2.601562 365.304688 1.949219 C 371.898438 1.300781 378.507812 0.8125 385.128906 0.488281 C 391.746094 0.164062 398.371094 0 405 0 C 411.628906 0 418.253906 0.164062 424.871094 0.488281 C 431.492188 0.8125 438.101562 1.300781 444.695312 1.949219 C 451.292969 2.601562 457.871094 3.410156 464.425781 4.382812 C 470.980469 5.355469 477.511719 6.488281 484.011719 7.78125 C 490.511719 9.074219 496.976562 10.527344 503.40625 12.136719 C 509.835938 13.746094 516.222656 15.515625 522.566406 17.4375 C 528.90625 19.363281 535.199219 21.441406 541.441406 23.675781 C 547.679688 25.90625 553.863281 28.292969 559.988281 30.828125 C 566.109375 33.367188 572.167969 36.050781 578.160156 38.882812 C 584.152344 41.71875 590.070312 44.699219 595.914062 47.820312 C 601.761719 50.945312 607.527344 54.210938 613.210938 57.621094 C 618.898438 61.027344 624.496094 64.574219 630.007812 68.253906 C 635.515625 71.9375 640.933594 75.753906 646.257812 79.699219 C 651.582031 83.648438 656.804688 87.726562 661.929688 91.929688 C 667.054688 96.136719 672.070312 100.464844 676.980469 104.914062 C 681.890625 109.367188 686.691406 113.933594 691.378906 118.621094 C 696.066406 123.308594 700.632812 128.109375 705.085938 133.019531 C 709.535156 137.929688 713.863281 142.945312 718.070312 148.070312 C 722.273438 153.195312 726.351562 158.417969 730.300781 163.742188 C 734.246094 169.066406 738.0625 174.484375 741.746094 179.992188 C 745.425781 185.503906 748.972656 191.101562 752.378906 196.789062 C 755.789062 202.472656 759.054688 208.238281 762.179688 214.085938 C 765.300781 219.929688 768.28125 225.847656 771.117188 231.839844 C 773.949219 237.832031 776.632812 243.890625 779.171875 250.011719 C 781.707031 256.136719 784.09375 262.320312 786.324219 268.558594 C 788.558594 274.800781 790.636719 281.09375 792.5625 287.433594 C 794.484375 293.777344 796.253906 300.164062 797.863281 306.59375 C 799.472656 313.023438 800.925781 319.488281 802.21875 325.988281 C 803.511719 332.488281 804.644531 339.019531 805.617188 345.574219 C 806.589844 352.128906 807.398438 358.707031 808.050781 365.304688 C 808.699219 371.898438 809.1875 378.507812 809.511719 385.128906 C 809.835938 391.746094 810 398.371094 810 405 Z M 810 405 " fill-opacity="1" fill-rule="nonzero"/><path fill="#ffffff" d="M 431.039062 263.515625 L 449.65625 263.515625 L 449.65625 282.132812 L 431.039062 282.132812 Z M 431.039062 263.515625 " fill-opacity="1" fill-rule="nonzero"/><path fill="#ffffff" d="M 319.351562 151.828125 L 375.195312 151.828125 L 375.195312 170.441406 L 319.351562 170.441406 Z M 319.351562 151.828125 " fill-opacity="1" fill-rule="nonzero"/><path fill="#ffffff" d="M 319.351562 189.058594 L 375.195312 189.058594 L 375.195312 207.671875 L 319.351562 207.671875 Z M 319.351562 189.058594 " fill-opacity="1" fill-rule="nonzero"/><path fill="#ffffff" d="M 319.351562 226.285156 L 375.195312 226.285156 L 375.195312 244.902344 L 319.351562 244.902344 Z M 319.351562 226.285156 " fill-opacity="1" fill-rule="nonzero"/><path fill="#ffffff" d="M 319.351562 263.515625 L 375.195312 263.515625 L 375.195312 282.132812 L 319.351562 282.132812 Z M 319.351562 263.515625 " fill-opacity="1" fill-rule="nonzero"/><g clip-path="url(#4b125dd0c0)"><path fill="#ffffff" d="M 663.726562 282.132812 C 679.121094 282.132812 691.648438 269.601562 691.648438 254.207031 L 691.648438 216.980469 C 691.648438 201.585938 679.121094 189.058594 663.726562 189.058594 L 561.34375 189.058594 L 561.34375 151.828125 C 561.34375 141.5625 552.996094 133.210938 542.730469 133.210938 L 524.113281 133.210938 C 524.113281 122.945312 515.765625 114.597656 505.5 114.597656 L 425.585938 114.597656 C 417.488281 114.597656 409.746094 116.925781 403.117188 121.269531 C 396.5 116.914062 388.777344 114.589844 380.707031 114.589844 L 300.738281 114.597656 C 290.472656 114.597656 282.121094 122.945312 282.121094 133.210938 L 263.507812 133.210938 C 253.242188 133.210938 244.890625 141.5625 244.890625 151.828125 L 244.890625 226.585938 C 198.226562 264.4375 166.953125 316.996094 156.089844 375.71875 C 132.820312 378.269531 114.589844 397.804688 114.589844 421.742188 C 114.589844 445.699219 132.859375 465.265625 156.15625 467.777344 C 159.179688 484.082031 163.816406 500.035156 169.996094 515.414062 C 159.023438 523.929688 151.816406 537.109375 151.816406 552.046875 C 151.816406 577.707031 172.695312 598.582031 198.355469 598.582031 C 206.0625 598.582031 213.21875 596.527344 219.621094 593.195312 C 233.386719 607.929688 248.800781 620.914062 265.636719 631.933594 C 264.390625 636.140625 263.507812 640.503906 263.507812 645.121094 C 263.507812 670.78125 284.382812 691.65625 310.042969 691.65625 C 327.609375 691.65625 342.75 681.765625 350.671875 667.355469 C 358.777344 669.078125 366.960938 670.390625 375.195312 671.292969 L 375.195312 673.035156 C 375.195312 683.300781 383.546875 691.648438 393.8125 691.648438 L 412.425781 691.648438 C 422.691406 691.648438 431.039062 683.300781 431.039062 673.035156 L 431.039062 671.292969 C 439.277344 670.382812 447.460938 669.078125 455.566406 667.355469 C 463.488281 681.753906 478.628906 691.65625 496.191406 691.65625 C 521.851562 691.65625 542.730469 670.78125 542.730469 645.121094 C 542.730469 640.515625 541.847656 636.140625 540.597656 631.933594 C 557.4375 620.914062 572.847656 607.929688 586.613281 593.195312 C 593.019531 596.527344 600.183594 598.582031 607.882812 598.582031 C 633.542969 598.582031 654.417969 577.707031 654.417969 552.046875 C 654.417969 537.109375 647.214844 523.929688 636.242188 515.414062 C 642.421875 500.035156 647.058594 484.082031 650.082031 467.777344 C 673.378906 465.265625 691.648438 445.699219 691.648438 421.742188 C 691.648438 397.785156 673.378906 378.230469 650.082031 375.707031 C 643.882812 342.324219 630.917969 310.398438 612.015625 282.132812 Z M 524.113281 263.515625 L 524.113281 244.902344 L 617.191406 244.902344 L 617.191406 263.515625 Z M 468.269531 189.058594 L 449.65625 189.058594 L 449.65625 170.441406 L 468.269531 170.441406 Z M 452.335938 239.464844 C 450.734375 238.859375 449.65625 237.308594 449.65625 235.59375 C 449.65625 233.882812 450.734375 232.328125 452.335938 231.730469 L 468.269531 225.757812 L 468.269531 245.441406 Z M 486.886719 218.777344 L 505.5 211.796875 L 505.5 259.394531 L 486.886719 252.414062 Z M 617.191406 226.285156 L 524.113281 226.285156 L 524.113281 207.671875 L 617.191406 207.671875 Z M 673.035156 216.980469 L 673.035156 254.207031 C 673.035156 259.347656 668.863281 263.515625 663.726562 263.515625 L 635.804688 263.515625 L 635.804688 207.671875 L 663.726562 207.671875 C 668.863281 207.671875 673.035156 211.839844 673.035156 216.980469 Z M 542.730469 151.828125 L 542.730469 189.058594 L 524.113281 189.058594 L 524.113281 151.828125 Z M 505.5 133.210938 L 505.5 191.914062 L 486.886719 198.894531 L 486.886719 151.828125 L 431.039062 151.828125 L 431.039062 207.671875 L 463.488281 207.671875 L 445.792969 214.308594 C 436.96875 217.621094 431.039062 226.175781 431.039062 235.59375 C 431.039062 245.011719 436.96875 253.566406 445.792969 256.878906 L 505.5 279.273438 L 505.5 300.746094 L 412.425781 300.753906 L 412.425781 137.550781 C 416.242188 134.765625 420.785156 133.210938 425.585938 133.210938 Z M 300.738281 133.210938 L 380.707031 133.203125 C 385.480469 133.203125 390.003906 134.765625 393.8125 137.550781 L 393.8125 300.753906 L 300.738281 300.765625 Z M 263.507812 151.828125 L 282.121094 151.828125 L 282.121094 300.746094 C 282.121094 311.011719 290.472656 319.359375 300.738281 319.359375 L 505.5 319.359375 C 515.765625 319.359375 524.113281 311.011719 524.113281 300.746094 L 524.113281 282.132812 L 542.730469 282.132812 L 542.730469 337.976562 L 436.496094 337.976562 L 428.3125 346.15625 C 421.675781 352.792969 412.5 356.589844 403.117188 356.589844 C 393.738281 356.589844 384.558594 352.792969 377.921875 346.15625 L 369.742188 337.976562 L 263.507812 337.976562 Z M 524.113281 384.511719 C 524.113281 451.230469 469.835938 505.507812 403.117188 505.507812 C 336.402344 505.507812 282.121094 451.230469 282.121094 384.511719 C 282.121094 375.039062 283.257812 365.691406 285.40625 356.589844 L 304.703125 356.589844 C 302.140625 365.628906 300.726562 374.953125 300.726562 384.511719 C 300.726562 440.960938 346.660156 486.894531 403.109375 486.894531 C 459.558594 486.894531 505.492188 440.960938 505.492188 384.511719 C 505.492188 374.953125 504.085938 365.628906 501.515625 356.589844 L 520.8125 356.589844 C 522.980469 365.691406 524.113281 375.039062 524.113281 384.511719 Z M 412.425781 542.738281 L 393.8125 542.738281 L 393.8125 523.648438 C 396.902344 523.855469 399.972656 524.125 403.117188 524.125 C 406.265625 524.125 409.335938 523.855469 412.425781 523.648438 Z M 482.027344 356.589844 C 485.191406 365.527344 486.886719 374.878906 486.886719 384.511719 C 486.886719 430.707031 449.3125 468.28125 403.117188 468.28125 C 356.925781 468.28125 319.351562 430.707031 319.351562 384.511719 C 319.351562 374.878906 321.046875 365.527344 324.210938 356.589844 L 362.035156 356.589844 L 364.761719 359.316406 C 374.859375 369.417969 388.839844 375.207031 403.117188 375.207031 C 417.394531 375.207031 431.375 369.417969 441.472656 359.316406 L 444.203125 356.589844 Z M 133.203125 421.742188 C 133.203125 406.347656 145.730469 393.820312 161.125 393.820312 C 176.519531 393.820312 189.046875 406.347656 189.046875 421.742188 C 189.046875 437.136719 176.519531 449.664062 161.125 449.664062 C 145.730469 449.664062 133.203125 437.136719 133.203125 421.742188 Z M 170.433594 552.046875 C 170.433594 536.652344 182.960938 524.125 198.355469 524.125 C 213.75 524.125 226.277344 536.652344 226.277344 552.046875 C 226.277344 567.441406 213.75 579.96875 198.355469 579.96875 C 182.960938 579.96875 170.433594 567.441406 170.433594 552.046875 Z M 310.042969 673.042969 C 294.648438 673.042969 282.121094 660.515625 282.121094 645.121094 C 282.121094 629.726562 294.648438 617.199219 310.042969 617.199219 C 325.4375 617.199219 337.964844 629.726562 337.964844 645.121094 C 337.964844 660.515625 325.4375 673.042969 310.042969 673.042969 Z M 356.144531 649.484375 C 356.273438 648.023438 356.582031 646.609375 356.582031 645.121094 C 356.582031 619.460938 335.703125 598.582031 310.042969 598.582031 C 295.710938 598.582031 283.023438 605.238281 274.480469 615.46875 C 259.785156 605.695312 246.269531 594.300781 234.125 581.449219 C 240.75 573.40625 244.890625 563.253906 244.890625 552.046875 C 244.890625 526.386719 224.015625 505.507812 198.355469 505.507812 C 194.324219 505.507812 190.472656 506.1875 186.738281 507.15625 C 181.480469 493.839844 177.46875 480.070312 174.761719 466.007812 C 193.738281 460.136719 207.664062 442.628906 207.664062 421.742188 C 207.664062 400.902344 193.792969 383.425781 174.882812 377.515625 C 184.234375 328.890625 208.585938 284.90625 244.890625 251.257812 L 244.890625 337.976562 C 244.890625 348.242188 253.242188 356.589844 263.507812 356.589844 L 266.363281 356.589844 C 264.503906 365.738281 263.507812 375.085938 263.507812 384.511719 C 263.507812 451.9375 311.542969 508.339844 375.195312 521.3125 L 375.195312 652.574219 C 368.800781 651.804688 362.453125 650.78125 356.144531 649.484375 Z M 393.8125 673.042969 L 393.8125 561.355469 L 412.425781 561.355469 L 412.425781 673.042969 Z M 496.191406 673.042969 C 480.796875 673.042969 468.269531 660.515625 468.269531 645.121094 C 468.269531 629.726562 480.796875 617.199219 496.191406 617.199219 C 511.585938 617.199219 524.113281 629.726562 524.113281 645.121094 C 524.113281 660.515625 511.585938 673.042969 496.191406 673.042969 Z M 607.882812 579.96875 C 592.488281 579.96875 579.960938 567.441406 579.960938 552.046875 C 579.960938 536.652344 592.488281 524.125 607.882812 524.125 C 623.277344 524.125 635.804688 536.652344 635.804688 552.046875 C 635.804688 567.441406 623.277344 579.96875 607.882812 579.96875 Z M 673.035156 421.742188 C 673.035156 437.136719 660.507812 449.664062 645.113281 449.664062 C 629.71875 449.664062 617.191406 437.136719 617.191406 421.742188 C 617.191406 406.347656 629.71875 393.820312 645.113281 393.820312 C 660.507812 393.820312 673.035156 406.347656 673.035156 421.742188 Z M 631.484375 377.476562 C 612.5 383.347656 598.574219 400.855469 598.574219 421.742188 C 598.574219 442.628906 612.5 460.136719 631.484375 466.007812 C 628.777344 480.074219 624.765625 493.839844 619.507812 507.15625 C 615.773438 506.1875 611.921875 505.507812 607.890625 505.507812 C 582.230469 505.507812 561.355469 526.386719 561.355469 552.046875 C 561.355469 563.253906 565.496094 573.40625 572.121094 581.449219 C 559.976562 594.300781 546.460938 605.695312 531.765625 615.46875 C 523.222656 605.238281 510.535156 598.582031 496.203125 598.582031 C 470.542969 598.582031 449.664062 619.460938 449.664062 645.121094 C 449.664062 646.621094 449.972656 648.023438 450.101562 649.484375 C 443.792969 650.78125 437.445312 651.8125 431.050781 652.578125 L 431.050781 521.3125 C 494.703125 508.339844 542.738281 451.945312 542.738281 384.511719 C 542.738281 375.085938 541.742188 365.738281 539.882812 356.589844 L 542.730469 356.589844 C 552.996094 356.589844 561.34375 348.242188 561.34375 337.976562 L 561.34375 282.132812 L 589.15625 282.132812 C 610.328125 310.304688 624.820312 343.011719 631.484375 377.476562 Z M 631.484375 377.476562 " fill-opacity="1" fill-rule="nonzero"/></g></svg>