<svg width="59" height="72" viewBox="0 0 59 72" fill="none" xmlns="http://www.w3.org/2000/svg">
<g clip-path="url(#clip0_149_1901)">
<path d="M53.6497 38.4447C53.8025 39.02 53.938 39.5952 54.1083 40.1601C54.4835 41.4111 54.3167 41.9101 53.3022 42.7071C53.1181 42.8527 52.9791 43.1299 52.934 43.3656C52.8054 44.0621 52.8679 44.821 52.6108 45.4586C52.0828 46.7859 51.9264 48.1097 52.0793 49.5166C52.2912 51.4641 51.5859 52.8122 49.689 53.2904C47.3265 53.8864 44.8771 54.1567 42.459 54.4963C41.5488 54.6246 40.6142 54.5656 39.69 54.583C37.9147 54.6176 37.1365 55.5671 37.5117 57.2721C38.4428 61.4895 39.3774 65.7033 40.3154 69.9207C40.6698 71.5182 40.298 71.9999 38.6756 71.9999C29.5139 71.9999 20.3558 71.9999 11.1941 71.9999C9.67586 71.9999 9.27979 71.5113 9.5751 70.0281C10.8988 63.333 12.2051 56.6379 13.5566 49.9463C13.6817 49.326 13.5566 49.0557 13.0251 48.7196C4.1622 43.1507 -0.131999 35.0556 2.32393e-05 24.6768C0.0556115 20.2654 1.81359 16.3149 4.28032 12.7144C8.31047 6.8371 13.5531 2.4638 20.592 0.762304C28.9059 -1.24415 36.4277 0.758838 42.9524 6.16828C48.9108 11.1099 51.9334 17.5901 52.326 25.3075C52.3468 25.7303 52.5344 26.2085 52.7985 26.5412C54.2542 28.3674 55.8106 30.1175 57.2281 31.9714C57.8813 32.8274 58.4511 33.8081 58.7916 34.8234C59.4899 36.9026 58.3712 38.3754 56.1893 38.4413C55.4111 38.4655 54.6363 38.4447 53.6497 38.4447ZM51.6763 40.9363C51.579 39.7997 51.3497 38.7947 51.4435 37.8244C51.572 36.4729 52.2565 35.9843 53.608 36.0017C54.3271 36.0121 55.0463 36.1229 55.769 36.1472C56.7174 36.1784 56.9189 35.9254 56.4569 35.0937C55.9739 34.217 55.3798 33.3888 54.7545 32.6056C53.3891 30.8902 51.9403 29.2407 50.6062 27.5011C50.2344 27.0159 49.9912 26.3125 49.9739 25.6991C49.7967 19.4545 47.6253 14.0069 43.213 9.599C37.1295 3.51727 29.7641 1.04993 21.2834 3.02173C14.7657 4.53609 9.89474 8.58711 6.20506 14.0624C3.75918 17.6941 2.08111 21.6654 2.29304 26.115C2.73775 35.4437 6.92424 42.6032 15.1513 47.2641C16.138 47.822 16.2909 48.1097 16.072 49.2186C15.0679 54.3023 14.0534 59.386 13.0494 64.4731C12.7158 66.1608 12.3962 67.8484 12.0592 69.5915H37.8C37.7549 69.3177 37.734 69.1202 37.6923 68.9296C36.8377 65.0207 35.9378 61.1187 35.1353 57.1993C34.6246 54.6973 36.5424 52.3825 39.0994 52.275C39.5337 52.2577 39.9715 52.3062 40.3988 52.2577C43.008 51.977 45.6241 51.7587 48.2159 51.3567C49.6959 51.128 49.8523 50.823 49.7272 49.3676C49.5848 47.7215 49.8002 46.1621 50.4255 44.6304C50.568 44.2839 50.5332 43.7849 50.4047 43.421C50.0851 42.5096 50.1997 41.9482 50.9745 41.3903C51.2316 41.2066 51.506 41.0438 51.6728 40.9363H51.6763Z" fill="white"/>
<path d="M19.3412 11.8863C20.0395 12.3542 20.6753 12.7561 21.2798 13.1997C21.6134 13.4458 21.7975 13.8373 22.3742 13.6017C22.9371 13.373 22.8884 13.0022 22.8919 12.5725C22.9058 10.4725 23.7222 9.67197 25.8485 9.66504C26.8873 9.66504 27.9296 9.66504 28.9684 9.66504C31.1884 9.66504 31.9319 10.3997 31.9806 12.6002C31.9875 12.8532 31.9597 13.2136 32.1056 13.3314C32.4704 13.6225 32.9117 13.9586 33.3738 13.4111C33.5579 13.1928 33.7768 12.9953 33.9922 12.8047C35.0275 11.8933 36.2504 11.8725 37.2649 12.8185C38.2794 13.7611 39.2487 14.7522 40.2146 15.7433C41.3785 16.9354 41.3646 18.1829 40.2042 19.3889C40.0443 19.5552 39.8185 19.6904 39.7317 19.8879C39.6309 20.1131 39.5441 20.4389 39.6344 20.6399C39.7421 20.872 40.02 21.1077 40.2702 21.1735C40.6211 21.2706 41.0171 21.1874 41.3889 21.229C42.6674 21.3641 43.4943 22.2339 43.5221 23.5231C43.5534 24.9335 43.5464 26.3473 43.529 27.7612C43.5117 29.2686 42.6292 30.1731 41.1283 30.2667C40.8677 30.284 40.5898 30.2147 40.3536 30.2909C40.0965 30.3741 39.7525 30.5335 39.6726 30.7449C39.5788 30.9979 39.6726 31.3652 39.7873 31.6355C39.8845 31.8573 40.1451 32.0028 40.3223 32.1934C41.3159 33.2642 41.3403 34.5221 40.3292 35.5895C39.3947 36.5736 38.4253 37.5232 37.4525 38.4692C36.2539 39.6336 34.9997 39.6266 33.7907 38.4761C33.6239 38.3167 33.4884 38.0949 33.2938 38.0014C33.0715 37.8974 32.7519 37.8108 32.5538 37.8974C32.3176 38.0048 32.0709 38.2751 32.0014 38.5212C31.9007 38.8712 31.9806 39.2662 31.9424 39.637C31.8208 40.8534 31.039 41.7024 29.83 41.7544C28.2457 41.8237 26.651 41.8202 25.0668 41.7544C23.8925 41.7093 23.0969 40.9019 22.9266 39.741C22.8815 39.4291 22.8815 39.1068 22.8954 38.7915C22.9127 38.3618 22.9058 37.9217 22.3603 37.8939C22.0476 37.8801 21.6377 37.9563 21.4257 38.1539C19.7164 39.7445 18.7228 39.7514 17.0794 38.1157C16.3846 37.4227 15.6897 36.7296 14.9949 36.0365C13.3863 34.432 13.3898 33.4028 14.9497 31.7602C15.1547 31.5419 15.2693 31.1469 15.2624 30.8385C15.2485 30.329 14.8524 30.2632 14.3938 30.2597C12.073 30.2355 11.3261 29.4731 11.3226 27.1894C11.3226 26.0944 11.3087 24.9993 11.3226 23.9042C11.3469 22.0676 12.205 21.229 14.0534 21.1909C14.3904 21.1839 14.8455 21.229 15.0296 21.0419C15.3909 20.678 15.5542 20.2414 15.0296 19.7215C13.3272 18.0304 13.362 17.0393 15.0574 15.3482C15.8739 14.5339 16.6521 13.6745 17.5241 12.919C18.0001 12.5066 18.6324 12.2779 19.3412 11.8829V11.8863ZM13.7129 27.9033C14.5988 27.9033 15.4326 27.8825 16.2595 27.9171C16.468 27.9275 16.7841 28.0662 16.8501 28.229C17.3331 29.383 17.7639 30.5612 18.3198 32.0063C17.6944 32.5434 16.937 33.1949 16.263 33.7771C17.3261 34.8514 18.3128 35.8494 19.4663 37.0137C20.1125 36.2791 20.7865 35.5063 21.3389 34.8791C22.5688 35.3642 23.5972 35.8147 24.6603 36.1613C25.1536 36.3207 25.2787 36.5563 25.2613 37.0241C25.2301 37.8177 25.2544 38.6113 25.2544 39.4083H29.6389C29.6389 38.5212 29.6111 37.6895 29.6563 36.8613C29.6702 36.643 29.8613 36.3241 30.0524 36.2444C31.1606 35.7766 32.2898 35.3677 33.7281 34.8202C34.2354 35.4335 34.8885 36.2271 35.4687 36.9271C36.5979 35.8113 37.595 34.8236 38.7762 33.6558C38.0432 33.0251 37.2649 32.3528 36.6291 31.8053C37.1155 30.5578 37.5081 29.48 37.9702 28.4335C38.0744 28.1978 38.4219 27.9449 38.6755 27.9241C39.4989 27.8582 40.3292 27.8998 41.1735 27.8998V23.5369C40.2806 23.5369 39.4468 23.5577 38.6129 23.5231C38.4045 23.5127 38.0814 23.3706 38.0154 23.2042C37.5359 22.0468 37.1051 20.8686 36.5562 19.4235C37.1816 18.876 37.932 18.2176 38.6129 17.6215C37.5637 16.5785 36.5666 15.5874 35.3888 14.4195C34.7774 15.1542 34.1172 15.9443 33.5926 16.575C32.2898 16.0725 31.2093 15.6844 30.1566 15.227C29.9238 15.1265 29.6771 14.773 29.6598 14.52C29.5972 13.6987 29.6354 12.8705 29.6354 12.025H25.2509C25.2509 12.8774 25.2752 13.6779 25.237 14.475C25.2266 14.7175 25.1015 15.0953 24.9278 15.1715C23.7709 15.6601 22.5862 16.0829 21.1582 16.6235C20.5989 16.0067 19.9283 15.2685 19.296 14.572C18.2572 15.6047 17.2636 16.5992 16.1136 17.7463C16.871 18.3735 17.6631 19.0285 18.3163 19.5691C17.7083 21.028 17.1976 22.2443 16.6486 23.5612H13.7129V27.9067V27.9033Z" fill="white"/>
<path d="M34.1935 25.7305C34.1935 29.4627 31.164 32.4983 27.4361 32.4949C23.7221 32.4949 20.6543 29.435 20.6543 25.7305C20.6543 22.0156 23.7012 18.9799 27.4361 18.9834C31.1883 18.9834 34.1935 21.9809 34.197 25.7305H34.1935ZM27.4291 30.1419C29.9028 30.1419 31.8935 28.1493 31.8727 25.6924C31.8553 23.2805 29.8611 21.3087 27.4395 21.3087C24.9589 21.3087 22.9994 23.2805 23.0133 25.7651C23.0272 28.2082 24.9763 30.1419 27.4256 30.1419H27.4291Z" fill="white"/>
</g>
<defs>
<clipPath id="clip0_149_1901">
<rect width="59" height="72" fill="white"/>
</clipPath>
</defs>
</svg>
