<svg xmlns="http://www.w3.org/2000/svg" xmlns:xlink="http://www.w3.org/1999/xlink" width="1920" zoomAndPan="magnify" viewBox="0 0 1440 809.999993" height="1080" preserveAspectRatio="xMidYMid meet" version="1.0"><defs><clipPath id="37a1df6b43"><path d="M 602.53125 289.179688 L 835.78125 289.179688 L 835.78125 522.429688 L 602.53125 522.429688 Z M 602.53125 289.179688 " clip-rule="nonzero"/></clipPath></defs><path fill="#da2c27" d="M 882 405 C 882 407.652344 881.933594 410.300781 881.804688 412.949219 C 881.675781 415.597656 881.480469 418.242188 881.21875 420.878906 C 880.960938 423.515625 880.636719 426.148438 880.246094 428.769531 C 879.859375 431.394531 879.40625 434.003906 878.886719 436.605469 C 878.371094 439.203125 877.789062 441.789062 877.144531 444.363281 C 876.5 446.933594 875.792969 449.488281 875.023438 452.027344 C 874.253906 454.5625 873.421875 457.078125 872.53125 459.574219 C 871.636719 462.074219 870.683594 464.546875 869.667969 466.996094 C 868.652344 469.445312 867.578125 471.867188 866.445312 474.265625 C 865.3125 476.660156 864.121094 479.027344 862.871094 481.367188 C 861.621094 483.703125 860.316406 486.011719 858.953125 488.285156 C 857.589844 490.558594 856.171875 492.796875 854.699219 495.003906 C 853.226562 497.207031 851.699219 499.375 850.121094 501.503906 C 848.539062 503.632812 846.910156 505.722656 845.226562 507.773438 C 843.546875 509.820312 841.816406 511.828125 840.035156 513.792969 C 838.253906 515.757812 836.425781 517.675781 834.550781 519.550781 C 832.675781 521.425781 830.757812 523.253906 828.792969 525.035156 C 826.828125 526.816406 824.820312 528.546875 822.773438 530.226562 C 820.722656 531.910156 818.632812 533.539062 816.503906 535.121094 C 814.375 536.699219 812.207031 538.226562 810.003906 539.699219 C 807.796875 541.171875 805.558594 542.589844 803.285156 543.953125 C 801.011719 545.316406 798.703125 546.621094 796.367188 547.871094 C 794.027344 549.121094 791.660156 550.3125 789.265625 551.445312 C 786.867188 552.578125 784.445312 553.652344 781.996094 554.667969 C 779.546875 555.683594 777.074219 556.636719 774.574219 557.53125 C 772.078125 558.421875 769.5625 559.253906 767.027344 560.023438 C 764.488281 560.792969 761.933594 561.5 759.363281 562.144531 C 756.789062 562.789062 754.203125 563.371094 751.605469 563.886719 C 749.003906 564.40625 746.394531 564.859375 743.769531 565.246094 C 741.148438 565.636719 738.515625 565.960938 735.878906 566.21875 C 733.238281 566.480469 730.597656 566.675781 727.949219 566.804688 C 725.300781 566.933594 722.652344 567 720 567 C 717.347656 567 714.699219 566.933594 712.050781 566.804688 C 709.402344 566.675781 706.757812 566.480469 704.121094 566.21875 C 701.484375 565.960938 698.851562 565.636719 696.230469 565.246094 C 693.605469 564.859375 690.996094 564.40625 688.394531 563.886719 C 685.796875 563.371094 683.207031 562.789062 680.636719 562.144531 C 678.066406 561.5 675.511719 560.792969 672.972656 560.023438 C 670.4375 559.253906 667.921875 558.421875 665.421875 557.53125 C 662.925781 556.636719 660.453125 555.683594 658.003906 554.667969 C 655.554688 553.652344 653.132812 552.578125 650.734375 551.445312 C 648.339844 550.3125 645.972656 549.121094 643.632812 547.871094 C 641.296875 546.621094 638.988281 545.316406 636.714844 543.953125 C 634.441406 542.589844 632.203125 541.171875 629.996094 539.699219 C 627.792969 538.226562 625.625 536.699219 623.496094 535.121094 C 621.367188 533.539062 619.277344 531.910156 617.226562 530.226562 C 615.179688 528.546875 613.171875 526.816406 611.207031 525.035156 C 609.242188 523.253906 607.324219 521.425781 605.449219 519.550781 C 603.574219 517.675781 601.746094 515.757812 599.964844 513.792969 C 598.183594 511.828125 596.453125 509.820312 594.773438 507.773438 C 593.089844 505.722656 591.460938 503.632812 589.878906 501.503906 C 588.300781 499.375 586.773438 497.207031 585.300781 495.003906 C 583.828125 492.796875 582.410156 490.558594 581.046875 488.285156 C 579.683594 486.011719 578.378906 483.703125 577.128906 481.367188 C 575.878906 479.027344 574.6875 476.660156 573.554688 474.265625 C 572.421875 471.867188 571.347656 469.445312 570.332031 466.996094 C 569.316406 464.546875 568.363281 462.074219 567.46875 459.574219 C 566.578125 457.078125 565.746094 454.5625 564.976562 452.027344 C 564.207031 449.488281 563.5 446.933594 562.855469 444.363281 C 562.210938 441.789062 561.628906 439.203125 561.113281 436.605469 C 560.59375 434.003906 560.140625 431.394531 559.753906 428.769531 C 559.363281 426.148438 559.039062 423.515625 558.78125 420.878906 C 558.519531 418.242188 558.324219 415.597656 558.195312 412.949219 C 558.066406 410.300781 558 407.652344 558 405 C 558 402.347656 558.066406 399.699219 558.195312 397.050781 C 558.324219 394.402344 558.519531 391.757812 558.78125 389.121094 C 559.039062 386.484375 559.363281 383.851562 559.753906 381.230469 C 560.140625 378.605469 560.59375 375.996094 561.113281 373.394531 C 561.628906 370.796875 562.210938 368.210938 562.855469 365.636719 C 563.5 363.066406 564.207031 360.511719 564.976562 357.972656 C 565.746094 355.4375 566.578125 352.921875 567.46875 350.425781 C 568.363281 347.925781 569.316406 345.453125 570.332031 343.003906 C 571.347656 340.554688 572.421875 338.132812 573.554688 335.734375 C 574.6875 333.339844 575.878906 330.972656 577.128906 328.632812 C 578.378906 326.296875 579.683594 323.988281 581.046875 321.714844 C 582.410156 319.441406 583.828125 317.203125 585.300781 314.996094 C 586.773438 312.792969 588.300781 310.625 589.878906 308.496094 C 591.460938 306.367188 593.089844 304.277344 594.773438 302.226562 C 596.453125 300.179688 598.183594 298.171875 599.964844 296.207031 C 601.746094 294.242188 603.574219 292.324219 605.449219 290.449219 C 607.324219 288.574219 609.242188 286.746094 611.207031 284.964844 C 613.171875 283.183594 615.179688 281.453125 617.226562 279.773438 C 619.277344 278.089844 621.367188 276.460938 623.496094 274.878906 C 625.625 273.300781 627.792969 271.773438 629.996094 270.300781 C 632.203125 268.828125 634.441406 267.410156 636.714844 266.046875 C 638.988281 264.683594 641.296875 263.378906 643.632812 262.128906 C 645.972656 260.878906 648.339844 259.6875 650.734375 258.554688 C 653.132812 257.421875 655.554688 256.347656 658.003906 255.332031 C 660.453125 254.316406 662.925781 253.363281 665.421875 252.46875 C 667.921875 251.578125 670.4375 250.746094 672.972656 249.976562 C 675.511719 249.207031 678.066406 248.5 680.636719 247.855469 C 683.207031 247.210938 685.796875 246.628906 688.394531 246.113281 C 690.996094 245.59375 693.605469 245.140625 696.230469 244.753906 C 698.851562 244.363281 701.484375 244.039062 704.121094 243.78125 C 706.757812 243.519531 709.402344 243.324219 712.050781 243.195312 C 714.699219 243.066406 717.347656 243 720 243 C 722.652344 243 725.300781 243.066406 727.949219 243.195312 C 730.597656 243.324219 733.238281 243.519531 735.878906 243.78125 C 738.515625 244.039062 741.148438 244.363281 743.769531 244.753906 C 746.394531 245.140625 749.003906 245.59375 751.605469 246.113281 C 754.203125 246.628906 756.789062 247.210938 759.363281 247.855469 C 761.933594 248.5 764.488281 249.207031 767.027344 249.976562 C 769.5625 250.746094 772.078125 251.578125 774.574219 252.46875 C 777.074219 253.363281 779.546875 254.316406 781.996094 255.332031 C 784.445312 256.347656 786.867188 257.421875 789.265625 258.554688 C 791.660156 259.6875 794.027344 260.878906 796.367188 262.128906 C 798.703125 263.378906 801.011719 264.683594 803.285156 266.046875 C 805.558594 267.410156 807.796875 268.828125 810.003906 270.300781 C 812.207031 271.773438 814.375 273.300781 816.503906 274.878906 C 818.632812 276.460938 820.722656 278.089844 822.773438 279.773438 C 824.820312 281.453125 826.828125 283.183594 828.792969 284.964844 C 830.757812 286.746094 832.675781 288.574219 834.550781 290.449219 C 836.425781 292.324219 838.253906 294.242188 840.035156 296.207031 C 841.816406 298.171875 843.546875 300.179688 845.226562 302.226562 C 846.910156 304.277344 848.539062 306.367188 850.121094 308.496094 C 851.699219 310.625 853.226562 312.792969 854.699219 314.996094 C 856.171875 317.203125 857.589844 319.441406 858.953125 321.714844 C 860.316406 323.988281 861.621094 326.296875 862.871094 328.632812 C 864.121094 330.972656 865.3125 333.339844 866.445312 335.734375 C 867.578125 338.132812 868.652344 340.554688 869.667969 343.003906 C 870.683594 345.453125 871.636719 347.925781 872.53125 350.421875 C 873.421875 352.921875 874.253906 355.4375 875.023438 357.972656 C 875.792969 360.511719 876.5 363.066406 877.144531 365.636719 C 877.789062 368.210938 878.371094 370.796875 878.886719 373.394531 C 879.40625 375.996094 879.859375 378.605469 880.246094 381.230469 C 880.636719 383.851562 880.960938 386.484375 881.21875 389.121094 C 881.480469 391.757812 881.675781 394.402344 881.804688 397.050781 C 881.933594 399.699219 882 402.347656 882 405 Z M 882 405 " fill-opacity="1" fill-rule="nonzero"/><g clip-path="url(#37a1df6b43)"><path fill="#ffffff" d="M 719.25 522.617188 C 717.339844 522.617188 715.429688 522.570312 713.519531 522.476562 C 711.613281 522.382812 709.707031 522.242188 707.808594 522.054688 C 705.90625 521.867188 704.011719 521.636719 702.121094 521.355469 C 700.234375 521.074219 698.351562 520.746094 696.476562 520.375 C 694.605469 520.003906 692.742188 519.585938 690.886719 519.121094 C 689.035156 518.65625 687.195312 518.148438 685.367188 517.59375 C 683.539062 517.039062 681.726562 516.4375 679.925781 515.796875 C 678.128906 515.152344 676.347656 514.464844 674.582031 513.734375 C 672.816406 513.003906 671.070312 512.230469 669.34375 511.410156 C 667.617188 510.59375 665.914062 509.738281 664.226562 508.835938 C 662.542969 507.9375 660.882812 506.996094 659.242188 506.011719 C 657.605469 505.03125 655.992188 504.007812 654.402344 502.949219 C 652.816406 501.886719 651.253906 500.785156 649.71875 499.648438 C 648.183594 498.511719 646.679688 497.335938 645.203125 496.125 C 643.726562 494.914062 642.28125 493.664062 640.863281 492.382812 C 639.449219 491.097656 638.066406 489.78125 636.714844 488.433594 C 635.363281 487.082031 634.046875 485.699219 632.765625 484.28125 C 631.484375 482.867188 630.234375 481.421875 629.023438 479.945312 C 627.8125 478.46875 626.636719 476.964844 625.5 475.429688 C 624.359375 473.894531 623.261719 472.332031 622.199219 470.746094 C 621.140625 469.15625 620.117188 467.542969 619.136719 465.90625 C 618.152344 464.265625 617.210938 462.605469 616.3125 460.921875 C 615.410156 459.234375 614.550781 457.53125 613.734375 455.804688 C 612.917969 454.078125 612.144531 452.332031 611.414062 450.566406 C 610.683594 448.800781 609.996094 447.019531 609.351562 445.21875 C 608.710938 443.421875 608.109375 441.609375 607.554688 439.78125 C 607 437.953125 606.492188 436.113281 606.027344 434.257812 C 605.5625 432.40625 605.144531 430.542969 604.773438 428.671875 C 604.398438 426.796875 604.074219 424.914062 603.792969 423.027344 C 603.511719 421.136719 603.277344 419.242188 603.089844 417.339844 C 602.90625 415.4375 602.765625 413.535156 602.671875 411.625 C 602.578125 409.71875 602.53125 407.808594 602.53125 405.898438 C 602.53125 403.988281 602.578125 402.082031 602.671875 400.171875 C 602.765625 398.265625 602.90625 396.359375 603.089844 394.457031 C 603.277344 392.558594 603.511719 390.664062 603.792969 388.773438 C 604.074219 386.882812 604.398438 385.003906 604.773438 383.128906 C 605.144531 381.253906 605.5625 379.390625 606.027344 377.539062 C 606.492188 375.6875 607 373.84375 607.554688 372.019531 C 608.109375 370.191406 608.710938 368.375 609.351562 366.578125 C 609.996094 364.78125 610.683594 362.996094 611.414062 361.234375 C 612.144531 359.46875 612.917969 357.722656 613.734375 355.996094 C 614.550781 354.269531 615.410156 352.5625 616.3125 350.878906 C 617.210938 349.195312 618.152344 347.53125 619.136719 345.894531 C 620.117188 344.253906 621.140625 342.640625 622.199219 341.054688 C 623.261719 339.464844 624.359375 337.90625 625.5 336.371094 C 626.636719 334.835938 627.8125 333.332031 629.023438 331.855469 C 630.234375 330.378906 631.484375 328.929688 632.765625 327.515625 C 634.046875 326.101562 635.363281 324.71875 636.714844 323.367188 C 638.066406 322.015625 639.449219 320.699219 640.863281 319.417969 C 642.28125 318.132812 643.726562 316.886719 645.203125 315.675781 C 646.679688 314.460938 648.183594 313.289062 649.71875 312.148438 C 651.253906 311.011719 652.816406 309.914062 654.402344 308.851562 C 655.992188 307.789062 657.605469 306.769531 659.242188 305.785156 C 660.882812 304.804688 662.542969 303.863281 664.226562 302.960938 C 665.914062 302.0625 667.617188 301.203125 669.34375 300.386719 C 671.070312 299.570312 672.816406 298.796875 674.582031 298.066406 C 676.347656 297.335938 678.128906 296.648438 679.925781 296.003906 C 681.726562 295.359375 683.539062 294.761719 685.367188 294.207031 C 687.195312 293.652344 689.035156 293.144531 690.886719 292.679688 C 692.742188 292.214844 694.605469 291.796875 696.476562 291.421875 C 698.351562 291.050781 700.234375 290.722656 702.121094 290.445312 C 704.011719 290.164062 705.90625 289.929688 707.808594 289.742188 C 709.707031 289.554688 711.613281 289.414062 713.519531 289.320312 C 715.429688 289.226562 717.339844 289.179688 719.25 289.179688 C 721.160156 289.179688 723.066406 289.226562 724.976562 289.320312 C 726.882812 289.414062 728.789062 289.554688 730.6875 289.742188 C 732.589844 289.929688 734.484375 290.164062 736.375 290.445312 C 738.265625 290.722656 740.144531 291.050781 742.019531 291.421875 C 743.890625 291.796875 745.753906 292.214844 747.609375 292.679688 C 749.460938 293.144531 751.300781 293.652344 753.128906 294.207031 C 754.957031 294.761719 756.769531 295.359375 758.570312 296.003906 C 760.367188 296.648438 762.148438 297.335938 763.914062 298.066406 C 765.679688 298.796875 767.425781 299.570312 769.152344 300.386719 C 770.878906 301.203125 772.585938 302.0625 774.269531 302.960938 C 775.953125 303.863281 777.617188 304.804688 779.253906 305.785156 C 780.890625 306.769531 782.503906 307.789062 784.09375 308.851562 C 785.683594 309.914062 787.242188 311.011719 788.777344 312.148438 C 790.3125 313.289062 791.816406 314.460938 793.292969 315.675781 C 794.769531 316.886719 796.214844 318.132812 797.632812 319.417969 C 799.046875 320.699219 800.429688 322.015625 801.78125 323.367188 C 803.132812 324.71875 804.449219 326.101562 805.730469 327.515625 C 807.015625 328.929688 808.261719 330.378906 809.472656 331.855469 C 810.683594 333.332031 811.859375 334.835938 812.996094 336.371094 C 814.136719 337.90625 815.234375 339.464844 816.296875 341.054688 C 817.359375 342.640625 818.378906 344.253906 819.363281 345.894531 C 820.34375 347.53125 821.285156 349.195312 822.183594 350.878906 C 823.085938 352.5625 823.945312 354.269531 824.761719 355.996094 C 825.578125 357.722656 826.351562 359.46875 827.082031 361.234375 C 827.8125 362.996094 828.5 364.78125 829.144531 366.578125 C 829.789062 368.375 830.386719 370.191406 830.941406 372.019531 C 831.496094 373.84375 832.003906 375.6875 832.46875 377.539062 C 832.933594 379.390625 833.351562 381.253906 833.722656 383.128906 C 834.097656 385.003906 834.421875 386.882812 834.703125 388.773438 C 834.984375 390.664062 835.21875 392.558594 835.40625 394.457031 C 835.59375 396.359375 835.734375 398.265625 835.828125 400.171875 C 835.921875 402.082031 835.96875 403.988281 835.96875 405.898438 C 835.96875 407.808594 835.921875 409.71875 835.828125 411.625 C 835.734375 413.535156 835.59375 415.4375 835.40625 417.339844 C 835.21875 419.242188 834.984375 421.136719 834.703125 423.027344 C 834.421875 424.914062 834.097656 426.796875 833.722656 428.671875 C 833.351562 430.542969 832.933594 432.40625 832.46875 434.257812 C 832.003906 436.113281 831.496094 437.953125 830.941406 439.78125 C 830.386719 441.609375 829.789062 443.421875 829.144531 445.21875 C 828.5 447.019531 827.8125 448.800781 827.082031 450.566406 C 826.351562 452.332031 825.578125 454.078125 824.761719 455.804688 C 823.945312 457.53125 823.085938 459.234375 822.183594 460.921875 C 821.285156 462.605469 820.34375 464.265625 819.363281 465.90625 C 818.378906 467.542969 817.359375 469.15625 816.296875 470.746094 C 815.234375 472.332031 814.136719 473.894531 812.996094 475.429688 C 811.859375 476.964844 810.683594 478.46875 809.472656 479.945312 C 808.261719 481.421875 807.015625 482.867188 805.730469 484.28125 C 804.449219 485.699219 803.132812 487.082031 801.78125 488.433594 C 800.429688 489.78125 799.046875 491.097656 797.632812 492.382812 C 796.214844 493.664062 794.769531 494.914062 793.292969 496.125 C 791.816406 497.335938 790.3125 498.511719 788.777344 499.648438 C 787.242188 500.785156 785.683594 501.886719 784.09375 502.949219 C 782.503906 504.007812 780.890625 505.03125 779.253906 506.011719 C 777.617188 506.996094 775.953125 507.9375 774.269531 508.835938 C 772.585938 509.738281 770.878906 510.59375 769.152344 511.410156 C 767.425781 512.230469 765.679688 513.003906 763.914062 513.734375 C 762.148438 514.464844 760.367188 515.152344 758.570312 515.796875 C 756.769531 516.4375 754.957031 517.039062 753.128906 517.59375 C 751.300781 518.148438 749.460938 518.65625 747.609375 519.121094 C 745.753906 519.585938 743.890625 520.003906 742.019531 520.375 C 740.144531 520.746094 738.265625 521.074219 736.375 521.355469 C 734.484375 521.636719 732.589844 521.867188 730.6875 522.054688 C 728.789062 522.242188 726.882812 522.382812 724.976562 522.476562 C 723.066406 522.570312 721.160156 522.617188 719.25 522.617188 Z M 719.25 303.769531 C 717.578125 303.769531 715.90625 303.8125 714.238281 303.894531 C 712.566406 303.976562 710.902344 304.097656 709.238281 304.261719 C 707.574219 304.425781 705.917969 304.628906 704.261719 304.875 C 702.609375 305.121094 700.964844 305.40625 699.324219 305.734375 C 697.683594 306.058594 696.054688 306.425781 694.433594 306.832031 C 692.8125 307.238281 691.203125 307.683594 689.601562 308.167969 C 688.003906 308.652344 686.414062 309.175781 684.84375 309.742188 C 683.269531 310.304688 681.710938 310.90625 680.164062 311.542969 C 678.621094 312.183594 677.09375 312.859375 675.582031 313.574219 C 674.070312 314.289062 672.578125 315.042969 671.105469 315.828125 C 669.632812 316.617188 668.175781 317.441406 666.742188 318.300781 C 665.308594 319.160156 663.898438 320.054688 662.507812 320.980469 C 661.117188 321.910156 659.753906 322.871094 658.410156 323.867188 C 657.066406 324.863281 655.75 325.890625 654.457031 326.953125 C 653.167969 328.011719 651.902344 329.105469 650.664062 330.226562 C 649.425781 331.347656 648.214844 332.5 647.03125 333.683594 C 645.851562 334.863281 644.699219 336.074219 643.574219 337.3125 C 642.453125 338.550781 641.363281 339.816406 640.300781 341.109375 C 639.242188 342.402344 638.214844 343.71875 637.21875 345.0625 C 636.222656 346.402344 635.261719 347.769531 634.332031 349.160156 C 633.402344 350.550781 632.507812 351.960938 631.648438 353.394531 C 630.789062 354.828125 629.964844 356.28125 629.179688 357.757812 C 628.390625 359.230469 627.640625 360.722656 626.925781 362.234375 C 626.210938 363.746094 625.535156 365.273438 624.894531 366.816406 C 624.253906 368.359375 623.652344 369.917969 623.089844 371.492188 C 622.527344 373.066406 622.003906 374.652344 621.515625 376.253906 C 621.03125 377.851562 620.585938 379.460938 620.179688 381.085938 C 619.773438 382.707031 619.40625 384.335938 619.082031 385.976562 C 618.753906 387.613281 618.46875 389.261719 618.226562 390.914062 C 617.980469 392.566406 617.773438 394.226562 617.609375 395.890625 C 617.449219 397.550781 617.324219 399.21875 617.242188 400.886719 C 617.160156 402.558594 617.121094 404.226562 617.121094 405.898438 C 617.121094 407.570312 617.160156 409.242188 617.242188 410.910156 C 617.324219 412.578125 617.449219 414.246094 617.609375 415.910156 C 617.773438 417.574219 617.980469 419.230469 618.226562 420.886719 C 618.46875 422.539062 618.753906 424.183594 619.082031 425.824219 C 619.40625 427.464844 619.773438 429.09375 620.179688 430.714844 C 620.585938 432.335938 621.03125 433.945312 621.515625 435.546875 C 622.003906 437.144531 622.527344 438.730469 623.089844 440.304688 C 623.652344 441.878906 624.253906 443.4375 624.894531 444.980469 C 625.535156 446.527344 626.210938 448.054688 626.925781 449.566406 C 627.640625 451.074219 628.390625 452.570312 629.179688 454.042969 C 629.964844 455.515625 630.789062 456.96875 631.648438 458.402344 C 632.507812 459.835938 633.402344 461.25 634.332031 462.640625 C 635.261719 464.027344 636.222656 465.394531 637.21875 466.738281 C 638.214844 468.078125 639.242188 469.398438 640.300781 470.6875 C 641.363281 471.980469 642.453125 473.246094 643.574219 474.484375 C 644.699219 475.722656 645.851562 476.933594 647.03125 478.117188 C 648.214844 479.296875 649.425781 480.449219 650.664062 481.570312 C 651.902344 482.695312 653.167969 483.785156 654.457031 484.847656 C 655.75 485.90625 657.066406 486.933594 658.410156 487.929688 C 659.753906 488.925781 661.117188 489.886719 662.507812 490.816406 C 663.898438 491.746094 665.308594 492.640625 666.742188 493.5 C 668.175781 494.359375 669.632812 495.179688 671.105469 495.96875 C 672.578125 496.757812 674.070312 497.507812 675.582031 498.222656 C 677.09375 498.9375 678.621094 499.613281 680.164062 500.253906 C 681.710938 500.894531 683.269531 501.496094 684.84375 502.058594 C 686.414062 502.621094 688.003906 503.144531 689.601562 503.628906 C 691.203125 504.117188 692.8125 504.5625 694.433594 504.96875 C 696.054688 505.375 697.683594 505.738281 699.324219 506.066406 C 700.964844 506.390625 702.609375 506.675781 704.261719 506.921875 C 705.917969 507.167969 707.574219 507.371094 709.238281 507.535156 C 710.902344 507.699219 712.566406 507.824219 714.238281 507.90625 C 715.90625 507.988281 717.578125 508.027344 719.25 508.027344 C 720.917969 508.027344 722.589844 507.988281 724.257812 507.90625 C 725.929688 507.824219 727.59375 507.699219 729.257812 507.535156 C 730.921875 507.371094 732.582031 507.167969 734.234375 506.921875 C 735.886719 506.675781 737.535156 506.390625 739.171875 506.066406 C 740.8125 505.738281 742.441406 505.375 744.0625 504.96875 C 745.683594 504.5625 747.296875 504.117188 748.894531 503.628906 C 750.496094 503.144531 752.082031 502.621094 753.65625 502.058594 C 755.226562 501.496094 756.789062 500.894531 758.332031 500.253906 C 759.875 499.613281 761.402344 498.9375 762.914062 498.222656 C 764.425781 497.507812 765.917969 496.757812 767.390625 495.96875 C 768.867188 495.179688 770.320312 494.359375 771.753906 493.5 C 773.1875 492.640625 774.597656 491.746094 775.988281 490.816406 C 777.378906 489.886719 778.742188 488.925781 780.085938 487.929688 C 781.429688 486.933594 782.746094 485.90625 784.039062 484.847656 C 785.332031 483.785156 786.59375 482.695312 787.832031 481.570312 C 789.074219 480.449219 790.28125 479.296875 791.464844 478.117188 C 792.644531 476.933594 793.796875 475.722656 794.921875 474.484375 C 796.042969 473.246094 797.136719 471.980469 798.195312 470.6875 C 799.253906 469.398438 800.285156 468.078125 801.277344 466.738281 C 802.273438 465.394531 803.238281 464.027344 804.164062 462.640625 C 805.09375 461.25 805.988281 459.835938 806.847656 458.402344 C 807.707031 456.96875 808.53125 455.515625 809.316406 454.042969 C 810.105469 452.570312 810.855469 451.074219 811.570312 449.566406 C 812.285156 448.054688 812.964844 446.527344 813.601562 444.980469 C 814.242188 443.4375 814.84375 441.878906 815.40625 440.304688 C 815.96875 438.730469 816.496094 437.144531 816.980469 435.546875 C 817.464844 433.945312 817.910156 432.335938 818.316406 430.714844 C 818.722656 429.09375 819.089844 427.464844 819.414062 425.824219 C 819.742188 424.183594 820.027344 422.539062 820.273438 420.886719 C 820.515625 419.230469 820.722656 417.574219 820.886719 415.910156 C 821.050781 414.246094 821.171875 412.578125 821.253906 410.910156 C 821.335938 409.242188 821.378906 407.570312 821.378906 405.898438 C 821.378906 404.226562 821.335938 402.558594 821.253906 400.886719 C 821.171875 399.21875 821.050781 397.550781 820.886719 395.890625 C 820.722656 394.226562 820.515625 392.566406 820.273438 390.914062 C 820.027344 389.261719 819.742188 387.613281 819.414062 385.976562 C 819.089844 384.335938 818.722656 382.707031 818.316406 381.085938 C 817.910156 379.460938 817.464844 377.851562 816.980469 376.253906 C 816.496094 374.652344 815.96875 373.066406 815.40625 371.492188 C 814.84375 369.917969 814.242188 368.359375 813.601562 366.816406 C 812.964844 365.273438 812.285156 363.746094 811.570312 362.234375 C 810.855469 360.722656 810.105469 359.230469 809.316406 357.757812 C 808.53125 356.28125 807.707031 354.828125 806.847656 353.394531 C 805.988281 351.960938 805.09375 350.550781 804.164062 349.160156 C 803.238281 347.769531 802.273438 346.402344 801.277344 345.0625 C 800.285156 343.71875 799.253906 342.402344 798.195312 341.109375 C 797.136719 339.816406 796.042969 338.550781 794.921875 337.3125 C 793.796875 336.074219 792.644531 334.863281 791.464844 333.683594 C 790.28125 332.5 789.074219 331.347656 787.832031 330.226562 C 786.59375 329.105469 785.332031 328.011719 784.039062 326.953125 C 782.746094 325.890625 781.429688 324.863281 780.085938 323.867188 C 778.742188 322.871094 777.378906 321.910156 775.988281 320.980469 C 774.597656 320.054688 773.1875 319.160156 771.753906 318.300781 C 770.320312 317.441406 768.867188 316.617188 767.390625 315.828125 C 765.917969 315.042969 764.425781 314.289062 762.914062 313.574219 C 761.402344 312.859375 759.875 312.183594 758.332031 311.542969 C 756.789062 310.90625 755.226562 310.304688 753.65625 309.742188 C 752.082031 309.175781 750.496094 308.652344 748.894531 308.167969 C 747.296875 307.683594 745.683594 307.238281 744.0625 306.832031 C 742.441406 306.425781 740.8125 306.058594 739.171875 305.734375 C 737.535156 305.40625 735.886719 305.121094 734.234375 304.875 C 732.582031 304.628906 730.921875 304.425781 729.257812 304.261719 C 727.59375 304.097656 725.929688 303.976562 724.257812 303.894531 C 722.589844 303.8125 720.917969 303.769531 719.25 303.769531 Z M 719.25 303.769531 " fill-opacity="1" fill-rule="nonzero"/></g><path fill="#ffffff" d="M 660.890625 391.308594 C 659.726562 391.324219 658.632812 391.054688 657.605469 390.507812 C 657.179688 390.289062 656.78125 390.035156 656.40625 389.738281 C 656.03125 389.445312 655.6875 389.117188 655.375 388.753906 C 655.066406 388.390625 654.792969 388 654.558594 387.585938 C 654.324219 387.167969 654.132812 386.734375 653.984375 386.28125 C 653.835938 385.828125 653.730469 385.363281 653.675781 384.890625 C 653.617188 384.417969 653.605469 383.941406 653.640625 383.464844 C 653.675781 382.988281 653.757812 382.523438 653.882812 382.0625 C 654.011719 381.601562 654.183594 381.160156 654.398438 380.730469 C 654.660156 380.214844 654.9375 379.703125 655.230469 379.203125 C 655.527344 378.703125 655.835938 378.210938 656.164062 377.730469 C 656.488281 377.25 656.828125 376.777344 657.183594 376.320312 C 657.539062 375.859375 657.910156 375.414062 658.292969 374.976562 C 658.679688 374.539062 659.074219 374.117188 659.488281 373.707031 C 659.898438 373.296875 660.320312 372.898438 660.757812 372.515625 C 661.195312 372.132812 661.640625 371.761719 662.101562 371.40625 C 662.5625 371.050781 663.03125 370.710938 663.515625 370.386719 C 663.996094 370.0625 664.488281 369.75 664.988281 369.457031 C 665.488281 369.164062 666 368.882812 666.515625 368.621094 C 667.035156 368.359375 667.5625 368.117188 668.097656 367.886719 C 668.632812 367.660156 669.171875 367.449219 669.71875 367.253906 C 670.265625 367.0625 670.820312 366.882812 671.378906 366.726562 C 671.9375 366.566406 672.503906 366.425781 673.070312 366.304688 C 673.636719 366.179688 674.207031 366.074219 674.785156 365.988281 C 675.359375 365.902344 675.933594 365.835938 676.511719 365.785156 C 677.09375 365.734375 677.671875 365.703125 678.253906 365.6875 C 678.832031 365.675781 679.414062 365.679688 679.996094 365.707031 C 680.574219 365.730469 681.15625 365.769531 681.734375 365.832031 C 682.308594 365.890625 682.886719 365.972656 683.457031 366.070312 C 684.03125 366.164062 684.601562 366.28125 685.167969 366.414062 C 685.730469 366.546875 686.292969 366.699219 686.847656 366.867188 C 687.402344 367.035156 687.953125 367.222656 688.5 367.425781 C 689.042969 367.628906 689.578125 367.851562 690.109375 368.089844 C 690.640625 368.328125 691.160156 368.582031 691.675781 368.851562 C 692.1875 369.125 692.695312 369.410156 693.1875 369.714844 C 693.683594 370.019531 694.171875 370.335938 694.644531 370.671875 C 695.121094 371.003906 695.585938 371.355469 696.039062 371.71875 C 696.492188 372.082031 696.933594 372.457031 697.363281 372.851562 C 697.792969 373.242188 698.207031 373.648438 698.609375 374.066406 C 699.015625 374.484375 699.402344 374.914062 699.78125 375.355469 C 700.15625 375.800781 700.519531 376.253906 700.863281 376.71875 L 703.199219 379.785156 C 703.488281 380.167969 703.734375 380.574219 703.941406 381.007812 C 704.148438 381.4375 704.3125 381.886719 704.429688 382.351562 C 704.550781 382.8125 704.621094 383.285156 704.648438 383.761719 C 704.671875 384.242188 704.652344 384.71875 704.585938 385.191406 C 704.515625 385.667969 704.402344 386.128906 704.246094 386.582031 C 704.085938 387.03125 703.882812 387.464844 703.640625 387.878906 C 703.398438 388.289062 703.113281 388.671875 702.796875 389.03125 C 702.476562 389.386719 702.125 389.710938 701.742188 389.996094 C 701.355469 390.285156 700.949219 390.53125 700.519531 390.738281 C 700.085938 390.945312 699.636719 391.109375 699.175781 391.226562 C 698.710938 391.347656 698.238281 391.417969 697.761719 391.445312 C 697.28125 391.46875 696.804688 391.449219 696.332031 391.382812 C 695.859375 391.3125 695.394531 391.199219 694.941406 391.042969 C 694.492188 390.882812 694.058594 390.679688 693.648438 390.4375 C 693.234375 390.195312 692.851562 389.910156 692.492188 389.59375 C 692.136719 389.273438 691.816406 388.921875 691.527344 388.539062 L 689.191406 385.472656 C 688.546875 384.582031 687.796875 383.792969 686.941406 383.097656 C 686.085938 382.40625 685.15625 381.835938 684.152344 381.386719 C 683.144531 380.9375 682.097656 380.628906 681.011719 380.457031 C 679.925781 380.28125 678.835938 380.253906 677.742188 380.367188 C 676.632812 380.46875 675.558594 380.710938 674.515625 381.09375 C 673.472656 381.476562 672.496094 381.988281 671.585938 382.628906 C 670.675781 383.269531 669.867188 384.015625 669.152344 384.871094 C 668.441406 385.722656 667.851562 386.652344 667.382812 387.660156 C 667.054688 388.230469 666.65625 388.742188 666.191406 389.203125 C 665.726562 389.664062 665.207031 390.054688 664.636719 390.375 C 664.066406 390.699219 663.460938 390.9375 662.824219 391.09375 C 662.1875 391.253906 661.542969 391.324219 660.890625 391.308594 Z M 660.890625 391.308594 " fill-opacity="1" fill-rule="nonzero"/><path fill="#ffffff" d="M 777.609375 391.308594 C 776.933594 391.308594 776.273438 391.214844 775.625 391.027344 C 774.976562 390.84375 774.367188 390.574219 773.796875 390.21875 C 773.222656 389.867188 772.707031 389.441406 772.253906 388.945312 C 771.796875 388.449219 771.417969 387.898438 771.117188 387.296875 C 770.648438 386.289062 770.054688 385.359375 769.34375 384.503906 C 768.632812 383.652344 767.820312 382.90625 766.910156 382.265625 C 766.003906 381.625 765.027344 381.113281 763.984375 380.730469 C 762.9375 380.347656 761.863281 380.101562 760.757812 380.003906 C 759.660156 379.886719 758.570312 379.917969 757.484375 380.089844 C 756.398438 380.261719 755.351562 380.574219 754.347656 381.023438 C 753.339844 381.46875 752.410156 382.039062 751.554688 382.734375 C 750.699219 383.425781 749.949219 384.21875 749.304688 385.109375 L 746.96875 388.171875 C 746.683594 388.554688 746.359375 388.90625 746.003906 389.226562 C 745.644531 389.546875 745.261719 389.828125 744.851562 390.074219 C 744.4375 390.316406 744.003906 390.519531 743.554688 390.675781 C 743.101562 390.835938 742.640625 390.949219 742.164062 391.015625 C 741.691406 391.085938 741.214844 391.105469 740.734375 391.078125 C 740.257812 391.054688 739.785156 390.980469 739.324219 390.863281 C 738.859375 390.742188 738.410156 390.582031 737.980469 390.375 C 737.546875 390.167969 737.140625 389.917969 736.757812 389.632812 C 736.371094 389.34375 736.023438 389.023438 735.703125 388.664062 C 735.382812 388.308594 735.101562 387.925781 734.855469 387.511719 C 734.613281 387.101562 734.410156 386.667969 734.25 386.214844 C 734.09375 385.765625 733.980469 385.300781 733.910156 384.828125 C 733.84375 384.351562 733.824219 383.878906 733.847656 383.398438 C 733.875 382.921875 733.949219 382.449219 734.066406 381.984375 C 734.183594 381.519531 734.347656 381.074219 734.554688 380.640625 C 734.761719 380.210938 735.011719 379.800781 735.296875 379.417969 L 737.632812 376.355469 C 737.980469 375.890625 738.34375 375.4375 738.71875 374.996094 C 739.097656 374.550781 739.488281 374.121094 739.894531 373.707031 C 740.296875 373.289062 740.714844 372.882812 741.148438 372.492188 C 741.578125 372.101562 742.019531 371.726562 742.472656 371.363281 C 742.929688 371 743.394531 370.652344 743.871094 370.320312 C 744.347656 369.988281 744.832031 369.671875 745.328125 369.367188 C 745.828125 369.066406 746.332031 368.78125 746.847656 368.511719 C 747.363281 368.242188 747.886719 367.988281 748.414062 367.75 C 748.945312 367.515625 749.484375 367.296875 750.03125 367.09375 C 750.574219 366.890625 751.125 366.707031 751.683594 366.539062 C 752.238281 366.371094 752.800781 366.222656 753.367188 366.089844 C 753.933594 365.957031 754.503906 365.84375 755.074219 365.75 C 755.648438 365.652344 756.226562 365.578125 756.804688 365.515625 C 757.382812 365.457031 757.960938 365.417969 758.542969 365.394531 C 759.121094 365.375 759.703125 365.371094 760.285156 365.386719 C 760.867188 365.402344 761.445312 365.433594 762.023438 365.484375 C 762.605469 365.539062 763.179688 365.609375 763.753906 365.695312 C 764.328125 365.785156 764.898438 365.890625 765.46875 366.015625 C 766.035156 366.140625 766.597656 366.285156 767.15625 366.445312 C 767.714844 366.605469 768.269531 366.78125 768.816406 366.976562 C 769.363281 367.175781 769.90625 367.386719 770.4375 367.617188 C 770.972656 367.847656 771.496094 368.09375 772.015625 368.359375 C 772.535156 368.621094 773.042969 368.902344 773.542969 369.195312 C 774.042969 369.492188 774.535156 369.804688 775.015625 370.132812 C 775.496094 370.457031 775.964844 370.800781 776.421875 371.15625 C 776.882812 371.515625 777.328125 371.886719 777.765625 372.269531 C 778.199219 372.65625 778.621094 373.054688 779.03125 373.46875 C 779.441406 373.878906 779.839844 374.304688 780.222656 374.742188 C 780.605469 375.179688 780.972656 375.628906 781.328125 376.089844 C 781.679688 376.550781 782.019531 377.019531 782.34375 377.503906 C 782.667969 377.984375 782.976562 378.480469 783.269531 378.980469 C 783.5625 379.484375 783.839844 379.992188 784.101562 380.511719 C 784.316406 380.941406 784.484375 381.382812 784.613281 381.84375 C 784.738281 382.304688 784.820312 382.769531 784.855469 383.246094 C 784.890625 383.722656 784.878906 384.199219 784.824219 384.671875 C 784.765625 385.144531 784.660156 385.609375 784.511719 386.0625 C 784.363281 386.515625 784.171875 386.949219 783.9375 387.367188 C 783.703125 387.78125 783.429688 388.171875 783.121094 388.535156 C 782.808594 388.898438 782.464844 389.226562 782.089844 389.519531 C 781.714844 389.816406 781.316406 390.070312 780.890625 390.289062 C 779.886719 390.914062 778.792969 391.253906 777.609375 391.308594 Z M 777.609375 391.308594 " fill-opacity="1" fill-rule="nonzero"/><path fill="#ffffff" d="M 719.25 463.820312 C 717.070312 463.839844 714.902344 463.710938 712.746094 463.433594 C 710.585938 463.15625 708.453125 462.738281 706.351562 462.175781 C 704.25 461.613281 702.195312 460.910156 700.1875 460.070312 C 698.179688 459.230469 696.238281 458.257812 694.359375 457.152344 C 692.484375 456.050781 690.691406 454.828125 688.980469 453.480469 C 687.265625 452.136719 685.652344 450.683594 684.140625 449.121094 C 682.625 447.558594 681.222656 445.898438 679.929688 444.148438 C 678.640625 442.394531 677.472656 440.5625 676.425781 438.652344 C 676.1875 438.238281 675.992188 437.800781 675.835938 437.34375 C 675.683594 436.890625 675.578125 436.421875 675.515625 435.945312 C 675.453125 435.46875 675.4375 434.992188 675.46875 434.511719 C 675.503906 434.035156 675.582031 433.5625 675.707031 433.097656 C 675.832031 432.632812 676 432.1875 676.214844 431.753906 C 676.429688 431.324219 676.683594 430.917969 676.976562 430.539062 C 677.269531 430.15625 677.597656 429.808594 677.957031 429.492188 C 678.320312 429.175781 678.710938 428.898438 679.125 428.660156 C 679.542969 428.421875 679.980469 428.222656 680.433594 428.070312 C 680.890625 427.917969 681.355469 427.808594 681.832031 427.746094 C 682.308594 427.683594 682.789062 427.671875 683.265625 427.703125 C 683.746094 427.734375 684.21875 427.8125 684.683594 427.9375 C 685.144531 428.066406 685.59375 428.234375 686.023438 428.449219 C 686.453125 428.660156 686.859375 428.914062 687.242188 429.207031 C 687.621094 429.5 687.96875 429.828125 688.285156 430.191406 C 688.601562 430.550781 688.882812 430.941406 689.121094 431.359375 C 689.863281 432.699219 690.6875 433.980469 691.601562 435.210938 C 692.511719 436.441406 693.503906 437.605469 694.570312 438.699219 C 695.636719 439.796875 696.773438 440.820312 697.976562 441.765625 C 699.179688 442.710938 700.441406 443.574219 701.761719 444.351562 C 703.078125 445.128906 704.445312 445.8125 705.855469 446.410156 C 707.265625 447.003906 708.707031 447.503906 710.183594 447.90625 C 711.660156 448.308594 713.160156 448.613281 714.675781 448.816406 C 716.195312 449.019531 717.71875 449.121094 719.25 449.121094 C 720.777344 449.121094 722.304688 449.019531 723.820312 448.816406 C 725.335938 448.613281 726.835938 448.308594 728.3125 447.90625 C 729.789062 447.503906 731.230469 447.003906 732.640625 446.410156 C 734.050781 445.8125 735.417969 445.128906 736.734375 444.351562 C 738.054688 443.574219 739.316406 442.710938 740.519531 441.765625 C 741.722656 440.820312 742.859375 439.796875 743.925781 438.699219 C 744.992188 437.605469 745.984375 436.441406 746.894531 435.210938 C 747.808594 433.980469 748.636719 432.699219 749.375 431.359375 C 749.617188 430.941406 749.894531 430.550781 750.210938 430.191406 C 750.527344 429.828125 750.875 429.5 751.253906 429.207031 C 751.636719 428.914062 752.042969 428.660156 752.472656 428.449219 C 752.902344 428.234375 753.351562 428.066406 753.8125 427.9375 C 754.277344 427.8125 754.75 427.734375 755.230469 427.703125 C 755.710938 427.671875 756.1875 427.683594 756.664062 427.746094 C 757.140625 427.808594 757.605469 427.917969 758.0625 428.070312 C 758.519531 428.222656 758.953125 428.421875 759.371094 428.660156 C 759.789062 428.898438 760.175781 429.175781 760.539062 429.492188 C 760.902344 429.808594 761.226562 430.15625 761.523438 430.539062 C 761.816406 430.917969 762.066406 431.324219 762.28125 431.753906 C 762.496094 432.1875 762.664062 432.632812 762.789062 433.097656 C 762.914062 433.5625 762.992188 434.035156 763.027344 434.511719 C 763.058594 434.992188 763.042969 435.46875 762.980469 435.945312 C 762.921875 436.421875 762.8125 436.890625 762.660156 437.34375 C 762.503906 437.800781 762.308594 438.238281 762.070312 438.652344 C 761.027344 440.5625 759.859375 442.394531 758.566406 444.148438 C 757.277344 445.898438 755.871094 447.558594 754.359375 449.121094 C 752.84375 450.683594 751.230469 452.136719 749.519531 453.480469 C 747.808594 454.828125 746.011719 456.050781 744.136719 457.152344 C 742.261719 458.257812 740.316406 459.230469 738.308594 460.070312 C 736.300781 460.910156 734.246094 461.613281 732.144531 462.175781 C 730.042969 462.738281 727.910156 463.15625 725.753906 463.433594 C 723.59375 463.710938 721.425781 463.839844 719.25 463.820312 Z M 719.25 463.820312 " fill-opacity="1" fill-rule="nonzero"/></svg>