<svg xmlns="http://www.w3.org/2000/svg" xmlns:xlink="http://www.w3.org/1999/xlink" width="1080" zoomAndPan="magnify" viewBox="0 0 810 809.999993" height="1080" preserveAspectRatio="xMidYMid meet" version="1.0"><defs><clipPath id="50f407182c"><path d="M 111.324219 115.453125 L 694.449219 115.453125 L 694.449219 698.578125 L 111.324219 698.578125 Z M 111.324219 115.453125 " clip-rule="nonzero"/></clipPath></defs><path fill="#da2c27" d="M 810 405 C 810 411.628906 809.835938 418.253906 809.511719 424.871094 C 809.1875 431.492188 808.699219 438.101562 808.050781 444.695312 C 807.398438 451.292969 806.589844 457.871094 805.617188 464.425781 C 804.644531 470.980469 803.511719 477.511719 802.21875 484.011719 C 800.925781 490.511719 799.472656 496.976562 797.863281 503.40625 C 796.253906 509.835938 794.484375 516.222656 792.5625 522.566406 C 790.636719 528.90625 788.558594 535.199219 786.324219 541.441406 C 784.09375 547.679688 781.707031 553.863281 779.171875 559.988281 C 776.632812 566.109375 773.949219 572.167969 771.117188 578.160156 C 768.28125 584.152344 765.300781 590.070312 762.179688 595.914062 C 759.054688 601.761719 755.789062 607.527344 752.378906 613.210938 C 748.972656 618.898438 745.425781 624.496094 741.746094 630.007812 C 738.0625 635.515625 734.246094 640.933594 730.300781 646.257812 C 726.351562 651.582031 722.273438 656.804688 718.070312 661.929688 C 713.863281 667.054688 709.535156 672.070312 705.085938 676.980469 C 700.632812 681.890625 696.066406 686.691406 691.378906 691.378906 C 686.691406 696.066406 681.890625 700.632812 676.980469 705.085938 C 672.070312 709.535156 667.054688 713.863281 661.929688 718.070312 C 656.804688 722.273438 651.582031 726.351562 646.257812 730.300781 C 640.933594 734.246094 635.515625 738.0625 630.007812 741.746094 C 624.496094 745.425781 618.898438 748.972656 613.210938 752.378906 C 607.527344 755.789062 601.761719 759.054688 595.914062 762.179688 C 590.070312 765.300781 584.152344 768.28125 578.160156 771.117188 C 572.167969 773.949219 566.109375 776.632812 559.988281 779.171875 C 553.863281 781.707031 547.679688 784.09375 541.441406 786.324219 C 535.199219 788.558594 528.90625 790.636719 522.566406 792.5625 C 516.222656 794.484375 509.835938 796.253906 503.40625 797.863281 C 496.976562 799.472656 490.511719 800.925781 484.011719 802.21875 C 477.511719 803.511719 470.980469 804.644531 464.425781 805.617188 C 457.871094 806.589844 451.292969 807.398438 444.695312 808.050781 C 438.101562 808.699219 431.492188 809.1875 424.871094 809.511719 C 418.253906 809.835938 411.628906 810 405 810 C 398.371094 810 391.746094 809.835938 385.128906 809.511719 C 378.507812 809.1875 371.898438 808.699219 365.304688 808.050781 C 358.707031 807.398438 352.128906 806.589844 345.574219 805.617188 C 339.019531 804.644531 332.488281 803.511719 325.988281 802.21875 C 319.488281 800.925781 313.023438 799.472656 306.59375 797.863281 C 300.164062 796.253906 293.777344 794.484375 287.433594 792.5625 C 281.09375 790.636719 274.800781 788.558594 268.558594 786.324219 C 262.320312 784.09375 256.136719 781.707031 250.011719 779.171875 C 243.890625 776.632812 237.832031 773.949219 231.839844 771.117188 C 225.847656 768.28125 219.929688 765.300781 214.085938 762.179688 C 208.238281 759.054688 202.472656 755.789062 196.789062 752.378906 C 191.101562 748.972656 185.503906 745.425781 179.992188 741.746094 C 174.484375 738.0625 169.066406 734.246094 163.742188 730.300781 C 158.417969 726.351562 153.195312 722.273438 148.070312 718.070312 C 142.945312 713.863281 137.929688 709.535156 133.019531 705.085938 C 128.109375 700.632812 123.308594 696.066406 118.621094 691.378906 C 113.933594 686.691406 109.367188 681.890625 104.914062 676.980469 C 100.464844 672.070312 96.136719 667.054688 91.929688 661.929688 C 87.726562 656.804688 83.648438 651.582031 79.699219 646.257812 C 75.753906 640.933594 71.9375 635.515625 68.253906 630.007812 C 64.574219 624.496094 61.027344 618.898438 57.621094 613.210938 C 54.210938 607.527344 50.945312 601.761719 47.820312 595.914062 C 44.699219 590.070312 41.71875 584.152344 38.882812 578.160156 C 36.050781 572.167969 33.363281 566.109375 30.828125 559.988281 C 28.292969 553.863281 25.90625 547.679688 23.675781 541.441406 C 21.441406 535.199219 19.363281 528.90625 17.4375 522.566406 C 15.515625 516.222656 13.746094 509.835938 12.136719 503.40625 C 10.527344 496.976562 9.074219 490.511719 7.78125 484.011719 C 6.488281 477.511719 5.355469 470.980469 4.382812 464.425781 C 3.410156 457.871094 2.601562 451.292969 1.949219 444.695312 C 1.300781 438.101562 0.8125 431.492188 0.488281 424.871094 C 0.164062 418.253906 0 411.628906 0 405 C 0 398.371094 0.164062 391.746094 0.488281 385.128906 C 0.8125 378.507812 1.300781 371.898438 1.949219 365.304688 C 2.601562 358.707031 3.410156 352.128906 4.382812 345.574219 C 5.355469 339.019531 6.488281 332.488281 7.78125 325.988281 C 9.074219 319.488281 10.527344 313.023438 12.136719 306.59375 C 13.746094 300.164062 15.515625 293.777344 17.4375 287.433594 C 19.363281 281.09375 21.441406 274.800781 23.675781 268.558594 C 25.90625 262.320312 28.292969 256.136719 30.828125 250.011719 C 33.363281 243.890625 36.050781 237.832031 38.882812 231.839844 C 41.71875 225.847656 44.699219 219.929688 47.820312 214.085938 C 50.945312 208.238281 54.210938 202.472656 57.621094 196.789062 C 61.027344 191.101562 64.574219 185.503906 68.253906 179.992188 C 71.9375 174.484375 75.753906 169.066406 79.699219 163.742188 C 83.648438 158.417969 87.726562 153.195312 91.929688 148.070312 C 96.136719 142.945312 100.464844 137.929688 104.914062 133.019531 C 109.367188 128.109375 113.933594 123.308594 118.621094 118.621094 C 123.308594 113.933594 128.109375 109.367188 133.019531 104.914062 C 137.929688 100.464844 142.945312 96.136719 148.070312 91.929688 C 153.195312 87.726562 158.417969 83.648438 163.742188 79.699219 C 169.066406 75.753906 174.484375 71.9375 179.992188 68.253906 C 185.503906 64.574219 191.101562 61.027344 196.789062 57.621094 C 202.472656 54.210938 208.238281 50.945312 214.085938 47.820312 C 219.929688 44.699219 225.847656 41.71875 231.839844 38.882812 C 237.832031 36.050781 243.890625 33.367188 250.011719 30.828125 C 256.136719 28.292969 262.320312 25.90625 268.558594 23.675781 C 274.800781 21.441406 281.09375 19.363281 287.433594 17.4375 C 293.777344 15.515625 300.164062 13.746094 306.59375 12.136719 C 313.023438 10.527344 319.488281 9.074219 325.988281 7.78125 C 332.488281 6.488281 339.019531 5.355469 345.574219 4.382812 C 352.128906 3.410156 358.707031 2.601562 365.304688 1.949219 C 371.898438 1.300781 378.507812 0.8125 385.128906 0.488281 C 391.746094 0.164062 398.371094 0 405 0 C 411.628906 0 418.253906 0.164062 424.871094 0.488281 C 431.492188 0.8125 438.101562 1.300781 444.695312 1.949219 C 451.292969 2.601562 457.871094 3.410156 464.425781 4.382812 C 470.980469 5.355469 477.511719 6.488281 484.011719 7.78125 C 490.511719 9.074219 496.976562 10.527344 503.40625 12.136719 C 509.835938 13.746094 516.222656 15.515625 522.566406 17.4375 C 528.90625 19.363281 535.199219 21.441406 541.441406 23.675781 C 547.679688 25.90625 553.863281 28.292969 559.988281 30.828125 C 566.109375 33.367188 572.167969 36.050781 578.160156 38.882812 C 584.152344 41.71875 590.070312 44.699219 595.914062 47.820312 C 601.761719 50.945312 607.527344 54.210938 613.210938 57.621094 C 618.898438 61.027344 624.496094 64.574219 630.007812 68.253906 C 635.515625 71.9375 640.933594 75.753906 646.257812 79.699219 C 651.582031 83.648438 656.804688 87.726562 661.929688 91.929688 C 667.054688 96.136719 672.070312 100.464844 676.980469 104.914062 C 681.890625 109.367188 686.691406 113.933594 691.378906 118.621094 C 696.066406 123.308594 700.632812 128.109375 705.085938 133.019531 C 709.535156 137.929688 713.863281 142.945312 718.070312 148.070312 C 722.273438 153.195312 726.351562 158.417969 730.300781 163.742188 C 734.246094 169.066406 738.0625 174.484375 741.746094 179.992188 C 745.425781 185.503906 748.972656 191.101562 752.378906 196.789062 C 755.789062 202.472656 759.054688 208.238281 762.179688 214.085938 C 765.300781 219.929688 768.28125 225.847656 771.117188 231.839844 C 773.949219 237.832031 776.632812 243.890625 779.171875 250.011719 C 781.707031 256.136719 784.09375 262.320312 786.324219 268.558594 C 788.558594 274.800781 790.636719 281.09375 792.5625 287.433594 C 794.484375 293.777344 796.253906 300.164062 797.863281 306.59375 C 799.472656 313.023438 800.925781 319.488281 802.21875 325.988281 C 803.511719 332.488281 804.644531 339.019531 805.617188 345.574219 C 806.589844 352.128906 807.398438 358.707031 808.050781 365.304688 C 808.699219 371.898438 809.1875 378.507812 809.511719 385.128906 C 809.835938 391.746094 810 398.371094 810 405 Z M 810 405 " fill-opacity="1" fill-rule="nonzero"/><g clip-path="url(#50f407182c)"><path fill="#ffffff" d="M 403.121094 699.046875 C 398.34375 699.046875 393.574219 698.929688 388.804688 698.695312 C 384.035156 698.460938 379.273438 698.109375 374.519531 697.640625 C 369.765625 697.171875 365.027344 696.585938 360.304688 695.886719 C 355.582031 695.1875 350.878906 694.371094 346.195312 693.4375 C 341.511719 692.507812 336.851562 691.460938 332.21875 690.300781 C 327.585938 689.140625 322.988281 687.867188 318.417969 686.480469 C 313.847656 685.09375 309.3125 683.597656 304.816406 681.988281 C 300.320312 680.378906 295.867188 678.660156 291.457031 676.832031 C 287.042969 675.007812 282.679688 673.070312 278.363281 671.03125 C 274.042969 668.988281 269.78125 666.839844 265.570312 664.589844 C 261.355469 662.339844 257.203125 659.984375 253.105469 657.53125 C 249.011719 655.074219 244.976562 652.523438 241.007812 649.867188 C 237.035156 647.214844 233.132812 644.464844 229.296875 641.621094 C 225.460938 638.777344 221.699219 635.839844 218.007812 632.808594 C 214.316406 629.78125 210.699219 626.664062 207.164062 623.457031 C 203.625 620.25 200.167969 616.957031 196.789062 613.578125 C 193.414062 610.203125 190.121094 606.746094 186.914062 603.207031 C 183.707031 599.667969 180.589844 596.054688 177.558594 592.363281 C 174.53125 588.671875 171.59375 584.90625 168.746094 581.070312 C 165.902344 577.234375 163.152344 573.332031 160.5 569.363281 C 157.847656 565.390625 155.292969 561.359375 152.839844 557.261719 C 150.382812 553.164062 148.03125 549.011719 145.777344 544.800781 C 143.527344 540.589844 141.382812 536.324219 139.339844 532.007812 C 137.296875 527.691406 135.363281 523.324219 133.535156 518.914062 C 131.707031 514.503906 129.988281 510.046875 128.382812 505.550781 C 126.773438 501.054688 125.273438 496.523438 123.890625 491.953125 C 122.503906 487.382812 121.230469 482.78125 120.070312 478.148438 C 118.910156 473.515625 117.863281 468.859375 116.929688 464.175781 C 116 459.492188 115.183594 454.789062 114.480469 450.0625 C 113.78125 445.339844 113.195312 440.601562 112.730469 435.847656 C 112.261719 431.097656 111.910156 426.335938 111.675781 421.566406 C 111.441406 416.796875 111.324219 412.023438 111.324219 407.25 C 111.324219 402.472656 111.441406 397.699219 111.675781 392.929688 C 111.910156 388.160156 112.261719 383.398438 112.730469 378.648438 C 113.195312 373.894531 113.78125 369.15625 114.480469 364.433594 C 115.183594 359.710938 116 355.003906 116.929688 350.320312 C 117.863281 345.636719 118.910156 340.980469 120.070312 336.347656 C 121.230469 331.714844 122.503906 327.113281 123.890625 322.542969 C 125.273438 317.972656 126.773438 313.441406 128.382812 308.945312 C 129.988281 304.449219 131.707031 299.996094 133.535156 295.582031 C 135.363281 291.171875 137.296875 286.804688 139.339844 282.488281 C 141.382812 278.171875 143.527344 273.90625 145.777344 269.695312 C 148.03125 265.484375 150.382812 261.332031 152.839844 257.234375 C 155.292969 253.140625 157.847656 249.105469 160.5 245.136719 C 163.152344 241.164062 165.902344 237.261719 168.746094 233.425781 C 171.59375 229.589844 174.53125 225.824219 177.558594 222.132812 C 180.589844 218.441406 183.707031 214.828125 186.914062 211.289062 C 190.121094 207.75 193.414062 204.292969 196.789062 200.917969 C 200.167969 197.539062 203.625 194.25 207.164062 191.042969 C 210.699219 187.835938 214.316406 184.714844 218.007812 181.6875 C 221.699219 178.65625 225.460938 175.71875 229.296875 172.875 C 233.132812 170.03125 237.035156 167.28125 241.007812 164.628906 C 244.976562 161.976562 249.011719 159.421875 253.105469 156.964844 C 257.203125 154.511719 261.355469 152.15625 265.570312 149.90625 C 269.78125 147.65625 274.042969 145.507812 278.363281 143.46875 C 282.679688 141.425781 287.042969 139.492188 291.457031 137.664062 C 295.867188 135.835938 300.320312 134.117188 304.816406 132.507812 C 309.3125 130.898438 313.847656 129.402344 318.417969 128.015625 C 322.988281 126.628906 327.585938 125.355469 332.21875 124.195312 C 336.851562 123.035156 341.511719 121.988281 346.195312 121.058594 C 350.878906 120.125 355.582031 119.3125 360.304688 118.609375 C 365.027344 117.910156 369.765625 117.324219 374.519531 116.855469 C 379.273438 116.386719 384.035156 116.039062 388.804688 115.804688 C 393.574219 115.570312 398.34375 115.453125 403.121094 115.453125 C 407.894531 115.453125 412.667969 115.570312 417.4375 115.804688 C 422.207031 116.039062 426.96875 116.386719 431.722656 116.855469 C 436.472656 117.324219 441.210938 117.910156 445.9375 118.609375 C 450.660156 119.3125 455.363281 120.125 460.046875 121.058594 C 464.730469 121.988281 469.390625 123.035156 474.023438 124.195312 C 478.652344 125.355469 483.253906 126.628906 487.824219 128.015625 C 492.394531 129.402344 496.929688 130.898438 501.425781 132.507812 C 505.921875 134.117188 510.375 135.835938 514.785156 137.664062 C 519.199219 139.492188 523.5625 141.425781 527.878906 143.46875 C 532.195312 145.507812 536.460938 147.65625 540.671875 149.90625 C 544.882812 152.15625 549.039062 154.511719 553.132812 156.964844 C 557.230469 159.421875 561.265625 161.976562 565.234375 164.628906 C 569.207031 167.28125 573.109375 170.03125 576.945312 172.875 C 580.78125 175.71875 584.542969 178.65625 588.234375 181.6875 C 591.925781 184.714844 595.542969 187.835938 599.078125 191.042969 C 602.617188 194.25 606.074219 197.539062 609.453125 200.917969 C 612.828125 204.292969 616.121094 207.75 619.328125 211.289062 C 622.535156 214.828125 625.652344 218.441406 628.683594 222.132812 C 631.710938 225.824219 634.648438 229.589844 637.496094 233.425781 C 640.339844 237.261719 643.089844 241.164062 645.742188 245.136719 C 648.394531 249.105469 650.949219 253.140625 653.402344 257.234375 C 655.859375 261.332031 658.210938 265.484375 660.460938 269.695312 C 662.714844 273.90625 664.859375 278.171875 666.902344 282.488281 C 668.945312 286.804688 670.878906 291.171875 672.707031 295.582031 C 674.535156 299.996094 676.25 304.449219 677.859375 308.945312 C 679.46875 313.441406 680.96875 317.972656 682.351562 322.542969 C 683.738281 327.113281 685.011719 331.714844 686.171875 336.347656 C 687.332031 340.980469 688.378906 345.636719 689.3125 350.320312 C 690.242188 355.003906 691.058594 359.710938 691.757812 364.433594 C 692.460938 369.15625 693.042969 373.894531 693.511719 378.648438 C 693.980469 383.398438 694.332031 388.160156 694.566406 392.929688 C 694.800781 397.699219 694.917969 402.472656 694.917969 407.25 C 694.917969 412.023438 694.800781 416.796875 694.566406 421.566406 C 694.332031 426.335938 693.980469 431.097656 693.511719 435.847656 C 693.042969 440.601562 692.460938 445.339844 691.757812 450.0625 C 691.058594 454.789062 690.242188 459.492188 689.3125 464.175781 C 688.378906 468.859375 687.332031 473.515625 686.171875 478.148438 C 685.011719 482.78125 683.738281 487.382812 682.351562 491.953125 C 680.96875 496.523438 679.46875 501.054688 677.859375 505.550781 C 676.25 510.046875 674.535156 514.503906 672.707031 518.914062 C 670.878906 523.324219 668.945312 527.691406 666.902344 532.007812 C 664.859375 536.324219 662.714844 540.589844 660.460938 544.800781 C 658.210938 549.011719 655.859375 553.164062 653.402344 557.261719 C 650.949219 561.359375 648.394531 565.390625 645.742188 569.363281 C 643.089844 573.332031 640.339844 577.234375 637.496094 581.070312 C 634.648438 584.90625 631.710938 588.671875 628.683594 592.363281 C 625.652344 596.054688 622.535156 599.667969 619.328125 603.207031 C 616.121094 606.746094 612.828125 610.203125 609.453125 613.578125 C 606.074219 616.957031 602.617188 620.25 599.078125 623.457031 C 595.542969 626.664062 591.925781 629.78125 588.234375 632.808594 C 584.542969 635.839844 580.78125 638.777344 576.945312 641.621094 C 573.109375 644.464844 569.207031 647.214844 565.234375 649.867188 C 561.265625 652.523438 557.230469 655.074219 553.132812 657.53125 C 549.039062 659.984375 544.882812 662.339844 540.671875 664.589844 C 536.460938 666.839844 532.195312 668.988281 527.878906 671.03125 C 523.5625 673.070312 519.199219 675.007812 514.785156 676.832031 C 510.375 678.660156 505.921875 680.378906 501.425781 681.988281 C 496.929688 683.597656 492.394531 685.09375 487.824219 686.480469 C 483.253906 687.867188 478.652344 689.140625 474.023438 690.300781 C 469.390625 691.460938 464.730469 692.507812 460.046875 693.4375 C 455.363281 694.371094 450.660156 695.1875 445.9375 695.886719 C 441.210938 696.585938 436.472656 697.171875 431.722656 697.640625 C 426.96875 698.109375 422.207031 698.460938 417.4375 698.695312 C 412.667969 698.929688 407.894531 699.046875 403.121094 699.046875 Z M 403.121094 151.925781 C 398.941406 151.925781 394.765625 152.027344 390.59375 152.234375 C 386.417969 152.4375 382.253906 152.746094 378.09375 153.15625 C 373.9375 153.566406 369.789062 154.078125 365.65625 154.691406 C 361.523438 155.304688 357.410156 156.015625 353.308594 156.832031 C 349.210938 157.648438 345.136719 158.5625 341.082031 159.578125 C 337.03125 160.59375 333.003906 161.707031 329.003906 162.921875 C 325.007812 164.132812 321.039062 165.445312 317.105469 166.851562 C 313.171875 168.257812 309.273438 169.761719 305.414062 171.363281 C 301.554688 172.960938 297.734375 174.652344 293.957031 176.441406 C 290.179688 178.226562 286.449219 180.105469 282.761719 182.074219 C 279.078125 184.042969 275.441406 186.101562 271.859375 188.25 C 268.273438 190.398438 264.746094 192.632812 261.273438 194.957031 C 257.796875 197.277344 254.382812 199.683594 251.027344 202.171875 C 247.667969 204.660156 244.375 207.230469 241.144531 209.882812 C 237.917969 212.53125 234.753906 215.261719 231.65625 218.066406 C 228.5625 220.875 225.535156 223.753906 222.582031 226.707031 C 219.625 229.664062 216.746094 232.6875 213.941406 235.785156 C 211.132812 238.878906 208.40625 242.042969 205.753906 245.273438 C 203.101562 248.503906 200.535156 251.796875 198.042969 255.152344 C 195.554688 258.507812 193.148438 261.925781 190.828125 265.398438 C 188.507812 268.875 186.273438 272.402344 184.125 275.988281 C 181.976562 279.570312 179.917969 283.207031 177.945312 286.890625 C 175.976562 290.574219 174.097656 294.308594 172.3125 298.085938 C 170.527344 301.863281 168.832031 305.679688 167.234375 309.539062 C 165.636719 313.402344 164.132812 317.296875 162.722656 321.234375 C 161.316406 325.167969 160.003906 329.132812 158.792969 333.132812 C 157.578125 337.132812 156.464844 341.15625 155.449219 345.210938 C 154.433594 349.261719 153.519531 353.339844 152.703125 357.4375 C 151.890625 361.535156 151.175781 365.652344 150.5625 369.785156 C 149.949219 373.917969 149.4375 378.0625 149.027344 382.222656 C 148.617188 386.382812 148.3125 390.546875 148.105469 394.71875 C 147.902344 398.894531 147.796875 403.070312 147.796875 407.25 C 147.796875 411.425781 147.902344 415.601562 148.105469 419.777344 C 148.3125 423.949219 148.617188 428.117188 149.027344 432.273438 C 149.4375 436.433594 149.949219 440.578125 150.5625 444.710938 C 151.175781 448.84375 151.890625 452.960938 152.703125 457.058594 C 153.519531 461.15625 154.433594 465.234375 155.449219 469.285156 C 156.464844 473.339844 157.578125 477.367188 158.792969 481.363281 C 160.003906 485.363281 161.316406 489.328125 162.722656 493.265625 C 164.132812 497.199219 165.636719 501.09375 167.234375 504.957031 C 168.832031 508.816406 170.527344 512.636719 172.3125 516.414062 C 174.097656 520.191406 175.976562 523.921875 177.945312 527.605469 C 179.917969 531.292969 181.976562 534.925781 184.125 538.511719 C 186.273438 542.09375 188.507812 545.625 190.828125 549.097656 C 193.148438 552.570312 195.554688 555.988281 198.042969 559.34375 C 200.535156 562.699219 203.101562 565.992188 205.753906 569.222656 C 208.40625 572.453125 211.132812 575.617188 213.941406 578.710938 C 216.746094 581.808594 219.625 584.832031 222.582031 587.789062 C 225.535156 590.742188 228.5625 593.625 231.65625 596.429688 C 234.753906 599.234375 237.917969 601.964844 241.144531 604.613281 C 244.375 607.265625 247.667969 609.835938 251.027344 612.324219 C 254.382812 614.8125 257.796875 617.21875 261.273438 619.542969 C 264.746094 621.863281 268.273438 624.097656 271.859375 626.246094 C 275.441406 628.394531 279.078125 630.453125 282.761719 632.421875 C 286.449219 634.390625 290.179688 636.269531 293.957031 638.058594 C 297.734375 639.84375 301.554688 641.535156 305.414062 643.136719 C 309.273438 644.734375 313.171875 646.238281 317.105469 647.644531 C 321.039062 649.054688 325.007812 650.363281 329.003906 651.578125 C 333.003906 652.789062 337.03125 653.902344 341.082031 654.917969 C 345.136719 655.933594 349.210938 656.847656 353.308594 657.664062 C 357.410156 658.480469 361.523438 659.195312 365.65625 659.808594 C 369.789062 660.421875 373.9375 660.933594 378.09375 661.339844 C 382.253906 661.75 386.417969 662.058594 390.59375 662.261719 C 394.765625 662.46875 398.941406 662.570312 403.121094 662.570312 C 407.300781 662.570312 411.476562 662.46875 415.648438 662.261719 C 419.824219 662.058594 423.988281 661.75 428.148438 661.339844 C 432.304688 660.933594 436.453125 660.421875 440.585938 659.808594 C 444.71875 659.195312 448.832031 658.480469 452.933594 657.664062 C 457.03125 656.847656 461.105469 655.933594 465.160156 654.917969 C 469.210938 653.902344 473.238281 652.789062 477.238281 651.578125 C 481.234375 650.363281 485.203125 649.054688 489.136719 647.644531 C 493.070312 646.238281 496.96875 644.734375 500.828125 643.136719 C 504.6875 641.535156 508.507812 639.84375 512.285156 638.058594 C 516.0625 636.269531 519.792969 634.390625 523.480469 632.421875 C 527.164062 630.453125 530.796875 628.394531 534.382812 626.246094 C 537.96875 624.097656 541.496094 621.863281 544.96875 619.542969 C 548.445312 617.21875 551.859375 614.8125 555.214844 612.324219 C 558.574219 609.835938 561.867188 607.265625 565.09375 604.613281 C 568.324219 601.964844 571.488281 599.234375 574.585938 596.429688 C 577.679688 593.625 580.707031 590.742188 583.660156 587.789062 C 586.617188 584.832031 589.496094 581.808594 592.300781 578.710938 C 595.109375 575.617188 597.835938 572.453125 600.488281 569.222656 C 603.136719 565.992188 605.707031 562.699219 608.199219 559.34375 C 610.6875 555.988281 613.09375 552.570312 615.414062 549.097656 C 617.734375 545.625 619.96875 542.09375 622.117188 538.511719 C 624.265625 534.925781 626.324219 531.292969 628.296875 527.605469 C 630.265625 523.921875 632.144531 520.191406 633.929688 516.414062 C 635.714844 512.636719 637.410156 508.816406 639.007812 504.957031 C 640.605469 501.09375 642.109375 497.199219 643.519531 493.265625 C 644.925781 489.328125 646.234375 485.363281 647.449219 481.363281 C 648.660156 477.367188 649.777344 473.339844 650.792969 469.285156 C 651.808594 465.234375 652.722656 461.15625 653.539062 457.058594 C 654.351562 452.960938 655.066406 448.84375 655.679688 444.710938 C 656.292969 440.578125 656.804688 436.433594 657.214844 432.273438 C 657.625 428.117188 657.929688 423.949219 658.136719 419.777344 C 658.339844 415.601562 658.441406 411.425781 658.441406 407.25 C 658.441406 403.070312 658.339844 398.894531 658.136719 394.71875 C 657.929688 390.546875 657.625 386.382812 657.214844 382.222656 C 656.804688 378.0625 656.292969 373.917969 655.679688 369.785156 C 655.066406 365.652344 654.351562 361.535156 653.539062 357.4375 C 652.722656 353.339844 651.808594 349.261719 650.792969 345.210938 C 649.777344 341.15625 648.660156 337.132812 647.449219 333.132812 C 646.234375 329.132812 644.925781 325.167969 643.519531 321.234375 C 642.109375 317.296875 640.605469 313.402344 639.007812 309.539062 C 637.410156 305.679688 635.714844 301.863281 633.929688 298.085938 C 632.144531 294.308594 630.265625 290.574219 628.296875 286.890625 C 626.324219 283.207031 624.265625 279.570312 622.117188 275.988281 C 619.96875 272.402344 617.734375 268.875 615.414062 265.398438 C 613.09375 261.925781 610.6875 258.507812 608.199219 255.152344 C 605.707031 251.796875 603.136719 248.503906 600.488281 245.273438 C 597.835938 242.042969 595.109375 238.878906 592.300781 235.785156 C 589.496094 232.6875 586.617188 229.664062 583.660156 226.707031 C 580.707031 223.753906 577.679688 220.875 574.585938 218.066406 C 571.488281 215.261719 568.324219 212.53125 565.09375 209.882812 C 561.867188 207.230469 558.574219 204.660156 555.214844 202.171875 C 551.859375 199.683594 548.445312 197.277344 544.96875 194.957031 C 541.496094 192.632812 537.96875 190.398438 534.382812 188.25 C 530.796875 186.101562 527.164062 184.042969 523.480469 182.074219 C 519.792969 180.105469 516.0625 178.226562 512.285156 176.441406 C 508.507812 174.652344 504.6875 172.960938 500.828125 171.363281 C 496.96875 169.761719 493.070312 168.257812 489.136719 166.851562 C 485.203125 165.445312 481.234375 164.132812 477.238281 162.921875 C 473.238281 161.707031 469.210938 160.59375 465.160156 159.578125 C 461.105469 158.5625 457.03125 157.648438 452.933594 156.832031 C 448.832031 156.015625 444.71875 155.304688 440.585938 154.691406 C 436.453125 154.078125 432.304688 153.566406 428.148438 153.15625 C 423.988281 152.746094 419.824219 152.4375 415.648438 152.234375 C 411.476562 152.027344 407.300781 151.925781 403.121094 151.925781 Z M 403.121094 151.925781 " fill-opacity="1" fill-rule="nonzero"/></g><path fill="#ffffff" d="M 257.222656 370.773438 C 254.316406 370.808594 251.578125 370.140625 249.015625 368.769531 C 248.484375 368.496094 247.96875 368.203125 247.46875 367.882812 C 246.964844 367.5625 246.480469 367.21875 246.011719 366.847656 C 245.546875 366.480469 245.097656 366.089844 244.667969 365.679688 C 244.238281 365.265625 243.828125 364.835938 243.441406 364.382812 C 243.054688 363.929688 242.691406 363.460938 242.347656 362.972656 C 242.007812 362.488281 241.691406 361.984375 241.398438 361.464844 C 241.105469 360.945312 240.839844 360.414062 240.601562 359.871094 C 240.359375 359.324219 240.148438 358.769531 239.960938 358.203125 C 239.777344 357.640625 239.617188 357.066406 239.488281 356.484375 C 239.359375 355.902344 239.257812 355.316406 239.1875 354.726562 C 239.113281 354.136719 239.070312 353.542969 239.054688 352.949219 C 239.042969 352.351562 239.058594 351.757812 239.101562 351.164062 C 239.144531 350.570312 239.21875 349.980469 239.320312 349.394531 C 239.421875 348.808594 239.550781 348.226562 239.710938 347.65625 C 239.871094 347.082031 240.054688 346.515625 240.269531 345.960938 C 240.484375 345.40625 240.722656 344.863281 240.992188 344.328125 C 241.648438 343.035156 242.34375 341.757812 243.078125 340.507812 C 243.816406 339.253906 244.589844 338.027344 245.40625 336.824219 C 246.21875 335.621094 247.074219 334.449219 247.960938 333.300781 C 248.851562 332.152344 249.777344 331.03125 250.734375 329.941406 C 251.695312 328.851562 252.691406 327.792969 253.71875 326.765625 C 254.746094 325.742188 255.804688 324.746094 256.894531 323.789062 C 257.984375 322.828125 259.105469 321.90625 260.253906 321.015625 C 261.40625 320.128906 262.582031 319.277344 263.785156 318.464844 C 264.988281 317.652344 266.214844 316.878906 267.46875 316.140625 C 268.722656 315.40625 269.996094 314.710938 271.292969 314.058594 C 272.589844 313.402344 273.90625 312.789062 275.242188 312.21875 C 276.578125 311.648438 277.929688 311.121094 279.300781 310.636719 C 280.667969 310.152344 282.050781 309.710938 283.449219 309.316406 C 284.847656 308.917969 286.253906 308.566406 287.675781 308.257812 C 289.09375 307.949219 290.523438 307.6875 291.957031 307.472656 C 293.394531 307.257812 294.835938 307.085938 296.285156 306.960938 C 297.730469 306.835938 299.179688 306.757812 300.632812 306.722656 C 302.085938 306.691406 303.535156 306.703125 304.988281 306.761719 C 306.4375 306.824219 307.886719 306.929688 309.332031 307.078125 C 310.777344 307.230469 312.214844 307.429688 313.648438 307.671875 C 315.078125 307.914062 316.5 308.203125 317.914062 308.535156 C 319.328125 308.867188 320.730469 309.246094 322.121094 309.667969 C 323.511719 310.089844 324.886719 310.558594 326.246094 311.066406 C 327.605469 311.578125 328.949219 312.128906 330.273438 312.722656 C 331.597656 313.320312 332.902344 313.957031 334.1875 314.632812 C 335.472656 315.3125 336.734375 316.03125 337.972656 316.789062 C 339.210938 317.546875 340.425781 318.34375 341.613281 319.179688 C 342.800781 320.011719 343.964844 320.886719 345.097656 321.792969 C 346.230469 322.703125 347.332031 323.648438 348.40625 324.625 C 349.476562 325.605469 350.519531 326.617188 351.527344 327.664062 C 352.535156 328.707031 353.511719 329.785156 354.449219 330.890625 C 355.390625 332 356.292969 333.132812 357.164062 334.300781 L 363 341.957031 C 363.355469 342.4375 363.691406 342.929688 364 343.441406 C 364.3125 343.953125 364.59375 344.476562 364.851562 345.015625 C 365.113281 345.554688 365.34375 346.105469 365.546875 346.664062 C 365.75 347.226562 365.925781 347.796875 366.074219 348.375 C 366.222656 348.953125 366.34375 349.539062 366.433594 350.128906 C 366.523438 350.71875 366.585938 351.3125 366.621094 351.910156 C 366.652344 352.503906 366.65625 353.101562 366.628906 353.699219 C 366.601562 354.296875 366.546875 354.890625 366.464844 355.480469 C 366.378906 356.070312 366.265625 356.65625 366.125 357.238281 C 365.980469 357.816406 365.8125 358.390625 365.613281 358.953125 C 365.414062 359.515625 365.1875 360.070312 364.9375 360.609375 C 364.683594 361.152344 364.40625 361.679688 364.101562 362.191406 C 363.796875 362.707031 363.46875 363.203125 363.117188 363.6875 C 362.761719 364.167969 362.386719 364.632812 361.988281 365.074219 C 361.589844 365.519531 361.167969 365.945312 360.730469 366.347656 C 360.289062 366.75 359.828125 367.132812 359.351562 367.492188 C 358.875 367.847656 358.378906 368.183594 357.867188 368.492188 C 357.359375 368.804688 356.832031 369.085938 356.292969 369.34375 C 355.757812 369.605469 355.207031 369.835938 354.644531 370.039062 C 354.082031 370.242188 353.515625 370.417969 352.933594 370.566406 C 352.355469 370.714844 351.773438 370.835938 351.183594 370.925781 C 350.589844 371.015625 349.996094 371.078125 349.402344 371.113281 C 348.804688 371.144531 348.207031 371.148438 347.613281 371.121094 C 347.015625 371.09375 346.421875 371.039062 345.828125 370.957031 C 345.238281 370.871094 344.652344 370.757812 344.074219 370.617188 C 343.492188 370.472656 342.921875 370.304688 342.355469 370.105469 C 341.792969 369.90625 341.242188 369.683594 340.699219 369.429688 C 340.160156 369.175781 339.632812 368.898438 339.117188 368.59375 C 338.601562 368.289062 338.105469 367.960938 337.625 367.609375 C 337.140625 367.253906 336.679688 366.878906 336.234375 366.480469 C 335.789062 366.082031 335.367188 365.660156 334.960938 365.222656 C 334.558594 364.78125 334.175781 364.320312 333.820312 363.84375 L 327.984375 356.183594 C 327.179688 355.074219 326.304688 354.023438 325.363281 353.03125 C 324.417969 352.035156 323.414062 351.109375 322.351562 350.246094 C 321.289062 349.382812 320.171875 348.59375 319.003906 347.878906 C 317.835938 347.164062 316.628906 346.523438 315.375 345.96875 C 314.125 345.410156 312.84375 344.9375 311.53125 344.546875 C 310.21875 344.15625 308.882812 343.855469 307.53125 343.636719 C 306.179688 343.421875 304.816406 343.296875 303.449219 343.261719 C 302.078125 343.222656 300.714844 343.277344 299.351562 343.417969 C 297.972656 343.542969 296.609375 343.757812 295.257812 344.0625 C 293.910156 344.367188 292.585938 344.757812 291.285156 345.234375 C 289.988281 345.710938 288.726562 346.273438 287.5 346.914062 C 286.273438 347.558594 285.09375 348.277344 283.964844 349.074219 C 282.832031 349.871094 281.757812 350.738281 280.738281 351.675781 C 279.722656 352.613281 278.769531 353.613281 277.882812 354.675781 C 276.996094 355.734375 276.179688 356.851562 275.441406 358.019531 C 274.699219 359.1875 274.035156 360.398438 273.453125 361.65625 C 272.636719 363.074219 271.644531 364.359375 270.480469 365.511719 C 269.3125 366.664062 268.015625 367.640625 266.589844 368.441406 C 265.160156 369.242188 263.652344 369.84375 262.0625 370.238281 C 260.472656 370.632812 258.859375 370.8125 257.222656 370.773438 Z M 257.222656 370.773438 " fill-opacity="1" fill-rule="nonzero"/><path fill="#ffffff" d="M 549.019531 370.773438 C 547.335938 370.769531 545.683594 370.535156 544.066406 370.074219 C 542.445312 369.609375 540.917969 368.9375 539.488281 368.050781 C 538.054688 367.164062 536.769531 366.101562 535.632812 364.859375 C 534.492188 363.621094 533.546875 362.246094 532.789062 360.742188 C 532.207031 359.488281 531.542969 358.277344 530.800781 357.109375 C 530.0625 355.941406 529.246094 354.824219 528.359375 353.761719 C 527.472656 352.699219 526.519531 351.699219 525.5 350.761719 C 524.484375 349.828125 523.410156 348.960938 522.277344 348.164062 C 521.144531 347.367188 519.96875 346.644531 518.742188 346.003906 C 517.515625 345.359375 516.253906 344.800781 514.957031 344.324219 C 513.65625 343.847656 512.332031 343.457031 510.984375 343.152344 C 509.632812 342.847656 508.269531 342.632812 506.890625 342.507812 C 505.527344 342.363281 504.164062 342.3125 502.792969 342.347656 C 501.425781 342.386719 500.0625 342.511719 498.710938 342.726562 C 497.359375 342.941406 496.023438 343.246094 494.710938 343.632812 C 493.398438 344.023438 492.117188 344.496094 490.867188 345.054688 C 489.613281 345.613281 488.40625 346.25 487.238281 346.964844 C 486.070312 347.683594 484.953125 348.472656 483.890625 349.335938 C 482.824219 350.195312 481.824219 351.125 480.878906 352.117188 C 479.9375 353.113281 479.0625 354.164062 478.257812 355.273438 L 472.421875 362.933594 C 472.0625 363.410156 471.683594 363.867188 471.28125 364.308594 C 470.875 364.75 470.453125 365.167969 470.007812 365.566406 C 469.5625 365.964844 469.101562 366.34375 468.617188 366.695312 C 468.136719 367.050781 467.636719 367.378906 467.125 367.683594 C 466.609375 367.988281 466.082031 368.265625 465.542969 368.515625 C 465 368.769531 464.449219 368.996094 463.882812 369.191406 C 463.320312 369.390625 462.75 369.5625 462.167969 369.703125 C 461.589844 369.847656 461.003906 369.957031 460.410156 370.042969 C 459.820312 370.128906 459.226562 370.183594 458.628906 370.210938 C 458.035156 370.234375 457.4375 370.230469 456.839844 370.199219 C 456.242188 370.167969 455.652344 370.105469 455.058594 370.015625 C 454.46875 369.925781 453.886719 369.804688 453.308594 369.65625 C 452.726562 369.507812 452.15625 369.332031 451.597656 369.128906 C 451.035156 368.921875 450.484375 368.691406 449.945312 368.433594 C 449.410156 368.175781 448.882812 367.890625 448.375 367.582031 C 447.863281 367.273438 447.367188 366.9375 446.890625 366.578125 C 446.414062 366.222656 445.953125 365.839844 445.511719 365.4375 C 445.074219 365.03125 444.652344 364.609375 444.253906 364.164062 C 443.855469 363.71875 443.480469 363.257812 443.125 362.773438 C 442.773438 362.292969 442.445312 361.796875 442.140625 361.28125 C 441.835938 360.765625 441.558594 360.238281 441.304688 359.699219 C 441.050781 359.15625 440.828125 358.605469 440.628906 358.042969 C 440.429688 357.476562 440.261719 356.90625 440.117188 356.324219 C 439.976562 355.746094 439.863281 355.160156 439.777344 354.570312 C 439.695312 353.976562 439.640625 353.382812 439.613281 352.785156 C 439.585938 352.191406 439.589844 351.59375 439.621094 350.996094 C 439.65625 350.402344 439.71875 349.808594 439.808594 349.214844 C 439.898438 348.625 440.019531 348.042969 440.167969 347.464844 C 440.3125 346.882812 440.492188 346.316406 440.695312 345.753906 C 440.898438 345.191406 441.128906 344.640625 441.386719 344.105469 C 441.648438 343.566406 441.929688 343.039062 442.242188 342.53125 C 442.550781 342.019531 442.882812 341.523438 443.242188 341.046875 L 449.078125 333.386719 C 449.949219 332.222656 450.859375 331.089844 451.800781 329.984375 C 452.746094 328.878906 453.722656 327.804688 454.734375 326.761719 C 455.746094 325.71875 456.789062 324.710938 457.867188 323.734375 C 458.941406 322.757812 460.050781 321.816406 461.183594 320.910156 C 462.320312 320.003906 463.484375 319.132812 464.675781 318.300781 C 465.867188 317.46875 467.082031 316.675781 468.324219 315.921875 C 469.566406 315.167969 470.832031 314.453125 472.117188 313.777344 C 473.40625 313.101562 474.710938 312.46875 476.039062 311.878906 C 477.367188 311.285156 478.710938 310.738281 480.074219 310.230469 C 481.4375 309.726562 482.8125 309.265625 484.203125 308.84375 C 485.597656 308.425781 487 308.054688 488.414062 307.722656 C 489.832031 307.394531 491.253906 307.109375 492.6875 306.871094 C 494.121094 306.632812 495.5625 306.441406 497.007812 306.292969 C 498.453125 306.144531 499.902344 306.046875 501.355469 305.988281 C 502.804688 305.933594 504.257812 305.925781 505.710938 305.964844 C 507.164062 306 508.613281 306.085938 510.0625 306.214844 C 511.507812 306.34375 512.949219 306.519531 514.386719 306.738281 C 515.824219 306.960938 517.25 307.226562 518.671875 307.539062 C 520.089844 307.851562 521.496094 308.207031 522.894531 308.609375 C 524.289062 309.011719 525.671875 309.457031 527.042969 309.945312 C 528.410156 310.433594 529.761719 310.96875 531.09375 311.542969 C 532.429688 312.117188 533.746094 312.734375 535.039062 313.394531 C 536.335938 314.054688 537.609375 314.753906 538.859375 315.492188 C 540.109375 316.230469 541.335938 317.011719 542.535156 317.828125 C 543.738281 318.644531 544.914062 319.5 546.058594 320.394531 C 547.207031 321.285156 548.324219 322.214844 549.410156 323.175781 C 550.5 324.140625 551.554688 325.136719 552.578125 326.167969 C 553.605469 327.199219 554.59375 328.261719 555.550781 329.355469 C 556.507812 330.449219 557.429688 331.570312 558.316406 332.722656 C 559.203125 333.875 560.050781 335.054688 560.859375 336.257812 C 561.671875 337.464844 562.441406 338.695312 563.175781 339.953125 C 563.90625 341.207031 564.597656 342.484375 565.25 343.78125 C 565.519531 344.316406 565.757812 344.859375 565.972656 345.414062 C 566.1875 345.96875 566.371094 346.535156 566.53125 347.109375 C 566.691406 347.679688 566.820312 348.261719 566.921875 348.847656 C 567.023438 349.433594 567.097656 350.023438 567.140625 350.617188 C 567.183594 351.210938 567.199219 351.804688 567.183594 352.402344 C 567.171875 352.996094 567.128906 353.589844 567.054688 354.179688 C 566.984375 354.769531 566.882812 355.355469 566.753906 355.9375 C 566.625 356.519531 566.464844 357.089844 566.28125 357.65625 C 566.09375 358.222656 565.882812 358.777344 565.640625 359.324219 C 565.402344 359.867188 565.136719 360.398438 564.84375 360.917969 C 564.550781 361.4375 564.234375 361.9375 563.894531 362.425781 C 563.550781 362.914062 563.1875 363.382812 562.800781 363.835938 C 562.414062 364.289062 562.003906 364.71875 561.574219 365.132812 C 561.144531 365.542969 560.695312 365.933594 560.226562 366.300781 C 559.761719 366.671875 559.277344 367.015625 558.773438 367.335938 C 558.273438 367.65625 557.757812 367.949219 557.226562 368.21875 C 554.714844 369.789062 551.976562 370.640625 549.019531 370.773438 Z M 549.019531 370.773438 " fill-opacity="1" fill-rule="nonzero"/><path fill="#ffffff" d="M 403.121094 552.050781 C 400.402344 552.074219 397.6875 552.003906 394.976562 551.84375 C 392.261719 551.679688 389.558594 551.429688 386.863281 551.082031 C 384.164062 550.738281 381.484375 550.304688 378.816406 549.78125 C 376.152344 549.253906 373.503906 548.640625 370.878906 547.9375 C 368.253906 547.234375 365.65625 546.445312 363.085938 545.566406 C 360.511719 544.6875 357.972656 543.722656 355.46875 542.671875 C 352.960938 541.625 350.492188 540.492188 348.0625 539.273438 C 345.628906 538.058594 343.242188 536.761719 340.902344 535.386719 C 338.558594 534.007812 336.265625 532.554688 334.019531 531.023438 C 331.773438 529.488281 329.582031 527.882812 327.445312 526.207031 C 325.308594 524.527344 323.230469 522.777344 321.214844 520.957031 C 319.195312 519.136719 317.238281 517.25 315.347656 515.300781 C 313.457031 513.347656 311.632812 511.335938 309.875 509.261719 C 308.121094 507.1875 306.4375 505.054688 304.824219 502.867188 C 303.210938 500.679688 301.675781 498.441406 300.214844 496.148438 C 298.753906 493.855469 297.371094 491.519531 296.066406 489.132812 C 295.769531 488.613281 295.496094 488.082031 295.25 487.535156 C 295.003906 486.988281 294.785156 486.429688 294.59375 485.863281 C 294.402344 485.296875 294.238281 484.71875 294.105469 484.136719 C 293.96875 483.550781 293.863281 482.960938 293.785156 482.367188 C 293.710938 481.773438 293.660156 481.175781 293.644531 480.578125 C 293.625 479.980469 293.636719 479.378906 293.675781 478.78125 C 293.714844 478.183594 293.785156 477.589844 293.882812 477 C 293.984375 476.40625 294.109375 475.824219 294.265625 475.242188 C 294.421875 474.664062 294.609375 474.09375 294.820312 473.535156 C 295.03125 472.976562 295.269531 472.425781 295.539062 471.890625 C 295.804688 471.351562 296.09375 470.828125 296.414062 470.320312 C 296.730469 469.8125 297.074219 469.320312 297.4375 468.847656 C 297.804688 468.371094 298.191406 467.914062 298.601562 467.480469 C 299.011719 467.042969 299.445312 466.628906 299.894531 466.234375 C 300.347656 465.839844 300.816406 465.46875 301.304688 465.117188 C 301.792969 464.769531 302.296875 464.449219 302.816406 464.148438 C 303.335938 463.851562 303.867188 463.578125 304.414062 463.332031 C 304.960938 463.085938 305.519531 462.867188 306.085938 462.675781 C 306.65625 462.484375 307.230469 462.320312 307.8125 462.183594 C 308.398438 462.050781 308.988281 461.945312 309.582031 461.867188 C 310.175781 461.789062 310.773438 461.742188 311.371094 461.722656 C 311.972656 461.707031 312.570312 461.714844 313.167969 461.757812 C 313.765625 461.796875 314.359375 461.867188 314.953125 461.964844 C 315.542969 462.0625 316.128906 462.191406 316.707031 462.347656 C 317.285156 462.503906 317.855469 462.6875 318.414062 462.902344 C 318.976562 463.113281 319.523438 463.351562 320.0625 463.617188 C 320.597656 463.882812 321.121094 464.175781 321.628906 464.492188 C 322.136719 464.8125 322.628906 465.152344 323.105469 465.519531 C 323.578125 465.882812 324.035156 466.273438 324.46875 466.683594 C 324.90625 467.09375 325.324219 467.523438 325.71875 467.976562 C 326.113281 468.429688 326.484375 468.898438 326.832031 469.386719 C 327.179688 469.875 327.503906 470.378906 327.800781 470.898438 C 329.652344 474.246094 331.71875 477.457031 334 480.527344 C 336.28125 483.601562 338.757812 486.511719 341.425781 489.253906 C 344.09375 491.996094 346.933594 494.550781 349.945312 496.914062 C 352.953125 499.277344 356.105469 501.429688 359.402344 503.375 C 362.699219 505.320312 366.109375 507.035156 369.636719 508.523438 C 373.160156 510.011719 376.769531 511.261719 380.464844 512.269531 C 384.15625 513.273438 387.898438 514.03125 391.691406 514.542969 C 395.484375 515.050781 399.292969 515.304688 403.121094 515.304688 C 406.949219 515.304688 410.757812 515.050781 414.550781 514.542969 C 418.34375 514.03125 422.085938 513.273438 425.777344 512.269531 C 429.472656 511.261719 433.078125 510.011719 436.605469 508.523438 C 440.132812 507.035156 443.542969 505.320312 446.839844 503.375 C 450.136719 501.429688 453.289062 499.277344 456.296875 496.914062 C 459.308594 494.550781 462.148438 491.996094 464.816406 489.253906 C 467.484375 486.511719 469.960938 483.601562 472.242188 480.527344 C 474.519531 477.457031 476.589844 474.246094 478.441406 470.898438 C 478.738281 470.378906 479.0625 469.875 479.410156 469.386719 C 479.757812 468.898438 480.128906 468.429688 480.523438 467.976562 C 480.917969 467.523438 481.335938 467.09375 481.769531 466.683594 C 482.207031 466.273438 482.664062 465.882812 483.136719 465.519531 C 483.613281 465.152344 484.105469 464.8125 484.613281 464.492188 C 485.121094 464.175781 485.644531 463.882812 486.179688 463.617188 C 486.71875 463.351562 487.265625 463.113281 487.828125 462.902344 C 488.386719 462.6875 488.957031 462.503906 489.535156 462.347656 C 490.113281 462.191406 490.699219 462.0625 491.289062 461.964844 C 491.882812 461.867188 492.476562 461.796875 493.074219 461.757812 C 493.671875 461.714844 494.269531 461.707031 494.871094 461.722656 C 495.46875 461.742188 496.066406 461.789062 496.660156 461.867188 C 497.253906 461.945312 497.84375 462.050781 498.425781 462.183594 C 499.011719 462.320312 499.585938 462.484375 500.15625 462.675781 C 500.722656 462.867188 501.28125 463.085938 501.828125 463.332031 C 502.375 463.578125 502.90625 463.851562 503.425781 464.148438 C 503.945312 464.449219 504.449219 464.769531 504.9375 465.117188 C 505.425781 465.46875 505.894531 465.839844 506.347656 466.234375 C 506.796875 466.628906 507.230469 467.042969 507.640625 467.480469 C 508.050781 467.914062 508.4375 468.371094 508.804688 468.847656 C 509.167969 469.320312 509.511719 469.8125 509.828125 470.320312 C 510.144531 470.828125 510.4375 471.351562 510.703125 471.890625 C 510.96875 472.425781 511.210938 472.976562 511.421875 473.535156 C 511.632812 474.09375 511.820312 474.664062 511.976562 475.242188 C 512.132812 475.824219 512.257812 476.40625 512.355469 477 C 512.457031 477.589844 512.527344 478.183594 512.566406 478.78125 C 512.605469 479.378906 512.617188 479.980469 512.597656 480.578125 C 512.582031 481.175781 512.53125 481.773438 512.457031 482.367188 C 512.378906 482.960938 512.273438 483.550781 512.136719 484.136719 C 512.003906 484.71875 511.839844 485.296875 511.648438 485.863281 C 511.457031 486.429688 511.238281 486.988281 510.992188 487.535156 C 510.746094 488.082031 510.472656 488.613281 510.175781 489.132812 C 508.871094 491.519531 507.488281 493.855469 506.027344 496.148438 C 504.566406 498.441406 503.03125 500.679688 501.417969 502.867188 C 499.804688 505.054688 498.121094 507.1875 496.367188 509.261719 C 494.609375 511.335938 492.785156 513.347656 490.894531 515.300781 C 489.003906 517.25 487.046875 519.136719 485.027344 520.957031 C 483.011719 522.777344 480.933594 524.527344 478.796875 526.207031 C 476.660156 527.882812 474.46875 529.488281 472.222656 531.023438 C 469.976562 532.554688 467.683594 534.007812 465.339844 535.386719 C 463 536.761719 460.613281 538.058594 458.179688 539.273438 C 455.75 540.492188 453.28125 541.625 450.773438 542.671875 C 448.269531 543.722656 445.730469 544.6875 443.15625 545.566406 C 440.585938 546.445312 437.988281 547.234375 435.363281 547.9375 C 432.734375 548.640625 430.089844 549.253906 427.421875 549.78125 C 424.757812 550.304688 422.074219 550.738281 419.378906 551.082031 C 416.683594 551.429688 413.980469 551.679688 411.265625 551.84375 C 408.554688 552.003906 405.839844 552.074219 403.121094 552.050781 Z M 403.121094 552.050781 " fill-opacity="1" fill-rule="nonzero"/></svg>