<svg xmlns="http://www.w3.org/2000/svg" xmlns:xlink="http://www.w3.org/1999/xlink" width="1920" zoomAndPan="magnify" viewBox="0 0 1440 809.999993" height="1080" preserveAspectRatio="xMidYMid meet" version="1.0"><defs><clipPath id="d8bf126ae9"><path d="M 615 290.679688 L 829.9375 290.679688 L 829.9375 511.929688 L 615 511.929688 Z M 615 290.679688 " clip-rule="nonzero"/></clipPath></defs><path fill="#da2d27" d="M 882 405 C 882 407.652344 881.933594 410.300781 881.804688 412.949219 C 881.675781 415.597656 881.480469 418.242188 881.21875 420.878906 C 880.960938 423.515625 880.636719 426.148438 880.246094 428.769531 C 879.859375 431.394531 879.40625 434.003906 878.886719 436.605469 C 878.371094 439.203125 877.789062 441.789062 877.144531 444.363281 C 876.5 446.933594 875.792969 449.488281 875.023438 452.027344 C 874.253906 454.5625 873.421875 457.078125 872.53125 459.574219 C 871.636719 462.074219 870.683594 464.546875 869.667969 466.996094 C 868.652344 469.445312 867.578125 471.867188 866.445312 474.265625 C 865.3125 476.660156 864.121094 479.027344 862.871094 481.367188 C 861.621094 483.703125 860.316406 486.011719 858.953125 488.285156 C 857.589844 490.558594 856.171875 492.796875 854.699219 495.003906 C 853.226562 497.207031 851.699219 499.375 850.121094 501.503906 C 848.539062 503.632812 846.910156 505.722656 845.226562 507.773438 C 843.546875 509.820312 841.816406 511.828125 840.035156 513.792969 C 838.253906 515.757812 836.425781 517.675781 834.550781 519.550781 C 832.675781 521.425781 830.757812 523.253906 828.792969 525.035156 C 826.828125 526.816406 824.820312 528.546875 822.773438 530.226562 C 820.722656 531.910156 818.632812 533.539062 816.503906 535.121094 C 814.375 536.699219 812.207031 538.226562 810.003906 539.699219 C 807.796875 541.171875 805.558594 542.589844 803.285156 543.953125 C 801.011719 545.316406 798.703125 546.621094 796.367188 547.871094 C 794.027344 549.121094 791.660156 550.3125 789.265625 551.445312 C 786.867188 552.578125 784.445312 553.652344 781.996094 554.667969 C 779.546875 555.683594 777.074219 556.636719 774.574219 557.53125 C 772.078125 558.421875 769.5625 559.253906 767.027344 560.023438 C 764.488281 560.792969 761.933594 561.5 759.363281 562.144531 C 756.789062 562.789062 754.203125 563.371094 751.605469 563.886719 C 749.003906 564.40625 746.394531 564.859375 743.769531 565.246094 C 741.148438 565.636719 738.515625 565.960938 735.878906 566.21875 C 733.238281 566.480469 730.597656 566.675781 727.949219 566.804688 C 725.300781 566.933594 722.652344 567 720 567 C 717.347656 567 714.699219 566.933594 712.050781 566.804688 C 709.402344 566.675781 706.757812 566.480469 704.121094 566.21875 C 701.484375 565.960938 698.851562 565.636719 696.230469 565.246094 C 693.605469 564.859375 690.996094 564.40625 688.394531 563.886719 C 685.796875 563.371094 683.207031 562.789062 680.636719 562.144531 C 678.066406 561.5 675.511719 560.792969 672.972656 560.023438 C 670.4375 559.253906 667.921875 558.421875 665.421875 557.53125 C 662.925781 556.636719 660.453125 555.683594 658.003906 554.667969 C 655.554688 553.652344 653.132812 552.578125 650.734375 551.445312 C 648.339844 550.3125 645.972656 549.121094 643.632812 547.871094 C 641.296875 546.621094 638.988281 545.316406 636.714844 543.953125 C 634.441406 542.589844 632.203125 541.171875 629.996094 539.699219 C 627.792969 538.226562 625.625 536.699219 623.496094 535.121094 C 621.367188 533.539062 619.277344 531.910156 617.226562 530.226562 C 615.179688 528.546875 613.171875 526.816406 611.207031 525.035156 C 609.242188 523.253906 607.324219 521.425781 605.449219 519.550781 C 603.574219 517.675781 601.746094 515.757812 599.964844 513.792969 C 598.183594 511.828125 596.453125 509.820312 594.773438 507.773438 C 593.089844 505.722656 591.460938 503.632812 589.878906 501.503906 C 588.300781 499.375 586.773438 497.207031 585.300781 495.003906 C 583.828125 492.796875 582.410156 490.558594 581.046875 488.285156 C 579.683594 486.011719 578.378906 483.703125 577.128906 481.367188 C 575.878906 479.027344 574.6875 476.660156 573.554688 474.265625 C 572.421875 471.867188 571.347656 469.445312 570.332031 466.996094 C 569.316406 464.546875 568.363281 462.074219 567.46875 459.574219 C 566.578125 457.078125 565.746094 454.5625 564.976562 452.027344 C 564.207031 449.488281 563.5 446.933594 562.855469 444.363281 C 562.210938 441.789062 561.628906 439.203125 561.113281 436.605469 C 560.59375 434.003906 560.140625 431.394531 559.753906 428.769531 C 559.363281 426.148438 559.039062 423.515625 558.78125 420.878906 C 558.519531 418.242188 558.324219 415.597656 558.195312 412.949219 C 558.066406 410.300781 558 407.652344 558 405 C 558 402.347656 558.066406 399.699219 558.195312 397.050781 C 558.324219 394.402344 558.519531 391.757812 558.78125 389.121094 C 559.039062 386.484375 559.363281 383.851562 559.753906 381.230469 C 560.140625 378.605469 560.59375 375.996094 561.113281 373.394531 C 561.628906 370.796875 562.210938 368.210938 562.855469 365.636719 C 563.5 363.066406 564.207031 360.511719 564.976562 357.972656 C 565.746094 355.4375 566.578125 352.921875 567.46875 350.425781 C 568.363281 347.925781 569.316406 345.453125 570.332031 343.003906 C 571.347656 340.554688 572.421875 338.132812 573.554688 335.734375 C 574.6875 333.339844 575.878906 330.972656 577.128906 328.632812 C 578.378906 326.296875 579.683594 323.988281 581.046875 321.714844 C 582.410156 319.441406 583.828125 317.203125 585.300781 314.996094 C 586.773438 312.792969 588.300781 310.625 589.878906 308.496094 C 591.460938 306.367188 593.089844 304.277344 594.773438 302.226562 C 596.453125 300.179688 598.183594 298.171875 599.964844 296.207031 C 601.746094 294.242188 603.574219 292.324219 605.449219 290.449219 C 607.324219 288.574219 609.242188 286.746094 611.207031 284.964844 C 613.171875 283.183594 615.179688 281.453125 617.226562 279.773438 C 619.277344 278.089844 621.367188 276.460938 623.496094 274.878906 C 625.625 273.300781 627.792969 271.773438 629.996094 270.300781 C 632.203125 268.828125 634.441406 267.410156 636.714844 266.046875 C 638.988281 264.683594 641.296875 263.378906 643.632812 262.128906 C 645.972656 260.878906 648.339844 259.6875 650.734375 258.554688 C 653.132812 257.421875 655.554688 256.347656 658.003906 255.332031 C 660.453125 254.316406 662.925781 253.363281 665.421875 252.46875 C 667.921875 251.578125 670.4375 250.746094 672.972656 249.976562 C 675.511719 249.207031 678.066406 248.5 680.636719 247.855469 C 683.207031 247.210938 685.796875 246.628906 688.394531 246.113281 C 690.996094 245.59375 693.605469 245.140625 696.230469 244.753906 C 698.851562 244.363281 701.484375 244.039062 704.121094 243.78125 C 706.757812 243.519531 709.402344 243.324219 712.050781 243.195312 C 714.699219 243.066406 717.347656 243 720 243 C 722.652344 243 725.300781 243.066406 727.949219 243.195312 C 730.597656 243.324219 733.238281 243.519531 735.878906 243.78125 C 738.515625 244.039062 741.148438 244.363281 743.769531 244.753906 C 746.394531 245.140625 749.003906 245.59375 751.605469 246.113281 C 754.203125 246.628906 756.789062 247.210938 759.363281 247.855469 C 761.933594 248.5 764.488281 249.207031 767.027344 249.976562 C 769.5625 250.746094 772.078125 251.578125 774.574219 252.46875 C 777.074219 253.363281 779.546875 254.316406 781.996094 255.332031 C 784.445312 256.347656 786.867188 257.421875 789.265625 258.554688 C 791.660156 259.6875 794.027344 260.878906 796.367188 262.128906 C 798.703125 263.378906 801.011719 264.683594 803.285156 266.046875 C 805.558594 267.410156 807.796875 268.828125 810.003906 270.300781 C 812.207031 271.773438 814.375 273.300781 816.503906 274.878906 C 818.632812 276.460938 820.722656 278.089844 822.773438 279.773438 C 824.820312 281.453125 826.828125 283.183594 828.792969 284.964844 C 830.757812 286.746094 832.675781 288.574219 834.550781 290.449219 C 836.425781 292.324219 838.253906 294.242188 840.035156 296.207031 C 841.816406 298.171875 843.546875 300.179688 845.226562 302.226562 C 846.910156 304.277344 848.539062 306.367188 850.121094 308.496094 C 851.699219 310.625 853.226562 312.792969 854.699219 314.996094 C 856.171875 317.203125 857.589844 319.441406 858.953125 321.714844 C 860.316406 323.988281 861.621094 326.296875 862.871094 328.632812 C 864.121094 330.972656 865.3125 333.339844 866.445312 335.734375 C 867.578125 338.132812 868.652344 340.554688 869.667969 343.003906 C 870.683594 345.453125 871.636719 347.925781 872.53125 350.421875 C 873.421875 352.921875 874.253906 355.4375 875.023438 357.972656 C 875.792969 360.511719 876.5 363.066406 877.144531 365.636719 C 877.789062 368.210938 878.371094 370.796875 878.886719 373.394531 C 879.40625 375.996094 879.859375 378.605469 880.246094 381.230469 C 880.636719 383.851562 880.960938 386.484375 881.21875 389.121094 C 881.480469 391.757812 881.675781 394.402344 881.804688 397.050781 C 881.933594 399.699219 882 402.347656 882 405 Z M 882 405 " fill-opacity="1" fill-rule="nonzero"/><g clip-path="url(#d8bf126ae9)"><path fill="#ffffff" d="M 655.640625 290.683594 C 650.5 290.683594 646.296875 294.886719 646.296875 300.015625 L 646.296875 332.167969 C 646.296875 337.308594 650.5 341.503906 655.640625 341.503906 L 662.894531 341.503906 L 662.894531 354.207031 C 662.894531 356.097656 665.097656 357.132812 666.550781 355.933594 L 683.960938 341.503906 L 702.542969 341.503906 L 702.542969 348.304688 C 702.542969 354.316406 707.441406 359.238281 713.449219 359.238281 L 750.414062 359.238281 L 766.460938 372.554688 C 761.871094 377.542969 759.042969 384.179688 759.042969 391.476562 C 759.042969 406.898438 771.59375 419.445312 787.011719 419.445312 C 802.433594 419.445312 814.984375 406.898438 814.984375 391.476562 C 814.984375 376.054688 802.433594 363.507812 787.011719 363.507812 C 782.898438 363.507812 779 364.410156 775.476562 366.015625 L 775.476562 359.238281 L 784.832031 359.238281 C 790.84375 359.238281 795.742188 354.316406 795.742188 348.304688 L 795.742188 308.964844 C 795.742188 302.957031 790.84375 298.046875 784.832031 298.046875 L 723.214844 298.046875 C 722.300781 293.851562 718.546875 290.683594 714.089844 290.683594 Z M 655.640625 295.152344 L 714.089844 295.152344 C 716.050781 295.152344 717.371094 296.429688 718.152344 298.046875 L 713.449219 298.046875 C 707.441406 298.046875 702.542969 302.957031 702.542969 308.964844 L 702.542969 337.035156 L 683.160156 337.035156 C 682.640625 337.035156 682.136719 337.210938 681.726562 337.550781 L 667.363281 349.449219 L 667.363281 339.269531 C 667.363281 338.035156 666.363281 337.035156 665.128906 337.035156 L 655.640625 337.035156 C 652.898438 337.035156 650.773438 334.910156 650.773438 332.167969 L 650.773438 300.015625 C 650.773438 297.289062 652.898438 295.152344 655.640625 295.152344 Z M 713.449219 302.527344 L 784.832031 302.527344 C 788.433594 302.527344 791.273438 305.355469 791.273438 308.964844 L 791.273438 348.304688 C 791.273438 351.917969 788.433594 354.757812 784.832031 354.757812 L 773.242188 354.757812 C 772.011719 354.757812 771.007812 355.757812 771.007812 356.992188 L 771.007812 368.570312 C 770.589844 368.867188 770.183594 369.175781 769.777344 369.484375 L 752.648438 355.273438 C 752.253906 354.945312 751.746094 354.757812 751.21875 354.757812 L 713.449219 354.757812 C 709.851562 354.757812 707.011719 351.917969 707.011719 348.304688 L 707.011719 308.964844 C 707.011719 308.515625 707.054688 308.074219 707.144531 307.65625 C 707.738281 304.695312 710.304688 302.527344 713.449219 302.527344 Z M 720.859375 325.664062 C 717.832031 325.621094 717.832031 330.1875 720.859375 330.144531 L 777.425781 330.144531 C 780.453125 330.1875 780.453125 325.621094 777.425781 325.664062 Z M 720.859375 338.265625 C 717.832031 338.222656 717.832031 342.792969 720.859375 342.746094 L 756.214844 342.746094 C 759.242188 342.792969 759.242188 338.222656 756.214844 338.265625 Z M 770.359375 338.265625 C 767.332031 338.222656 767.332031 342.792969 770.359375 342.746094 L 777.425781 342.746094 C 780.453125 342.792969 780.453125 338.222656 777.425781 338.265625 Z M 657.832031 363.507812 C 642.410156 363.507812 629.863281 376.054688 629.863281 391.476562 C 629.863281 406.898438 642.410156 419.445312 657.832031 419.445312 C 673.253906 419.445312 685.800781 406.898438 685.800781 391.476562 C 685.800781 376.054688 673.253906 363.507812 657.832031 363.507812 Z M 657.832031 367.976562 C 670.839844 367.976562 681.332031 378.476562 681.332031 391.476562 C 681.332031 404.476562 670.839844 414.964844 657.832031 414.964844 C 644.832031 414.964844 634.339844 404.476562 634.339844 391.476562 C 634.339844 378.476562 644.832031 367.976562 657.832031 367.976562 Z M 787.011719 367.976562 C 800.011719 367.976562 810.503906 378.476562 810.503906 391.476562 C 810.503906 404.476562 800.011719 414.964844 787.011719 414.964844 C 774.003906 414.964844 763.511719 404.476562 763.511719 391.476562 C 763.511719 384.652344 766.417969 378.542969 771.042969 374.25 C 771.128906 374.195312 771.21875 374.128906 771.285156 374.0625 C 772.273438 373.160156 773.332031 372.347656 774.453125 371.628906 C 774.464844 371.621094 774.488281 371.609375 774.507812 371.585938 C 778.128906 369.308594 782.402344 367.976562 787.011719 367.976562 Z M 642.410156 422.59375 C 635.179688 422.671875 628.652344 426.359375 623.882812 431.90625 C 618.445312 438.246094 615.113281 447.042969 615.113281 456.234375 L 615.113281 509.367188 C 615.113281 510.597656 616.113281 511.601562 617.355469 511.601562 L 698.25 511.601562 C 699.484375 511.601562 700.484375 510.597656 700.484375 509.367188 L 700.484375 456.234375 C 700.484375 437.863281 687.15625 422.761719 670.355469 422.761719 C 670.257812 422.761719 670.160156 422.769531 670.070312 422.78125 L 657.808594 424.421875 L 645.535156 422.78125 C 644.480469 422.640625 643.445312 422.582031 642.410156 422.59375 Z M 771.582031 422.59375 C 764.359375 422.671875 757.832031 426.359375 753.066406 431.90625 C 747.617188 438.246094 744.292969 447.042969 744.292969 456.234375 L 744.292969 509.367188 C 744.292969 510.597656 745.296875 511.601562 746.527344 511.601562 L 827.421875 511.601562 C 828.664062 511.601562 829.667969 510.597656 829.667969 509.367188 L 829.667969 456.234375 C 829.667969 437.863281 816.335938 422.761719 799.539062 422.761719 C 799.441406 422.761719 799.339844 422.769531 799.242188 422.78125 L 786.980469 424.421875 L 774.71875 422.78125 C 773.660156 422.640625 772.617188 422.582031 771.582031 422.59375 Z M 642.441406 427.0625 C 643.269531 427.0625 644.105469 427.109375 644.941406 427.21875 L 657.511719 428.902344 C 657.699219 428.925781 657.90625 428.925781 658.105469 428.902344 L 670.457031 427.238281 C 684.511719 427.304688 696.015625 440.042969 696.015625 456.234375 L 696.015625 507.132812 L 619.589844 507.132812 L 619.589844 456.234375 C 619.589844 448.132812 622.585938 440.285156 627.285156 434.824219 C 631.378906 430.046875 636.652344 427.109375 642.441406 427.0625 Z M 771.613281 427.0625 C 772.441406 427.0625 773.277344 427.109375 774.125 427.21875 L 786.683594 428.902344 C 786.882812 428.925781 787.078125 428.925781 787.277344 428.902344 L 799.628906 427.238281 C 813.695312 427.296875 825.1875 440.042969 825.1875 456.234375 L 825.1875 507.132812 L 748.761719 507.132812 L 748.761719 456.234375 C 748.761719 448.132812 751.769531 440.285156 756.457031 434.824219 C 760.5625 430.046875 765.824219 427.109375 771.613281 427.0625 Z M 771.613281 427.0625 " fill-opacity="1" fill-rule="nonzero"/></g></svg>