<svg width="77" height="76" viewBox="0 0 77 76" fill="none" xmlns="http://www.w3.org/2000/svg">
<g clip-path="url(#clip0_151_1937)">
<path d="M18.0917 36.3743C16.4218 33.7761 16.922 30.6168 20.3696 29.1486C19.6539 25.7818 20.6235 23.9908 23.7786 22.9069C23.3554 20.7776 23.9171 18.9789 25.8333 17.7875C27.0261 17.0418 28.3958 16.865 29.6502 17.4646C30.7968 18.0104 31.7895 18.8713 32.8515 19.6016C33.0362 19.2633 33.2209 18.8867 33.444 18.5254C34.7984 16.3116 36.83 15.5045 39.3233 16.2501C41.024 16.7574 42.7016 17.3339 44.3792 17.9104C44.9255 18.0949 45.3488 18.0872 45.8951 17.7875C48.7117 16.227 52.1977 17.9489 52.544 21.0544C52.6132 21.6693 52.4747 22.2996 52.4285 22.9223C55.9992 24.0061 57.5921 27.3576 55.2143 30.8474C56.661 31.3086 57.7845 32.1619 58.354 33.5916C58.908 35.006 58.631 36.3666 58.0154 37.5734C58.6618 38.3421 59.3698 39.0109 59.8469 39.8103C60.501 40.9172 60.501 42.1471 60.1547 43.4001C60.0777 43.6845 60.2009 44.1841 60.4163 44.3609C62.3941 46.0367 64.4102 47.6663 66.4803 49.3651C66.8112 48.9731 67.1344 48.581 67.4576 48.2121C68.712 46.7746 70.5512 46.5824 72.0594 47.7585C73.2445 48.6886 74.3988 49.6495 75.5685 50.6104C77.2923 52.0247 77.4847 53.8465 76.0687 55.5914C71.944 60.6648 67.8039 65.7227 63.6715 70.7807C62.6403 72.0413 61.6245 73.3097 60.5856 74.5626C59.162 76.2845 57.3536 76.4613 55.599 75.0623C54.4909 74.1783 53.3981 73.2789 52.3054 72.3872C50.5816 70.9805 50.4046 69.1664 51.8052 67.4061C52.0284 67.1294 52.2438 66.845 52.5055 66.5068C52.1284 66.1916 51.7821 65.9072 51.4435 65.6305C48.1576 62.9401 44.8794 60.2343 41.578 57.567C41.2779 57.3287 40.847 57.1672 40.4622 57.1288C38.7846 56.952 37.0993 56.8751 35.4217 56.6676C34.6137 56.5677 34.0135 56.7214 33.3748 57.2441C30.3197 59.7423 27.2261 62.1868 24.1403 64.6543C23.9325 64.8234 23.7247 65.0002 23.4708 65.2231C24.1095 66.0148 24.7328 66.7758 25.3485 67.5522C26.5951 69.1434 26.4258 70.9805 24.8868 72.2796C23.7324 73.2482 22.5627 74.2013 21.3854 75.1314C19.7001 76.4613 17.8763 76.2922 16.5296 74.6472C11.3198 68.2901 6.11771 61.9177 0.931024 55.5376C-0.44645 53.8465 -0.223284 52.0247 1.4697 50.6334C2.49319 49.7956 3.52437 48.9577 4.55555 48.1198C6.31779 46.6901 7.48749 46.6439 9.44981 47.9891C10.5964 47.0283 11.7738 46.052 12.9512 45.0758C13.3898 44.7068 13.8208 44.3302 14.2748 43.9843C15.1906 43.2925 15.8447 42.739 15.4599 41.2554C14.9058 39.0954 16.0755 37.4351 18.1225 36.3973L18.0917 36.3743ZM10.8658 49.8186C14.5826 54.3769 18.2379 58.8507 21.924 63.3629C22.1934 63.163 22.4088 63.017 22.6166 62.8478C25.8179 60.2881 29.05 57.7745 32.1974 55.1456C33.1747 54.3308 34.1289 54.1232 35.3371 54.2924C37.007 54.523 38.6923 54.6844 40.3776 54.7536C42.7247 54.8535 44.8024 54.0848 46.6108 52.5551C49.966 49.711 53.3597 46.9053 56.7533 44.115C57.6922 43.3463 58.277 42.4777 57.8999 41.2324C57.5383 40.0486 56.661 39.6566 55.4913 39.572C55.1219 39.549 54.5909 39.1031 54.4909 38.7495C54.3909 38.3882 54.7141 37.904 54.9064 37.4889C54.968 37.3505 55.2066 37.2967 55.3374 37.1737C56.0992 36.505 56.4378 35.6364 56.2224 34.6601C56.0069 33.6993 55.2604 33.2534 54.3293 33.0843C54.0061 33.0228 53.6752 32.969 53.352 32.8998C52.0745 32.6154 51.6744 31.5931 52.4285 30.5246C52.7902 30.0096 53.2058 29.5253 53.5367 28.9872C54.2754 27.7881 54.1908 26.9502 53.3135 26.0431C52.4747 25.1822 51.559 25.0823 50.3816 25.7818C49.7813 26.1354 49.2196 26.1661 48.7578 25.6281C48.2576 25.0439 48.4423 24.4981 48.8964 23.9293C49.3581 23.3527 49.8352 22.7378 50.0814 22.0537C50.5047 20.9083 49.9121 19.9705 48.7347 19.6323C47.8344 19.3786 47.0879 19.6554 46.3954 20.2396C44.3176 21.9845 42.2398 23.7217 40.1313 25.4359C39.7158 25.7741 39.6465 26.0508 39.8158 26.5659C40.6469 29.1717 39.0616 31.7929 36.3837 32.3079C36.0066 32.3771 35.6218 32.3848 35.2063 32.4232C35.0293 35.0983 33.6056 36.6433 30.9738 37.1045C31.1123 39.5259 30.0504 41.1709 27.7725 42.0549C27.8495 42.3393 27.9264 42.593 27.9803 42.8543C28.5805 45.4755 27.003 47.9123 24.3866 48.3735C23.0245 48.6118 21.8163 48.2197 20.7697 47.3434C19.6231 46.3826 18.4919 45.3987 17.3376 44.4224C15.1598 46.2365 13.0513 47.9891 10.8658 49.8109V49.8186ZM65.0105 51.2022C62.8866 49.4573 60.8319 47.7893 58.8003 46.0982C58.3463 45.7215 58.1154 46.0367 57.8076 46.2673C53.2981 49.7264 49.3965 53.9849 44.2791 56.7445C47.4881 59.3734 50.7202 62.0177 53.9907 64.7004C57.6691 60.1959 61.3013 55.7452 65.0028 51.2022H65.0105ZM23.9171 69.743C23.6786 69.374 23.5247 69.0511 23.3015 68.7821C21.6162 66.699 19.9232 64.6235 18.2302 62.5481C14.8212 58.3741 11.4121 54.2001 8.00308 50.0262C7.3028 49.1729 6.9642 49.1345 6.1331 49.8186C5.07884 50.6718 4.02457 51.5251 2.98569 52.3937C2.18537 53.0625 2.16229 53.3546 2.82409 54.1924C3.38585 54.8996 3.963 55.5991 4.53246 56.2986C9.08043 61.8716 13.6361 67.4446 18.1841 73.0176C18.8228 73.8016 19.2153 73.8477 19.9925 73.2174C21.0775 72.3488 22.1549 71.4802 23.2092 70.5885C23.4708 70.3656 23.6632 70.0581 23.9171 69.7506V69.743ZM74.7298 53.2854C74.5374 53.0163 74.4142 52.7242 74.1988 52.5398C73.0214 51.5482 71.8286 50.5796 70.6358 49.6188C70.0817 49.1729 69.5892 49.2882 69.1506 49.8263C63.9562 56.1987 58.7618 62.5634 53.5597 68.9281C53.0519 69.5508 53.1288 70.0504 53.7367 70.5424C54.868 71.4417 55.9838 72.3565 57.0996 73.2789C57.7076 73.7786 58.2385 73.7324 58.731 73.1252C63.91 66.7758 69.0813 60.4342 74.2526 54.0771C74.4373 53.8542 74.5528 53.5698 74.7298 53.27V53.2854ZM35.2678 30.0557C36.4914 30.0326 37.1686 29.5868 37.538 28.7412C37.9227 27.8726 37.6688 26.9271 36.8531 26.2276C34.4444 24.1752 32.0281 22.1382 29.5963 20.1089C28.5498 19.2403 27.2415 19.3325 26.4566 20.2703C25.7025 21.1774 25.8256 22.4688 26.826 23.322C29.25 25.3974 31.6895 27.4575 34.152 29.4869C34.5291 29.7943 35.037 29.9327 35.2601 30.048L35.2678 30.0557ZM22.3781 27.6958C22.5551 27.9879 22.7705 28.6259 23.2092 29.0103C25.21 30.7859 27.2646 32.5078 29.327 34.2066C30.312 35.0137 31.5433 34.8754 32.3128 33.976C33.0669 33.0843 32.9823 31.8237 32.0665 30.9781C31.3817 30.3478 30.6506 29.7636 29.9349 29.164C28.6036 28.034 27.28 26.8964 25.941 25.7818C25.233 25.1899 24.4173 25.0746 23.5785 25.482C22.8013 25.8587 22.4473 26.5274 22.3781 27.6958ZM26.2642 39.8564C27.4724 39.8257 28.1111 39.3875 28.4728 38.5727C28.8499 37.7349 28.6498 36.774 27.8956 36.1129C26.3335 34.7447 24.7482 33.4072 23.1553 32.0773C22.0779 31.1703 20.8313 31.201 20.031 32.1235C19.2076 33.0689 19.3461 34.3834 20.4157 35.3058C21.9625 36.6433 23.5093 37.9808 25.0945 39.2722C25.487 39.5951 26.0334 39.7411 26.2642 39.8564ZM17.4761 40.7174C17.8147 41.2554 18.0609 41.8858 18.5073 42.3085C19.7078 43.4385 20.9852 44.4916 22.2549 45.5447C23.2476 46.3672 24.4558 46.2903 25.233 45.3987C26.0026 44.5224 25.9872 43.231 25.0791 42.4008C23.7478 41.1863 22.3627 40.0332 20.9698 38.8879C20.308 38.3421 19.5231 38.3114 18.7689 38.6957C18.0071 39.0877 17.6454 39.7488 17.4761 40.7097V40.7174ZM43.1171 19.9552C41.5473 19.4324 40.139 18.9251 38.7 18.5023C36.8608 17.9643 35.1062 19.148 34.8292 21.0774C34.8061 21.2235 34.8677 21.4464 34.9677 21.531C35.9758 22.4149 37.007 23.2759 38.0536 24.1599C39.7388 22.7532 41.3549 21.4157 43.1171 19.9552Z" fill="white"/>
<path d="M10.866 25.4896C10.3735 25.2667 10.058 25.1591 9.78093 25.0053C8.31881 24.1752 6.86438 23.3373 5.41765 22.4917C4.55577 21.9844 4.30952 21.3925 4.6635 20.7545C5.04058 20.0704 5.70238 19.9704 6.60274 20.4855C8.14182 21.3618 9.69628 22.2073 11.1738 23.1759C11.5278 23.4065 11.8125 24.0675 11.7663 24.4903C11.7279 24.8593 11.1815 25.1744 10.866 25.4973V25.4896Z" fill="white"/>
<path d="M38.8541 4.02801C38.8541 4.92737 38.8695 5.83442 38.8541 6.73378C38.831 7.59471 38.3154 8.17123 37.6228 8.09436C36.8302 8.00212 36.4993 7.49478 36.507 6.71841C36.5224 4.912 36.507 3.10558 36.5147 1.29917C36.5224 0.461305 36.9687 -0.00759382 37.6844 9.30427e-05C38.3846 9.30427e-05 38.831 0.476678 38.8541 1.32223C38.8771 2.2216 38.8541 3.12865 38.8541 4.02801Z" fill="white"/>
<path d="M65.8571 22.8378C65.657 22.6379 65.1799 22.3843 65.0568 22.0076C64.949 21.6694 65.0876 20.9929 65.3492 20.8315C67.1268 19.7169 68.9353 18.6561 70.7975 17.6953C71.0823 17.5492 71.8518 17.849 72.0519 18.1642C72.252 18.4793 72.1904 19.3403 71.9441 19.494C70.128 20.6547 68.2427 21.7001 66.3727 22.7763C66.3034 22.8147 66.1957 22.7993 65.8494 22.8378H65.8571Z" fill="white"/>
<path d="M58.0307 5.32697C57.8537 5.77281 57.7845 6.03416 57.6536 6.26476C56.7918 7.77908 55.9222 9.2857 55.0372 10.7923C54.5524 11.6225 53.8983 11.8531 53.2596 11.4688C52.6593 11.1075 52.5516 10.4464 52.9979 9.65467C53.8906 8.08655 54.7987 6.5338 55.7067 4.97337C56.0376 4.39686 56.5763 4.14319 57.1534 4.41223C57.5228 4.58134 57.7691 5.03487 58.0307 5.32697Z" fill="white"/>
<path d="M19.1998 5.78052C19.3768 5.91888 19.8154 6.11105 20.0232 6.44927C20.9928 8.04046 21.9162 9.66238 22.832 11.2843C23.186 11.9146 23.1244 12.5142 22.478 12.937C21.9085 13.306 21.2083 13.0984 20.7927 12.4066C19.8539 10.8308 18.9381 9.24729 18.0455 7.64074C17.5376 6.71831 17.9916 5.81895 19.1998 5.78052Z" fill="white"/>
</g>
<defs>
<clipPath id="clip0_151_1937">
<rect width="77" height="76" fill="white"/>
</clipPath>
</defs>
</svg>
