<svg xmlns="http://www.w3.org/2000/svg" xmlns:xlink="http://www.w3.org/1999/xlink" width="1080" zoomAndPan="magnify" viewBox="0 0 810 809.999993" height="1080" preserveAspectRatio="xMidYMid meet" version="1.0"><defs><clipPath id="3bab567166"><path d="M 142 119.203125 L 679.84375 119.203125 L 679.84375 672 L 142 672 Z M 142 119.203125 " clip-rule="nonzero"/></clipPath></defs><path fill="#da2d27" d="M 810 405 C 810 411.628906 809.835938 418.253906 809.511719 424.871094 C 809.1875 431.492188 808.699219 438.101562 808.050781 444.695312 C 807.398438 451.292969 806.589844 457.871094 805.617188 464.425781 C 804.644531 470.980469 803.511719 477.511719 802.21875 484.011719 C 800.925781 490.511719 799.472656 496.976562 797.863281 503.40625 C 796.253906 509.835938 794.484375 516.222656 792.5625 522.566406 C 790.636719 528.90625 788.558594 535.199219 786.324219 541.441406 C 784.09375 547.679688 781.707031 553.863281 779.171875 559.988281 C 776.632812 566.109375 773.949219 572.167969 771.117188 578.160156 C 768.28125 584.152344 765.300781 590.070312 762.179688 595.914062 C 759.054688 601.761719 755.789062 607.527344 752.378906 613.210938 C 748.972656 618.898438 745.425781 624.496094 741.746094 630.007812 C 738.0625 635.515625 734.246094 640.933594 730.300781 646.257812 C 726.351562 651.582031 722.273438 656.804688 718.070312 661.929688 C 713.863281 667.054688 709.535156 672.070312 705.085938 676.980469 C 700.632812 681.890625 696.066406 686.691406 691.378906 691.378906 C 686.691406 696.066406 681.890625 700.632812 676.980469 705.085938 C 672.070312 709.535156 667.054688 713.863281 661.929688 718.070312 C 656.804688 722.273438 651.582031 726.351562 646.257812 730.300781 C 640.933594 734.246094 635.515625 738.0625 630.007812 741.746094 C 624.496094 745.425781 618.898438 748.972656 613.210938 752.378906 C 607.527344 755.789062 601.761719 759.054688 595.914062 762.179688 C 590.070312 765.300781 584.152344 768.28125 578.160156 771.117188 C 572.167969 773.949219 566.109375 776.632812 559.988281 779.171875 C 553.863281 781.707031 547.679688 784.09375 541.441406 786.324219 C 535.199219 788.558594 528.90625 790.636719 522.566406 792.5625 C 516.222656 794.484375 509.835938 796.253906 503.40625 797.863281 C 496.976562 799.472656 490.511719 800.925781 484.011719 802.21875 C 477.511719 803.511719 470.980469 804.644531 464.425781 805.617188 C 457.871094 806.589844 451.292969 807.398438 444.695312 808.050781 C 438.101562 808.699219 431.492188 809.1875 424.871094 809.511719 C 418.253906 809.835938 411.628906 810 405 810 C 398.371094 810 391.746094 809.835938 385.128906 809.511719 C 378.507812 809.1875 371.898438 808.699219 365.304688 808.050781 C 358.707031 807.398438 352.128906 806.589844 345.574219 805.617188 C 339.019531 804.644531 332.488281 803.511719 325.988281 802.21875 C 319.488281 800.925781 313.023438 799.472656 306.59375 797.863281 C 300.164062 796.253906 293.777344 794.484375 287.433594 792.5625 C 281.09375 790.636719 274.800781 788.558594 268.558594 786.324219 C 262.320312 784.09375 256.136719 781.707031 250.011719 779.171875 C 243.890625 776.632812 237.832031 773.949219 231.839844 771.117188 C 225.847656 768.28125 219.929688 765.300781 214.085938 762.179688 C 208.238281 759.054688 202.472656 755.789062 196.789062 752.378906 C 191.101562 748.972656 185.503906 745.425781 179.992188 741.746094 C 174.484375 738.0625 169.066406 734.246094 163.742188 730.300781 C 158.417969 726.351562 153.195312 722.273438 148.070312 718.070312 C 142.945312 713.863281 137.929688 709.535156 133.019531 705.085938 C 128.109375 700.632812 123.308594 696.066406 118.621094 691.378906 C 113.933594 686.691406 109.367188 681.890625 104.914062 676.980469 C 100.464844 672.070312 96.136719 667.054688 91.929688 661.929688 C 87.726562 656.804688 83.648438 651.582031 79.699219 646.257812 C 75.753906 640.933594 71.9375 635.515625 68.253906 630.007812 C 64.574219 624.496094 61.027344 618.898438 57.621094 613.210938 C 54.210938 607.527344 50.945312 601.761719 47.820312 595.914062 C 44.699219 590.070312 41.71875 584.152344 38.882812 578.160156 C 36.050781 572.167969 33.363281 566.109375 30.828125 559.988281 C 28.292969 553.863281 25.90625 547.679688 23.675781 541.441406 C 21.441406 535.199219 19.363281 528.90625 17.4375 522.566406 C 15.515625 516.222656 13.746094 509.835938 12.136719 503.40625 C 10.527344 496.976562 9.074219 490.511719 7.78125 484.011719 C 6.488281 477.511719 5.355469 470.980469 4.382812 464.425781 C 3.410156 457.871094 2.601562 451.292969 1.949219 444.695312 C 1.300781 438.101562 0.8125 431.492188 0.488281 424.871094 C 0.164062 418.253906 0 411.628906 0 405 C 0 398.371094 0.164062 391.746094 0.488281 385.128906 C 0.8125 378.507812 1.300781 371.898438 1.949219 365.304688 C 2.601562 358.707031 3.410156 352.128906 4.382812 345.574219 C 5.355469 339.019531 6.488281 332.488281 7.78125 325.988281 C 9.074219 319.488281 10.527344 313.023438 12.136719 306.59375 C 13.746094 300.164062 15.515625 293.777344 17.4375 287.433594 C 19.363281 281.09375 21.441406 274.800781 23.675781 268.558594 C 25.90625 262.320312 28.292969 256.136719 30.828125 250.011719 C 33.363281 243.890625 36.050781 237.832031 38.882812 231.839844 C 41.71875 225.847656 44.699219 219.929688 47.820312 214.085938 C 50.945312 208.238281 54.210938 202.472656 57.621094 196.789062 C 61.027344 191.101562 64.574219 185.503906 68.253906 179.992188 C 71.9375 174.484375 75.753906 169.066406 79.699219 163.742188 C 83.648438 158.417969 87.726562 153.195312 91.929688 148.070312 C 96.136719 142.945312 100.464844 137.929688 104.914062 133.019531 C 109.367188 128.109375 113.933594 123.308594 118.621094 118.621094 C 123.308594 113.933594 128.109375 109.367188 133.019531 104.914062 C 137.929688 100.464844 142.945312 96.136719 148.070312 91.929688 C 153.195312 87.726562 158.417969 83.648438 163.742188 79.699219 C 169.066406 75.753906 174.484375 71.9375 179.992188 68.253906 C 185.503906 64.574219 191.101562 61.027344 196.789062 57.621094 C 202.472656 54.210938 208.238281 50.945312 214.085938 47.820312 C 219.929688 44.699219 225.847656 41.71875 231.839844 38.882812 C 237.832031 36.050781 243.890625 33.367188 250.011719 30.828125 C 256.136719 28.292969 262.320312 25.90625 268.558594 23.675781 C 274.800781 21.441406 281.09375 19.363281 287.433594 17.4375 C 293.777344 15.515625 300.164062 13.746094 306.59375 12.136719 C 313.023438 10.527344 319.488281 9.074219 325.988281 7.78125 C 332.488281 6.488281 339.019531 5.355469 345.574219 4.382812 C 352.128906 3.410156 358.707031 2.601562 365.304688 1.949219 C 371.898438 1.300781 378.507812 0.8125 385.128906 0.488281 C 391.746094 0.164062 398.371094 0 405 0 C 411.628906 0 418.253906 0.164062 424.871094 0.488281 C 431.492188 0.8125 438.101562 1.300781 444.695312 1.949219 C 451.292969 2.601562 457.871094 3.410156 464.425781 4.382812 C 470.980469 5.355469 477.511719 6.488281 484.011719 7.78125 C 490.511719 9.074219 496.976562 10.527344 503.40625 12.136719 C 509.835938 13.746094 516.222656 15.515625 522.566406 17.4375 C 528.90625 19.363281 535.199219 21.441406 541.441406 23.675781 C 547.679688 25.90625 553.863281 28.292969 559.988281 30.828125 C 566.109375 33.367188 572.167969 36.050781 578.160156 38.882812 C 584.152344 41.71875 590.070312 44.699219 595.914062 47.820312 C 601.761719 50.945312 607.527344 54.210938 613.210938 57.621094 C 618.898438 61.027344 624.496094 64.574219 630.007812 68.253906 C 635.515625 71.9375 640.933594 75.753906 646.257812 79.699219 C 651.582031 83.648438 656.804688 87.726562 661.929688 91.929688 C 667.054688 96.136719 672.070312 100.464844 676.980469 104.914062 C 681.890625 109.367188 686.691406 113.933594 691.378906 118.621094 C 696.066406 123.308594 700.632812 128.109375 705.085938 133.019531 C 709.535156 137.929688 713.863281 142.945312 718.070312 148.070312 C 722.273438 153.195312 726.351562 158.417969 730.300781 163.742188 C 734.246094 169.066406 738.0625 174.484375 741.746094 179.992188 C 745.425781 185.503906 748.972656 191.101562 752.378906 196.789062 C 755.789062 202.472656 759.054688 208.238281 762.179688 214.085938 C 765.300781 219.929688 768.28125 225.847656 771.117188 231.839844 C 773.949219 237.832031 776.632812 243.890625 779.171875 250.011719 C 781.707031 256.136719 784.09375 262.320312 786.324219 268.558594 C 788.558594 274.800781 790.636719 281.09375 792.5625 287.433594 C 794.484375 293.777344 796.253906 300.164062 797.863281 306.59375 C 799.472656 313.023438 800.925781 319.488281 802.21875 325.988281 C 803.511719 332.488281 804.644531 339.019531 805.617188 345.574219 C 806.589844 352.128906 807.398438 358.707031 808.050781 365.304688 C 808.699219 371.898438 809.1875 378.507812 809.511719 385.128906 C 809.835938 391.746094 810 398.371094 810 405 Z M 810 405 " fill-opacity="1" fill-rule="nonzero"/><g clip-path="url(#3bab567166)"><path fill="#ffffff" d="M 244.101562 119.207031 C 231.25 119.207031 220.738281 129.71875 220.738281 142.542969 L 220.738281 222.921875 C 220.738281 235.773438 231.25 246.257812 244.101562 246.257812 L 262.234375 246.257812 L 262.234375 278.015625 C 262.234375 282.75 267.738281 285.335938 271.371094 282.335938 L 314.90625 246.257812 L 361.355469 246.257812 L 361.355469 263.265625 C 361.355469 278.289062 373.601562 290.589844 388.628906 290.589844 L 481.035156 290.589844 L 521.15625 323.890625 C 509.679688 336.355469 502.609375 352.949219 502.609375 371.191406 C 502.609375 409.746094 533.980469 441.117188 572.53125 441.117188 C 611.085938 441.117188 642.457031 409.746094 642.457031 371.191406 C 642.457031 332.640625 611.085938 301.269531 572.53125 301.269531 C 562.242188 301.269531 552.5 303.523438 543.695312 307.542969 L 543.695312 290.589844 L 567.085938 290.589844 C 582.109375 290.589844 594.355469 278.289062 594.355469 263.265625 L 594.355469 164.914062 C 594.355469 149.890625 582.109375 137.617188 567.085938 137.617188 L 413.035156 137.617188 C 410.753906 127.132812 401.367188 119.207031 390.222656 119.207031 Z M 244.101562 130.378906 L 390.222656 130.378906 C 395.121094 130.378906 398.425781 133.570312 400.378906 137.617188 L 388.628906 137.617188 C 373.601562 137.617188 361.355469 149.890625 361.355469 164.914062 L 361.355469 235.085938 L 312.898438 235.085938 C 311.605469 235.085938 310.339844 235.527344 309.320312 236.378906 L 273.410156 266.128906 L 273.410156 240.671875 C 273.410156 237.589844 270.902344 235.085938 267.820312 235.085938 L 244.101562 235.085938 C 237.25 235.085938 231.9375 229.777344 231.9375 222.921875 L 231.9375 142.542969 C 231.9375 135.71875 237.25 130.378906 244.101562 130.378906 Z M 388.628906 148.816406 L 567.085938 148.816406 C 576.082031 148.816406 583.183594 155.890625 583.183594 164.914062 L 583.183594 263.265625 C 583.183594 272.292969 576.082031 279.390625 567.085938 279.390625 L 538.109375 279.390625 C 535.027344 279.390625 532.519531 281.894531 532.519531 284.976562 L 532.519531 313.925781 C 531.476562 314.671875 530.457031 315.441406 529.4375 316.210938 L 486.621094 280.683594 C 485.628906 279.859375 484.363281 279.390625 483.042969 279.390625 L 388.628906 279.390625 C 379.628906 279.390625 372.53125 272.292969 372.53125 263.265625 L 372.53125 164.914062 C 372.53125 163.785156 372.640625 162.6875 372.859375 161.640625 C 374.347656 154.238281 380.757812 148.816406 388.628906 148.816406 Z M 407.148438 206.660156 C 399.582031 206.550781 399.582031 217.96875 407.148438 217.859375 L 548.566406 217.859375 C 556.132812 217.96875 556.132812 206.550781 548.566406 206.660156 Z M 407.148438 238.167969 C 399.582031 238.058594 399.582031 249.480469 407.148438 249.367188 L 495.535156 249.367188 C 503.105469 249.480469 503.105469 238.058594 495.535156 238.167969 Z M 530.898438 238.167969 C 523.332031 238.058594 523.332031 249.480469 530.898438 249.367188 L 548.566406 249.367188 C 556.132812 249.480469 556.132812 238.058594 548.566406 238.167969 Z M 249.578125 301.269531 C 211.023438 301.269531 179.652344 332.640625 179.652344 371.191406 C 179.652344 409.746094 211.023438 441.117188 249.578125 441.117188 C 288.128906 441.117188 319.5 409.746094 319.5 371.191406 C 319.5 332.640625 288.128906 301.269531 249.578125 301.269531 Z M 249.578125 312.441406 C 282.105469 312.441406 308.328125 338.695312 308.328125 371.191406 C 308.328125 403.691406 282.105469 429.917969 249.578125 429.917969 C 217.078125 429.917969 190.851562 403.691406 190.851562 371.191406 C 190.851562 338.695312 217.078125 312.441406 249.578125 312.441406 Z M 572.53125 312.441406 C 605.03125 312.441406 631.257812 338.695312 631.257812 371.191406 C 631.257812 403.691406 605.03125 429.917969 572.53125 429.917969 C 540.007812 429.917969 513.78125 403.691406 513.78125 371.191406 C 513.78125 354.132812 521.046875 338.859375 532.605469 328.125 C 532.824219 327.988281 533.042969 327.824219 533.210938 327.660156 C 535.6875 325.402344 538.328125 323.367188 541.132812 321.578125 C 541.164062 321.550781 541.21875 321.523438 541.273438 321.46875 C 550.324219 315.769531 561.003906 312.441406 572.53125 312.441406 Z M 211.023438 448.988281 C 192.945312 449.179688 176.625 458.398438 164.710938 472.269531 C 151.117188 488.117188 142.777344 510.105469 142.777344 533.082031 L 142.777344 665.914062 C 142.777344 668.996094 145.28125 671.5 148.390625 671.5 L 350.625 671.5 C 353.707031 671.5 356.210938 668.996094 356.210938 665.914062 L 356.210938 533.082031 C 356.210938 487.15625 322.886719 449.398438 280.894531 449.398438 C 280.644531 449.398438 280.398438 449.425781 280.179688 449.453125 L 249.523438 453.554688 L 218.839844 449.453125 C 216.199219 449.097656 213.609375 448.960938 211.023438 448.988281 Z M 533.953125 448.988281 C 515.898438 449.179688 499.582031 458.398438 487.667969 472.269531 C 474.042969 488.117188 465.734375 510.105469 465.734375 533.082031 L 465.734375 665.914062 C 465.734375 668.996094 468.238281 671.5 471.320312 671.5 L 673.554688 671.5 C 676.664062 671.5 679.167969 668.996094 679.167969 665.914062 L 679.167969 533.082031 C 679.167969 487.15625 645.84375 449.398438 603.847656 449.398438 C 603.601562 449.398438 603.355469 449.425781 603.105469 449.453125 L 572.449219 453.554688 L 541.796875 449.453125 C 539.152344 449.097656 536.539062 448.960938 533.953125 448.988281 Z M 211.105469 460.160156 C 213.171875 460.160156 215.261719 460.269531 217.355469 460.546875 L 248.78125 464.753906 C 249.246094 464.808594 249.769531 464.808594 250.265625 464.753906 L 281.140625 460.601562 C 316.28125 460.765625 345.039062 492.605469 345.039062 533.082031 L 345.039062 660.328125 L 153.980469 660.328125 L 153.980469 533.082031 C 153.980469 512.828125 161.464844 493.210938 173.214844 479.558594 C 183.449219 467.617188 196.632812 460.269531 211.105469 460.160156 Z M 534.035156 460.160156 C 536.097656 460.160156 538.191406 460.269531 540.308594 460.546875 L 571.707031 464.753906 C 572.203125 464.808594 572.699219 464.808594 573.195312 464.753906 L 604.070312 460.601562 C 639.238281 460.738281 667.96875 492.605469 667.96875 533.082031 L 667.96875 660.328125 L 476.90625 660.328125 L 476.90625 533.082031 C 476.90625 512.828125 484.417969 493.210938 496.140625 479.558594 C 506.40625 467.617188 519.558594 460.269531 534.035156 460.160156 Z M 534.035156 460.160156 " fill-opacity="1" fill-rule="nonzero"/></g></svg>