<svg xmlns="http://www.w3.org/2000/svg" xmlns:xlink="http://www.w3.org/1999/xlink" width="1920" zoomAndPan="magnify" viewBox="0 0 1440 809.999993" height="1080" preserveAspectRatio="xMidYMid meet" version="1.0"><defs><clipPath id="f896203357"><path d="M 592.71875 282.347656 L 849.96875 282.347656 L 849.96875 527.597656 L 592.71875 527.597656 Z M 592.71875 282.347656 " clip-rule="nonzero"/></clipPath></defs><path fill="#da2c27" d="M 882 405 C 882 407.652344 881.933594 410.300781 881.804688 412.949219 C 881.675781 415.597656 881.480469 418.242188 881.21875 420.878906 C 880.960938 423.515625 880.636719 426.148438 880.246094 428.769531 C 879.859375 431.394531 879.40625 434.003906 878.886719 436.605469 C 878.371094 439.203125 877.789062 441.789062 877.144531 444.363281 C 876.5 446.933594 875.792969 449.488281 875.023438 452.027344 C 874.253906 454.5625 873.421875 457.078125 872.53125 459.574219 C 871.636719 462.074219 870.683594 464.546875 869.667969 466.996094 C 868.652344 469.445312 867.578125 471.867188 866.445312 474.265625 C 865.3125 476.660156 864.121094 479.027344 862.871094 481.367188 C 861.621094 483.703125 860.316406 486.011719 858.953125 488.285156 C 857.589844 490.558594 856.171875 492.796875 854.699219 495.003906 C 853.226562 497.207031 851.699219 499.375 850.121094 501.503906 C 848.539062 503.632812 846.910156 505.722656 845.226562 507.773438 C 843.546875 509.820312 841.816406 511.828125 840.035156 513.792969 C 838.253906 515.757812 836.425781 517.675781 834.550781 519.550781 C 832.675781 521.425781 830.757812 523.253906 828.792969 525.035156 C 826.828125 526.816406 824.820312 528.546875 822.773438 530.226562 C 820.722656 531.910156 818.632812 533.539062 816.503906 535.121094 C 814.375 536.699219 812.207031 538.226562 810.003906 539.699219 C 807.796875 541.171875 805.558594 542.589844 803.285156 543.953125 C 801.011719 545.316406 798.703125 546.621094 796.367188 547.871094 C 794.027344 549.121094 791.660156 550.3125 789.265625 551.445312 C 786.867188 552.578125 784.445312 553.652344 781.996094 554.667969 C 779.546875 555.683594 777.074219 556.636719 774.574219 557.53125 C 772.078125 558.421875 769.5625 559.253906 767.027344 560.023438 C 764.488281 560.792969 761.933594 561.5 759.363281 562.144531 C 756.789062 562.789062 754.203125 563.371094 751.605469 563.886719 C 749.003906 564.40625 746.394531 564.859375 743.769531 565.246094 C 741.148438 565.636719 738.515625 565.960938 735.878906 566.21875 C 733.238281 566.480469 730.597656 566.675781 727.949219 566.804688 C 725.300781 566.933594 722.652344 567 720 567 C 717.347656 567 714.699219 566.933594 712.050781 566.804688 C 709.402344 566.675781 706.757812 566.480469 704.121094 566.21875 C 701.484375 565.960938 698.851562 565.636719 696.230469 565.246094 C 693.605469 564.859375 690.996094 564.40625 688.394531 563.886719 C 685.796875 563.371094 683.207031 562.789062 680.636719 562.144531 C 678.066406 561.5 675.511719 560.792969 672.972656 560.023438 C 670.4375 559.253906 667.921875 558.421875 665.421875 557.53125 C 662.925781 556.636719 660.453125 555.683594 658.003906 554.667969 C 655.554688 553.652344 653.132812 552.578125 650.734375 551.445312 C 648.339844 550.3125 645.972656 549.121094 643.632812 547.871094 C 641.296875 546.621094 638.988281 545.316406 636.714844 543.953125 C 634.441406 542.589844 632.203125 541.171875 629.996094 539.699219 C 627.792969 538.226562 625.625 536.699219 623.496094 535.121094 C 621.367188 533.539062 619.277344 531.910156 617.226562 530.226562 C 615.179688 528.546875 613.171875 526.816406 611.207031 525.035156 C 609.242188 523.253906 607.324219 521.425781 605.449219 519.550781 C 603.574219 517.675781 601.746094 515.757812 599.964844 513.792969 C 598.183594 511.828125 596.453125 509.820312 594.773438 507.773438 C 593.089844 505.722656 591.460938 503.632812 589.878906 501.503906 C 588.300781 499.375 586.773438 497.207031 585.300781 495.003906 C 583.828125 492.796875 582.410156 490.558594 581.046875 488.285156 C 579.683594 486.011719 578.378906 483.703125 577.128906 481.367188 C 575.878906 479.027344 574.6875 476.660156 573.554688 474.265625 C 572.421875 471.867188 571.347656 469.445312 570.332031 466.996094 C 569.316406 464.546875 568.363281 462.074219 567.46875 459.574219 C 566.578125 457.078125 565.746094 454.5625 564.976562 452.027344 C 564.207031 449.488281 563.5 446.933594 562.855469 444.363281 C 562.210938 441.789062 561.628906 439.203125 561.113281 436.605469 C 560.59375 434.003906 560.140625 431.394531 559.753906 428.769531 C 559.363281 426.148438 559.039062 423.515625 558.78125 420.878906 C 558.519531 418.242188 558.324219 415.597656 558.195312 412.949219 C 558.066406 410.300781 558 407.652344 558 405 C 558 402.347656 558.066406 399.699219 558.195312 397.050781 C 558.324219 394.402344 558.519531 391.757812 558.78125 389.121094 C 559.039062 386.484375 559.363281 383.851562 559.753906 381.230469 C 560.140625 378.605469 560.59375 375.996094 561.113281 373.394531 C 561.628906 370.796875 562.210938 368.210938 562.855469 365.636719 C 563.5 363.066406 564.207031 360.511719 564.976562 357.972656 C 565.746094 355.4375 566.578125 352.921875 567.46875 350.425781 C 568.363281 347.925781 569.316406 345.453125 570.332031 343.003906 C 571.347656 340.554688 572.421875 338.132812 573.554688 335.734375 C 574.6875 333.339844 575.878906 330.972656 577.128906 328.632812 C 578.378906 326.296875 579.683594 323.988281 581.046875 321.714844 C 582.410156 319.441406 583.828125 317.203125 585.300781 314.996094 C 586.773438 312.792969 588.300781 310.625 589.878906 308.496094 C 591.460938 306.367188 593.089844 304.277344 594.773438 302.226562 C 596.453125 300.179688 598.183594 298.171875 599.964844 296.207031 C 601.746094 294.242188 603.574219 292.324219 605.449219 290.449219 C 607.324219 288.574219 609.242188 286.746094 611.207031 284.964844 C 613.171875 283.183594 615.179688 281.453125 617.226562 279.773438 C 619.277344 278.089844 621.367188 276.460938 623.496094 274.878906 C 625.625 273.300781 627.792969 271.773438 629.996094 270.300781 C 632.203125 268.828125 634.441406 267.410156 636.714844 266.046875 C 638.988281 264.683594 641.296875 263.378906 643.632812 262.128906 C 645.972656 260.878906 648.339844 259.6875 650.734375 258.554688 C 653.132812 257.421875 655.554688 256.347656 658.003906 255.332031 C 660.453125 254.316406 662.925781 253.363281 665.421875 252.46875 C 667.921875 251.578125 670.4375 250.746094 672.972656 249.976562 C 675.511719 249.207031 678.066406 248.5 680.636719 247.855469 C 683.207031 247.210938 685.796875 246.628906 688.394531 246.113281 C 690.996094 245.59375 693.605469 245.140625 696.230469 244.753906 C 698.851562 244.363281 701.484375 244.039062 704.121094 243.78125 C 706.757812 243.519531 709.402344 243.324219 712.050781 243.195312 C 714.699219 243.066406 717.347656 243 720 243 C 722.652344 243 725.300781 243.066406 727.949219 243.195312 C 730.597656 243.324219 733.238281 243.519531 735.878906 243.78125 C 738.515625 244.039062 741.148438 244.363281 743.769531 244.753906 C 746.394531 245.140625 749.003906 245.59375 751.605469 246.113281 C 754.203125 246.628906 756.789062 247.210938 759.363281 247.855469 C 761.933594 248.5 764.488281 249.207031 767.027344 249.976562 C 769.5625 250.746094 772.078125 251.578125 774.574219 252.46875 C 777.074219 253.363281 779.546875 254.316406 781.996094 255.332031 C 784.445312 256.347656 786.867188 257.421875 789.265625 258.554688 C 791.660156 259.6875 794.027344 260.878906 796.367188 262.128906 C 798.703125 263.378906 801.011719 264.683594 803.285156 266.046875 C 805.558594 267.410156 807.796875 268.828125 810.003906 270.300781 C 812.207031 271.773438 814.375 273.300781 816.503906 274.878906 C 818.632812 276.460938 820.722656 278.089844 822.773438 279.773438 C 824.820312 281.453125 826.828125 283.183594 828.792969 284.964844 C 830.757812 286.746094 832.675781 288.574219 834.550781 290.449219 C 836.425781 292.324219 838.253906 294.242188 840.035156 296.207031 C 841.816406 298.171875 843.546875 300.179688 845.226562 302.226562 C 846.910156 304.277344 848.539062 306.367188 850.121094 308.496094 C 851.699219 310.625 853.226562 312.792969 854.699219 314.996094 C 856.171875 317.203125 857.589844 319.441406 858.953125 321.714844 C 860.316406 323.988281 861.621094 326.296875 862.871094 328.632812 C 864.121094 330.972656 865.3125 333.339844 866.445312 335.734375 C 867.578125 338.132812 868.652344 340.554688 869.667969 343.003906 C 870.683594 345.453125 871.636719 347.925781 872.53125 350.421875 C 873.421875 352.921875 874.253906 355.4375 875.023438 357.972656 C 875.792969 360.511719 876.5 363.066406 877.144531 365.636719 C 877.789062 368.210938 878.371094 370.796875 878.886719 373.394531 C 879.40625 375.996094 879.859375 378.605469 880.246094 381.230469 C 880.636719 383.851562 880.960938 386.484375 881.21875 389.121094 C 881.480469 391.757812 881.675781 394.402344 881.804688 397.050781 C 881.933594 399.699219 882 402.347656 882 405 Z M 882 405 " fill-opacity="1" fill-rule="nonzero"/><g clip-path="url(#f896203357)"><path fill="#ffffff" d="M 850.25 406.058594 C 850.25 380.5 829.457031 359.707031 803.902344 359.707031 C 778.34375 359.707031 757.550781 380.5 757.550781 406.058594 C 757.550781 419.960938 763.710938 432.441406 773.4375 440.945312 L 749.144531 457.386719 C 744.753906 453.269531 739.472656 450.089844 733.597656 448.246094 C 733.566406 448.238281 733.535156 448.226562 733.507812 448.21875 C 730.332031 447.230469 726.980469 446.671875 723.53125 446.5 L 723.53125 375.210938 C 730.691406 374.898438 737.433594 372.957031 743.398438 369.742188 C 743.445312 369.722656 743.480469 369.699219 743.527344 369.675781 C 757.992188 361.824219 767.832031 346.496094 767.832031 328.914062 C 767.835938 303.359375 747.042969 282.566406 721.484375 282.566406 C 695.929688 282.566406 675.136719 303.359375 675.136719 328.914062 C 675.136719 346.496094 684.976562 361.824219 699.441406 369.675781 C 699.484375 369.699219 699.527344 369.726562 699.574219 369.746094 C 705.539062 372.957031 712.28125 374.898438 719.441406 375.210938 L 719.441406 446.496094 C 715.988281 446.671875 712.636719 447.226562 709.464844 448.214844 C 709.433594 448.222656 709.40625 448.234375 709.375 448.246094 C 703.496094 450.089844 698.214844 453.269531 693.824219 457.382812 L 669.53125 440.941406 C 679.257812 432.441406 685.417969 419.957031 685.417969 406.054688 C 685.417969 380.5 664.625 359.707031 639.066406 359.707031 C 613.511719 359.707031 592.71875 380.5 592.71875 406.058594 C 592.71875 423.644531 602.5625 438.96875 617.027344 446.824219 C 617.070312 446.84375 617.109375 446.871094 617.15625 446.886719 C 623.683594 450.40625 631.144531 452.40625 639.066406 452.40625 C 646.988281 452.40625 654.453125 450.40625 660.980469 446.886719 C 661.023438 446.871094 661.0625 446.84375 661.105469 446.824219 C 662.871094 445.863281 664.5625 444.785156 666.183594 443.613281 L 690.941406 460.371094 C 689.289062 462.269531 687.816406 464.320312 686.535156 466.5 C 686.414062 466.65625 686.300781 466.816406 686.230469 467.003906 C 682.890625 472.894531 680.957031 479.679688 680.957031 486.921875 C 680.957031 494.164062 682.890625 500.953125 686.230469 506.839844 C 686.300781 507.03125 686.417969 507.195312 686.542969 507.355469 C 691.597656 515.96875 699.710938 522.578125 709.414062 525.609375 C 709.460938 525.625 709.507812 525.640625 709.554688 525.648438 C 713.328125 526.8125 717.332031 527.445312 721.480469 527.445312 C 725.628906 527.445312 729.632812 526.816406 733.402344 525.648438 C 733.453125 525.636719 733.496094 525.625 733.542969 525.609375 C 743.238281 522.582031 751.339844 515.980469 756.398438 507.382812 C 756.535156 507.214844 756.65625 507.039062 756.734375 506.832031 C 760.074219 500.945312 762.007812 494.160156 762.007812 486.921875 C 762.007812 479.683594 760.074219 472.898438 756.734375 467.007812 C 756.660156 466.808594 756.539062 466.636719 756.410156 466.472656 C 755.132812 464.300781 753.667969 462.261719 752.023438 460.371094 L 776.78125 443.617188 C 778.398438 444.789062 780.089844 445.867188 781.859375 446.824219 C 781.902344 446.847656 781.9375 446.871094 781.984375 446.886719 C 788.511719 450.40625 795.972656 452.410156 803.894531 452.410156 C 811.816406 452.410156 819.28125 450.40625 825.808594 446.890625 C 825.855469 446.871094 825.890625 446.847656 825.933594 446.824219 C 840.40625 438.96875 850.25 423.640625 850.25 406.058594 Z M 596.808594 406.058594 C 596.808594 382.753906 615.765625 363.796875 639.070312 363.796875 C 662.375 363.796875 681.332031 382.753906 681.332031 406.058594 C 681.332031 420.886719 673.636719 433.933594 662.050781 441.476562 C 661.46875 433.671875 659.144531 414.949219 650.023438 406.367188 C 653.992188 403.160156 656.535156 398.269531 656.535156 392.785156 C 656.535156 383.15625 648.699219 375.320312 639.070312 375.320312 C 629.441406 375.320312 621.609375 383.15625 621.609375 392.785156 C 621.609375 398.265625 624.152344 403.160156 628.117188 406.367188 C 618.996094 414.949219 616.671875 433.671875 616.09375 441.476562 C 604.5 433.933594 596.808594 420.886719 596.808594 406.058594 Z M 625.695312 392.785156 C 625.695312 385.410156 631.695312 379.410156 639.070312 379.410156 C 646.445312 379.410156 652.445312 385.410156 652.445312 392.785156 C 652.445312 400.160156 646.445312 406.160156 639.070312 406.160156 C 631.695312 406.160156 625.695312 400.160156 625.695312 392.785156 Z M 620.046875 443.746094 C 620.355469 438.15625 622.167969 416.300781 631.746094 408.617188 C 633.976562 409.65625 636.453125 410.25 639.070312 410.25 C 641.6875 410.25 644.164062 409.65625 646.394531 408.617188 C 655.972656 416.300781 657.785156 438.15625 658.09375 443.746094 C 652.367188 446.648438 645.917969 448.320312 639.070312 448.320312 C 632.222656 448.320312 625.773438 446.648438 620.046875 443.746094 Z M 753.617188 504.074219 L 742.578125 504.074219 C 743.777344 499.042969 744.445312 494.007812 744.585938 488.964844 L 757.820312 488.964844 C 757.519531 494.398438 756.054688 499.523438 753.617188 504.074219 Z M 723.53125 523.253906 L 723.53125 508.160156 L 737.210938 508.160156 C 735.78125 512.753906 733.890625 517.339844 731.53125 521.917969 C 728.964844 522.65625 726.289062 523.101562 723.53125 523.253906 Z M 711.441406 521.917969 C 709.078125 517.34375 707.191406 512.753906 705.761719 508.160156 L 719.441406 508.160156 L 719.441406 523.257812 C 716.683594 523.101562 714.003906 522.65625 711.441406 521.917969 Z M 685.152344 488.964844 L 698.386719 488.964844 C 698.527344 494.003906 699.195312 499.042969 700.394531 504.074219 L 689.355469 504.074219 C 686.917969 499.523438 685.453125 494.398438 685.152344 488.964844 Z M 689.351562 469.773438 L 700.398438 469.773438 C 699.195312 474.804688 698.527344 479.839844 698.386719 484.878906 L 685.152344 484.878906 C 685.453125 479.445312 686.917969 474.316406 689.351562 469.773438 Z M 705.835938 454.0625 C 704.0625 457.929688 702.636719 461.808594 701.492188 465.683594 L 691.9375 465.683594 C 695.507812 460.730469 700.28125 456.722656 705.835938 454.0625 Z M 719.441406 450.585938 L 719.441406 465.683594 L 705.765625 465.683594 C 707.195312 461.085938 709.082031 456.5 711.445312 451.921875 C 714.003906 451.1875 716.683594 450.742188 719.441406 450.585938 Z M 731.527344 451.921875 C 733.886719 456.5 735.777344 461.089844 737.207031 465.683594 L 723.53125 465.683594 L 723.53125 450.585938 C 726.289062 450.742188 728.964844 451.1875 731.527344 451.921875 Z M 723.53125 469.773438 L 738.363281 469.773438 C 739.628906 474.800781 740.320312 479.839844 740.46875 484.878906 L 723.53125 484.878906 Z M 719.441406 484.878906 L 702.5 484.878906 C 702.652344 479.839844 703.34375 474.804688 704.605469 469.773438 L 719.441406 469.773438 Z M 702.5 488.964844 L 719.441406 488.964844 L 719.441406 504.074219 L 704.605469 504.074219 C 703.34375 499.042969 702.652344 494.003906 702.5 488.964844 Z M 723.53125 504.074219 L 723.53125 488.964844 L 740.472656 488.964844 C 740.324219 494.003906 739.632812 499.042969 738.367188 504.074219 Z M 744.585938 484.878906 C 744.441406 479.839844 743.773438 474.804688 742.574219 469.773438 L 753.617188 469.773438 C 756.054688 474.316406 757.515625 479.445312 757.820312 484.878906 Z M 741.480469 465.683594 C 740.335938 461.804688 738.910156 457.929688 737.136719 454.0625 C 742.691406 456.722656 747.464844 460.730469 751.035156 465.683594 Z M 702.464844 366.601562 C 702.769531 361.011719 704.574219 339.160156 714.164062 331.476562 C 716.394531 332.511719 718.871094 333.105469 721.484375 333.105469 C 724.101562 333.105469 726.578125 332.511719 728.808594 331.476562 C 738.386719 339.15625 740.199219 361.007812 740.507812 366.601562 C 734.785156 369.503906 728.332031 371.175781 721.484375 371.175781 C 714.640625 371.175781 708.1875 369.503906 702.464844 366.601562 Z M 721.484375 329.019531 C 714.113281 329.019531 708.109375 323.019531 708.109375 315.644531 C 708.109375 308.269531 714.113281 302.269531 721.484375 302.269531 C 728.859375 302.269531 734.859375 308.269531 734.859375 315.644531 C 734.859375 323.019531 728.859375 329.019531 721.484375 329.019531 Z M 679.222656 328.914062 C 679.222656 305.609375 698.183594 286.652344 721.484375 286.652344 C 744.789062 286.652344 763.746094 305.609375 763.746094 328.914062 C 763.746094 343.742188 756.054688 356.789062 744.464844 364.332031 C 743.886719 356.527344 741.5625 337.804688 732.441406 329.222656 C 736.40625 326.019531 738.949219 321.125 738.949219 315.640625 C 738.949219 306.011719 731.113281 298.179688 721.484375 298.179688 C 711.855469 298.179688 704.023438 306.011719 704.023438 315.640625 C 704.023438 321.125 706.566406 326.019531 710.53125 329.222656 C 701.410156 337.804688 699.085938 356.527344 698.507812 364.332031 C 686.917969 356.789062 679.222656 343.742188 679.222656 328.914062 Z M 691.9375 508.160156 L 701.488281 508.160156 C 702.636719 512.039062 704.058594 515.914062 705.835938 519.777344 C 700.28125 517.117188 695.507812 513.109375 691.9375 508.160156 Z M 737.136719 519.777344 C 738.914062 515.910156 740.339844 512.039062 741.484375 508.160156 L 751.035156 508.160156 C 747.464844 513.109375 742.691406 517.117188 737.136719 519.777344 Z M 761.640625 406.058594 C 761.640625 382.753906 780.597656 363.796875 803.902344 363.796875 C 827.207031 363.796875 846.164062 382.753906 846.164062 406.058594 C 846.164062 420.886719 838.46875 433.933594 826.882812 441.476562 C 826.300781 433.671875 823.976562 414.949219 814.855469 406.367188 C 818.824219 403.160156 821.363281 398.269531 821.363281 392.785156 C 821.363281 383.15625 813.53125 375.320312 803.902344 375.320312 C 794.273438 375.320312 786.4375 383.15625 786.4375 392.785156 C 786.4375 398.265625 788.984375 403.160156 792.949219 406.367188 C 783.828125 414.949219 781.503906 433.671875 780.925781 441.476562 C 769.335938 433.933594 761.640625 420.886719 761.640625 406.058594 Z M 790.527344 392.785156 C 790.527344 385.410156 796.527344 379.410156 803.902344 379.410156 C 811.277344 379.410156 817.277344 385.410156 817.277344 392.785156 C 817.277344 400.160156 811.277344 406.160156 803.902344 406.160156 C 796.527344 406.160156 790.527344 400.160156 790.527344 392.785156 Z M 784.878906 443.746094 C 785.1875 438.15625 786.988281 416.308594 796.578125 408.617188 C 798.808594 409.65625 801.285156 410.25 803.902344 410.25 C 806.519531 410.25 808.996094 409.65625 811.226562 408.617188 C 820.804688 416.300781 822.617188 438.15625 822.925781 443.746094 C 817.199219 446.648438 810.75 448.320312 803.902344 448.320312 C 797.054688 448.320312 790.605469 446.648438 784.878906 443.746094 Z M 784.878906 443.746094 " fill-opacity="1" fill-rule="nonzero"/></g></svg>