<svg xmlns="http://www.w3.org/2000/svg" xmlns:xlink="http://www.w3.org/1999/xlink" width="1080" zoomAndPan="magnify" viewBox="0 0 810 809.999993" height="1080" preserveAspectRatio="xMidYMid meet" version="1.0"><defs><clipPath id="d451527783"><path d="M 86.800781 98.363281 L 729.925781 98.363281 L 729.925781 711.488281 L 86.800781 711.488281 Z M 86.800781 98.363281 " clip-rule="nonzero"/></clipPath></defs><path fill="#da2c27" d="M 810 405 C 810 411.628906 809.835938 418.253906 809.511719 424.871094 C 809.1875 431.492188 808.699219 438.101562 808.050781 444.695312 C 807.398438 451.292969 806.589844 457.871094 805.617188 464.425781 C 804.644531 470.980469 803.511719 477.511719 802.21875 484.011719 C 800.925781 490.511719 799.472656 496.976562 797.863281 503.40625 C 796.253906 509.835938 794.484375 516.222656 792.5625 522.566406 C 790.636719 528.90625 788.558594 535.199219 786.324219 541.441406 C 784.09375 547.679688 781.707031 553.863281 779.171875 559.988281 C 776.632812 566.109375 773.949219 572.167969 771.117188 578.160156 C 768.28125 584.152344 765.300781 590.070312 762.179688 595.914062 C 759.054688 601.761719 755.789062 607.527344 752.378906 613.210938 C 748.972656 618.898438 745.425781 624.496094 741.746094 630.007812 C 738.0625 635.515625 734.246094 640.933594 730.300781 646.257812 C 726.351562 651.582031 722.273438 656.804688 718.070312 661.929688 C 713.863281 667.054688 709.535156 672.070312 705.085938 676.980469 C 700.632812 681.890625 696.066406 686.691406 691.378906 691.378906 C 686.691406 696.066406 681.890625 700.632812 676.980469 705.085938 C 672.070312 709.535156 667.054688 713.863281 661.929688 718.070312 C 656.804688 722.273438 651.582031 726.351562 646.257812 730.300781 C 640.933594 734.246094 635.515625 738.0625 630.007812 741.746094 C 624.496094 745.425781 618.898438 748.972656 613.210938 752.378906 C 607.527344 755.789062 601.761719 759.054688 595.914062 762.179688 C 590.070312 765.300781 584.152344 768.28125 578.160156 771.117188 C 572.167969 773.949219 566.109375 776.632812 559.988281 779.171875 C 553.863281 781.707031 547.679688 784.09375 541.441406 786.324219 C 535.199219 788.558594 528.90625 790.636719 522.566406 792.5625 C 516.222656 794.484375 509.835938 796.253906 503.40625 797.863281 C 496.976562 799.472656 490.511719 800.925781 484.011719 802.21875 C 477.511719 803.511719 470.980469 804.644531 464.425781 805.617188 C 457.871094 806.589844 451.292969 807.398438 444.695312 808.050781 C 438.101562 808.699219 431.492188 809.1875 424.871094 809.511719 C 418.253906 809.835938 411.628906 810 405 810 C 398.371094 810 391.746094 809.835938 385.128906 809.511719 C 378.507812 809.1875 371.898438 808.699219 365.304688 808.050781 C 358.707031 807.398438 352.128906 806.589844 345.574219 805.617188 C 339.019531 804.644531 332.488281 803.511719 325.988281 802.21875 C 319.488281 800.925781 313.023438 799.472656 306.59375 797.863281 C 300.164062 796.253906 293.777344 794.484375 287.433594 792.5625 C 281.09375 790.636719 274.800781 788.558594 268.558594 786.324219 C 262.320312 784.09375 256.136719 781.707031 250.011719 779.171875 C 243.890625 776.632812 237.832031 773.949219 231.839844 771.117188 C 225.847656 768.28125 219.929688 765.300781 214.085938 762.179688 C 208.238281 759.054688 202.472656 755.789062 196.789062 752.378906 C 191.101562 748.972656 185.503906 745.425781 179.992188 741.746094 C 174.484375 738.0625 169.066406 734.246094 163.742188 730.300781 C 158.417969 726.351562 153.195312 722.273438 148.070312 718.070312 C 142.945312 713.863281 137.929688 709.535156 133.019531 705.085938 C 128.109375 700.632812 123.308594 696.066406 118.621094 691.378906 C 113.933594 686.691406 109.367188 681.890625 104.914062 676.980469 C 100.464844 672.070312 96.136719 667.054688 91.929688 661.929688 C 87.726562 656.804688 83.648438 651.582031 79.699219 646.257812 C 75.753906 640.933594 71.9375 635.515625 68.253906 630.007812 C 64.574219 624.496094 61.027344 618.898438 57.621094 613.210938 C 54.210938 607.527344 50.945312 601.761719 47.820312 595.914062 C 44.699219 590.070312 41.71875 584.152344 38.882812 578.160156 C 36.050781 572.167969 33.363281 566.109375 30.828125 559.988281 C 28.292969 553.863281 25.90625 547.679688 23.675781 541.441406 C 21.441406 535.199219 19.363281 528.90625 17.4375 522.566406 C 15.515625 516.222656 13.746094 509.835938 12.136719 503.40625 C 10.527344 496.976562 9.074219 490.511719 7.78125 484.011719 C 6.488281 477.511719 5.355469 470.980469 4.382812 464.425781 C 3.410156 457.871094 2.601562 451.292969 1.949219 444.695312 C 1.300781 438.101562 0.8125 431.492188 0.488281 424.871094 C 0.164062 418.253906 0 411.628906 0 405 C 0 398.371094 0.164062 391.746094 0.488281 385.128906 C 0.8125 378.507812 1.300781 371.898438 1.949219 365.304688 C 2.601562 358.707031 3.410156 352.128906 4.382812 345.574219 C 5.355469 339.019531 6.488281 332.488281 7.78125 325.988281 C 9.074219 319.488281 10.527344 313.023438 12.136719 306.59375 C 13.746094 300.164062 15.515625 293.777344 17.4375 287.433594 C 19.363281 281.09375 21.441406 274.800781 23.675781 268.558594 C 25.90625 262.320312 28.292969 256.136719 30.828125 250.011719 C 33.363281 243.890625 36.050781 237.832031 38.882812 231.839844 C 41.71875 225.847656 44.699219 219.929688 47.820312 214.085938 C 50.945312 208.238281 54.210938 202.472656 57.621094 196.789062 C 61.027344 191.101562 64.574219 185.503906 68.253906 179.992188 C 71.9375 174.484375 75.753906 169.066406 79.699219 163.742188 C 83.648438 158.417969 87.726562 153.195312 91.929688 148.070312 C 96.136719 142.945312 100.464844 137.929688 104.914062 133.019531 C 109.367188 128.109375 113.933594 123.308594 118.621094 118.621094 C 123.308594 113.933594 128.109375 109.367188 133.019531 104.914062 C 137.929688 100.464844 142.945312 96.136719 148.070312 91.929688 C 153.195312 87.726562 158.417969 83.648438 163.742188 79.699219 C 169.066406 75.753906 174.484375 71.9375 179.992188 68.253906 C 185.503906 64.574219 191.101562 61.027344 196.789062 57.621094 C 202.472656 54.210938 208.238281 50.945312 214.085938 47.820312 C 219.929688 44.699219 225.847656 41.71875 231.839844 38.882812 C 237.832031 36.050781 243.890625 33.367188 250.011719 30.828125 C 256.136719 28.292969 262.320312 25.90625 268.558594 23.675781 C 274.800781 21.441406 281.09375 19.363281 287.433594 17.4375 C 293.777344 15.515625 300.164062 13.746094 306.59375 12.136719 C 313.023438 10.527344 319.488281 9.074219 325.988281 7.78125 C 332.488281 6.488281 339.019531 5.355469 345.574219 4.382812 C 352.128906 3.410156 358.707031 2.601562 365.304688 1.949219 C 371.898438 1.300781 378.507812 0.8125 385.128906 0.488281 C 391.746094 0.164062 398.371094 0 405 0 C 411.628906 0 418.253906 0.164062 424.871094 0.488281 C 431.492188 0.8125 438.101562 1.300781 444.695312 1.949219 C 451.292969 2.601562 457.871094 3.410156 464.425781 4.382812 C 470.980469 5.355469 477.511719 6.488281 484.011719 7.78125 C 490.511719 9.074219 496.976562 10.527344 503.40625 12.136719 C 509.835938 13.746094 516.222656 15.515625 522.566406 17.4375 C 528.90625 19.363281 535.199219 21.441406 541.441406 23.675781 C 547.679688 25.90625 553.863281 28.292969 559.988281 30.828125 C 566.109375 33.367188 572.167969 36.050781 578.160156 38.882812 C 584.152344 41.71875 590.070312 44.699219 595.914062 47.820312 C 601.761719 50.945312 607.527344 54.210938 613.210938 57.621094 C 618.898438 61.027344 624.496094 64.574219 630.007812 68.253906 C 635.515625 71.9375 640.933594 75.753906 646.257812 79.699219 C 651.582031 83.648438 656.804688 87.726562 661.929688 91.929688 C 667.054688 96.136719 672.070312 100.464844 676.980469 104.914062 C 681.890625 109.367188 686.691406 113.933594 691.378906 118.621094 C 696.066406 123.308594 700.632812 128.109375 705.085938 133.019531 C 709.535156 137.929688 713.863281 142.945312 718.070312 148.070312 C 722.273438 153.195312 726.351562 158.417969 730.300781 163.742188 C 734.246094 169.066406 738.0625 174.484375 741.746094 179.992188 C 745.425781 185.503906 748.972656 191.101562 752.378906 196.789062 C 755.789062 202.472656 759.054688 208.238281 762.179688 214.085938 C 765.300781 219.929688 768.28125 225.847656 771.117188 231.839844 C 773.949219 237.832031 776.632812 243.890625 779.171875 250.011719 C 781.707031 256.136719 784.09375 262.320312 786.324219 268.558594 C 788.558594 274.800781 790.636719 281.09375 792.5625 287.433594 C 794.484375 293.777344 796.253906 300.164062 797.863281 306.59375 C 799.472656 313.023438 800.925781 319.488281 802.21875 325.988281 C 803.511719 332.488281 804.644531 339.019531 805.617188 345.574219 C 806.589844 352.128906 807.398438 358.707031 808.050781 365.304688 C 808.699219 371.898438 809.1875 378.507812 809.511719 385.128906 C 809.835938 391.746094 810 398.371094 810 405 Z M 810 405 " fill-opacity="1" fill-rule="nonzero"/><g clip-path="url(#d451527783)"><path fill="#ffffff" d="M 730.628906 407.644531 C 730.628906 343.75 678.648438 291.769531 614.753906 291.769531 C 550.863281 291.769531 498.882812 343.75 498.882812 407.644531 C 498.882812 442.398438 514.28125 473.605469 538.59375 494.863281 L 477.863281 535.964844 C 466.882812 525.671875 453.6875 517.726562 438.988281 513.117188 C 438.914062 513.09375 438.84375 513.0625 438.765625 513.042969 C 430.835938 510.574219 422.449219 509.183594 413.824219 508.75 L 413.824219 330.527344 C 431.722656 329.746094 448.585938 324.890625 463.492188 316.859375 C 463.609375 316.808594 463.707031 316.746094 463.820312 316.691406 C 499.980469 297.058594 524.582031 258.738281 524.582031 214.78125 C 524.589844 150.894531 472.605469 98.914062 408.714844 98.914062 C 344.824219 98.914062 292.839844 150.894531 292.839844 214.785156 C 292.839844 258.738281 317.445312 297.058594 353.601562 316.691406 C 353.714844 316.746094 353.820312 316.8125 353.9375 316.863281 C 368.847656 324.894531 385.707031 329.746094 403.601562 330.527344 L 403.601562 508.746094 C 394.96875 509.179688 386.589844 510.570312 378.660156 513.035156 C 378.582031 513.058594 378.511719 513.089844 378.433594 513.113281 C 363.738281 517.726562 350.539062 525.671875 339.558594 535.960938 L 278.832031 494.855469 C 303.140625 473.601562 318.542969 442.394531 318.542969 407.636719 C 318.542969 343.746094 266.5625 291.765625 202.667969 291.765625 C 138.777344 291.765625 86.800781 343.75 86.800781 407.644531 C 86.800781 451.609375 111.410156 489.925781 147.570312 509.558594 C 147.679688 509.613281 147.777344 509.675781 147.886719 509.722656 C 164.207031 518.515625 182.863281 523.515625 202.667969 523.515625 C 222.476562 523.515625 241.128906 518.515625 257.449219 509.722656 C 257.5625 509.675781 257.660156 509.613281 257.769531 509.558594 C 262.183594 507.160156 266.410156 504.460938 270.457031 501.535156 L 332.351562 543.425781 C 328.222656 548.171875 324.542969 553.296875 321.339844 558.753906 C 321.035156 559.140625 320.753906 559.539062 320.578125 560.003906 C 312.222656 574.730469 307.386719 591.703125 307.386719 609.804688 C 307.386719 627.910156 312.222656 644.878906 320.570312 659.601562 C 320.753906 660.082031 321.042969 660.488281 321.355469 660.886719 C 333.996094 682.421875 354.28125 698.949219 378.535156 706.527344 C 378.652344 706.5625 378.773438 706.597656 378.890625 706.625 C 388.320312 709.53125 398.328125 711.117188 408.699219 711.117188 C 419.074219 711.117188 429.082031 709.539062 438.511719 706.625 C 438.632812 706.59375 438.746094 706.5625 438.863281 706.527344 C 463.09375 698.957031 483.351562 682.457031 496 660.960938 C 496.34375 660.539062 496.644531 660.09375 496.835938 659.585938 C 505.1875 644.863281 510.015625 627.898438 510.015625 609.804688 C 510.015625 591.707031 505.1875 574.742188 496.835938 560.019531 C 496.648438 559.519531 496.351562 559.089844 496.023438 558.683594 C 492.835938 553.257812 489.171875 548.152344 485.058594 543.429688 L 546.953125 501.539062 C 551 504.472656 555.226562 507.164062 559.648438 509.5625 C 559.753906 509.617188 559.847656 509.675781 559.957031 509.722656 C 576.277344 518.515625 594.933594 523.523438 614.738281 523.523438 C 634.546875 523.523438 653.199219 518.519531 669.523438 509.726562 C 669.632812 509.679688 669.730469 509.617188 669.839844 509.5625 C 706.019531 489.925781 730.628906 451.601562 730.628906 407.644531 Z M 97.019531 407.644531 C 97.019531 349.386719 144.414062 301.988281 202.675781 301.988281 C 260.9375 301.988281 308.328125 349.382812 308.328125 407.644531 C 308.328125 444.71875 289.09375 477.332031 260.125 496.191406 C 258.671875 476.675781 252.863281 429.875 230.0625 408.414062 C 239.976562 400.402344 246.335938 388.171875 246.335938 374.460938 C 246.335938 350.386719 226.75 330.804688 202.679688 330.804688 C 178.609375 330.804688 159.023438 350.386719 159.023438 374.460938 C 159.023438 388.164062 165.382812 400.402344 175.292969 408.414062 C 152.492188 429.871094 146.675781 476.675781 145.230469 496.191406 C 116.253906 477.332031 97.019531 444.714844 97.019531 407.644531 Z M 169.238281 374.464844 C 169.238281 356.03125 184.238281 341.027344 202.675781 341.027344 C 221.109375 341.027344 236.113281 356.03125 236.113281 374.464844 C 236.113281 392.902344 221.109375 407.902344 202.675781 407.902344 C 184.238281 407.902344 169.238281 392.902344 169.238281 374.464844 Z M 155.117188 501.863281 C 155.890625 487.890625 160.421875 433.25 184.367188 414.046875 C 189.941406 416.636719 196.128906 418.125 202.675781 418.125 C 209.21875 418.125 215.40625 416.636719 220.984375 414.046875 C 244.925781 433.25 249.460938 487.886719 250.230469 501.863281 C 235.917969 509.117188 219.792969 513.296875 202.675781 513.296875 C 185.558594 513.296875 169.429688 509.117188 155.117188 501.863281 Z M 489.046875 652.679688 L 461.441406 652.679688 C 464.441406 640.105469 466.113281 627.515625 466.464844 614.914062 L 499.550781 614.914062 C 498.792969 628.496094 495.136719 641.3125 489.046875 652.679688 Z M 413.824219 700.636719 L 413.824219 662.894531 L 448.027344 662.894531 C 444.453125 674.386719 439.730469 685.855469 433.824219 697.292969 C 427.417969 699.140625 420.722656 700.253906 413.824219 700.636719 Z M 383.605469 697.300781 C 377.699219 685.859375 372.976562 674.386719 369.402344 662.902344 L 403.605469 662.902344 L 403.605469 700.640625 C 396.707031 700.253906 390.011719 699.140625 383.605469 697.300781 Z M 317.878906 614.914062 L 350.964844 614.914062 C 351.320312 627.511719 352.992188 640.105469 355.988281 652.679688 L 328.382812 652.679688 C 322.292969 641.3125 318.636719 628.496094 317.878906 614.914062 Z M 328.378906 566.929688 L 355.992188 566.929688 C 352.992188 579.507812 351.320312 592.101562 350.964844 604.695312 L 317.878906 604.695312 C 318.636719 591.113281 322.292969 578.292969 328.378906 566.929688 Z M 369.59375 527.660156 C 365.160156 537.328125 361.59375 547.015625 358.730469 556.710938 L 334.84375 556.710938 C 343.765625 544.328125 355.703125 534.304688 369.59375 527.660156 Z M 403.605469 518.964844 L 403.605469 556.710938 L 369.410156 556.710938 C 372.988281 545.21875 377.707031 533.746094 383.609375 522.304688 C 390.011719 520.464844 396.707031 519.351562 403.605469 518.964844 Z M 433.820312 522.304688 C 439.722656 533.75 444.441406 545.222656 448.019531 556.710938 L 413.824219 556.710938 L 413.824219 518.964844 C 420.722656 519.351562 427.417969 520.464844 433.820312 522.304688 Z M 413.824219 566.929688 L 450.910156 566.929688 C 454.070312 579.503906 455.796875 592.101562 456.175781 604.695312 L 413.824219 604.695312 Z M 403.605469 604.695312 L 361.25 604.695312 C 361.628906 592.101562 363.355469 579.507812 366.511719 566.929688 L 403.605469 566.929688 Z M 361.25 614.914062 L 403.605469 614.914062 L 403.605469 652.679688 L 366.511719 652.679688 C 363.355469 640.105469 361.628906 627.511719 361.25 614.914062 Z M 413.824219 652.679688 L 413.824219 614.914062 L 456.179688 614.914062 C 455.804688 627.511719 454.078125 640.105469 450.921875 652.679688 Z M 466.464844 604.695312 C 466.109375 592.101562 464.429688 579.507812 461.4375 566.929688 L 489.046875 566.929688 C 495.136719 578.292969 498.789062 591.109375 499.550781 604.695312 Z M 458.703125 556.710938 C 455.835938 547.011719 452.277344 537.328125 447.839844 527.660156 C 461.726562 534.304688 473.664062 544.328125 482.589844 556.710938 Z M 361.160156 309 C 361.925781 295.023438 366.433594 240.402344 390.410156 221.1875 C 395.988281 223.78125 402.175781 225.265625 408.714844 225.265625 C 415.253906 225.265625 421.441406 223.78125 427.023438 221.1875 C 450.96875 240.386719 455.5 295.019531 456.269531 309 C 441.957031 316.253906 425.832031 320.433594 408.714844 320.433594 C 391.597656 320.441406 375.472656 316.253906 361.160156 309 Z M 408.714844 215.046875 C 390.277344 215.046875 375.277344 200.042969 375.277344 181.609375 C 375.277344 163.171875 390.277344 148.171875 408.714844 148.171875 C 427.152344 148.171875 442.152344 163.171875 442.152344 181.609375 C 442.152344 200.042969 427.152344 215.046875 408.714844 215.046875 Z M 303.0625 214.785156 C 303.0625 156.523438 350.457031 109.132812 408.714844 109.132812 C 466.972656 109.132812 514.367188 156.523438 514.367188 214.785156 C 514.367188 251.855469 495.136719 284.472656 466.164062 303.332031 C 464.710938 283.8125 458.902344 237.011719 436.101562 215.558594 C 446.011719 207.546875 452.371094 195.3125 452.371094 181.601562 C 452.371094 157.53125 432.785156 137.945312 408.714844 137.945312 C 384.644531 137.945312 365.058594 157.53125 365.058594 181.601562 C 365.058594 195.308594 371.417969 207.546875 381.328125 215.558594 C 358.527344 237.011719 352.710938 283.8125 351.265625 303.328125 C 322.292969 284.472656 303.0625 251.855469 303.0625 214.785156 Z M 334.84375 662.902344 L 358.722656 662.902344 C 361.585938 672.59375 365.148438 682.28125 369.589844 691.945312 C 355.703125 685.296875 343.765625 675.277344 334.84375 662.902344 Z M 447.84375 691.941406 C 452.28125 682.277344 455.847656 672.59375 458.714844 662.894531 L 482.589844 662.894531 C 473.664062 675.277344 461.726562 685.296875 447.84375 691.941406 Z M 509.101562 407.644531 C 509.101562 349.386719 556.492188 301.988281 614.753906 301.988281 C 673.015625 301.988281 720.410156 349.386719 720.410156 407.644531 C 720.410156 444.71875 701.175781 477.332031 672.203125 496.191406 C 670.753906 476.675781 664.941406 429.871094 642.144531 408.414062 C 652.054688 400.402344 658.414062 388.171875 658.414062 374.460938 C 658.414062 350.386719 638.828125 330.804688 614.753906 330.804688 C 590.683594 330.804688 571.097656 350.386719 571.097656 374.460938 C 571.097656 388.164062 577.460938 400.402344 587.371094 408.414062 C 564.574219 429.875 558.761719 476.675781 557.3125 496.191406 C 528.339844 477.332031 509.101562 444.714844 509.101562 407.644531 Z M 581.316406 374.464844 C 581.316406 356.03125 596.320312 341.027344 614.753906 341.027344 C 633.191406 341.027344 648.191406 356.03125 648.191406 374.464844 C 648.191406 392.902344 633.191406 407.902344 614.753906 407.902344 C 596.320312 407.902344 581.316406 392.902344 581.316406 374.464844 Z M 567.199219 501.863281 C 567.964844 487.890625 572.472656 433.269531 596.445312 414.046875 C 602.023438 416.636719 608.214844 418.125 614.753906 418.125 C 621.296875 418.125 627.488281 416.636719 633.0625 414.046875 C 657.007812 433.25 661.539062 487.886719 662.3125 501.863281 C 648 509.117188 631.871094 513.296875 614.753906 513.296875 C 597.636719 513.296875 581.511719 509.117188 567.199219 501.863281 Z M 567.199219 501.863281 " fill-opacity="1" fill-rule="nonzero"/></g></svg>