<svg width="65" height="68" viewBox="0 0 65 68" fill="none" xmlns="http://www.w3.org/2000/svg">
<g clip-path="url(#clip0_151_1924)">
<path d="M62.1891 4.33594H3.29346V48.8372H62.1891V4.33594Z" stroke="white" stroke-width="2" stroke-linecap="round" stroke-linejoin="round"/>
<path d="M62.4487 0.713135H2.55128C1.54028 0.713135 0.720703 1.52414 0.720703 2.52457C0.720703 3.52499 1.54028 4.336 2.55128 4.336H62.4487C63.4597 4.336 64.2793 3.52499 64.2793 2.52457C64.2793 1.52414 63.4597 0.713135 62.4487 0.713135Z" stroke="white" stroke-width="2" stroke-linecap="round" stroke-linejoin="round"/>
<path d="M23.1992 12.4375H10.7383V24.7609H23.1992V12.4375Z" stroke="white" stroke-width="2" stroke-linecap="round" stroke-linejoin="round"/>
<path d="M29.1597 12.4375H53.9374" stroke="white" stroke-width="2" stroke-linecap="round" stroke-linejoin="round"/>
<path d="M29.1597 18.6777H53.9374" stroke="white" stroke-width="2" stroke-linecap="round" stroke-linejoin="round"/>
<path d="M29.1597 24.9106H53.9374" stroke="white" stroke-width="2" stroke-linecap="round" stroke-linejoin="round"/>
<path d="M32.7412 48.8374V67.2869" stroke="white" stroke-width="2" stroke-linecap="round" stroke-linejoin="round"/>
<path d="M32.6836 57.8945L23.1992 67.2869" stroke="white" stroke-width="2" stroke-linecap="round" stroke-linejoin="round"/>
<path d="M32.7412 57.8945L42.2328 67.2869" stroke="white" stroke-width="2" stroke-linecap="round" stroke-linejoin="round"/>
<path d="M11.0698 31.1509H53.9371" stroke="white" stroke-width="2" stroke-linecap="round" stroke-linejoin="round"/>
<path d="M11.0698 37.384H53.9371" stroke="white" stroke-width="2" stroke-linecap="round" stroke-linejoin="round"/>
<path d="M11.0698 43.624H53.9371" stroke="white" stroke-width="2" stroke-linecap="round" stroke-linejoin="round"/>
</g>
<defs>
<clipPath id="clip0_151_1924">
<rect width="65" height="68" fill="white"/>
</clipPath>
</defs>
</svg>
