<?xml version="1.0" encoding="utf-8"?>
<!-- Generator: Adobe Illustrator 28.0.0, SVG Export Plug-In . SVG Version: 6.00 Build 0)  -->
<svg version="1.1" id="Layer_1" xmlns="http://www.w3.org/2000/svg" xmlns:xlink="http://www.w3.org/1999/xlink" x="0px" y="0px"
	 viewBox="0 0 52 78" style="enable-background:new 0 0 52 78;" xml:space="preserve">
<style type="text/css">
	.st0{fill:none;stroke:#FFFFFF;stroke-width:2;stroke-linecap:round;stroke-linejoin:round;}
	.st1{fill:none;stroke:#FFFFFF;stroke-width:2;stroke-miterlimit:10;}
</style>
<path class="st0" d="M31.2,76.4l8.5-7.6l10.8,3.3l-7.8-35.2c-1.3,1.6-3.8,4.2-7.8,6c-2.8,1.3-5.3,1.7-7,1.8
	c-0.6,2.8-1.2,5.6-1.9,8.4L31.2,76.4z"/>
<path class="st0" d="M20.8,76.4l-8.5-7.6L1.6,72.1l7.8-35.2c1.2,1.5,3.7,4.1,7.6,6c4.7,2.2,8.9,2.1,10.9,1.9
	C25.5,55.3,23.2,65.9,20.8,76.4z"/>
<path class="st1" d="M26,44.8c11.9,0,21.5-9.7,21.5-21.6c0-11.9-9.6-21.6-21.5-21.6S4.5,11.2,4.5,23.2C4.5,35.1,14.1,44.8,26,44.8z"
	/>
<path class="st0" d="M26,13.7l2.9,5.8l6.4,0.9L30.6,25l1.1,6.4l-5.7-3l-5.7,3l1.1-6.4l-4.6-4.5l6.4-0.9L26,13.7z"/>
</svg>
