<svg id="Layer_1" data-name="Layer 1" xmlns="http://www.w3.org/2000/svg" viewBox="0 0 698.21 144.66"><defs><style>.cls-1{fill:#bc202e;}.cls-2{fill:#58595b;}.cls-3{fill:#be1e2d;}</style></defs><path class="cls-1" d="M43.86,111.18C43.86,68,77,38.85,119.76,38.85c37.73,0,56.18,21.39,64.57,40.68l-36.48,17a30,30,0,0,0-28.09-20.34c-19.29,0-32.92,15.51-32.92,35s13.63,35,32.92,35a30,30,0,0,0,28.09-20.33l36.48,16.77c-8.18,18.66-26.84,40.88-64.57,40.88-42.77,0-75.9-29.35-75.9-72.33" transform="translate(-43.86 -38.85)"/><rect class="cls-1" x="149.47" y="2.31" width="42.35" height="139.84"/><path class="cls-1" d="M321,38.85c-43.18,0-76.52,29.35-76.52,72.33s33.34,72.33,76.52,72.33,76.52-29.35,76.52-72.33S364.19,38.85,321,38.85m0,107.34c-20.33,0-33.54-15.51-33.54-35s13.21-35,33.54-35,33.55,15.51,33.55,35-13.21,35-33.55,35" transform="translate(-43.86 -38.85)"/><path class="cls-2" d="M425.43,148.87c-7.9,0-12.91,6.06-12.91,14.28s5,14.27,12.91,14.27,12.9-6.11,12.9-14.27-5.05-14.28-12.9-14.28m0-3.9c10.37,0,17.44,7.8,17.44,18.18s-7.07,18.17-17.44,18.17S408,173.52,408,163.15,415,145,425.43,145" transform="translate(-43.86 -38.85)"/><polygon class="cls-2" points="405.85 106.7 428.88 106.7 428.88 110.6 410.23 110.6 410.23 121.92 428.51 121.92 428.51 125.82 410.23 125.82 410.23 141.84 405.85 141.84 405.85 106.7"/><path class="cls-2" d="M490.86,163.15c0-10.8,8-18.18,17.92-18.18a15.79,15.79,0,0,1,13.48,6.95L518.58,154a11.94,11.94,0,0,0-9.8-5.11c-7.54,0-13.39,5.9-13.39,14.28s5.85,14.27,13.39,14.27a11.79,11.79,0,0,0,9.8-5.11l3.74,2.06a16,16,0,0,1-13.54,6.95c-10,0-17.92-7.37-17.92-18.17" transform="translate(-43.86 -38.85)"/><path class="cls-2" d="M533.33,169h15.22L541,149.45Zm16.54,3.9H532.06l-3.1,7.8h-4.85l14.12-35.14h5.42l14.18,35.14H553Z" transform="translate(-43.86 -38.85)"/><polygon class="cls-2" points="522.92 113.49 522.92 141.84 518.55 141.84 518.55 106.7 523.03 106.7 543.26 134.46 543.26 106.7 547.63 106.7 547.63 141.84 543.41 141.84 522.92 113.49"/><path class="cls-2" d="M605.3,169h15.22l-7.58-19.54Zm16.54,3.9H604l-3.1,7.8h-4.85l14.12-35.14h5.42l14.18,35.14H625Z" transform="translate(-43.86 -38.85)"/><path class="cls-2" d="M646.39,176.79c8.54,0,13.49-6.11,13.49-13.64s-4.79-13.7-13.49-13.7h-7.64v27.34Zm-12-31.24h12c10.91,0,18,7.64,18,17.6s-7.11,17.54-18,17.54h-12Z" transform="translate(-43.86 -38.85)"/><path class="cls-2" d="M674.9,169h15.22l-7.58-19.54Zm16.54,3.9H673.63l-3.1,7.8h-4.85l14.12-35.14h5.42l14.17,35.14h-4.84Z" transform="translate(-43.86 -38.85)"/><path class="cls-2" d="M419.33,123.48h15.22L427,103.93Zm16.54,3.89H418.06l-3.11,7.8h-4.84L424.23,100h5.42l14.17,35.14H439Z" transform="translate(-43.86 -38.85)"/><path class="cls-2" d="M448.15,126.9a14.84,14.84,0,0,0,11.06,5c6.27,0,8.27-3.37,8.27-6.05,0-4.22-4.27-5.38-8.9-6.64-5.64-1.48-11.91-3.06-11.91-10,0-5.79,5.16-9.75,12.07-9.75,5.37,0,9.53,1.8,12.48,4.9l-2.63,3.22a13.45,13.45,0,0,0-10.17-4.22c-4.21,0-7.22,2.27-7.22,5.59,0,3.53,4.06,4.58,8.54,5.79,5.74,1.53,12.27,3.32,12.27,10.7,0,5.11-3.47,10.32-13,10.32-6.11,0-10.59-2.31-13.48-5.58Z" transform="translate(-43.86 -38.85)"/><path class="cls-2" d="M479,126.9a14.85,14.85,0,0,0,11.06,5c6.27,0,8.27-3.37,8.27-6.05,0-4.22-4.26-5.38-8.9-6.64-5.63-1.48-11.9-3.06-11.9-10,0-5.79,5.16-9.75,12.06-9.75,5.37,0,9.53,1.8,12.49,4.9l-2.64,3.22a13.43,13.43,0,0,0-10.17-4.22c-4.21,0-7.21,2.27-7.21,5.59,0,3.53,4.05,4.58,8.53,5.79,5.74,1.53,12.28,3.32,12.28,10.7,0,5.11-3.48,10.32-13,10.32-6.11,0-10.59-2.31-13.49-5.58Z" transform="translate(-43.86 -38.85)"/><path class="cls-2" d="M525.44,103.35c-7.91,0-12.91,6.06-12.91,14.28s5,14.28,12.91,14.28,12.9-6.12,12.9-14.28-5.05-14.28-12.9-14.28m0-3.9c10.37,0,17.43,7.8,17.43,18.18s-7.06,18.17-17.43,18.17S508,128,508,117.63s7-18.18,17.44-18.18" transform="translate(-43.86 -38.85)"/><path class="cls-2" d="M548.3,117.63c0-10.8,8-18.18,17.92-18.18a15.8,15.8,0,0,1,13.48,7l-3.69,2a11.91,11.91,0,0,0-9.79-5.11c-7.54,0-13.39,5.9-13.39,14.28s5.85,14.28,13.39,14.28a11.77,11.77,0,0,0,9.79-5.12l3.75,2.06a16,16,0,0,1-13.54,7c-10,0-17.92-7.37-17.92-18.17" transform="translate(-43.86 -38.85)"/><rect class="cls-2" x="541.48" y="61.18" width="4.37" height="35.14"/><path class="cls-2" d="M603.52,123.48h15.22l-7.58-19.55Zm16.54,3.89H602.25l-3.1,7.8H594.3L608.42,100h5.42L628,135.17h-4.85Z" transform="translate(-43.86 -38.85)"/><polygon class="cls-2" points="593.9 65.08 582.79 65.08 582.79 61.18 609.44 61.18 609.44 65.08 598.27 65.08 598.27 96.32 593.9 96.32 593.9 65.08"/><rect class="cls-2" x="615.24" y="61.18" width="4.37" height="35.14"/><path class="cls-2" d="M687.71,103.35c-7.9,0-12.91,6.06-12.91,14.28s5,14.28,12.91,14.28,12.91-6.12,12.91-14.28-5.06-14.28-12.91-14.28m0-3.9c10.38,0,17.44,7.8,17.44,18.18s-7.06,18.17-17.44,18.17-17.44-7.79-17.44-18.17,7-18.18,17.44-18.18" transform="translate(-43.86 -38.85)"/><polygon class="cls-2" points="692.85 61.18 692.85 88.94 672.62 61.18 668.14 61.18 668.14 96.32 672.51 96.32 672.51 67.97 693 96.32 697.22 96.32 697.22 61.18 692.85 61.18"/><path class="cls-3" d="M723.29,142.83c-4.27,4.44-4.89,6.39-4.27,8.95l-3.26-.61c0,4.65,3.24,7.78,2.37,8.59s-4.22-3.34-4.22-3.34-.88,2.42-1.3,2.36l-3.5-2.36-5-1.4c.24.9.36,4,1.1,5.55l2.12,2.87a2.78,2.78,0,0,1-2.12,1.35c0,2.91,6.81,3.77,6.81,3.77-1.29,1.52-6,2.6-6.15,3,0,0,4.23,2.51,6.15,3a7.26,7.26,0,0,0,4.07-.55,4.47,4.47,0,0,0,.36,1.8c3.33,0,4.64-3.44,5.79-3.56.23,0,0,8.27,0,8.27h1.23s-.22-8.34,0-8.27c2.16.69,2.73,4.18,5.79,4.18s6.46-1.06,9.36-1.87c-2.9-1.7-3.61-4.41-7.82-4.41,0,0,7.82-1.52,8.51-4.74-2.35-.55-2.35-1.9-2.35-1.9,1.66,0,3.56-1.8,5.09-7.62-2.81-.8-8.83,3-8.83,3L732,156.42s-4.36,3.72-4.86,3.34,2.84-3.94,2.84-8.59l-2.84.61c.84-2.08,0-4.51-3.8-8.95" transform="translate(-43.86 -38.85)"/></svg>