<svg xmlns="http://www.w3.org/2000/svg" width="155" height="41" viewBox="0 0 155 41" fill="none"><path d="M0.446379 19.6983C0.446378 30.5689 9.54269 39.4097 20.7275 39.4097L20.7275 30.8038C14.4274 30.8038 9.28379 25.8214 9.28379 19.6815C9.28379 13.8771 13.8751 9.09606 19.7092 8.60957C20.2615 8.55924 20.7103 8.07275 20.7103 7.53592L20.7103 1.0773C20.7103 0.439823 20.1752 -0.0466691 19.5366 0.00365819C8.92132 0.607581 0.446379 9.21349 0.446379 19.6983Z" fill="#0A057B"></path><path d="M20.7467 30.8038L20.7467 39.4097C31.5346 39.4097 40.3893 31.1728 41.0106 20.839C41.0452 20.2183 40.5446 19.6983 39.906 19.6983C39.906 19.6983 33.6576 19.6983 33.2607 19.6983C32.8637 19.6983 32.2078 19.9667 32.156 20.8055C31.7935 26.4085 26.6499 30.8038 20.7467 30.8038Z" fill="#3540F4"></path><path d="M30.8959 3.52672C27.2258 3.52672 24.2506 6.41834 24.2506 9.98534C24.2506 13.5523 27.2258 16.444 30.8959 16.444C34.5661 16.444 37.5413 13.5523 37.5413 9.98534C37.5413 6.41834 34.5661 3.52672 30.8959 3.52672Z" fill="#F7B219"></path><path d="M74.79 23.9056C73.2883 28.8208 68.5244 32.2095 62.8457 32.2095C55.4582 32.2095 49.9866 26.791 49.9866 19.7452C49.9866 12.7162 55.4754 7.28088 62.8457 7.28088C68.5244 7.28088 73.2883 10.6863 74.79 15.5848C75.0834 16.3901 74.6001 16.9101 73.7716 16.9101H68.4381C67.7995 16.9101 67.368 16.6249 66.9882 16.1049C66.1079 14.9306 64.6063 14.2596 62.863 14.2596C59.7043 14.2596 57.2878 16.4739 57.2878 19.7284C57.2878 22.9829 59.7215 25.1973 62.863 25.1973C64.6063 25.1973 66.1079 24.543 66.9882 23.4023C67.368 22.8319 67.7649 22.5467 68.4381 22.5467H73.7716C74.6001 22.5971 75.0834 23.1171 74.79 23.9056Z" fill="#0A057B"></path><path d="M104.167 19.7618C104.167 26.7908 98.9199 32.2261 92.568 32.2261C89.323 32.2261 86.9583 31.1525 85.3358 29.3575V39.8255C85.3358 40.5804 84.9043 40.9998 84.1275 40.9998H79.2773C78.5006 40.9998 78.0691 40.5804 78.0691 39.8255V9.14281C78.0691 8.3879 78.5006 7.96851 79.2773 7.96851H84.1275C84.9043 7.96851 85.3358 8.3879 85.3358 9.14281V10.1661C86.9583 8.37113 89.323 7.29749 92.568 7.29749C98.9371 7.29749 104.167 12.7328 104.167 19.7618ZM96.8831 19.7618C96.8831 16.2221 94.4494 14.0077 91.1008 14.0077C87.7523 14.0077 85.3185 16.2221 85.3185 19.7618C85.3185 23.3015 87.7523 25.5158 91.1008 25.5158C94.4666 25.5158 96.8831 23.3015 96.8831 19.7618Z" fill="#0A057B"></path><path d="M106.359 19.7618C106.359 12.7328 112.089 7.29749 119.218 7.29749C126.346 7.29749 132.077 12.716 132.077 19.7618C132.077 26.7908 126.346 32.2261 119.218 32.2261C112.089 32.2261 106.359 26.7908 106.359 19.7618ZM124.81 19.7618C124.81 16.4067 122.376 14.1923 119.235 14.1923C116.076 14.1923 113.66 16.4067 113.66 19.7618C113.66 23.1169 116.093 25.3313 119.235 25.3313C122.376 25.3313 124.81 23.1169 124.81 19.7618Z" fill="#0A057B"></path><path d="M154.551 24.4759C154.551 29.8945 149.787 32.2095 144.454 32.2095C139.5 32.2095 135.03 30.0454 134.46 25.0295C134.356 24.2243 134.857 23.8049 135.634 23.8049H140.398C141.123 23.8049 141.364 24.1907 141.709 24.7947C142.106 25.5999 143.021 26.0696 144.471 26.0696C146.508 26.0696 147.285 25.4154 147.285 24.4592C147.285 21.0537 134.615 24.174 134.615 15.0145C134.615 9.6798 139.379 7.28088 144.471 7.28088C148.993 7.28088 153.412 9.44494 153.982 14.4609C154.085 15.2661 153.602 15.6855 152.808 15.6855H148.044C147.319 15.6855 147.077 15.2996 146.732 14.6454C146.387 13.8905 145.558 13.4208 144.454 13.4208C142.659 13.4208 141.882 14.075 141.882 15.0312C141.882 18.5373 154.551 15.2829 154.551 24.4759Z" fill="#0A057B"></path></svg>