<svg width="127" height="48" viewBox="0 0 127 48" fill="none" xmlns="http://www.w3.org/2000/svg">
<rect width="127" height="48" fill="#1E1E1E"/>
<g id="Home" clip-path="url(#clip0_0_1)">
<rect width="1920" height="9017" transform="translate(-541 -141)" fill="#FAFAFA"/>
<g id="Nav Bar">
<g id="Hackathon Logos">
<g id="Seneca">
<g id="seneca-logo">
<g id="b">
<path id="Path 8903" d="M0.0740051 34.7368H4.92001C7.84301 34.7368 9.766 36.2898 9.766 38.8428V38.8808C9.766 41.6728 7.43501 43.1158 4.682 43.1158H1.53401V47.6828H0.0740051V34.7398V34.7368ZM4.734 41.7828C6.879 41.7828 8.284 40.6348 8.284 38.9338V38.8978C8.284 37.0488 6.89801 36.0868 4.80801 36.0868H1.53401V41.7868L4.734 41.7828Z" fill="#DA291C"/>
<path id="Path 8904" d="M11.111 41.2488V41.2108C11.1085 40.3441 11.2768 39.4854 11.6061 38.6837C11.9355 37.882 12.4196 37.153 13.0307 36.5384C13.6418 35.9237 14.368 35.4355 15.1678 35.1015C15.9675 34.7675 16.8253 34.5943 17.692 34.5918C18.5587 34.5893 19.4175 34.7576 20.2192 35.0869C21.0209 35.4163 21.7499 35.9004 22.3645 36.5115C22.9791 37.1226 23.4674 37.8488 23.8014 38.6486C24.1353 39.4484 24.3085 40.3061 24.311 41.1728V41.2088C24.3135 42.0756 24.1453 42.9343 23.8159 43.736C23.4865 44.5377 23.0025 45.2667 22.3914 45.8813C21.7803 46.4959 21.0541 46.9842 20.2543 47.3182C19.4545 47.6521 18.5967 47.8253 17.73 47.8278C16.8633 47.8303 16.0046 47.6621 15.2029 47.3327C14.4012 47.0033 13.6722 46.5193 13.0575 45.9082C12.4429 45.2971 11.9547 44.5709 11.6207 43.7711C11.2867 42.9713 11.1135 42.1135 11.111 41.2468V41.2488ZM22.798 41.2488V41.2108C22.8245 40.5224 22.7126 39.8356 22.4688 39.1912C22.225 38.5468 21.8543 37.958 21.3787 37.4595C20.903 36.9611 20.3322 36.5631 19.7 36.2894C19.0677 36.0156 18.387 35.8716 17.698 35.8658C17.0127 35.8676 16.3348 36.0079 15.7051 36.2782C15.0753 36.5485 14.5067 36.9433 14.0334 37.4389C13.56 37.9345 13.1917 38.5206 12.9506 39.1621C12.7094 39.8036 12.6004 40.4872 12.63 41.1718V41.2078C12.6035 41.8963 12.7154 42.583 12.9593 43.2274C13.2031 43.8718 13.5738 44.4607 14.0494 44.9591C14.525 45.4576 15.0958 45.8555 15.7281 46.1293C16.3603 46.403 17.0411 46.547 17.73 46.5528C18.4153 46.551 19.0932 46.4108 19.723 46.1405C20.3527 45.8701 20.9213 45.4753 21.3947 44.9798C21.868 44.4842 22.2363 43.8981 22.4775 43.2566C22.7186 42.6151 22.8277 41.9315 22.798 41.2468V41.2488Z" fill="#DA291C"/>
<path id="Path 8905" d="M26.663 34.7368H28.123V46.3368H35.41V47.6878H26.663V34.7398V34.7368Z" fill="#DA291C"/>
<path id="Path 8906" d="M39.015 42.5607L33.635 34.7397H35.41L39.774 41.2127L44.174 34.7397H45.874L40.494 42.5397V47.6817H39.015V42.5587V42.5607Z" fill="#DA291C"/>
<path id="Path 8907" d="M50.886 36.0878H46.541V34.7368H56.713V36.0878H52.368V47.6878H50.889V36.0878H50.886Z" fill="#DA291C"/>
<path id="Path 8908" d="M58.707 34.7368H68.065V36.0678H60.165V40.4868H67.23V41.8178H60.165V46.3488H68.153V47.6798H58.704V34.7368H58.707Z" fill="#DA291C"/>
<path id="Path 8909" d="M69.783 41.2488V41.2108C69.7592 40.3374 69.9111 39.468 70.2297 38.6544C70.5483 37.8408 71.0272 37.0995 71.6379 36.4746C72.2486 35.8496 72.9786 35.3537 73.7846 35.0164C74.5906 34.6791 75.4563 34.5071 76.33 34.5108C77.268 34.4828 78.2016 34.6509 79.071 35.0042C79.9403 35.3576 80.7264 35.8884 81.379 36.5628L80.379 37.6368C79.8567 37.0806 79.2268 36.6363 78.5274 36.3312C77.8281 36.0261 77.074 35.8664 76.311 35.8618C75.6301 35.8697 74.9577 36.0145 74.3339 36.2877C73.7101 36.5609 73.1476 36.9568 72.6801 37.4519C72.2125 37.947 71.8493 38.5312 71.6122 39.1696C71.3752 39.8079 71.269 40.4875 71.3 41.1678V41.2038C71.2682 41.8862 71.3736 42.568 71.61 43.2089C71.8463 43.8499 72.2088 44.4369 72.676 44.9352C73.1432 45.4336 73.7057 45.8332 74.33 46.1103C74.9544 46.3875 75.628 46.5366 76.311 46.5488C77.0998 46.5478 77.8795 46.3811 78.5996 46.0592C79.3197 45.7374 79.9641 45.2678 80.491 44.6808L81.453 45.6228C80.8063 46.3545 80.0083 46.9368 79.1142 47.3294C78.2201 47.7221 77.2513 47.9157 76.275 47.8968C75.4071 47.9021 74.547 47.7322 73.7462 47.3974C72.9454 47.0626 72.2204 46.5697 71.6145 45.9483C71.0087 45.3268 70.5344 44.5895 70.22 43.7805C69.9056 42.9714 69.7577 42.1073 69.785 41.2398L69.783 41.2488Z" fill="#DA291C"/>
<path id="Path 8910" d="M83.264 34.7368H84.724V40.4868H92.195V34.7368H93.655V47.6808H92.195V41.8568H84.724V47.6808H83.264V34.7368Z" fill="#DA291C"/>
<path id="Path 8911" d="M96.577 34.7368H97.947L106.102 45.1108V34.7368H107.527V47.6808H106.363L98.005 37.0658V47.6808H96.58V34.7368H96.577Z" fill="#DA291C"/>
<path id="Path 8912" d="M110.573 34.7368H112.033V47.6808H110.573V34.7368Z" fill="#DA291C"/>
<path id="Path 8913" d="M114.513 41.2488V41.2108C114.489 40.3374 114.641 39.468 114.96 38.6544C115.278 37.8408 115.757 37.0995 116.368 36.4746C116.979 35.8496 117.709 35.3537 118.515 35.0164C119.321 34.6791 120.186 34.5071 121.06 34.5108C121.998 34.4828 122.932 34.6509 123.801 35.0042C124.67 35.3576 125.456 35.8884 126.109 36.5628L125.109 37.6368C124.587 37.0806 123.957 36.6363 123.257 36.3312C122.558 36.0261 121.804 35.8664 121.041 35.8618C120.36 35.8697 119.688 36.0145 119.064 36.2877C118.44 36.5609 117.878 36.9568 117.41 37.4519C116.942 37.947 116.579 38.5312 116.342 39.1696C116.105 39.8079 115.999 40.4875 116.03 41.1678V41.2038C115.998 41.8862 116.104 42.568 116.34 43.2089C116.576 43.8499 116.939 44.4369 117.406 44.9352C117.873 45.4336 118.436 45.8332 119.06 46.1103C119.684 46.3875 120.358 46.5366 121.041 46.5488C121.83 46.5478 122.609 46.3811 123.33 46.0592C124.05 45.7374 124.694 45.2678 125.221 44.6808L126.183 45.6228C125.536 46.3545 124.738 46.9368 123.844 47.3294C122.95 47.7221 121.981 47.9157 121.005 47.8968C120.137 47.9019 119.277 47.732 118.476 47.3971C117.676 47.0623 116.951 46.5694 116.345 45.9479C115.739 45.3265 115.265 44.5893 114.95 43.7803C114.636 42.9713 114.488 42.1073 114.515 41.2398L114.513 41.2488Z" fill="#DA291C"/>
</g>
<g id="c">
<path id="Path 8914" d="M8.451 23.9649C10.951 23.9649 12.481 22.6749 12.481 21.0279C12.481 18.5279 9.742 17.8199 6.027 15.9019C2.348 14.0229 0.43 11.3249 0.43 8.19386C0.43 3.69586 4.065 0.484863 10.172 0.484863C12.446 0.501926 14.6985 0.925948 16.823 1.73686V6.19686C15.1409 5.19375 13.256 4.57879 11.306 4.39686C9.191 4.39686 7.824 5.56886 7.824 6.97986C7.824 9.17186 10.643 9.95486 15.218 12.4589C18.27 14.1409 19.681 16.4499 19.681 19.6589C19.681 24.6279 15.572 28.0749 9.235 28.0749C6.55283 28.0379 3.89488 27.5612 1.367 26.6639L0 21.0279C3.09 22.9069 5.709 23.9649 8.451 23.9649Z" fill="#DA291C"/>
<path id="Path 8915" d="M28.596 18.1318C28.596 18.3698 28.558 18.6108 28.558 18.8108C28.558 22.2408 30.793 24.2408 34.426 24.2408C36.226 24.2408 38.382 23.4848 41.094 22.2058L39.659 26.8358C37.3829 27.6863 34.9793 28.1458 32.55 28.1948C25.403 28.1948 21.211 24.1618 21.211 18.1708C21.211 12.1798 25.596 7.94678 31.589 7.94678C36.901 7.94678 40.851 11.6998 40.851 17.6118V18.1298H28.596V18.1318ZM31.396 11.6608C29.837 11.6608 28.84 12.6988 28.758 14.6168H33.87C33.87 12.6608 32.991 11.6608 31.396 11.6608Z" fill="#DA291C"/>
<path id="Path 8916" d="M43.331 24.08V12.2591C43.3928 11.5961 43.3026 10.9277 43.0671 10.3049C42.8316 9.6821 42.457 9.12124 41.972 8.66505H43.81C45.9478 8.69517 48.0844 8.54867 50.198 8.22705L50.357 10.1861C51.7109 8.97759 53.4545 8.29677 55.269 8.26805C59.463 8.26805 62.178 10.9441 62.178 15.2971V24.0821C62.1164 24.7389 62.2069 25.4011 62.4426 26.0173C62.6783 26.6334 63.0528 27.187 63.537 27.635H53.795C54.2788 27.1868 54.6528 26.6331 54.888 26.0169C55.1232 25.4007 55.2132 24.7387 55.151 24.0821V17.976C55.151 14.261 54.672 12.3051 52.633 12.3051C50.594 12.3051 50.362 14.259 50.362 17.976V24.0851C50.3005 24.7416 50.3907 25.4035 50.6259 26.0196C50.861 26.6357 51.2347 27.1894 51.718 27.6381H41.972C42.4563 27.19 42.8307 26.6364 43.0664 26.0203C43.3021 25.4041 43.3926 24.7419 43.331 24.0851" fill="#DA291C"/>
<path id="Path 8917" d="M71.736 18.1318C71.736 18.3698 71.698 18.6108 71.698 18.8108C71.698 22.2408 73.933 24.2408 77.566 24.2408C79.366 24.2408 81.522 23.4848 84.234 22.2058L82.799 26.8358C80.5228 27.6858 78.1193 28.1453 75.69 28.1948C68.543 28.1948 64.351 24.1618 64.351 18.1708C64.351 12.1798 68.745 7.94678 74.734 7.94678C80.046 7.94678 83.996 11.6998 83.996 17.6118V18.1298H71.736V18.1318ZM74.536 11.6608C72.977 11.6608 71.98 12.6988 71.898 14.6168H77.01C77.01 12.6608 76.133 11.6608 74.536 11.6608Z" fill="#DA291C"/>
<path id="Path 8918" d="M103.235 26.8767C101.263 27.7586 99.1245 28.208 96.964 28.1947C90.293 28.1947 86.064 23.9627 86.064 18.3327C86.064 12.3827 90.576 7.99072 97.646 7.99072C99.1456 8.03333 100.641 8.17968 102.12 8.42872V13.1817C100.932 12.4592 99.5932 12.0214 98.208 11.9027C95.573 11.9027 93.855 13.9027 93.855 17.3757C93.855 21.4877 95.893 24.0027 99.246 24.0027C101.167 23.9001 103.032 23.3233 104.676 22.3237L103.241 26.8767H103.235Z" fill="#DA291C"/>
<path id="Path 8919" d="M112.165 22.0027C112.165 23.4027 113.165 24.3617 114.921 24.3617H115.239L113.562 27.9147C112.442 27.9937 111.683 28.0357 111.203 28.0357C107.25 28.0357 104.576 25.4797 104.576 22.0857C104.576 19.1327 106.453 17.2557 110.126 16.3767C113.638 15.5387 115.917 15.6177 115.917 13.7027C115.917 12.5027 115.079 11.8647 113.399 11.8647C111.652 11.9021 109.929 12.2819 108.328 12.9827L110.202 8.70872C111.651 8.2571 113.158 8.01532 114.676 7.99072C117.791 7.99072 120.026 8.62872 121.464 10.1087C123.141 11.8267 123.182 13.9827 123.182 16.7357V21.5267C123.182 23.6037 123.9 24.2027 126.176 24.5267L124.661 27.8797C123.623 27.9587 122.905 28.0007 122.426 28.0007C118.594 28.0007 115.876 25.6417 115.876 22.0887V18.7317C113.4 19.6877 112.161 20.4087 112.161 22.0057" fill="#DA291C"/>
</g>
</g>
</g>
</g>
</g>
</g>
<defs>
<clipPath id="clip0_0_1">
<rect width="1920" height="9017" fill="white" transform="translate(-541 -141)"/>
</clipPath>
</defs>
</svg>
