<?xml version="1.0" encoding="UTF-8"?><svg id="Layer_1" xmlns="http://www.w3.org/2000/svg" viewBox="0 0 1200 1200"><defs><style>.cls-1{stroke:#fff;stroke-miterlimit:10;stroke-width:26.53px;}.cls-1,.cls-2{fill:none;}.cls-2{stroke:#d92d27;stroke-linecap:round;stroke-linejoin:round;stroke-width:67.08px;}.cls-3{fill:#d92d27;stroke-width:0px;}</style></defs><path class="cls-3" d="m378.07,743.75c10.97,9.76,22.61,18.63,35.57,25.5,24.22,12.84,54.2,17.79,79.11,6.33-15.9-21.66-21.28-50.68-14.21-76.6,7.07-25.92,26.45-48.19,51.14-58.77,22.32-9.57,47.4-9.68,71.69-9.64,68.63.11,137.26.23,205.89.34,38.37.06,80,1.22,109.95,25.21,5.17,4.14,13.4,8.69,17.32,3.35,1.43-1.95,1.49-4.55,1.5-6.96.16-66.05.32-132.1.48-198.15.02-9.59-.08-19.67-4.78-28.02-4.02-7.14-10.93-12.12-17.62-16.86-119.84-84.97-239.67-169.93-359.51-254.9-91.13,64.67-182.27,129.34-273.4,194.01-29.62,21.02-59.17,42.13-88.86,63.05-13.2,9.31-16.48,11.59-18.1,28.43-1.76,18.24-2.79,36.55-3.07,54.87-.19,12.15,0,24.61,4.35,35.96,5.06,13.23,15.25,23.72,25.18,33.81,49.95,50.77,99.91,101.53,149.86,152.3,8.94,9.09,17.98,18.24,27.52,26.73Z"/><path class="cls-3" d="m763.12,816.09c-115.48-.24-228.96-.15-344.44.09-8.52.02-14.65-2.41-20.78-8.6-53.38-53.96-107.1-107.6-160.78-161.27-37.28-37.27-74.36-74.74-112.08-111.56-12.84-12.53-31.23-17.46-48.03-10.14-17.05,7.43-31.32,27.12-29.51,46.16,1.55,16.28,14.3,28.68,23.32,41.3,11.15,15.6,22.59,30.99,33.87,46.5,65.67,90.27,131.57,180.38,196.86,270.92,15.88,22.01,36.37,34.03,63,37.49,64.73,8.4,129.44,17.04,194.08,26.11,102.7,14.41,205.35,29.19,308,43.97,9.83,1.42,19.43,3.19,27.97,9.68,29.75,22.62,60.05,44.52,89.97,66.91,9.65,7.22,17.59,7.16,26.13-2.18,43.84-48.01,89.41-94.42,133.35-142.36,5.98-6.52,11.75-13.28,18.13-19.4,2.63-2.52,3.69-6.38,3.51-9.95-.09-1.82-.56-3.68-1.28-5.35-.31-.72-.72-1.39-1.2-2.02-1.27-1.67-2.99-3.06-4.46-4.5-2.39-2.33-4.8-4.63-7.22-6.93-4.84-4.59-9.72-9.13-14.6-13.68-6.39-5.96-12.78-11.92-19.04-18.01-67.28-65.38-136.96-128.27-203.32-194.65-19.67-19.67-45.06-30.87-72.57-31.21-90.19-1.12-180.42-1.08-270.62-.16-39.86.41-67.01,30.74-62.68,65.62,2.61,21,17.46,36.52,36.25,44.87,20.23,8.98,40.86,8.47,62.43,8.21.66,0,1.32-.02,1.98-.02.64,0,1.28-.01,1.92-.01,16.86-.03,33.72-.06,50.57-.1,33.72-.08,67.43-.17,101.15-.26,10.19-.75,18.83,7.17,19.16,16.64.35,9.87-8.42,18.61-19.06,17.91Z"/><rect class="cls-1" x="434.24" y="324.12" width="94.04" height="94.04"/><rect class="cls-1" x="580.96" y="324.12" width="94.04" height="94.04"/><rect class="cls-1" x="434.24" y="470.84" width="94.04" height="94.04"/><rect class="cls-1" x="580.96" y="470.84" width="94.04" height="94.04"/><polyline class="cls-2" points="102.75 400.55 554.63 79.96 1006.49 400.55"/></svg>