<?xml version="1.0" encoding="UTF-8"?><svg id="Layer_1" xmlns="http://www.w3.org/2000/svg" viewBox="0 0 1200 1200"><defs><style>.cls-1{fill:#d92d27;stroke-width:0px;}</style></defs><circle class="cls-1" cx="265.03" cy="334.13" r="133.53"/><circle class="cls-1" cx="928.28" cy="334.13" r="133.53"/><path class="cls-1" d="m156.32,964.59c.2-10.87,1.29-21.78-1.89-32.38-1.57-5.26-4.2-10.17-8.07-14.09-4.73-4.79-11.15-6.12-16.3-10.26-8.66-6.97-14.83-16.69-19.7-26.56-6.72-13.63-10.19-28.79-10.32-43.97-.48-55.98-1.66-112.12-.08-168.08.25-8.95.68-17.9,1.42-26.82,4.22-50.85,19.65-105.7,70.26-127.83,24.29-10.62,51.57-14.32,77.84-15.73,26.97-1.45,54.4-1.18,80.47-9.21,18.5-5.7,34.62-17.1,50.96-27.13,15.64-9.6,27.7-20.49,40.6-33.31,18.83-18.71,37.05-38.12,54.31-58.28,18.65-21.79,34.26-46.19,51.99-68.74,9.3-11.82,20.11-22.93,34.71-27.83,15.35-5.15,32.18-4.9,47.46.37,18.78,6.48,35.57,20.64,43.79,38.9,1.67,3.7,2.95,7.5,3.9,11.37,4.07,16.63,1.88,34.49-3.29,50.58-5.47,17.04-12.27,33.64-20.03,49.77-20.56,42.69-47.7,82.31-79.02,117.81-32.38,36.71-69.08,69.25-105.11,102.28-3.02,2.77-3.95,9.04-3.96,13.69-.15,97.28-.01,194.56.03,291.83,0,6.19-.56,12.39-.35,18.58.18,5.52.63,11.04-2.79,15.8-3.29,4.57-9.12,6.64-14.72,7.19-14.79,1.45-30.38.14-45.24.14h-186.91c-6.21,0-12.41.34-18.62.36-8.93.03-16.79-2.08-19.84-11.38-1.76-5.39-1.58-11.47-1.48-17.07Z"/><path class="cls-1" d="m1010.93,992.98c7.97-.34,16.65-.88,23.93-4.45,2.96-1.45,5.66-3.54,7.25-6.48,2.23-4.1,1.89-9.2,1.96-13.71.1-6.22.12-12.44-.02-18.66-.13-6.05-1.03-12.28.2-18.26,1.78-8.66,8.92-13.93,16.06-18.24.16-.1.32-.19.48-.29,21.12-12.65,39.15-29,39.37-55.64.65-80.98,1.4-162-.82-242.92-.54-19.85-8.59-41.82-19.63-58.57-23.22-35.21-60.13-51.97-101.11-55.34-35.88-2.95-71.99-2.69-107.32-11.24-1.88-.45-3.23-1.09-3.59-1.22-36.67-12.81-62.32-33.15-82.51-51.56-52.75-48.12-62.28-77.7-77.63-73.61-9.58,2.55-11.64,15.61-22.37,45.54-4.47,12.49-9.35,24.83-14.62,37.01-4.41,10.19-9.15,20.6-14.46,30.5-5.27,9.84-11.81,19-16.33,29.24-2.81,6.37-4.95,13.86-4.04,20.85.29,2.2.89,4.36,1.84,6.37,2.8,5.92,10.67,14.34,16.04,19.35,5.05,4.71,10.56,8.93,15.47,13.79,25.33,25.11,51.12,49.77,76.16,75.17,4.3,4.36,8.06,11.39,8.26,17.31.93,27.43.57,54.9.59,82.36.06,76.33-.18,152.66.58,228.99.16,15.88,12.28,23.79,26.99,23.7,14.22-.08,28.27-.3,42.5-.27,19.15.04,38.31.09,57.46.03,9-.03,18-.08,27.01-.17.77,0,1.53-.02,2.3-.02m70.3,5.59-137.05-483.7c-.06,0-.12-.01-.19-.02-.03-.03-.06-.06-.08-.08.09.04.18.07.27.1Z"/><path class="cls-1" d="m600.68,896.82s104.71-66.35,122.3-106.37c17.59-40.02-.6-86.72-40.62-104.31-28.07-12.34-59.39-2.45-81.68,15.61-22.29-18.05-53.61-27.94-81.68-15.61-40.02,17.59-58.2,64.29-40.62,104.31,17.59,40.02,122.3,106.37,122.3,106.37Z"/></svg>