<?xml version="1.0" encoding="UTF-8"?><svg id="Layer_1" xmlns="http://www.w3.org/2000/svg" viewBox="0 0 1200 1200"><defs><style>.cls-1{stroke-miterlimit:10;}.cls-1,.cls-2,.cls-3{fill:none;stroke:#fff;}.cls-1,.cls-3{stroke-width:32px;}.cls-2{stroke-width:32.23px;}.cls-2,.cls-3{stroke-linejoin:round;}.cls-4{fill:#d92d27;stroke-width:0px;}</style></defs><path class="cls-4" d="m577.25,127.63l-407.34,210.53c-17.13,8.85-27.89,26.52-27.89,45.81v641.35c0,28.48,23.08,51.56,51.56,51.56h814.69c28.48,0,51.56-23.08,51.56-51.56V383.97c0-19.28-10.76-36.95-27.89-45.81l-407.34-210.53c-14.85-7.67-32.5-7.67-47.35,0Z"/><line class="cls-3" x1="600.92" y1="1076.87" x2="600.92" y2="512.11"/><circle class="cls-1" cx="600.92" cy="447.22" r="64.88"/><circle class="cls-1" cx="339.25" cy="596.35" r="64.88"/><circle class="cls-1" cx="848.69" cy="682.78" r="64.88"/><polyline class="cls-2" points="722.37 1076.87 722.37 887.05 813.23 747.67"/><polyline class="cls-3" points="600.92 834.1 447.99 783.39 369.02 661.23"/></svg>