<?xml version="1.0" encoding="UTF-8"?><svg id="Layer_1" xmlns="http://www.w3.org/2000/svg" viewBox="0 0 1200 1200"><defs><style>.cls-1{fill:none;stroke:#fff;stroke-miterlimit:10;stroke-width:26.53px;}.cls-2{fill:#d92d27;stroke-width:0px;}</style></defs><path class="cls-2" d="m981.26,699.22c.03-12.43.06-24.86.09-37.3.02-9.59-.08-19.67-4.78-28.02-4.02-7.14-10.93-12.12-17.62-16.86l-359.51-254.9c-91.13,64.67-182.27,129.34-273.4,194.01-29.62,21.02-59.17,42.13-88.85,63.05-13.2,9.31-16.48,11.59-18.1,28.43-.53,5.46-.81,10.92-.95,16.39v390.21c0,11.05,8.95,20,20,20h723.22c11.05,0,20-8.95,20-20v-351.58c0-1.15-.03-2.3-.09-3.44Z"/><rect class="cls-1" x="479.09" y="531.69" width="94.04" height="94.04"/><rect class="cls-1" x="625.81" y="531.69" width="94.04" height="94.04"/><rect class="cls-1" x="479.09" y="678.41" width="94.04" height="94.04"/><rect class="cls-1" x="625.81" y="678.41" width="94.04" height="94.04"/><path class="cls-2" d="m1149.98,291.52L602.63,126.18c-1.88-.57-3.9-.57-5.78,0L49.47,291.34c-9.46,2.85-9.49,16.24-.04,19.14l76.04,23.29v198.72c-6.62,4.47-10.97,12.03-10.97,20.62,0,8.09,3.86,15.27,9.85,19.81l-11.93,20.66-22.1,38.28c-2.82,4.88-1.04,11.1,3.91,13.8,9.71,5.3,25.29,11.59,45.13,11.59s35.41-6.29,45.13-11.59c4.95-2.7,6.73-8.92,3.91-13.8l-22.1-38.28-11.93-20.66c5.98-4.54,9.85-11.72,9.85-19.81,0-8.58-4.35-16.15-10.97-20.62v-190.22l57.82,17.71c4.2,1.29,7.07,5.17,7.07,9.56v217.14c0,8.16,9.24,12.88,15.85,8.11l359.91-259.7c3.49-2.52,8.21-2.52,11.7,0l359.91,259.7c6.61,4.77,15.85.05,15.85-8.11v-217.14c0-4.4,2.87-8.28,7.08-9.56l161.58-49.33c9.45-2.89,9.44-16.28-.03-19.14Z"/></svg>